<?xml version="1.0" encoding="utf-8" standalone="no"?>
<!DOCTYPE svg PUBLIC "-//W3C//DTD SVG 1.1//EN"
  "http://www.w3.org/Graphics/SVG/1.1/DTD/svg11.dtd">
<svg xmlns:xlink="http://www.w3.org/1999/xlink" width="460.8pt" height="345.6pt" viewBox="0 0 460.8 345.6" xmlns="http://www.w3.org/2000/svg" version="1.1">
 <metadata>
  <rdf:RDF xmlns:dc="http://purl.org/dc/elements/1.1/" xmlns:cc="http://creativecommons.org/ns#" xmlns:rdf="http://www.w3.org/1999/02/22-rdf-syntax-ns#">
   <cc:Work>
    <dc:type rdf:resource="http://purl.org/dc/dcmitype/StillImage"/>
    <dc:date>2024-08-07T13:39:43.418457</dc:date>
    <dc:format>image/svg+xml</dc:format>
    <dc:creator>
     <cc:Agent>
      <dc:title>Matplotlib v3.9.1, https://matplotlib.org/</dc:title>
     </cc:Agent>
    </dc:creator>
   </cc:Work>
  </rdf:RDF>
 </metadata>
 <defs>
  <style type="text/css">*{stroke-linejoin: round; stroke-linecap: butt}</style>
 </defs>
 <g id="figure_1">
  <g id="patch_1">
   <path d="M 0 345.6 
L 460.8 345.6 
L 460.8 0 
L 0 0 
z
" style="fill: #ffffff"/>
  </g>
  <g id="axes_1">
   <g id="patch_2">
    <path d="M 57.6 307.584 
L 414.72 307.584 
L 414.72 41.472 
L 57.6 41.472 
z
" style="fill: #ffffff"/>
   </g>
   <g id="matplotlib.axis_1">
    <g id="xtick_1">
     <g id="line2d_1">
      <defs>
       <path id="m52d75c37b9" d="M 0 0 
L 0 3.5 
" style="stroke: #000000; stroke-width: 0.8"/>
      </defs>
      <g>
       <use xlink:href="#m52d75c37b9" x="73.182117" y="307.584" style="stroke: #000000; stroke-width: 0.8"/>
      </g>
     </g>
     <g id="text_1">
      <!-- 0 -->
      <g transform="translate(70.000867 322.182437) scale(0.1 -0.1)">
       <defs>
        <path id="DejaVuSans-30" d="M 2034 4250 
Q 1547 4250 1301 3770 
Q 1056 3291 1056 2328 
Q 1056 1369 1301 889 
Q 1547 409 2034 409 
Q 2525 409 2770 889 
Q 3016 1369 3016 2328 
Q 3016 3291 2770 3770 
Q 2525 4250 2034 4250 
z
M 2034 4750 
Q 2819 4750 3233 4129 
Q 3647 3509 3647 2328 
Q 3647 1150 3233 529 
Q 2819 -91 2034 -91 
Q 1250 -91 836 529 
Q 422 1150 422 2328 
Q 422 3509 836 4129 
Q 1250 4750 2034 4750 
z
" transform="scale(0.015625)"/>
       </defs>
       <use xlink:href="#DejaVuSans-30"/>
      </g>
     </g>
    </g>
    <g id="xtick_2">
     <g id="line2d_2">
      <g>
       <use xlink:href="#m52d75c37b9" x="138.243148" y="307.584" style="stroke: #000000; stroke-width: 0.8"/>
      </g>
     </g>
     <g id="text_2">
      <!-- 1 -->
      <g transform="translate(135.061898 322.182437) scale(0.1 -0.1)">
       <defs>
        <path id="DejaVuSans-31" d="M 794 531 
L 1825 531 
L 1825 4091 
L 703 3866 
L 703 4441 
L 1819 4666 
L 2450 4666 
L 2450 531 
L 3481 531 
L 3481 0 
L 794 0 
L 794 531 
z
" transform="scale(0.015625)"/>
       </defs>
       <use xlink:href="#DejaVuSans-31"/>
      </g>
     </g>
    </g>
    <g id="xtick_3">
     <g id="line2d_3">
      <g>
       <use xlink:href="#m52d75c37b9" x="203.304179" y="307.584" style="stroke: #000000; stroke-width: 0.8"/>
      </g>
     </g>
     <g id="text_3">
      <!-- 2 -->
      <g transform="translate(200.122929 322.182437) scale(0.1 -0.1)">
       <defs>
        <path id="DejaVuSans-32" d="M 1228 531 
L 3431 531 
L 3431 0 
L 469 0 
L 469 531 
Q 828 903 1448 1529 
Q 2069 2156 2228 2338 
Q 2531 2678 2651 2914 
Q 2772 3150 2772 3378 
Q 2772 3750 2511 3984 
Q 2250 4219 1831 4219 
Q 1534 4219 1204 4116 
Q 875 4013 500 3803 
L 500 4441 
Q 881 4594 1212 4672 
Q 1544 4750 1819 4750 
Q 2544 4750 2975 4387 
Q 3406 4025 3406 3419 
Q 3406 3131 3298 2873 
Q 3191 2616 2906 2266 
Q 2828 2175 2409 1742 
Q 1991 1309 1228 531 
z
" transform="scale(0.015625)"/>
       </defs>
       <use xlink:href="#DejaVuSans-32"/>
      </g>
     </g>
    </g>
    <g id="xtick_4">
     <g id="line2d_4">
      <g>
       <use xlink:href="#m52d75c37b9" x="268.36521" y="307.584" style="stroke: #000000; stroke-width: 0.8"/>
      </g>
     </g>
     <g id="text_4">
      <!-- 3 -->
      <g transform="translate(265.18396 322.182437) scale(0.1 -0.1)">
       <defs>
        <path id="DejaVuSans-33" d="M 2597 2516 
Q 3050 2419 3304 2112 
Q 3559 1806 3559 1356 
Q 3559 666 3084 287 
Q 2609 -91 1734 -91 
Q 1441 -91 1130 -33 
Q 819 25 488 141 
L 488 750 
Q 750 597 1062 519 
Q 1375 441 1716 441 
Q 2309 441 2620 675 
Q 2931 909 2931 1356 
Q 2931 1769 2642 2001 
Q 2353 2234 1838 2234 
L 1294 2234 
L 1294 2753 
L 1863 2753 
Q 2328 2753 2575 2939 
Q 2822 3125 2822 3475 
Q 2822 3834 2567 4026 
Q 2313 4219 1838 4219 
Q 1578 4219 1281 4162 
Q 984 4106 628 3988 
L 628 4550 
Q 988 4650 1302 4700 
Q 1616 4750 1894 4750 
Q 2613 4750 3031 4423 
Q 3450 4097 3450 3541 
Q 3450 3153 3228 2886 
Q 3006 2619 2597 2516 
z
" transform="scale(0.015625)"/>
       </defs>
       <use xlink:href="#DejaVuSans-33"/>
      </g>
     </g>
    </g>
    <g id="xtick_5">
     <g id="line2d_5">
      <g>
       <use xlink:href="#m52d75c37b9" x="333.426242" y="307.584" style="stroke: #000000; stroke-width: 0.8"/>
      </g>
     </g>
     <g id="text_5">
      <!-- 4 -->
      <g transform="translate(330.244992 322.182437) scale(0.1 -0.1)">
       <defs>
        <path id="DejaVuSans-34" d="M 2419 4116 
L 825 1625 
L 2419 1625 
L 2419 4116 
z
M 2253 4666 
L 3047 4666 
L 3047 1625 
L 3713 1625 
L 3713 1100 
L 3047 1100 
L 3047 0 
L 2419 0 
L 2419 1100 
L 313 1100 
L 313 1709 
L 2253 4666 
z
" transform="scale(0.015625)"/>
       </defs>
       <use xlink:href="#DejaVuSans-34"/>
      </g>
     </g>
    </g>
    <g id="xtick_6">
     <g id="line2d_6">
      <g>
       <use xlink:href="#m52d75c37b9" x="398.487273" y="307.584" style="stroke: #000000; stroke-width: 0.8"/>
      </g>
     </g>
     <g id="text_6">
      <!-- 5 -->
      <g transform="translate(395.306023 322.182437) scale(0.1 -0.1)">
       <defs>
        <path id="DejaVuSans-35" d="M 691 4666 
L 3169 4666 
L 3169 4134 
L 1269 4134 
L 1269 2991 
Q 1406 3038 1543 3061 
Q 1681 3084 1819 3084 
Q 2600 3084 3056 2656 
Q 3513 2228 3513 1497 
Q 3513 744 3044 326 
Q 2575 -91 1722 -91 
Q 1428 -91 1123 -41 
Q 819 9 494 109 
L 494 744 
Q 775 591 1075 516 
Q 1375 441 1709 441 
Q 2250 441 2565 725 
Q 2881 1009 2881 1497 
Q 2881 1984 2565 2268 
Q 2250 2553 1709 2553 
Q 1456 2553 1204 2497 
Q 953 2441 691 2322 
L 691 4666 
z
" transform="scale(0.015625)"/>
       </defs>
       <use xlink:href="#DejaVuSans-35"/>
      </g>
     </g>
    </g>
    <g id="text_7">
     <!-- timesteps -->
     <g transform="translate(211.443594 335.860562) scale(0.1 -0.1)">
      <defs>
       <path id="DejaVuSans-74" d="M 1172 4494 
L 1172 3500 
L 2356 3500 
L 2356 3053 
L 1172 3053 
L 1172 1153 
Q 1172 725 1289 603 
Q 1406 481 1766 481 
L 2356 481 
L 2356 0 
L 1766 0 
Q 1100 0 847 248 
Q 594 497 594 1153 
L 594 3053 
L 172 3053 
L 172 3500 
L 594 3500 
L 594 4494 
L 1172 4494 
z
" transform="scale(0.015625)"/>
       <path id="DejaVuSans-69" d="M 603 3500 
L 1178 3500 
L 1178 0 
L 603 0 
L 603 3500 
z
M 603 4863 
L 1178 4863 
L 1178 4134 
L 603 4134 
L 603 4863 
z
" transform="scale(0.015625)"/>
       <path id="DejaVuSans-6d" d="M 3328 2828 
Q 3544 3216 3844 3400 
Q 4144 3584 4550 3584 
Q 5097 3584 5394 3201 
Q 5691 2819 5691 2113 
L 5691 0 
L 5113 0 
L 5113 2094 
Q 5113 2597 4934 2840 
Q 4756 3084 4391 3084 
Q 3944 3084 3684 2787 
Q 3425 2491 3425 1978 
L 3425 0 
L 2847 0 
L 2847 2094 
Q 2847 2600 2669 2842 
Q 2491 3084 2119 3084 
Q 1678 3084 1418 2786 
Q 1159 2488 1159 1978 
L 1159 0 
L 581 0 
L 581 3500 
L 1159 3500 
L 1159 2956 
Q 1356 3278 1631 3431 
Q 1906 3584 2284 3584 
Q 2666 3584 2933 3390 
Q 3200 3197 3328 2828 
z
" transform="scale(0.015625)"/>
       <path id="DejaVuSans-65" d="M 3597 1894 
L 3597 1613 
L 953 1613 
Q 991 1019 1311 708 
Q 1631 397 2203 397 
Q 2534 397 2845 478 
Q 3156 559 3463 722 
L 3463 178 
Q 3153 47 2828 -22 
Q 2503 -91 2169 -91 
Q 1331 -91 842 396 
Q 353 884 353 1716 
Q 353 2575 817 3079 
Q 1281 3584 2069 3584 
Q 2775 3584 3186 3129 
Q 3597 2675 3597 1894 
z
M 3022 2063 
Q 3016 2534 2758 2815 
Q 2500 3097 2075 3097 
Q 1594 3097 1305 2825 
Q 1016 2553 972 2059 
L 3022 2063 
z
" transform="scale(0.015625)"/>
       <path id="DejaVuSans-73" d="M 2834 3397 
L 2834 2853 
Q 2591 2978 2328 3040 
Q 2066 3103 1784 3103 
Q 1356 3103 1142 2972 
Q 928 2841 928 2578 
Q 928 2378 1081 2264 
Q 1234 2150 1697 2047 
L 1894 2003 
Q 2506 1872 2764 1633 
Q 3022 1394 3022 966 
Q 3022 478 2636 193 
Q 2250 -91 1575 -91 
Q 1294 -91 989 -36 
Q 684 19 347 128 
L 347 722 
Q 666 556 975 473 
Q 1284 391 1588 391 
Q 1994 391 2212 530 
Q 2431 669 2431 922 
Q 2431 1156 2273 1281 
Q 2116 1406 1581 1522 
L 1381 1569 
Q 847 1681 609 1914 
Q 372 2147 372 2553 
Q 372 3047 722 3315 
Q 1072 3584 1716 3584 
Q 2034 3584 2315 3537 
Q 2597 3491 2834 3397 
z
" transform="scale(0.015625)"/>
       <path id="DejaVuSans-70" d="M 1159 525 
L 1159 -1331 
L 581 -1331 
L 581 3500 
L 1159 3500 
L 1159 2969 
Q 1341 3281 1617 3432 
Q 1894 3584 2278 3584 
Q 2916 3584 3314 3078 
Q 3713 2572 3713 1747 
Q 3713 922 3314 415 
Q 2916 -91 2278 -91 
Q 1894 -91 1617 61 
Q 1341 213 1159 525 
z
M 3116 1747 
Q 3116 2381 2855 2742 
Q 2594 3103 2138 3103 
Q 1681 3103 1420 2742 
Q 1159 2381 1159 1747 
Q 1159 1113 1420 752 
Q 1681 391 2138 391 
Q 2594 391 2855 752 
Q 3116 1113 3116 1747 
z
" transform="scale(0.015625)"/>
      </defs>
      <use xlink:href="#DejaVuSans-74"/>
      <use xlink:href="#DejaVuSans-69" x="39.208984"/>
      <use xlink:href="#DejaVuSans-6d" x="66.992188"/>
      <use xlink:href="#DejaVuSans-65" x="164.404297"/>
      <use xlink:href="#DejaVuSans-73" x="225.927734"/>
      <use xlink:href="#DejaVuSans-74" x="278.027344"/>
      <use xlink:href="#DejaVuSans-65" x="317.236328"/>
      <use xlink:href="#DejaVuSans-70" x="378.759766"/>
      <use xlink:href="#DejaVuSans-73" x="442.236328"/>
     </g>
    </g>
    <g id="text_8">
     <!-- 1e6 -->
     <g transform="translate(395.841875 334.860562) scale(0.1 -0.1)">
      <defs>
       <path id="DejaVuSans-36" d="M 2113 2584 
Q 1688 2584 1439 2293 
Q 1191 2003 1191 1497 
Q 1191 994 1439 701 
Q 1688 409 2113 409 
Q 2538 409 2786 701 
Q 3034 994 3034 1497 
Q 3034 2003 2786 2293 
Q 2538 2584 2113 2584 
z
M 3366 4563 
L 3366 3988 
Q 3128 4100 2886 4159 
Q 2644 4219 2406 4219 
Q 1781 4219 1451 3797 
Q 1122 3375 1075 2522 
Q 1259 2794 1537 2939 
Q 1816 3084 2150 3084 
Q 2853 3084 3261 2657 
Q 3669 2231 3669 1497 
Q 3669 778 3244 343 
Q 2819 -91 2113 -91 
Q 1303 -91 875 529 
Q 447 1150 447 2328 
Q 447 3434 972 4092 
Q 1497 4750 2381 4750 
Q 2619 4750 2861 4703 
Q 3103 4656 3366 4563 
z
" transform="scale(0.015625)"/>
      </defs>
      <use xlink:href="#DejaVuSans-31"/>
      <use xlink:href="#DejaVuSans-65" x="63.623047"/>
      <use xlink:href="#DejaVuSans-36" x="125.146484"/>
     </g>
    </g>
   </g>
   <g id="matplotlib.axis_2">
    <g id="ytick_1">
     <g id="line2d_7">
      <defs>
       <path id="mb04aa3d799" d="M 0 0 
L -3.5 0 
" style="stroke: #000000; stroke-width: 0.8"/>
      </defs>
      <g>
       <use xlink:href="#mb04aa3d799" x="57.6" y="279.462789" style="stroke: #000000; stroke-width: 0.8"/>
      </g>
     </g>
     <g id="text_9">
      <!-- 100 -->
      <g transform="translate(31.5125 283.262008) scale(0.1 -0.1)">
       <use xlink:href="#DejaVuSans-31"/>
       <use xlink:href="#DejaVuSans-30" x="63.623047"/>
       <use xlink:href="#DejaVuSans-30" x="127.246094"/>
      </g>
     </g>
    </g>
    <g id="ytick_2">
     <g id="line2d_8">
      <g>
       <use xlink:href="#mb04aa3d799" x="57.6" y="239.868929" style="stroke: #000000; stroke-width: 0.8"/>
      </g>
     </g>
     <g id="text_10">
      <!-- 200 -->
      <g transform="translate(31.5125 243.668148) scale(0.1 -0.1)">
       <use xlink:href="#DejaVuSans-32"/>
       <use xlink:href="#DejaVuSans-30" x="63.623047"/>
       <use xlink:href="#DejaVuSans-30" x="127.246094"/>
      </g>
     </g>
    </g>
    <g id="ytick_3">
     <g id="line2d_9">
      <g>
       <use xlink:href="#mb04aa3d799" x="57.6" y="200.275069" style="stroke: #000000; stroke-width: 0.8"/>
      </g>
     </g>
     <g id="text_11">
      <!-- 300 -->
      <g transform="translate(31.5125 204.074288) scale(0.1 -0.1)">
       <use xlink:href="#DejaVuSans-33"/>
       <use xlink:href="#DejaVuSans-30" x="63.623047"/>
       <use xlink:href="#DejaVuSans-30" x="127.246094"/>
      </g>
     </g>
    </g>
    <g id="ytick_4">
     <g id="line2d_10">
      <g>
       <use xlink:href="#mb04aa3d799" x="57.6" y="160.68121" style="stroke: #000000; stroke-width: 0.8"/>
      </g>
     </g>
     <g id="text_12">
      <!-- 400 -->
      <g transform="translate(31.5125 164.480428) scale(0.1 -0.1)">
       <use xlink:href="#DejaVuSans-34"/>
       <use xlink:href="#DejaVuSans-30" x="63.623047"/>
       <use xlink:href="#DejaVuSans-30" x="127.246094"/>
      </g>
     </g>
    </g>
    <g id="ytick_5">
     <g id="line2d_11">
      <g>
       <use xlink:href="#mb04aa3d799" x="57.6" y="121.08735" style="stroke: #000000; stroke-width: 0.8"/>
      </g>
     </g>
     <g id="text_13">
      <!-- 500 -->
      <g transform="translate(31.5125 124.886569) scale(0.1 -0.1)">
       <use xlink:href="#DejaVuSans-35"/>
       <use xlink:href="#DejaVuSans-30" x="63.623047"/>
       <use xlink:href="#DejaVuSans-30" x="127.246094"/>
      </g>
     </g>
    </g>
    <g id="ytick_6">
     <g id="line2d_12">
      <g>
       <use xlink:href="#mb04aa3d799" x="57.6" y="81.49349" style="stroke: #000000; stroke-width: 0.8"/>
      </g>
     </g>
     <g id="text_14">
      <!-- 600 -->
      <g transform="translate(31.5125 85.292709) scale(0.1 -0.1)">
       <use xlink:href="#DejaVuSans-36"/>
       <use xlink:href="#DejaVuSans-30" x="63.623047"/>
       <use xlink:href="#DejaVuSans-30" x="127.246094"/>
      </g>
     </g>
    </g>
    <g id="ytick_7">
     <g id="line2d_13">
      <g>
       <use xlink:href="#mb04aa3d799" x="57.6" y="41.89963" style="stroke: #000000; stroke-width: 0.8"/>
      </g>
     </g>
     <g id="text_15">
      <!-- 700 -->
      <g transform="translate(31.5125 45.698849) scale(0.1 -0.1)">
       <defs>
        <path id="DejaVuSans-37" d="M 525 4666 
L 3525 4666 
L 3525 4397 
L 1831 0 
L 1172 0 
L 2766 4134 
L 525 4134 
L 525 4666 
z
" transform="scale(0.015625)"/>
       </defs>
       <use xlink:href="#DejaVuSans-37"/>
       <use xlink:href="#DejaVuSans-30" x="63.623047"/>
       <use xlink:href="#DejaVuSans-30" x="127.246094"/>
      </g>
     </g>
    </g>
   </g>
   <g id="line2d_14">
    <path d="M 73.832727 255.361512 
L 74.483338 267.770845 
L 75.133948 265.856593 
L 75.784558 268.002457 
L 76.435169 253.431699 
L 77.085779 264.125387 
L 77.736389 258.989683 
L 78.386999 261.167793 
L 79.03761 265.167929 
L 79.68822 262.156052 
L 80.33883 258.073406 
L 80.989441 258.635987 
L 81.640051 274.107438 
L 82.290661 273.963669 
L 83.591882 251.982061 
L 84.242492 269.464912 
L 84.893103 271.465859 
L 85.543713 245.219054 
L 86.194323 265.146041 
L 86.844934 279.698879 
L 87.495544 267.69954 
L 88.146154 277.934165 
L 88.796764 263.767561 
L 89.447375 263.614123 
L 90.097985 270.992712 
L 90.748595 257.678018 
L 91.399206 274.571106 
L 92.049816 264.470673 
L 92.700426 262.932745 
L 93.351037 267.353383 
L 94.001647 265.035456 
L 94.652257 266.037489 
L 95.302868 255.804654 
L 95.953478 249.935862 
L 96.604088 263.327254 
L 97.254698 265.102686 
L 97.905309 282.498213 
L 98.555919 270.229905 
L 99.206529 260.767416 
L 99.85714 264.388516 
L 100.50775 279.192949 
L 101.15836 267.895463 
L 101.808971 279.255301 
L 102.459581 259.090331 
L 103.110191 273.632957 
L 103.760802 252.316791 
L 104.411412 257.345029 
L 105.062022 287.641059 
L 105.712633 285.183896 
L 106.363243 290.821068 
L 107.013853 269.504149 
L 107.664463 260.014606 
L 108.315074 261.605685 
L 108.965684 267.281683 
L 109.616294 271.113826 
L 110.266905 277.570737 
L 110.917515 290.450651 
L 111.568125 293.674969 
L 112.218736 286.483141 
L 112.869346 291.925511 
L 113.519956 286.928595 
L 114.170567 292.328806 
L 114.821177 291.576721 
L 115.471787 281.450579 
L 116.122398 285.272958 
L 116.773008 285.661794 
L 117.423618 261.410891 
L 118.074228 276.645492 
L 119.375449 295.233807 
L 120.026059 286.285797 
L 120.67667 275.411933 
L 121.32728 289.165066 
L 122.628501 248.825223 
L 123.279111 292.284865 
L 123.929721 295.488 
L 124.580332 242.77903 
L 125.230942 243.263703 
L 125.881552 256.775511 
L 126.532163 252.608444 
L 127.182773 249.556715 
L 127.833383 250.794823 
L 128.483993 288.469577 
L 129.134604 259.813936 
L 129.785214 251.543005 
L 130.435824 255.537407 
L 131.086435 288.029697 
L 131.737045 290.10641 
L 132.387655 264.74475 
L 133.038266 287.85687 
L 133.688876 285.660404 
L 134.339486 261.162852 
L 134.990097 266.462878 
L 135.640707 285.212186 
L 136.291317 258.565712 
L 136.941927 285.152245 
L 137.592538 252.85469 
L 138.243148 261.615267 
L 138.893758 276.130677 
L 139.544369 260.821952 
L 140.194979 272.162244 
L 140.845589 263.823606 
L 141.4962 285.450953 
L 142.14681 287.414384 
L 142.79742 292.945476 
L 143.448031 293.790413 
L 144.098641 263.758039 
L 144.749251 284.384892 
L 145.399862 291.847942 
L 146.050472 287.55516 
L 146.701082 289.645126 
L 147.351692 290.685467 
L 148.002303 263.382515 
L 148.652913 291.511185 
L 149.303523 271.193544 
L 149.954134 254.875802 
L 150.604744 255.999428 
L 151.255354 283.046829 
L 151.905965 291.895265 
L 152.556575 261.714069 
L 153.207185 273.152945 
L 153.857796 270.947476 
L 154.508406 283.013721 
L 155.159016 291.479518 
L 155.809627 276.451886 
L 156.460237 270.616147 
L 157.110847 240.120754 
L 157.761457 250.346692 
L 158.412068 258.027845 
L 159.062678 267.832865 
L 159.713288 256.632958 
L 160.363899 254.752265 
L 161.014509 249.346321 
L 161.665119 249.974268 
L 162.31573 262.518557 
L 162.96634 222.733487 
L 163.61695 240.017157 
L 164.267561 268.166645 
L 164.918171 263.936227 
L 165.568781 269.301793 
L 166.870002 238.71581 
L 167.520612 263.152712 
L 168.171222 243.515714 
L 168.821833 263.192864 
L 169.472443 209.642688 
L 170.123053 223.170104 
L 170.773664 220.616656 
L 171.424274 249.173269 
L 172.074884 252.130174 
L 173.376105 234.489133 
L 174.026715 255.847229 
L 174.677326 288.064745 
L 175.327936 237.942498 
L 175.978546 272.856767 
L 176.629156 249.333841 
L 177.279767 264.452923 
L 177.930377 249.757836 
L 178.580987 251.840489 
L 179.231598 212.786234 
L 179.882208 232.597168 
L 180.532818 209.146363 
L 181.183429 265.705522 
L 181.834039 210.234604 
L 182.484649 239.954464 
L 183.13526 221.029814 
L 183.78587 233.331579 
L 184.43648 224.726258 
L 185.087091 234.514897 
L 185.737701 257.326048 
L 186.388311 252.108563 
L 187.038921 265.010995 
L 187.689532 254.301663 
L 188.340142 251.062513 
L 188.990752 232.428297 
L 189.641363 228.265992 
L 190.291973 241.89058 
L 190.942583 244.552043 
L 191.593194 251.682533 
L 192.243804 253.552179 
L 192.894414 243.147713 
L 193.545025 230.50143 
L 194.195635 231.199074 
L 194.846245 243.769312 
L 195.496856 264.844502 
L 196.147466 224.401453 
L 196.798076 241.197315 
L 197.448686 247.275923 
L 198.099297 235.906015 
L 198.749907 238.903872 
L 199.400517 254.009583 
L 200.051128 260.119185 
L 200.701738 242.707021 
L 201.352348 228.412664 
L 202.653569 237.616237 
L 203.304179 213.665388 
L 203.95479 249.48766 
L 204.6054 237.982488 
L 205.25601 216.080978 
L 205.906621 249.922262 
L 206.557231 247.9134 
L 207.207841 254.466762 
L 207.858451 273.180035 
L 208.509062 251.463358 
L 209.159672 238.035092 
L 209.810282 243.303087 
L 210.460893 235.096677 
L 211.111503 209.914507 
L 211.762113 248.908322 
L 212.412724 245.353993 
L 213.063334 229.54483 
L 213.713944 221.711945 
L 214.364555 221.538006 
L 215.015165 211.040929 
L 215.665775 245.389343 
L 216.316385 237.165833 
L 216.966996 247.404583 
L 217.617606 243.723324 
L 218.268216 236.587355 
L 218.918827 225.031558 
L 219.569437 217.208429 
L 220.220047 227.808287 
L 220.870658 212.862203 
L 221.521268 219.629003 
L 222.171878 214.575029 
L 222.822489 215.7536 
L 223.473099 213.925718 
L 224.123709 220.1839 
L 224.77432 219.37845 
L 225.42493 212.600167 
L 226.07554 252.686812 
L 226.72615 249.09068 
L 227.376761 225.789784 
L 228.027371 295.395932 
L 228.677981 241.276519 
L 229.328592 221.858138 
L 229.979202 266.084432 
L 230.629812 238.935512 
L 231.280423 258.528383 
L 232.581643 277.824799 
L 233.232254 227.874611 
L 233.882864 281.714698 
L 234.533474 239.939897 
L 235.184085 263.519735 
L 235.834695 216.327307 
L 236.485305 231.497271 
L 237.135915 217.139373 
L 237.786526 223.602984 
L 238.437136 207.555105 
L 239.087746 216.581088 
L 239.738357 239.711746 
L 240.388967 196.671193 
L 241.039577 220.517513 
L 241.690188 184.274549 
L 242.340798 251.399718 
L 242.991408 250.852468 
L 243.642019 248.721368 
L 244.292629 288.75525 
L 245.59385 249.785627 
L 246.24446 245.991466 
L 246.89507 234.828045 
L 247.54568 232.508494 
L 248.196291 197.759913 
L 248.846901 205.081491 
L 249.497511 214.96826 
L 250.148122 226.797899 
L 250.798732 234.009474 
L 251.449342 206.646169 
L 252.099953 208.872199 
L 252.750563 250.601261 
L 253.401173 247.127284 
L 254.051784 197.813891 
L 254.702394 219.899228 
L 255.353004 219.346299 
L 256.003615 198.078208 
L 256.654225 189.95569 
L 257.304835 248.485606 
L 257.955445 245.408142 
L 258.606056 216.542951 
L 259.256666 213.275987 
L 259.907276 215.544806 
L 261.208497 185.138768 
L 261.859107 208.2345 
L 262.509718 209.67791 
L 263.160328 218.191271 
L 263.810938 183.741252 
L 264.461549 213.74783 
L 265.112159 200.67125 
L 265.762769 208.127407 
L 266.413379 211.138235 
L 267.06399 225.911979 
L 268.36521 189.058363 
L 269.015821 192.673876 
L 269.666431 213.165524 
L 270.317041 240.181566 
L 270.967652 231.590693 
L 271.618262 227.127344 
L 272.268872 214.066149 
L 272.919483 222.130512 
L 273.570093 206.133927 
L 274.220703 201.702974 
L 274.871314 223.636183 
L 275.521924 212.146813 
L 276.172534 193.18957 
L 276.823144 231.632567 
L 277.473755 195.706045 
L 278.124365 209.244453 
L 278.774975 172.776405 
L 279.425586 224.690892 
L 280.076196 212.234403 
L 280.726806 189.263728 
L 281.377417 253.650253 
L 282.028027 182.472938 
L 282.678637 195.455174 
L 283.329248 196.538074 
L 283.979858 183.985257 
L 284.630468 205.260879 
L 285.281079 211.604318 
L 285.931689 238.186859 
L 286.582299 215.832986 
L 287.232909 172.907698 
L 287.88352 239.147177 
L 288.53413 163.958528 
L 289.18474 198.187016 
L 289.835351 263.809289 
L 291.136571 211.332799 
L 291.787182 232.724471 
L 292.437792 244.594781 
L 293.088402 250.041142 
L 293.739013 212.848016 
L 294.389623 224.797273 
L 295.690844 200.858513 
L 296.341454 205.42703 
L 296.992064 196.764147 
L 297.642674 272.160949 
L 298.293285 222.295709 
L 298.943895 209.116675 
L 299.594505 256.35548 
L 300.245116 199.173212 
L 300.895726 207.833256 
L 301.546336 185.626648 
L 302.196947 212.780073 
L 302.847557 193.340379 
L 303.498167 223.821653 
L 304.148778 198.575923 
L 304.799388 205.738777 
L 305.449998 192.894323 
L 306.100608 212.940052 
L 306.751219 214.677494 
L 307.401829 217.878761 
L 308.052439 243.269036 
L 308.70305 209.081888 
L 309.35366 185.945062 
L 310.00427 204.091668 
L 310.654881 241.159923 
L 311.305491 205.098132 
L 311.956101 181.639119 
L 312.606712 212.660318 
L 313.257322 209.661899 
L 313.907932 212.966747 
L 314.558543 230.539705 
L 315.209153 195.776368 
L 315.859763 199.171616 
L 316.510373 227.425997 
L 317.160984 203.325685 
L 317.811594 217.196202 
L 318.462204 261.155028 
L 319.112815 223.329097 
L 319.763425 217.126311 
L 320.414035 232.118439 
L 321.064646 207.602677 
L 321.715256 229.681275 
L 322.365866 169.519082 
L 323.016477 216.15488 
L 323.667087 186.253458 
L 324.317697 193.471748 
L 324.968308 237.545217 
L 325.618918 227.096346 
L 326.269528 195.918513 
L 326.920138 236.167715 
L 327.570749 193.149481 
L 328.221359 189.333615 
L 328.871969 203.348111 
L 329.52258 227.960094 
L 330.17319 195.045619 
L 330.8238 228.947957 
L 331.474411 224.078787 
L 332.125021 180.273233 
L 332.775631 192.469746 
L 333.426242 212.845613 
L 334.076852 208.209089 
L 334.727462 192.58323 
L 335.378073 198.238947 
L 336.028683 213.588857 
L 336.679293 207.408295 
L 337.329903 214.537122 
L 337.980514 182.422986 
L 338.631124 165.48339 
L 339.281734 199.133725 
L 339.932345 161.141429 
L 340.582955 215.812627 
L 341.233565 231.885168 
L 341.884176 197.068834 
L 342.534786 192.78637 
L 343.185396 222.560169 
L 343.836007 197.932328 
L 344.486617 215.34633 
L 345.137227 196.622136 
L 345.787837 191.79429 
L 347.089058 250.650317 
L 347.739668 228.919362 
L 348.390279 231.022738 
L 349.040889 228.459982 
L 349.691499 236.546612 
L 350.34211 254.928937 
L 350.99272 219.433881 
L 351.64333 200.87555 
L 352.293941 167.954008 
L 352.944551 228.370488 
L 353.595161 190.865391 
L 354.896382 237.609941 
L 355.546992 216.147341 
L 356.197602 232.841728 
L 356.848213 199.639667 
L 357.498823 231.170622 
L 358.149433 185.17742 
L 358.800044 202.309766 
L 359.450654 216.459325 
L 360.101264 215.852961 
L 360.751875 226.427626 
L 361.402485 202.598576 
L 362.053095 215.958459 
L 362.703706 267.865268 
L 363.354316 220.097403 
L 364.004926 211.963644 
L 364.655537 230.597884 
L 365.306147 231.616809 
L 365.956757 243.612331 
L 366.607367 218.824409 
L 367.257978 207.962427 
L 367.908588 217.479659 
L 368.559198 219.099475 
L 369.209809 212.725216 
L 369.860419 215.770831 
L 370.511029 226.190102 
L 371.16164 212.366349 
L 371.81225 204.072216 
L 372.46286 202.966023 
L 373.113471 186.021751 
L 373.764081 203.257612 
L 374.414691 206.237829 
L 375.065302 226.470973 
L 376.366522 241.152051 
L 377.017132 226.861618 
L 377.667743 222.133442 
L 378.318353 279.195143 
L 378.968963 242.566019 
L 379.619574 261.735608 
L 380.270184 254.909219 
L 380.920794 225.385543 
L 381.571405 244.819175 
L 382.222015 240.720617 
L 382.872625 259.630221 
L 383.523236 244.310374 
L 384.173846 259.526069 
L 384.824456 234.322225 
L 385.475066 266.19826 
L 386.125677 229.763008 
L 386.776287 290.607455 
L 387.426897 233.994 
L 388.077508 293.434662 
L 388.728118 286.969373 
L 389.378728 259.37703 
L 390.029339 206.63336 
L 390.679949 260.939404 
L 391.330559 274.861543 
L 391.98117 232.628151 
L 392.63178 209.130933 
L 393.28239 235.57454 
L 393.933001 221.849645 
L 394.583611 205.55168 
L 395.884831 226.722996 
L 396.535442 226.739756 
L 397.186052 222.14159 
L 397.836662 266.20104 
L 398.487273 236.401529 
L 398.487273 236.401529 
" clip-path="url(#p8e2f015937)" style="fill: none; stroke: #1f77b4; stroke-width: 1.5; stroke-linecap: square"/>
   </g>
   <g id="line2d_15">
    <path d="M 73.832727 163.825109 
L 75.133948 203.086237 
L 75.784558 183.289355 
L 76.435169 190.202522 
L 77.085779 183.229952 
L 77.736389 183.138946 
L 78.386999 193.215358 
L 79.03761 192.665046 
L 79.68822 206.063434 
L 80.33883 162.379996 
L 80.989441 163.152104 
L 81.640051 257.899838 
L 82.290661 258.798504 
L 82.941272 211.345402 
L 83.591882 182.347081 
L 84.242492 209.623247 
L 84.893103 259.269509 
L 85.543713 57.871805 
L 86.194323 210.846721 
L 86.844934 257.353309 
L 87.495544 210.2607 
L 88.146154 252.241943 
L 88.796764 190.471772 
L 89.447375 232.508403 
L 90.097985 231.966011 
L 90.748595 203.054673 
L 91.399206 211.210941 
L 92.049816 209.935955 
L 93.351037 209.156043 
L 94.001647 211.127735 
L 94.652257 210.201313 
L 95.302868 180.842506 
L 95.953478 209.057059 
L 96.604088 190.087724 
L 97.254698 203.739532 
L 97.905309 251.699499 
L 98.555919 202.021246 
L 99.206529 251.944997 
L 99.85714 236.483377 
L 100.50775 202.527996 
L 101.15836 251.877656 
L 101.808971 231.688838 
L 102.459581 232.381778 
L 103.110191 233.264725 
L 103.760802 201.819337 
L 104.411412 210.082548 
L 105.062022 191.968214 
L 105.712633 233.086529 
L 106.363243 235.782653 
L 107.013853 251.747028 
L 107.664463 233.692244 
L 108.315074 232.928149 
L 108.965684 233.866492 
L 109.616294 233.92987 
L 110.266905 234.583109 
L 110.917515 257.420792 
L 111.568125 270.894393 
L 112.218736 252.475527 
L 112.869346 252.661626 
L 113.519956 252.313196 
L 114.170567 267.018435 
L 114.821177 266.666034 
L 115.471787 233.430972 
L 116.122398 236.25378 
L 116.773008 234.100076 
L 117.423618 202.96358 
L 118.074228 211.369384 
L 118.724839 233.886309 
L 119.375449 268.768464 
L 120.026059 232.468853 
L 120.67667 203.01502 
L 121.32728 233.17763 
L 121.97789 233.795271 
L 122.628501 202.528008 
L 123.929721 266.194756 
L 124.580332 190.416321 
L 125.230942 202.048977 
L 125.881552 190.416345 
L 126.532163 162.92244 
L 127.182773 163.464789 
L 127.833383 232.797509 
L 128.483993 267.362878 
L 129.134604 203.644618 
L 129.785214 183.34095 
L 130.435824 182.410502 
L 131.086435 256.660614 
L 131.737045 267.085745 
L 132.387655 212.026547 
L 133.038266 233.910057 
L 133.688876 234.72172 
L 134.339486 233.862576 
L 134.990097 210.086404 
L 135.640707 211.22278 
L 136.291317 211.218804 
L 136.941927 209.22732 
L 137.592538 210.577352 
L 138.243148 211.222768 
L 138.893758 252.558702 
L 139.544369 202.801174 
L 140.194979 233.19736 
L 141.4962 190.032273 
L 142.14681 233.518106 
L 142.79742 251.865778 
L 143.448031 253.821734 
L 144.098641 211.567211 
L 144.749251 184.952194 
L 145.399862 252.784359 
L 146.050472 234.678143 
L 146.701082 252.546808 
L 147.351692 265.755383 
L 148.002303 202.611127 
L 148.652913 264.836797 
L 149.303523 233.225099 
L 149.954134 211.187232 
L 150.604744 209.943981 
L 151.255354 233.375532 
L 151.905965 266.036511 
L 152.556575 213.804406 
L 153.207185 233.189441 
L 153.857796 234.1001 
L 154.508406 190.91522 
L 155.159016 251.699491 
L 155.809627 189.937251 
L 156.460237 181.563166 
L 157.110847 65.066096 
L 157.761457 153.43231 
L 158.412068 190.978586 
L 159.062678 181.143459 
L 159.713288 202.56369 
L 160.363899 164.328018 
L 161.014509 170.076896 
L 161.665119 182.778602 
L 162.31573 251.695552 
L 162.96634 56.612455 
L 163.61695 181.036571 
L 164.267561 234.056582 
L 164.918171 182.984486 
L 165.568781 234.650431 
L 166.219392 204.665918 
L 166.870002 153.875857 
L 167.520612 202.159789 
L 168.171222 211.151526 
L 168.821833 233.039012 
L 169.472443 128.230375 
L 170.123053 157.352126 
L 170.773664 201.803483 
L 171.424274 233.058785 
L 172.074884 208.76404 
L 172.725495 208.550246 
L 173.376105 105.97467 
L 174.026715 167.748919 
L 174.677326 209.23126 
L 175.327936 208.415638 
L 175.978546 179.060842 
L 176.629156 202.128145 
L 177.279767 201.585745 
L 177.930377 170.472751 
L 178.580987 209.061022 
L 179.231598 127.319819 
L 179.882208 128.499756 
L 180.532818 180.498115 
L 181.183429 202.100402 
L 181.834039 168.421924 
L 182.484649 181.226519 
L 183.13526 59.012061 
L 183.78587 59.158217 
L 184.43648 168.168591 
L 185.087091 107.859607 
L 185.737701 162.863041 
L 186.388311 170.607394 
L 187.038921 210.696177 
L 187.689532 181.27415 
L 188.340142 209.053119 
L 188.990752 181.210761 
L 189.641363 180.153684 
L 190.291973 162.471054 
L 190.942583 183.063737 
L 191.593194 192.946171 
L 192.243804 155.392115 
L 192.894414 202.421148 
L 193.545025 163.005595 
L 194.195635 169.190132 
L 194.846245 180.319934 
L 195.496856 234.832578 
L 196.147466 179.876487 
L 196.798076 180.28034 
L 197.448686 183.776375 
L 198.099297 105.752945 
L 198.749907 129.053947 
L 199.400517 202.432951 
L 200.051128 203.300044 
L 200.701738 190.356946 
L 201.352348 203.707873 
L 202.002959 168.457606 
L 202.653569 163.33028 
L 203.304179 167.717229 
L 203.95479 163.266859 
L 204.6054 129.228148 
L 205.25601 129.069753 
L 205.906621 164.284397 
L 206.557231 169.2178 
L 207.207841 168.98814 
L 207.858451 163.041194 
L 208.509062 210.696225 
L 209.159672 131.137036 
L 209.810282 190.851782 
L 210.460893 168.128997 
L 211.111503 56.363473 
L 211.762113 181.396887 
L 212.412724 169.190061 
L 213.063334 131.59636 
L 213.713944 166.299507 
L 214.364555 159.316025 
L 215.015165 155.507318 
L 215.665775 133.988003 
L 216.316385 167.352997 
L 216.966996 211.092199 
L 217.617606 166.208726 
L 218.268216 169.000101 
L 218.918827 163.658858 
L 219.569437 153.396739 
L 220.220047 153.844201 
L 220.870658 162.89866 
L 221.521268 162.775923 
L 222.171878 162.93427 
L 222.822489 131.018111 
L 223.473099 163.892434 
L 224.123709 167.459892 
L 224.77432 129.564918 
L 225.42493 128.816416 
L 226.07554 210.149778 
L 226.72615 210.066734 
L 227.376761 153.440189 
L 228.027371 271.85254 
L 228.677981 201.791605 
L 229.328592 167.958767 
L 229.979202 191.235894 
L 230.629812 63.105135 
L 231.280423 164.054856 
L 231.931033 183.40824 
L 232.581643 232.971715 
L 233.232254 56.010814 
L 233.882864 129.358947 
L 234.533474 128.650177 
L 235.184085 163.104508 
L 235.834695 132.027656 
L 236.485305 159.954049 
L 237.135915 131.037904 
L 237.786526 162.771983 
L 238.437136 130.554931 
L 239.087746 153.313513 
L 239.738357 167.602402 
L 240.388967 153.765057 
L 241.039577 154.133217 
L 241.690188 162.585892 
L 242.340798 162.467126 
L 242.991408 181.753196 
L 243.642019 181.998698 
L 244.292629 208.870991 
L 244.943239 181.076094 
L 245.59385 181.586894 
L 246.24446 170.670685 
L 246.89507 164.015246 
L 247.54568 153.103689 
L 248.196291 133.410008 
L 248.846901 131.251838 
L 249.497511 129.568941 
L 250.148122 153.725341 
L 250.798732 162.39191 
L 251.449342 167.740997 
L 252.099953 128.959084 
L 252.750563 163.91625 
L 253.401173 180.486225 
L 254.051784 130.087581 
L 254.702394 56.157312 
L 255.353004 128.384712 
L 256.003615 127.664222 
L 256.654225 106.548956 
L 257.304835 131.235973 
L 257.955445 129.006557 
L 258.606056 106.976625 
L 259.256666 154.687396 
L 259.907276 107.661808 
L 260.557887 162.142441 
L 261.208497 142.350199 
L 261.859107 162.882795 
L 262.509718 129.731263 
L 263.160328 128.590849 
L 263.810938 57.048704 
L 264.461549 153.09975 
L 265.112159 152.897817 
L 265.762769 55.519831 
L 266.413379 128.630578 
L 267.06399 106.327087 
L 267.7146 153.832212 
L 268.36521 108.885148 
L 269.015821 105.052078 
L 269.666431 153.206625 
L 270.317041 130.586455 
L 270.967652 154.659819 
L 271.618262 153.852076 
L 272.268872 154.366904 
L 272.919483 130.79639 
L 273.570093 130.919214 
L 274.220703 129.28373 
L 274.871314 153.281877 
L 275.521924 153.123482 
L 276.172534 128.693809 
L 276.823144 131.735113 
L 277.473755 128.871962 
L 278.124365 128.297752 
L 278.774975 128.452148 
L 279.425586 58.833932 
L 280.076196 129.12149 
L 280.726806 152.929488 
L 281.377417 152.973033 
L 282.028027 107.82406 
L 282.678637 127.929529 
L 283.329248 127.901849 
L 283.979858 129.794641 
L 284.630468 105.717421 
L 285.931689 153.717362 
L 286.582299 128.87195 
L 287.232909 57.135003 
L 287.88352 130.384523 
L 288.53413 54.886218 
L 289.18474 56.865935 
L 289.835351 224.71643 
L 290.485961 60.085763 
L 291.136571 129.545149 
L 291.787182 130.966651 
L 292.437792 162.530465 
L 293.739013 108.402332 
L 294.389623 106.038155 
L 295.040233 130.503482 
L 295.690844 128.974815 
L 296.341454 152.921561 
L 296.992064 153.800533 
L 297.642674 132.891198 
L 298.293285 130.348734 
L 298.943895 128.705517 
L 300.245116 128.959156 
L 300.895726 127.55336 
L 301.546336 55.887642 
L 302.196947 161.196155 
L 302.847557 106.774375 
L 303.498167 129.711316 
L 304.148778 105.459978 
L 304.799388 153.725277 
L 305.449998 129.450044 
L 306.100608 155.186243 
L 306.751219 127.158352 
L 307.401829 163.251077 
L 308.052439 167.261923 
L 308.70305 58.362088 
L 309.35366 55.642449 
L 310.00427 58.129221 
L 310.654881 190.269863 
L 311.305491 60.631196 
L 311.956101 57.912064 
L 312.606712 105.871699 
L 313.257322 105.558891 
L 313.907932 128.721347 
L 314.558543 145.48216 
L 315.209153 127.850361 
L 315.859763 57.867335 
L 316.510373 182.034249 
L 317.160984 53.999561 
L 317.811594 130.622224 
L 318.462204 167.535101 
L 319.112815 154.049915 
L 319.763425 56.561078 
L 320.414035 60.282913 
L 321.064646 106.699464 
L 321.715256 180.236744 
L 322.365866 55.38126 
L 323.016477 129.061945 
L 323.667087 108.857598 
L 324.317697 55.194916 
L 324.968308 162.839309 
L 325.618918 59.380668 
L 326.269528 54.312321 
L 326.920138 128.242336 
L 327.570749 107.74878 
L 328.221359 129.25588 
L 328.871969 105.032309 
L 329.52258 162.344373 
L 330.17319 54.498206 
L 330.8238 161.853354 
L 332.125021 56.066349 
L 332.775631 107.253762 
L 333.426242 107.012148 
L 334.076852 58.62743 
L 334.727462 125.788056 
L 335.378073 57.452086 
L 336.028683 55.777516 
L 336.679293 107.095497 
L 337.329903 109.170283 
L 337.980514 55.547503 
L 338.631124 56.968907 
L 339.281734 56.961027 
L 339.932345 53.568 
L 340.582955 59.926873 
L 341.233565 131.639593 
L 341.884176 105.87177 
L 342.534786 106.980659 
L 343.185396 127.802742 
L 343.836007 113.51877 
L 344.486617 107.364755 
L 345.137227 57.919749 
L 345.787837 130.020425 
L 346.438448 105.598596 
L 347.089058 163.092666 
L 347.739668 108.002236 
L 348.390279 145.985287 
L 349.691499 107.416208 
L 350.34211 127.545433 
L 350.99272 57.924077 
L 351.64333 106.806494 
L 352.293941 53.861042 
L 352.944551 105.578851 
L 353.595161 105.511406 
L 354.245772 108.576593 
L 354.896382 129.378609 
L 355.546992 105.733251 
L 356.197602 108.746193 
L 356.848213 58.723829 
L 357.498823 154.184629 
L 358.149433 54.65265 
L 358.800044 153.174966 
L 359.450654 162.77991 
L 360.101264 157.989568 
L 361.402485 56.521544 
L 362.053095 107.808183 
L 362.703706 264.702166 
L 363.354316 128.087881 
L 364.004926 90.963656 
L 364.655537 130.915152 
L 365.306147 130.329158 
L 365.956757 210.221083 
L 366.607367 55.702018 
L 367.257978 57.325093 
L 367.908588 156.374134 
L 368.559198 106.046129 
L 369.209809 128.701772 
L 369.860419 128.91957 
L 370.511029 162.514651 
L 371.16164 162.47109 
L 371.81225 170.132236 
L 372.46286 128.503755 
L 373.113471 56.525966 
L 373.764081 128.602644 
L 374.414691 130.934921 
L 375.065302 180.55355 
L 375.715912 209.219382 
L 376.366522 131.877472 
L 377.017132 130.990396 
L 377.667743 104.67168 
L 378.318353 189.984764 
L 378.968963 162.918476 
L 379.619574 232.801453 
L 380.270184 105.337213 
L 380.920794 153.523356 
L 381.571405 134.574091 
L 382.222015 208.954135 
L 382.872625 168.564446 
L 383.523236 208.886829 
L 384.173846 232.892511 
L 384.824456 168.109216 
L 385.475066 163.63509 
L 386.125677 128.947194 
L 386.776287 252.21422 
L 387.426897 180.652475 
L 388.077508 264.70613 
L 388.728118 211.923468 
L 389.378728 169.225656 
L 390.029339 106.604466 
L 391.330559 251.826184 
L 391.98117 162.633413 
L 392.63178 145.600914 
L 393.28239 162.328544 
L 393.933001 153.535334 
L 394.583611 59.772762 
L 395.234221 106.145114 
L 395.884831 163.955725 
L 396.535442 107.364708 
L 397.186052 167.816189 
L 397.836662 162.669035 
L 398.487273 156.30317 
L 398.487273 156.30317 
" clip-path="url(#p8e2f015937)" style="fill: none; stroke: #ff7f0e; stroke-width: 1.5; stroke-linecap: square"/>
   </g>
   <g id="patch_3">
    <path d="M 57.6 307.584 
L 57.6 41.472 
" style="fill: none; stroke: #000000; stroke-width: 0.8; stroke-linejoin: miter; stroke-linecap: square"/>
   </g>
   <g id="patch_4">
    <path d="M 414.72 307.584 
L 414.72 41.472 
" style="fill: none; stroke: #000000; stroke-width: 0.8; stroke-linejoin: miter; stroke-linecap: square"/>
   </g>
   <g id="patch_5">
    <path d="M 57.6 307.584 
L 414.72 307.584 
" style="fill: none; stroke: #000000; stroke-width: 0.8; stroke-linejoin: miter; stroke-linecap: square"/>
   </g>
   <g id="patch_6">
    <path d="M 57.6 41.472 
L 414.72 41.472 
" style="fill: none; stroke: #000000; stroke-width: 0.8; stroke-linejoin: miter; stroke-linecap: square"/>
   </g>
   <g id="legend_1">
    <g id="patch_7">
     <path d="M 64.6 79.106375 
L 157.860938 79.106375 
Q 159.860938 79.106375 159.860938 77.106375 
L 159.860938 48.472 
Q 159.860938 46.472 157.860938 46.472 
L 64.6 46.472 
Q 62.6 46.472 62.6 48.472 
L 62.6 77.106375 
Q 62.6 79.106375 64.6 79.106375 
z
" style="fill: #ffffff; opacity: 0.8; stroke: #cccccc; stroke-linejoin: miter"/>
    </g>
    <g id="line2d_16">
     <path d="M 66.6 54.570438 
L 76.6 54.570438 
L 86.6 54.570438 
" style="fill: none; stroke: #1f77b4; stroke-width: 1.5; stroke-linecap: square"/>
    </g>
    <g id="text_16">
     <!-- reward -->
     <g transform="translate(94.6 58.070438) scale(0.1 -0.1)">
      <defs>
       <path id="DejaVuSans-72" d="M 2631 2963 
Q 2534 3019 2420 3045 
Q 2306 3072 2169 3072 
Q 1681 3072 1420 2755 
Q 1159 2438 1159 1844 
L 1159 0 
L 581 0 
L 581 3500 
L 1159 3500 
L 1159 2956 
Q 1341 3275 1631 3429 
Q 1922 3584 2338 3584 
Q 2397 3584 2469 3576 
Q 2541 3569 2628 3553 
L 2631 2963 
z
" transform="scale(0.015625)"/>
       <path id="DejaVuSans-77" d="M 269 3500 
L 844 3500 
L 1563 769 
L 2278 3500 
L 2956 3500 
L 3675 769 
L 4391 3500 
L 4966 3500 
L 4050 0 
L 3372 0 
L 2619 2869 
L 1863 0 
L 1184 0 
L 269 3500 
z
" transform="scale(0.015625)"/>
       <path id="DejaVuSans-61" d="M 2194 1759 
Q 1497 1759 1228 1600 
Q 959 1441 959 1056 
Q 959 750 1161 570 
Q 1363 391 1709 391 
Q 2188 391 2477 730 
Q 2766 1069 2766 1631 
L 2766 1759 
L 2194 1759 
z
M 3341 1997 
L 3341 0 
L 2766 0 
L 2766 531 
Q 2569 213 2275 61 
Q 1981 -91 1556 -91 
Q 1019 -91 701 211 
Q 384 513 384 1019 
Q 384 1609 779 1909 
Q 1175 2209 1959 2209 
L 2766 2209 
L 2766 2266 
Q 2766 2663 2505 2880 
Q 2244 3097 1772 3097 
Q 1472 3097 1187 3025 
Q 903 2953 641 2809 
L 641 3341 
Q 956 3463 1253 3523 
Q 1550 3584 1831 3584 
Q 2591 3584 2966 3190 
Q 3341 2797 3341 1997 
z
" transform="scale(0.015625)"/>
       <path id="DejaVuSans-64" d="M 2906 2969 
L 2906 4863 
L 3481 4863 
L 3481 0 
L 2906 0 
L 2906 525 
Q 2725 213 2448 61 
Q 2172 -91 1784 -91 
Q 1150 -91 751 415 
Q 353 922 353 1747 
Q 353 2572 751 3078 
Q 1150 3584 1784 3584 
Q 2172 3584 2448 3432 
Q 2725 3281 2906 2969 
z
M 947 1747 
Q 947 1113 1208 752 
Q 1469 391 1925 391 
Q 2381 391 2643 752 
Q 2906 1113 2906 1747 
Q 2906 2381 2643 2742 
Q 2381 3103 1925 3103 
Q 1469 3103 1208 2742 
Q 947 2381 947 1747 
z
" transform="scale(0.015625)"/>
      </defs>
      <use xlink:href="#DejaVuSans-72"/>
      <use xlink:href="#DejaVuSans-65" x="38.863281"/>
      <use xlink:href="#DejaVuSans-77" x="100.386719"/>
      <use xlink:href="#DejaVuSans-61" x="182.173828"/>
      <use xlink:href="#DejaVuSans-72" x="243.453125"/>
      <use xlink:href="#DejaVuSans-64" x="282.816406"/>
     </g>
    </g>
    <g id="line2d_17">
     <path d="M 66.6 69.248563 
L 76.6 69.248563 
L 86.6 69.248563 
" style="fill: none; stroke: #ff7f0e; stroke-width: 1.5; stroke-linecap: square"/>
    </g>
    <g id="text_17">
     <!-- best_reward -->
     <g transform="translate(94.6 72.748563) scale(0.1 -0.1)">
      <defs>
       <path id="DejaVuSans-62" d="M 3116 1747 
Q 3116 2381 2855 2742 
Q 2594 3103 2138 3103 
Q 1681 3103 1420 2742 
Q 1159 2381 1159 1747 
Q 1159 1113 1420 752 
Q 1681 391 2138 391 
Q 2594 391 2855 752 
Q 3116 1113 3116 1747 
z
M 1159 2969 
Q 1341 3281 1617 3432 
Q 1894 3584 2278 3584 
Q 2916 3584 3314 3078 
Q 3713 2572 3713 1747 
Q 3713 922 3314 415 
Q 2916 -91 2278 -91 
Q 1894 -91 1617 61 
Q 1341 213 1159 525 
L 1159 0 
L 581 0 
L 581 4863 
L 1159 4863 
L 1159 2969 
z
" transform="scale(0.015625)"/>
       <path id="DejaVuSans-5f" d="M 3263 -1063 
L 3263 -1509 
L -63 -1509 
L -63 -1063 
L 3263 -1063 
z
" transform="scale(0.015625)"/>
      </defs>
      <use xlink:href="#DejaVuSans-62"/>
      <use xlink:href="#DejaVuSans-65" x="63.476562"/>
      <use xlink:href="#DejaVuSans-73" x="125"/>
      <use xlink:href="#DejaVuSans-74" x="177.099609"/>
      <use xlink:href="#DejaVuSans-5f" x="216.308594"/>
      <use xlink:href="#DejaVuSans-72" x="266.308594"/>
      <use xlink:href="#DejaVuSans-65" x="305.171875"/>
      <use xlink:href="#DejaVuSans-77" x="366.695312"/>
      <use xlink:href="#DejaVuSans-61" x="448.482422"/>
      <use xlink:href="#DejaVuSans-72" x="509.761719"/>
      <use xlink:href="#DejaVuSans-64" x="549.125"/>
     </g>
    </g>
   </g>
  </g>
 </g>
 <defs>
  <clipPath id="p8e2f015937">
   <rect x="57.6" y="41.472" width="357.12" height="266.112"/>
  </clipPath>
 </defs>
</svg>
