<?xml version="1.0" encoding="utf-8" standalone="no"?>
<!DOCTYPE svg PUBLIC "-//W3C//DTD SVG 1.1//EN"
  "http://www.w3.org/Graphics/SVG/1.1/DTD/svg11.dtd">
<svg xmlns:xlink="http://www.w3.org/1999/xlink" width="460.8pt" height="345.6pt" viewBox="0 0 460.8 345.6" xmlns="http://www.w3.org/2000/svg" version="1.1">
 <metadata>
  <rdf:RDF xmlns:dc="http://purl.org/dc/elements/1.1/" xmlns:cc="http://creativecommons.org/ns#" xmlns:rdf="http://www.w3.org/1999/02/22-rdf-syntax-ns#">
   <cc:Work>
    <dc:type rdf:resource="http://purl.org/dc/dcmitype/StillImage"/>
    <dc:date>2024-08-07T13:42:56.657531</dc:date>
    <dc:format>image/svg+xml</dc:format>
    <dc:creator>
     <cc:Agent>
      <dc:title>Matplotlib v3.9.1, https://matplotlib.org/</dc:title>
     </cc:Agent>
    </dc:creator>
   </cc:Work>
  </rdf:RDF>
 </metadata>
 <defs>
  <style type="text/css">*{stroke-linejoin: round; stroke-linecap: butt}</style>
 </defs>
 <g id="figure_1">
  <g id="patch_1">
   <path d="M 0 345.6 
L 460.8 345.6 
L 460.8 0 
L 0 0 
z
" style="fill: #ffffff"/>
  </g>
  <g id="axes_1">
   <g id="patch_2">
    <path d="M 57.6 307.584 
L 414.72 307.584 
L 414.72 41.472 
L 57.6 41.472 
z
" style="fill: #ffffff"/>
   </g>
   <g id="matplotlib.axis_1">
    <g id="xtick_1">
     <g id="line2d_1">
      <defs>
       <path id="m499b31930d" d="M 0 0 
L 0 3.5 
" style="stroke: #000000; stroke-width: 0.8"/>
      </defs>
      <g>
       <use xlink:href="#m499b31930d" x="73.182117" y="307.584" style="stroke: #000000; stroke-width: 0.8"/>
      </g>
     </g>
     <g id="text_1">
      <!-- 0 -->
      <g transform="translate(70.000867 322.182437) scale(0.1 -0.1)">
       <defs>
        <path id="DejaVuSans-30" d="M 2034 4250 
Q 1547 4250 1301 3770 
Q 1056 3291 1056 2328 
Q 1056 1369 1301 889 
Q 1547 409 2034 409 
Q 2525 409 2770 889 
Q 3016 1369 3016 2328 
Q 3016 3291 2770 3770 
Q 2525 4250 2034 4250 
z
M 2034 4750 
Q 2819 4750 3233 4129 
Q 3647 3509 3647 2328 
Q 3647 1150 3233 529 
Q 2819 -91 2034 -91 
Q 1250 -91 836 529 
Q 422 1150 422 2328 
Q 422 3509 836 4129 
Q 1250 4750 2034 4750 
z
" transform="scale(0.015625)"/>
       </defs>
       <use xlink:href="#DejaVuSans-30"/>
      </g>
     </g>
    </g>
    <g id="xtick_2">
     <g id="line2d_2">
      <g>
       <use xlink:href="#m499b31930d" x="138.243148" y="307.584" style="stroke: #000000; stroke-width: 0.8"/>
      </g>
     </g>
     <g id="text_2">
      <!-- 1 -->
      <g transform="translate(135.061898 322.182437) scale(0.1 -0.1)">
       <defs>
        <path id="DejaVuSans-31" d="M 794 531 
L 1825 531 
L 1825 4091 
L 703 3866 
L 703 4441 
L 1819 4666 
L 2450 4666 
L 2450 531 
L 3481 531 
L 3481 0 
L 794 0 
L 794 531 
z
" transform="scale(0.015625)"/>
       </defs>
       <use xlink:href="#DejaVuSans-31"/>
      </g>
     </g>
    </g>
    <g id="xtick_3">
     <g id="line2d_3">
      <g>
       <use xlink:href="#m499b31930d" x="203.304179" y="307.584" style="stroke: #000000; stroke-width: 0.8"/>
      </g>
     </g>
     <g id="text_3">
      <!-- 2 -->
      <g transform="translate(200.122929 322.182437) scale(0.1 -0.1)">
       <defs>
        <path id="DejaVuSans-32" d="M 1228 531 
L 3431 531 
L 3431 0 
L 469 0 
L 469 531 
Q 828 903 1448 1529 
Q 2069 2156 2228 2338 
Q 2531 2678 2651 2914 
Q 2772 3150 2772 3378 
Q 2772 3750 2511 3984 
Q 2250 4219 1831 4219 
Q 1534 4219 1204 4116 
Q 875 4013 500 3803 
L 500 4441 
Q 881 4594 1212 4672 
Q 1544 4750 1819 4750 
Q 2544 4750 2975 4387 
Q 3406 4025 3406 3419 
Q 3406 3131 3298 2873 
Q 3191 2616 2906 2266 
Q 2828 2175 2409 1742 
Q 1991 1309 1228 531 
z
" transform="scale(0.015625)"/>
       </defs>
       <use xlink:href="#DejaVuSans-32"/>
      </g>
     </g>
    </g>
    <g id="xtick_4">
     <g id="line2d_4">
      <g>
       <use xlink:href="#m499b31930d" x="268.36521" y="307.584" style="stroke: #000000; stroke-width: 0.8"/>
      </g>
     </g>
     <g id="text_4">
      <!-- 3 -->
      <g transform="translate(265.18396 322.182437) scale(0.1 -0.1)">
       <defs>
        <path id="DejaVuSans-33" d="M 2597 2516 
Q 3050 2419 3304 2112 
Q 3559 1806 3559 1356 
Q 3559 666 3084 287 
Q 2609 -91 1734 -91 
Q 1441 -91 1130 -33 
Q 819 25 488 141 
L 488 750 
Q 750 597 1062 519 
Q 1375 441 1716 441 
Q 2309 441 2620 675 
Q 2931 909 2931 1356 
Q 2931 1769 2642 2001 
Q 2353 2234 1838 2234 
L 1294 2234 
L 1294 2753 
L 1863 2753 
Q 2328 2753 2575 2939 
Q 2822 3125 2822 3475 
Q 2822 3834 2567 4026 
Q 2313 4219 1838 4219 
Q 1578 4219 1281 4162 
Q 984 4106 628 3988 
L 628 4550 
Q 988 4650 1302 4700 
Q 1616 4750 1894 4750 
Q 2613 4750 3031 4423 
Q 3450 4097 3450 3541 
Q 3450 3153 3228 2886 
Q 3006 2619 2597 2516 
z
" transform="scale(0.015625)"/>
       </defs>
       <use xlink:href="#DejaVuSans-33"/>
      </g>
     </g>
    </g>
    <g id="xtick_5">
     <g id="line2d_5">
      <g>
       <use xlink:href="#m499b31930d" x="333.426242" y="307.584" style="stroke: #000000; stroke-width: 0.8"/>
      </g>
     </g>
     <g id="text_5">
      <!-- 4 -->
      <g transform="translate(330.244992 322.182437) scale(0.1 -0.1)">
       <defs>
        <path id="DejaVuSans-34" d="M 2419 4116 
L 825 1625 
L 2419 1625 
L 2419 4116 
z
M 2253 4666 
L 3047 4666 
L 3047 1625 
L 3713 1625 
L 3713 1100 
L 3047 1100 
L 3047 0 
L 2419 0 
L 2419 1100 
L 313 1100 
L 313 1709 
L 2253 4666 
z
" transform="scale(0.015625)"/>
       </defs>
       <use xlink:href="#DejaVuSans-34"/>
      </g>
     </g>
    </g>
    <g id="xtick_6">
     <g id="line2d_6">
      <g>
       <use xlink:href="#m499b31930d" x="398.487273" y="307.584" style="stroke: #000000; stroke-width: 0.8"/>
      </g>
     </g>
     <g id="text_6">
      <!-- 5 -->
      <g transform="translate(395.306023 322.182437) scale(0.1 -0.1)">
       <defs>
        <path id="DejaVuSans-35" d="M 691 4666 
L 3169 4666 
L 3169 4134 
L 1269 4134 
L 1269 2991 
Q 1406 3038 1543 3061 
Q 1681 3084 1819 3084 
Q 2600 3084 3056 2656 
Q 3513 2228 3513 1497 
Q 3513 744 3044 326 
Q 2575 -91 1722 -91 
Q 1428 -91 1123 -41 
Q 819 9 494 109 
L 494 744 
Q 775 591 1075 516 
Q 1375 441 1709 441 
Q 2250 441 2565 725 
Q 2881 1009 2881 1497 
Q 2881 1984 2565 2268 
Q 2250 2553 1709 2553 
Q 1456 2553 1204 2497 
Q 953 2441 691 2322 
L 691 4666 
z
" transform="scale(0.015625)"/>
       </defs>
       <use xlink:href="#DejaVuSans-35"/>
      </g>
     </g>
    </g>
    <g id="text_7">
     <!-- timesteps -->
     <g transform="translate(211.443594 335.860562) scale(0.1 -0.1)">
      <defs>
       <path id="DejaVuSans-74" d="M 1172 4494 
L 1172 3500 
L 2356 3500 
L 2356 3053 
L 1172 3053 
L 1172 1153 
Q 1172 725 1289 603 
Q 1406 481 1766 481 
L 2356 481 
L 2356 0 
L 1766 0 
Q 1100 0 847 248 
Q 594 497 594 1153 
L 594 3053 
L 172 3053 
L 172 3500 
L 594 3500 
L 594 4494 
L 1172 4494 
z
" transform="scale(0.015625)"/>
       <path id="DejaVuSans-69" d="M 603 3500 
L 1178 3500 
L 1178 0 
L 603 0 
L 603 3500 
z
M 603 4863 
L 1178 4863 
L 1178 4134 
L 603 4134 
L 603 4863 
z
" transform="scale(0.015625)"/>
       <path id="DejaVuSans-6d" d="M 3328 2828 
Q 3544 3216 3844 3400 
Q 4144 3584 4550 3584 
Q 5097 3584 5394 3201 
Q 5691 2819 5691 2113 
L 5691 0 
L 5113 0 
L 5113 2094 
Q 5113 2597 4934 2840 
Q 4756 3084 4391 3084 
Q 3944 3084 3684 2787 
Q 3425 2491 3425 1978 
L 3425 0 
L 2847 0 
L 2847 2094 
Q 2847 2600 2669 2842 
Q 2491 3084 2119 3084 
Q 1678 3084 1418 2786 
Q 1159 2488 1159 1978 
L 1159 0 
L 581 0 
L 581 3500 
L 1159 3500 
L 1159 2956 
Q 1356 3278 1631 3431 
Q 1906 3584 2284 3584 
Q 2666 3584 2933 3390 
Q 3200 3197 3328 2828 
z
" transform="scale(0.015625)"/>
       <path id="DejaVuSans-65" d="M 3597 1894 
L 3597 1613 
L 953 1613 
Q 991 1019 1311 708 
Q 1631 397 2203 397 
Q 2534 397 2845 478 
Q 3156 559 3463 722 
L 3463 178 
Q 3153 47 2828 -22 
Q 2503 -91 2169 -91 
Q 1331 -91 842 396 
Q 353 884 353 1716 
Q 353 2575 817 3079 
Q 1281 3584 2069 3584 
Q 2775 3584 3186 3129 
Q 3597 2675 3597 1894 
z
M 3022 2063 
Q 3016 2534 2758 2815 
Q 2500 3097 2075 3097 
Q 1594 3097 1305 2825 
Q 1016 2553 972 2059 
L 3022 2063 
z
" transform="scale(0.015625)"/>
       <path id="DejaVuSans-73" d="M 2834 3397 
L 2834 2853 
Q 2591 2978 2328 3040 
Q 2066 3103 1784 3103 
Q 1356 3103 1142 2972 
Q 928 2841 928 2578 
Q 928 2378 1081 2264 
Q 1234 2150 1697 2047 
L 1894 2003 
Q 2506 1872 2764 1633 
Q 3022 1394 3022 966 
Q 3022 478 2636 193 
Q 2250 -91 1575 -91 
Q 1294 -91 989 -36 
Q 684 19 347 128 
L 347 722 
Q 666 556 975 473 
Q 1284 391 1588 391 
Q 1994 391 2212 530 
Q 2431 669 2431 922 
Q 2431 1156 2273 1281 
Q 2116 1406 1581 1522 
L 1381 1569 
Q 847 1681 609 1914 
Q 372 2147 372 2553 
Q 372 3047 722 3315 
Q 1072 3584 1716 3584 
Q 2034 3584 2315 3537 
Q 2597 3491 2834 3397 
z
" transform="scale(0.015625)"/>
       <path id="DejaVuSans-70" d="M 1159 525 
L 1159 -1331 
L 581 -1331 
L 581 3500 
L 1159 3500 
L 1159 2969 
Q 1341 3281 1617 3432 
Q 1894 3584 2278 3584 
Q 2916 3584 3314 3078 
Q 3713 2572 3713 1747 
Q 3713 922 3314 415 
Q 2916 -91 2278 -91 
Q 1894 -91 1617 61 
Q 1341 213 1159 525 
z
M 3116 1747 
Q 3116 2381 2855 2742 
Q 2594 3103 2138 3103 
Q 1681 3103 1420 2742 
Q 1159 2381 1159 1747 
Q 1159 1113 1420 752 
Q 1681 391 2138 391 
Q 2594 391 2855 752 
Q 3116 1113 3116 1747 
z
" transform="scale(0.015625)"/>
      </defs>
      <use xlink:href="#DejaVuSans-74"/>
      <use xlink:href="#DejaVuSans-69" x="39.208984"/>
      <use xlink:href="#DejaVuSans-6d" x="66.992188"/>
      <use xlink:href="#DejaVuSans-65" x="164.404297"/>
      <use xlink:href="#DejaVuSans-73" x="225.927734"/>
      <use xlink:href="#DejaVuSans-74" x="278.027344"/>
      <use xlink:href="#DejaVuSans-65" x="317.236328"/>
      <use xlink:href="#DejaVuSans-70" x="378.759766"/>
      <use xlink:href="#DejaVuSans-73" x="442.236328"/>
     </g>
    </g>
    <g id="text_8">
     <!-- 1e6 -->
     <g transform="translate(395.841875 334.860562) scale(0.1 -0.1)">
      <defs>
       <path id="DejaVuSans-36" d="M 2113 2584 
Q 1688 2584 1439 2293 
Q 1191 2003 1191 1497 
Q 1191 994 1439 701 
Q 1688 409 2113 409 
Q 2538 409 2786 701 
Q 3034 994 3034 1497 
Q 3034 2003 2786 2293 
Q 2538 2584 2113 2584 
z
M 3366 4563 
L 3366 3988 
Q 3128 4100 2886 4159 
Q 2644 4219 2406 4219 
Q 1781 4219 1451 3797 
Q 1122 3375 1075 2522 
Q 1259 2794 1537 2939 
Q 1816 3084 2150 3084 
Q 2853 3084 3261 2657 
Q 3669 2231 3669 1497 
Q 3669 778 3244 343 
Q 2819 -91 2113 -91 
Q 1303 -91 875 529 
Q 447 1150 447 2328 
Q 447 3434 972 4092 
Q 1497 4750 2381 4750 
Q 2619 4750 2861 4703 
Q 3103 4656 3366 4563 
z
" transform="scale(0.015625)"/>
      </defs>
      <use xlink:href="#DejaVuSans-31"/>
      <use xlink:href="#DejaVuSans-65" x="63.623047"/>
      <use xlink:href="#DejaVuSans-36" x="125.146484"/>
     </g>
    </g>
   </g>
   <g id="matplotlib.axis_2">
    <g id="ytick_1">
     <g id="line2d_7">
      <defs>
       <path id="mc9f2c65ecb" d="M 0 0 
L -3.5 0 
" style="stroke: #000000; stroke-width: 0.8"/>
      </defs>
      <g>
       <use xlink:href="#mc9f2c65ecb" x="57.6" y="295.536687" style="stroke: #000000; stroke-width: 0.8"/>
      </g>
     </g>
     <g id="text_9">
      <!-- 100 -->
      <g transform="translate(31.5125 299.335906) scale(0.1 -0.1)">
       <use xlink:href="#DejaVuSans-31"/>
       <use xlink:href="#DejaVuSans-30" x="63.623047"/>
       <use xlink:href="#DejaVuSans-30" x="127.246094"/>
      </g>
     </g>
    </g>
    <g id="ytick_2">
     <g id="line2d_8">
      <g>
       <use xlink:href="#mc9f2c65ecb" x="57.6" y="253.258853" style="stroke: #000000; stroke-width: 0.8"/>
      </g>
     </g>
     <g id="text_10">
      <!-- 200 -->
      <g transform="translate(31.5125 257.058072) scale(0.1 -0.1)">
       <use xlink:href="#DejaVuSans-32"/>
       <use xlink:href="#DejaVuSans-30" x="63.623047"/>
       <use xlink:href="#DejaVuSans-30" x="127.246094"/>
      </g>
     </g>
    </g>
    <g id="ytick_3">
     <g id="line2d_9">
      <g>
       <use xlink:href="#mc9f2c65ecb" x="57.6" y="210.981018" style="stroke: #000000; stroke-width: 0.8"/>
      </g>
     </g>
     <g id="text_11">
      <!-- 300 -->
      <g transform="translate(31.5125 214.780237) scale(0.1 -0.1)">
       <use xlink:href="#DejaVuSans-33"/>
       <use xlink:href="#DejaVuSans-30" x="63.623047"/>
       <use xlink:href="#DejaVuSans-30" x="127.246094"/>
      </g>
     </g>
    </g>
    <g id="ytick_4">
     <g id="line2d_10">
      <g>
       <use xlink:href="#mc9f2c65ecb" x="57.6" y="168.703184" style="stroke: #000000; stroke-width: 0.8"/>
      </g>
     </g>
     <g id="text_12">
      <!-- 400 -->
      <g transform="translate(31.5125 172.502403) scale(0.1 -0.1)">
       <use xlink:href="#DejaVuSans-34"/>
       <use xlink:href="#DejaVuSans-30" x="63.623047"/>
       <use xlink:href="#DejaVuSans-30" x="127.246094"/>
      </g>
     </g>
    </g>
    <g id="ytick_5">
     <g id="line2d_11">
      <g>
       <use xlink:href="#mc9f2c65ecb" x="57.6" y="126.42535" style="stroke: #000000; stroke-width: 0.8"/>
      </g>
     </g>
     <g id="text_13">
      <!-- 500 -->
      <g transform="translate(31.5125 130.224568) scale(0.1 -0.1)">
       <use xlink:href="#DejaVuSans-35"/>
       <use xlink:href="#DejaVuSans-30" x="63.623047"/>
       <use xlink:href="#DejaVuSans-30" x="127.246094"/>
      </g>
     </g>
    </g>
    <g id="ytick_6">
     <g id="line2d_12">
      <g>
       <use xlink:href="#mc9f2c65ecb" x="57.6" y="84.147515" style="stroke: #000000; stroke-width: 0.8"/>
      </g>
     </g>
     <g id="text_14">
      <!-- 600 -->
      <g transform="translate(31.5125 87.946734) scale(0.1 -0.1)">
       <use xlink:href="#DejaVuSans-36"/>
       <use xlink:href="#DejaVuSans-30" x="63.623047"/>
       <use xlink:href="#DejaVuSans-30" x="127.246094"/>
      </g>
     </g>
    </g>
    <g id="ytick_7">
     <g id="line2d_13">
      <g>
       <use xlink:href="#mc9f2c65ecb" x="57.6" y="41.869681" style="stroke: #000000; stroke-width: 0.8"/>
      </g>
     </g>
     <g id="text_15">
      <!-- 700 -->
      <g transform="translate(31.5125 45.6689) scale(0.1 -0.1)">
       <defs>
        <path id="DejaVuSans-37" d="M 525 4666 
L 3525 4666 
L 3525 4397 
L 1831 0 
L 1172 0 
L 2766 4134 
L 525 4134 
L 525 4666 
z
" transform="scale(0.015625)"/>
       </defs>
       <use xlink:href="#DejaVuSans-37"/>
       <use xlink:href="#DejaVuSans-30" x="63.623047"/>
       <use xlink:href="#DejaVuSans-30" x="127.246094"/>
      </g>
     </g>
    </g>
   </g>
   <g id="line2d_14">
    <path d="M 73.832727 288.280695 
L 74.483338 280.105574 
L 75.133948 279.720207 
L 75.784558 295.488 
L 76.435169 280.540092 
L 77.085779 274.223099 
L 77.736389 273.26431 
L 78.386999 276.560057 
L 79.03761 273.537175 
L 79.68822 265.305905 
L 80.33883 263.625534 
L 80.989441 257.314929 
L 81.640051 265.39235 
L 82.290661 267.417268 
L 82.941272 281.135791 
L 83.591882 257.358357 
L 84.242492 274.612114 
L 84.893103 254.731855 
L 85.543713 255.553935 
L 86.194323 265.256021 
L 86.844934 254.355312 
L 87.495544 277.024483 
L 88.146154 271.795984 
L 88.796764 267.537337 
L 89.447375 268.847329 
L 90.097985 277.407309 
L 90.748595 260.257098 
L 91.399206 251.090152 
L 92.049816 270.135746 
L 92.700426 272.882964 
L 93.351037 263.119739 
L 94.001647 265.507608 
L 94.652257 259.245808 
L 95.302868 257.165494 
L 95.953478 271.624763 
L 96.604088 264.55084 
L 97.254698 265.533998 
L 97.905309 265.911133 
L 98.555919 269.925219 
L 99.206529 269.184892 
L 99.85714 271.286113 
L 100.50775 250.145712 
L 101.15836 249.620232 
L 101.808971 254.121722 
L 102.459581 267.492497 
L 103.110191 270.112057 
L 103.760802 242.038544 
L 104.411412 236.34522 
L 105.062022 229.477376 
L 105.712633 243.877427 
L 106.363243 248.315517 
L 107.013853 240.703389 
L 107.664463 240.266278 
L 108.315074 248.233921 
L 108.965684 215.406941 
L 109.616294 198.517238 
L 110.266905 237.160777 
L 110.917515 217.068084 
L 111.568125 227.319837 
L 112.218736 211.757831 
L 112.869346 209.354802 
L 113.519956 198.66814 
L 114.170567 166.782527 
L 114.821177 210.58882 
L 115.471787 194.036815 
L 116.122398 187.768373 
L 116.773008 185.188766 
L 117.423618 185.159827 
L 118.074228 181.414197 
L 118.724839 206.821848 
L 119.375449 189.606986 
L 120.026059 202.916209 
L 120.67667 161.910282 
L 121.32728 161.300771 
L 121.97789 183.072769 
L 122.628501 169.487599 
L 123.279111 138.038411 
L 123.929721 183.769529 
L 124.580332 260.677602 
L 125.230942 269.693482 
L 125.881552 251.112416 
L 126.532163 242.708423 
L 127.182773 240.436869 
L 127.833383 218.602097 
L 128.483993 209.080334 
L 129.134604 211.932384 
L 129.785214 203.849551 
L 131.086435 163.114401 
L 131.737045 225.443695 
L 132.387655 171.600691 
L 133.038266 203.7774 
L 133.688876 179.332715 
L 134.339486 205.532818 
L 134.990097 188.753971 
L 135.640707 188.658237 
L 136.291317 171.214255 
L 136.941927 252.589193 
L 137.592538 204.559582 
L 138.243148 194.747298 
L 138.893758 261.484014 
L 139.544369 245.445503 
L 140.194979 259.865551 
L 140.845589 190.404921 
L 141.4962 147.523046 
L 142.14681 130.538175 
L 142.79742 146.017063 
L 143.448031 115.725527 
L 144.098641 140.329595 
L 144.749251 156.830528 
L 145.399862 170.488175 
L 146.050472 201.903012 
L 146.701082 133.724533 
L 147.351692 95.1292 
L 148.002303 103.817185 
L 148.652913 92.321043 
L 149.303523 165.659768 
L 149.954134 141.258989 
L 150.604744 146.796704 
L 151.255354 158.695847 
L 151.905965 121.528367 
L 152.556575 129.526285 
L 153.207185 183.034736 
L 153.857796 103.092471 
L 154.508406 144.90886 
L 155.159016 204.402718 
L 155.809627 147.287994 
L 156.460237 157.317277 
L 157.110847 143.437096 
L 157.761457 91.570729 
L 159.062678 123.295758 
L 159.713288 125.211384 
L 160.363899 111.521225 
L 161.014509 124.770942 
L 161.665119 115.653638 
L 162.31573 117.993264 
L 162.96634 81.921528 
L 163.61695 98.548145 
L 164.918171 152.660391 
L 165.568781 111.987355 
L 166.219392 193.863928 
L 166.870002 168.339574 
L 167.520612 157.919795 
L 168.171222 192.603398 
L 168.821833 169.786943 
L 169.472443 154.846666 
L 170.123053 170.256349 
L 170.773664 113.911584 
L 171.424274 221.672491 
L 172.074884 203.657153 
L 172.725495 227.627193 
L 173.376105 130.308154 
L 174.026715 153.906356 
L 174.677326 169.083258 
L 175.327936 160.05127 
L 175.978546 100.679273 
L 176.629156 131.607957 
L 177.930377 222.628363 
L 178.580987 194.182471 
L 179.231598 200.257136 
L 179.882208 170.938874 
L 180.532818 181.532329 
L 181.183429 133.033608 
L 181.834039 167.441571 
L 182.484649 178.438129 
L 183.13526 172.582674 
L 183.78587 124.089271 
L 184.43648 129.393909 
L 185.087091 150.809213 
L 185.737701 161.467066 
L 186.388311 117.141488 
L 187.038921 131.809233 
L 187.689532 105.922228 
L 188.340142 180.844875 
L 188.990752 167.04123 
L 189.641363 179.84982 
L 190.942583 101.662419 
L 191.593194 149.163866 
L 192.243804 222.514915 
L 192.894414 192.964915 
L 193.545025 118.938529 
L 194.195635 142.339221 
L 194.846245 102.62314 
L 195.496856 84.377329 
L 196.798076 136.211222 
L 197.448686 104.219137 
L 198.099297 95.012048 
L 199.400517 153.0023 
L 201.352348 111.487191 
L 202.002959 147.501717 
L 202.653569 135.493899 
L 203.304179 112.110544 
L 203.95479 155.258993 
L 204.6054 183.250319 
L 205.25601 171.530527 
L 205.906621 136.463782 
L 206.557231 233.871084 
L 207.207841 234.955742 
L 208.509062 97.373299 
L 209.159672 125.807451 
L 209.810282 193.597472 
L 210.460893 173.629566 
L 211.111503 111.623694 
L 211.762113 142.066846 
L 212.412724 156.974154 
L 213.063334 138.860051 
L 213.713944 117.203497 
L 214.364555 148.092972 
L 215.015165 156.383753 
L 215.665775 127.752895 
L 216.316385 153.122043 
L 216.966996 93.305943 
L 217.617606 163.163443 
L 218.918827 246.304601 
L 219.569437 141.979652 
L 220.220047 156.911672 
L 220.870658 229.105137 
L 221.521268 171.570847 
L 222.171878 158.596888 
L 222.822489 108.555532 
L 223.473099 157.090985 
L 224.123709 221.053163 
L 224.77432 108.061148 
L 225.42493 90.451001 
L 226.07554 81.975589 
L 226.72615 126.194183 
L 227.376761 127.89034 
L 228.027371 167.05568 
L 228.677981 130.390507 
L 229.328592 155.596151 
L 229.979202 104.595625 
L 230.629812 147.372592 
L 231.280423 173.196857 
L 231.931033 121.043233 
L 233.232254 136.575438 
L 233.882864 93.276006 
L 234.533474 100.538074 
L 235.184085 87.022869 
L 235.834695 115.261308 
L 236.485305 102.616456 
L 237.135915 111.331719 
L 237.786526 94.424458 
L 238.437136 97.43505 
L 239.087746 77.451932 
L 239.738357 130.811159 
L 240.388967 105.937837 
L 241.039577 95.249319 
L 241.690188 121.32151 
L 242.340798 114.768421 
L 242.991408 130.051917 
L 243.642019 105.195057 
L 244.292629 138.817858 
L 244.943239 152.403202 
L 245.59385 91.714563 
L 246.24446 111.32955 
L 246.89507 115.874316 
L 247.54568 113.721072 
L 248.196291 124.157626 
L 248.846901 89.82914 
L 249.497511 82.865892 
L 250.148122 215.425379 
L 250.798732 258.10596 
L 251.449342 208.468992 
L 252.099953 180.348491 
L 252.750563 106.466386 
L 253.401173 82.248754 
L 254.051784 137.969308 
L 254.702394 121.044755 
L 255.353004 88.779318 
L 256.003615 99.682632 
L 256.654225 143.381936 
L 257.304835 77.24831 
L 257.955445 83.997903 
L 258.606056 76.562432 
L 259.256666 119.699652 
L 259.907276 125.958163 
L 260.557887 122.624539 
L 261.208497 93.679459 
L 261.859107 219.49845 
L 262.509718 142.04758 
L 263.160328 81.175937 
L 263.810938 103.760752 
L 264.461549 106.099114 
L 265.112159 149.958122 
L 265.762769 98.03033 
L 266.413379 72.696657 
L 267.06399 98.390453 
L 267.7146 93.966043 
L 268.36521 85.168411 
L 269.015821 249.811133 
L 269.666431 274.416761 
L 270.967652 232.6135 
L 271.618262 221.892128 
L 272.268872 229.313791 
L 272.919483 216.653355 
L 273.570093 168.526243 
L 274.220703 180.552346 
L 274.871314 249.653729 
L 275.521924 229.272143 
L 276.172534 148.985441 
L 276.823144 110.151068 
L 277.473755 163.505365 
L 278.124365 169.454863 
L 278.774975 133.666088 
L 280.076196 276.920433 
L 280.726806 279.365145 
L 281.377417 277.825018 
L 282.028027 261.227789 
L 282.678637 268.002377 
L 283.329248 254.974919 
L 283.979858 225.20841 
L 284.630468 225.357004 
L 285.281079 190.075657 
L 285.931689 213.996409 
L 286.582299 210.897439 
L 287.232909 174.973524 
L 287.88352 176.170058 
L 288.53413 205.36834 
L 289.18474 148.395064 
L 289.835351 146.511371 
L 290.485961 158.30961 
L 291.136571 194.703938 
L 291.787182 161.721186 
L 292.437792 158.854491 
L 293.088402 163.553384 
L 293.739013 101.344096 
L 294.389623 113.124785 
L 295.040233 131.574206 
L 295.690844 189.433837 
L 296.341454 150.627034 
L 296.992064 127.535388 
L 297.642674 149.852013 
L 298.293285 139.895524 
L 298.943895 193.357685 
L 299.594505 111.276986 
L 300.245116 143.656315 
L 300.895726 147.941047 
L 301.546336 102.249003 
L 302.196947 129.802482 
L 302.847557 164.901663 
L 303.498167 127.005287 
L 304.148778 113.904384 
L 304.799388 120.280173 
L 305.449998 96.546657 
L 306.100608 103.961044 
L 306.751219 154.303159 
L 307.401829 125.140886 
L 308.052439 85.30608 
L 308.70305 91.442146 
L 309.35366 106.038682 
L 310.00427 95.163597 
L 310.654881 114.193057 
L 311.305491 94.791573 
L 311.956101 96.894862 
L 312.606712 181.977828 
L 313.257322 128.294926 
L 313.907932 148.907307 
L 314.558543 152.127195 
L 315.209153 120.947216 
L 315.859763 131.545614 
L 316.510373 138.800659 
L 317.160984 118.283358 
L 317.811594 193.767624 
L 318.462204 152.166357 
L 319.112815 124.678785 
L 319.763425 192.541055 
L 320.414035 123.94252 
L 321.064646 167.857653 
L 321.715256 142.671559 
L 322.365866 187.608052 
L 323.016477 81.097905 
L 323.667087 161.897687 
L 324.317697 129.905657 
L 324.968308 106.491444 
L 325.618918 156.385867 
L 326.920138 214.853283 
L 327.570749 89.41875 
L 328.221359 101.561937 
L 328.871969 124.377969 
L 329.52258 110.689861 
L 330.17319 128.19762 
L 330.8238 122.41164 
L 331.474411 96.645668 
L 332.125021 140.938975 
L 332.775631 90.987963 
L 333.426242 113.501295 
L 334.076852 112.508577 
L 334.727462 125.196443 
L 336.028683 73.112493 
L 336.679293 88.965366 
L 337.329903 151.294271 
L 337.980514 97.586261 
L 338.631124 130.65912 
L 339.281734 115.567865 
L 339.932345 159.934326 
L 340.582955 146.97967 
L 341.884176 86.594852 
L 342.534786 54.230502 
L 343.185396 65.013443 
L 343.836007 176.450783 
L 344.486617 177.787101 
L 345.137227 169.187764 
L 345.787837 183.031214 
L 346.438448 135.973097 
L 347.089058 114.021359 
L 347.739668 219.871193 
L 348.390279 125.163416 
L 349.040889 122.418992 
L 349.691499 134.527939 
L 350.34211 142.970023 
L 350.99272 126.709816 
L 351.64333 256.580728 
L 352.944551 117.251465 
L 353.595161 161.909597 
L 354.245772 78.792004 
L 354.896382 131.501683 
L 355.546992 126.800029 
L 356.197602 247.269699 
L 356.848213 124.307509 
L 357.498823 142.267011 
L 358.149433 97.291783 
L 358.800044 105.940496 
L 359.450654 96.603064 
L 360.101264 182.438356 
L 360.751875 192.740111 
L 361.402485 140.814509 
L 362.053095 140.345555 
L 362.703706 146.238003 
L 363.354316 97.223039 
L 364.004926 268.005294 
L 364.655537 160.692215 
L 365.306147 121.313769 
L 365.956757 207.671742 
L 366.607367 101.016511 
L 367.257978 88.552472 
L 367.908588 112.26318 
L 368.559198 157.745175 
L 369.209809 128.9915 
L 369.860419 182.019091 
L 370.511029 170.262154 
L 371.16164 263.66443 
L 371.81225 227.619942 
L 372.46286 239.927413 
L 373.113471 225.541813 
L 373.764081 202.866727 
L 374.414691 163.026848 
L 375.065302 170.56751 
L 375.715912 158.185296 
L 376.366522 104.861692 
L 377.017132 151.765111 
L 377.667743 129.642054 
L 378.318353 116.488511 
L 378.968963 181.258969 
L 379.619574 75.154056 
L 380.270184 90.190971 
L 380.920794 92.793028 
L 381.571405 56.900529 
L 382.222015 75.255519 
L 382.872625 116.718634 
L 384.173846 179.15046 
L 384.824456 174.999715 
L 385.475066 106.823883 
L 386.125677 103.102609 
L 386.776287 122.634664 
L 387.426897 170.285479 
L 388.077508 206.84119 
L 388.728118 87.224762 
L 389.378728 115.072834 
L 390.029339 69.530647 
L 390.679949 80.965402 
L 391.330559 121.501961 
L 391.98117 144.390398 
L 392.63178 134.029762 
L 393.28239 111.694399 
L 393.933001 124.060057 
L 394.583611 142.036977 
L 395.234221 144.253507 
L 395.884831 77.006265 
L 396.535442 99.56365 
L 397.186052 70.26287 
L 397.836662 71.353334 
L 398.487273 110.229798 
L 398.487273 110.229798 
" clip-path="url(#pa3404d85c2)" style="fill: none; stroke: #1f77b4; stroke-width: 1.5; stroke-linecap: square"/>
   </g>
   <g id="line2d_15">
    <path d="M 73.832727 215.306109 
L 74.483338 226.644757 
L 75.133948 224.239123 
L 75.784558 246.409852 
L 76.435169 172.182836 
L 77.085779 222.083131 
L 77.736389 111.64096 
L 78.386999 179.073962 
L 79.03761 171.937654 
L 79.68822 200.124227 
L 80.33883 191.702322 
L 80.989441 221.254541 
L 81.640051 191.495283 
L 82.290661 191.106361 
L 82.941272 193.270787 
L 83.591882 171.413438 
L 84.242492 220.988266 
L 85.543713 135.460533 
L 86.194323 135.435027 
L 86.844934 189.850679 
L 87.495544 221.70693 
L 88.146154 191.250101 
L 88.796764 199.946656 
L 89.447375 177.522501 
L 90.097985 192.273051 
L 90.748595 136.200332 
L 91.399206 190.256597 
L 92.049816 189.698488 
L 92.700426 220.586618 
L 93.351037 220.409035 
L 94.001647 199.819814 
L 94.652257 201.126174 
L 95.302868 136.538601 
L 95.953478 175.941251 
L 96.604088 194.145968 
L 97.254698 189.897206 
L 97.905309 187.935536 
L 98.555919 191.617918 
L 99.206529 212.752553 
L 99.85714 212.976621 
L 100.50775 177.370322 
L 101.15836 200.115776 
L 101.808971 191.05972 
L 102.459581 189.119336 
L 103.110191 190.243901 
L 103.760802 176.905249 
L 104.411412 134.242982 
L 105.062022 177.171603 
L 105.712633 160.954435 
L 106.363243 191.402297 
L 107.013853 189.770402 
L 107.664463 171.645962 
L 108.315074 170.859535 
L 108.965684 170.863822 
L 109.616294 55.292944 
L 110.266905 170.466368 
L 110.917515 161.043231 
L 111.568125 133.28738 
L 112.218736 133.566431 
L 112.869346 136.708122 
L 113.519956 54.709485 
L 114.170567 56.024524 
L 114.821177 54.941954 
L 115.471787 54.992738 
L 116.122398 109.700547 
L 117.423618 109.62027 
L 118.074228 55.34796 
L 118.724839 133.570726 
L 119.375449 55.910416 
L 120.026059 54.97586 
L 120.67667 55.094327 
L 121.32728 54.050001 
L 121.97789 55.009818 
L 122.628501 54.28255 
L 123.279111 54.341718 
L 123.929721 54.079494 
L 124.580332 134.965853 
L 125.230942 176.994003 
L 125.881552 172.225025 
L 126.532163 176.706606 
L 127.182773 171.392202 
L 127.833383 110.95611 
L 128.483993 134.259817 
L 129.134604 110.842235 
L 129.785214 56.760078 
L 130.435824 55.453629 
L 131.086435 54.544542 
L 131.737045 55.166144 
L 132.387655 54.705303 
L 133.038266 55.089943 
L 133.688876 55.703234 
L 134.339486 133.807495 
L 134.990097 55.677584 
L 135.640707 55.153368 
L 136.941927 54.574115 
L 137.592538 56.113109 
L 138.243148 55.61834 
L 138.893758 189.550549 
L 139.544369 135.312662 
L 140.194979 190.52291 
L 140.845589 54.798327 
L 142.14681 54.59117 
L 142.79742 55.880716 
L 143.448031 54.83631 
L 144.098641 54.476961 
L 144.749251 55.001126 
L 145.399862 55.170453 
L 146.050472 54.223328 
L 146.701082 54.455902 
L 147.351692 54.531977 
L 148.002303 54.455877 
L 148.652913 54.874529 
L 149.303523 54.878554 
L 149.954134 54.235998 
L 150.604744 54.400865 
L 151.255354 54.941877 
L 151.905965 54.718025 
L 152.556575 54.713843 
L 153.207185 55.081555 
L 153.857796 54.400865 
L 154.508406 54.680093 
L 155.159016 54.303685 
L 155.809627 54.739003 
L 157.110847 54.210661 
L 157.761457 54.853293 
L 158.412068 54.405148 
L 159.062678 54.434772 
L 159.713288 54.83639 
L 160.363899 54.696789 
L 161.014509 54.303605 
L 161.665119 54.489682 
L 162.31573 54.34595 
L 162.96634 54.553031 
L 164.267561 54.362777 
L 164.918171 54.70094 
L 165.568781 54.324765 
L 166.219392 55.639753 
L 166.870002 54.730695 
L 167.520612 54.468573 
L 168.171222 56.113134 
L 168.821833 54.688502 
L 170.123053 54.506428 
L 170.773664 54.126046 
L 171.424274 134.445869 
L 172.074884 133.985015 
L 172.725495 56.544406 
L 173.376105 54.434772 
L 174.026715 54.434797 
L 174.677326 54.654595 
L 175.978546 54.65457 
L 177.279767 54.912384 
L 177.930377 171.578305 
L 178.580987 56.037169 
L 179.231598 55.174477 
L 179.882208 55.648141 
L 180.532818 54.810973 
L 181.183429 55.309948 
L 181.834039 54.798226 
L 182.484649 54.912562 
L 183.13526 54.493838 
L 183.78587 54.569959 
L 184.43648 54.447261 
L 185.087091 55.309898 
L 185.737701 54.895558 
L 186.388311 54.210661 
L 187.038921 54.041486 
L 187.689532 54.612224 
L 188.340142 54.857575 
L 188.990752 54.954781 
L 189.641363 54.595377 
L 190.291973 54.882967 
L 191.593194 54.333102 
L 192.243804 134.014627 
L 192.894414 109.569439 
L 193.545025 54.189476 
L 194.195635 54.954806 
L 194.846245 54.654545 
L 195.496856 54.599634 
L 196.147466 54.358727 
L 196.798076 54.455801 
L 197.448686 53.711783 
L 198.099297 54.375498 
L 198.749907 54.688375 
L 199.400517 54.67573 
L 200.051128 54.38822 
L 200.701738 54.240103 
L 201.352348 53.927429 
L 202.002959 53.969597 
L 202.653569 54.375473 
L 203.95479 54.574217 
L 204.6054 54.223353 
L 205.25601 54.810947 
L 205.906621 54.396633 
L 206.557231 137.021037 
L 207.207841 55.153474 
L 207.858451 54.303579 
L 208.509062 54.350055 
L 209.159672 54.273955 
L 209.810282 54.667215 
L 210.460893 54.134536 
L 211.111503 54.675705 
L 211.762113 54.68835 
L 213.713944 54.417818 
L 214.364555 54.874503 
L 215.015165 54.603815 
L 215.665775 54.675781 
L 216.316385 54.269804 
L 217.617606 54.540259 
L 218.268216 54.426253 
L 218.918827 134.116077 
L 219.569437 53.809039 
L 220.220047 54.853212 
L 220.870658 171.307731 
L 221.521268 54.354389 
L 222.171878 55.682048 
L 222.822489 55.068884 
L 225.42493 54.540361 
L 226.07554 53.906244 
L 226.72615 54.240256 
L 227.376761 55.690538 
L 228.027371 54.58263 
L 228.677981 55.123693 
L 229.328592 54.405148 
L 230.629812 55.834346 
L 231.280423 55.821548 
L 231.931033 54.586887 
L 232.581643 54.519281 
L 233.232254 54.181062 
L 233.882864 54.151464 
L 234.533474 54.337512 
L 235.834695 53.885113 
L 237.786526 54.443181 
L 239.087746 54.037254 
L 239.738357 54.26988 
L 241.039577 54.096503 
L 241.690188 54.519175 
L 242.340798 54.248745 
L 242.991408 53.775132 
L 243.642019 54.328971 
L 244.292629 54.489708 
L 244.943239 55.022514 
L 245.59385 54.088013 
L 246.24446 53.927353 
L 246.89507 54.15562 
L 248.846901 53.813245 
L 249.497511 54.104937 
L 250.148122 135.088615 
L 250.798732 189.909915 
L 251.449342 54.290909 
L 252.099953 54.671473 
L 252.750563 54.147257 
L 254.702394 53.656822 
L 256.003615 53.762541 
L 256.654225 53.859772 
L 257.955445 53.834405 
L 258.606056 54.295221 
L 259.256666 53.817452 
L 259.907276 54.214969 
L 260.557887 53.754052 
L 261.208497 53.931611 
L 261.859107 54.849086 
L 262.509718 53.927353 
L 263.160328 53.639893 
L 263.810938 54.10068 
L 264.461549 54.27401 
L 265.112159 54.781374 
L 265.762769 53.956952 
L 266.413379 53.682159 
L 267.06399 53.965391 
L 267.7146 53.656796 
L 268.36521 53.732943 
L 269.015821 56.239705 
L 269.666431 134.767147 
L 270.317041 57.533767 
L 270.967652 61.951961 
L 271.618262 55.884948 
L 272.268872 171.054039 
L 272.919483 56.430476 
L 273.570093 54.798353 
L 274.220703 55.39428 
L 274.871314 176.258411 
L 275.521924 134.412013 
L 276.172534 54.574166 
L 277.473755 55.614492 
L 278.124365 54.100654 
L 278.774975 54.050001 
L 279.425586 54.844723 
L 280.076196 221.220786 
L 280.726806 247.754232 
L 281.377417 172.478874 
L 282.028027 192.509921 
L 282.678637 221.178508 
L 283.329248 190.489121 
L 283.979858 172.13636 
L 284.630468 134.5094 
L 285.281079 56.075202 
L 285.931689 109.472179 
L 286.582299 55.094226 
L 287.232909 55.068757 
L 287.88352 54.033124 
L 288.53413 54.578499 
L 289.18474 55.791873 
L 289.835351 54.772859 
L 290.485961 54.362777 
L 291.787182 54.679861 
L 292.437792 54.147257 
L 293.088402 53.910476 
L 293.739013 54.210606 
L 295.040233 54.155696 
L 295.690844 55.609952 
L 296.341454 54.219045 
L 296.992064 54.375447 
L 297.642674 54.168417 
L 298.293285 53.762465 
L 298.943895 133.739796 
L 299.594505 53.809013 
L 300.245116 54.206429 
L 300.895726 54.22756 
L 302.196947 53.927277 
L 302.847557 55.402744 
L 303.498167 54.189552 
L 304.799388 54.214813 
L 305.449998 53.91045 
L 306.100608 54.15562 
L 306.751219 54.037204 
L 307.401829 54.30366 
L 308.052439 53.880856 
L 308.70305 54.197885 
L 309.35366 54.307811 
L 310.00427 54.071085 
L 310.654881 54.193733 
L 311.305491 53.851257 
L 311.956101 54.206349 
L 312.606712 53.669492 
L 313.257322 53.766668 
L 313.907932 54.147206 
L 314.558543 53.711707 
L 315.859763 53.885008 
L 316.510373 53.639843 
L 317.160984 53.830123 
L 317.811594 53.787802 
L 319.763425 54.033022 
L 320.414035 53.635636 
L 321.064646 55.555143 
L 321.715256 53.842768 
L 322.365866 54.773142 
L 323.016477 53.948462 
L 324.317697 53.758284 
L 324.968308 53.914632 
L 325.618918 54.35857 
L 326.269528 53.703293 
L 326.920138 54.278318 
L 327.570749 53.661028 
L 328.221359 53.614501 
L 329.52258 53.766697 
L 330.17319 53.758284 
L 330.8238 53.893577 
L 331.474411 53.568 
L 332.125021 53.568 
L 332.775631 53.864004 
L 334.076852 53.635687 
L 334.727462 53.762465 
L 337.329903 53.568 
L 337.980514 54.011964 
L 339.281734 53.808988 
L 339.932345 53.893522 
L 340.582955 53.656822 
L 342.534786 53.568 
L 343.185396 53.927277 
L 343.836007 53.593392 
L 344.486617 53.817477 
L 345.137227 53.758284 
L 345.787837 53.965365 
L 346.438448 53.639843 
L 347.089058 53.766723 
L 347.739668 53.597599 
L 348.390279 53.568 
L 349.691499 54.075317 
L 350.99272 53.593392 
L 351.64333 180.591618 
L 352.293941 53.711757 
L 352.944551 53.838637 
L 353.595161 53.568 
L 355.546992 53.825916 
L 356.197602 199.739435 
L 356.848213 53.999192 
L 357.498823 53.77098 
L 358.149433 53.855515 
L 358.800044 53.593392 
L 360.101264 53.825941 
L 360.751875 53.902012 
L 361.402485 53.787802 
L 362.703706 53.952771 
L 363.354316 53.606063 
L 364.004926 53.948513 
L 365.306147 53.855409 
L 366.607367 53.652589 
L 367.257978 53.787777 
L 368.559198 53.593392 
L 369.209809 53.656796 
L 369.860419 53.906218 
L 370.511029 54.438873 
L 371.16164 190.34952 
L 371.81225 109.768183 
L 372.46286 55.534059 
L 373.113471 133.769356 
L 373.764081 55.385735 
L 374.414691 56.180977 
L 375.065302 53.787883 
L 375.715912 54.033124 
L 376.366522 54.134485 
L 377.017132 54.045718 
L 377.667743 54.421995 
L 378.318353 53.923172 
L 378.968963 53.830123 
L 379.619574 53.606063 
L 380.270184 53.817477 
L 380.920794 53.67375 
L 381.571405 53.868185 
L 382.222015 53.711783 
L 382.872625 53.779389 
L 383.523236 53.635687 
L 384.173846 53.677927 
L 384.824456 53.923096 
L 385.475066 53.724403 
L 387.426897 53.661003 
L 388.077508 54.37965 
L 388.728118 53.711757 
L 389.378728 53.779419 
L 390.029339 53.589185 
L 390.679949 54.066828 
L 391.330559 53.851359 
L 391.98117 53.838536 
L 392.63178 53.965365 
L 393.28239 53.703293 
L 393.933001 53.808988 
L 394.583611 53.568 
L 395.234221 53.749769 
L 396.535442 53.838536 
L 397.186052 53.568 
L 397.836662 53.758208 
L 398.487273 53.568 
L 398.487273 53.568 
" clip-path="url(#pa3404d85c2)" style="fill: none; stroke: #ff7f0e; stroke-width: 1.5; stroke-linecap: square"/>
   </g>
   <g id="patch_3">
    <path d="M 57.6 307.584 
L 57.6 41.472 
" style="fill: none; stroke: #000000; stroke-width: 0.8; stroke-linejoin: miter; stroke-linecap: square"/>
   </g>
   <g id="patch_4">
    <path d="M 414.72 307.584 
L 414.72 41.472 
" style="fill: none; stroke: #000000; stroke-width: 0.8; stroke-linejoin: miter; stroke-linecap: square"/>
   </g>
   <g id="patch_5">
    <path d="M 57.6 307.584 
L 414.72 307.584 
" style="fill: none; stroke: #000000; stroke-width: 0.8; stroke-linejoin: miter; stroke-linecap: square"/>
   </g>
   <g id="patch_6">
    <path d="M 57.6 41.472 
L 414.72 41.472 
" style="fill: none; stroke: #000000; stroke-width: 0.8; stroke-linejoin: miter; stroke-linecap: square"/>
   </g>
   <g id="legend_1">
    <g id="patch_7">
     <path d="M 314.459063 302.584 
L 407.72 302.584 
Q 409.72 302.584 409.72 300.584 
L 409.72 271.949625 
Q 409.72 269.949625 407.72 269.949625 
L 314.459063 269.949625 
Q 312.459063 269.949625 312.459063 271.949625 
L 312.459063 300.584 
Q 312.459063 302.584 314.459063 302.584 
z
" style="fill: #ffffff; opacity: 0.8; stroke: #cccccc; stroke-linejoin: miter"/>
    </g>
    <g id="line2d_16">
     <path d="M 316.459063 278.048062 
L 326.459063 278.048062 
L 336.459063 278.048062 
" style="fill: none; stroke: #1f77b4; stroke-width: 1.5; stroke-linecap: square"/>
    </g>
    <g id="text_16">
     <!-- reward -->
     <g transform="translate(344.459063 281.548062) scale(0.1 -0.1)">
      <defs>
       <path id="DejaVuSans-72" d="M 2631 2963 
Q 2534 3019 2420 3045 
Q 2306 3072 2169 3072 
Q 1681 3072 1420 2755 
Q 1159 2438 1159 1844 
L 1159 0 
L 581 0 
L 581 3500 
L 1159 3500 
L 1159 2956 
Q 1341 3275 1631 3429 
Q 1922 3584 2338 3584 
Q 2397 3584 2469 3576 
Q 2541 3569 2628 3553 
L 2631 2963 
z
" transform="scale(0.015625)"/>
       <path id="DejaVuSans-77" d="M 269 3500 
L 844 3500 
L 1563 769 
L 2278 3500 
L 2956 3500 
L 3675 769 
L 4391 3500 
L 4966 3500 
L 4050 0 
L 3372 0 
L 2619 2869 
L 1863 0 
L 1184 0 
L 269 3500 
z
" transform="scale(0.015625)"/>
       <path id="DejaVuSans-61" d="M 2194 1759 
Q 1497 1759 1228 1600 
Q 959 1441 959 1056 
Q 959 750 1161 570 
Q 1363 391 1709 391 
Q 2188 391 2477 730 
Q 2766 1069 2766 1631 
L 2766 1759 
L 2194 1759 
z
M 3341 1997 
L 3341 0 
L 2766 0 
L 2766 531 
Q 2569 213 2275 61 
Q 1981 -91 1556 -91 
Q 1019 -91 701 211 
Q 384 513 384 1019 
Q 384 1609 779 1909 
Q 1175 2209 1959 2209 
L 2766 2209 
L 2766 2266 
Q 2766 2663 2505 2880 
Q 2244 3097 1772 3097 
Q 1472 3097 1187 3025 
Q 903 2953 641 2809 
L 641 3341 
Q 956 3463 1253 3523 
Q 1550 3584 1831 3584 
Q 2591 3584 2966 3190 
Q 3341 2797 3341 1997 
z
" transform="scale(0.015625)"/>
       <path id="DejaVuSans-64" d="M 2906 2969 
L 2906 4863 
L 3481 4863 
L 3481 0 
L 2906 0 
L 2906 525 
Q 2725 213 2448 61 
Q 2172 -91 1784 -91 
Q 1150 -91 751 415 
Q 353 922 353 1747 
Q 353 2572 751 3078 
Q 1150 3584 1784 3584 
Q 2172 3584 2448 3432 
Q 2725 3281 2906 2969 
z
M 947 1747 
Q 947 1113 1208 752 
Q 1469 391 1925 391 
Q 2381 391 2643 752 
Q 2906 1113 2906 1747 
Q 2906 2381 2643 2742 
Q 2381 3103 1925 3103 
Q 1469 3103 1208 2742 
Q 947 2381 947 1747 
z
" transform="scale(0.015625)"/>
      </defs>
      <use xlink:href="#DejaVuSans-72"/>
      <use xlink:href="#DejaVuSans-65" x="38.863281"/>
      <use xlink:href="#DejaVuSans-77" x="100.386719"/>
      <use xlink:href="#DejaVuSans-61" x="182.173828"/>
      <use xlink:href="#DejaVuSans-72" x="243.453125"/>
      <use xlink:href="#DejaVuSans-64" x="282.816406"/>
     </g>
    </g>
    <g id="line2d_17">
     <path d="M 316.459063 292.726187 
L 326.459063 292.726187 
L 336.459063 292.726187 
" style="fill: none; stroke: #ff7f0e; stroke-width: 1.5; stroke-linecap: square"/>
    </g>
    <g id="text_17">
     <!-- best_reward -->
     <g transform="translate(344.459063 296.226187) scale(0.1 -0.1)">
      <defs>
       <path id="DejaVuSans-62" d="M 3116 1747 
Q 3116 2381 2855 2742 
Q 2594 3103 2138 3103 
Q 1681 3103 1420 2742 
Q 1159 2381 1159 1747 
Q 1159 1113 1420 752 
Q 1681 391 2138 391 
Q 2594 391 2855 752 
Q 3116 1113 3116 1747 
z
M 1159 2969 
Q 1341 3281 1617 3432 
Q 1894 3584 2278 3584 
Q 2916 3584 3314 3078 
Q 3713 2572 3713 1747 
Q 3713 922 3314 415 
Q 2916 -91 2278 -91 
Q 1894 -91 1617 61 
Q 1341 213 1159 525 
L 1159 0 
L 581 0 
L 581 4863 
L 1159 4863 
L 1159 2969 
z
" transform="scale(0.015625)"/>
       <path id="DejaVuSans-5f" d="M 3263 -1063 
L 3263 -1509 
L -63 -1509 
L -63 -1063 
L 3263 -1063 
z
" transform="scale(0.015625)"/>
      </defs>
      <use xlink:href="#DejaVuSans-62"/>
      <use xlink:href="#DejaVuSans-65" x="63.476562"/>
      <use xlink:href="#DejaVuSans-73" x="125"/>
      <use xlink:href="#DejaVuSans-74" x="177.099609"/>
      <use xlink:href="#DejaVuSans-5f" x="216.308594"/>
      <use xlink:href="#DejaVuSans-72" x="266.308594"/>
      <use xlink:href="#DejaVuSans-65" x="305.171875"/>
      <use xlink:href="#DejaVuSans-77" x="366.695312"/>
      <use xlink:href="#DejaVuSans-61" x="448.482422"/>
      <use xlink:href="#DejaVuSans-72" x="509.761719"/>
      <use xlink:href="#DejaVuSans-64" x="549.125"/>
     </g>
    </g>
   </g>
  </g>
 </g>
 <defs>
  <clipPath id="pa3404d85c2">
   <rect x="57.6" y="41.472" width="357.12" height="266.112"/>
  </clipPath>
 </defs>
</svg>
