<?xml version="1.0" encoding="utf-8" standalone="no"?>
<!DOCTYPE svg PUBLIC "-//W3C//DTD SVG 1.1//EN"
  "http://www.w3.org/Graphics/SVG/1.1/DTD/svg11.dtd">
<svg xmlns:xlink="http://www.w3.org/1999/xlink" width="460.8pt" height="345.6pt" viewBox="0 0 460.8 345.6" xmlns="http://www.w3.org/2000/svg" version="1.1">
 <metadata>
  <rdf:RDF xmlns:dc="http://purl.org/dc/elements/1.1/" xmlns:cc="http://creativecommons.org/ns#" xmlns:rdf="http://www.w3.org/1999/02/22-rdf-syntax-ns#">
   <cc:Work>
    <dc:type rdf:resource="http://purl.org/dc/dcmitype/StillImage"/>
    <dc:date>2024-08-07T13:43:14.135460</dc:date>
    <dc:format>image/svg+xml</dc:format>
    <dc:creator>
     <cc:Agent>
      <dc:title>Matplotlib v3.9.1, https://matplotlib.org/</dc:title>
     </cc:Agent>
    </dc:creator>
   </cc:Work>
  </rdf:RDF>
 </metadata>
 <defs>
  <style type="text/css">*{stroke-linejoin: round; stroke-linecap: butt}</style>
 </defs>
 <g id="figure_1">
  <g id="patch_1">
   <path d="M 0 345.6 
L 460.8 345.6 
L 460.8 0 
L 0 0 
z
" style="fill: #ffffff"/>
  </g>
  <g id="axes_1">
   <g id="patch_2">
    <path d="M 57.6 307.584 
L 414.72 307.584 
L 414.72 41.472 
L 57.6 41.472 
z
" style="fill: #ffffff"/>
   </g>
   <g id="matplotlib.axis_1">
    <g id="xtick_1">
     <g id="line2d_1">
      <defs>
       <path id="m112bbb1a8f" d="M 0 0 
L 0 3.5 
" style="stroke: #000000; stroke-width: 0.8"/>
      </defs>
      <g>
       <use xlink:href="#m112bbb1a8f" x="73.182117" y="307.584" style="stroke: #000000; stroke-width: 0.8"/>
      </g>
     </g>
     <g id="text_1">
      <!-- 0 -->
      <g transform="translate(70.000867 322.182437) scale(0.1 -0.1)">
       <defs>
        <path id="DejaVuSans-30" d="M 2034 4250 
Q 1547 4250 1301 3770 
Q 1056 3291 1056 2328 
Q 1056 1369 1301 889 
Q 1547 409 2034 409 
Q 2525 409 2770 889 
Q 3016 1369 3016 2328 
Q 3016 3291 2770 3770 
Q 2525 4250 2034 4250 
z
M 2034 4750 
Q 2819 4750 3233 4129 
Q 3647 3509 3647 2328 
Q 3647 1150 3233 529 
Q 2819 -91 2034 -91 
Q 1250 -91 836 529 
Q 422 1150 422 2328 
Q 422 3509 836 4129 
Q 1250 4750 2034 4750 
z
" transform="scale(0.015625)"/>
       </defs>
       <use xlink:href="#DejaVuSans-30"/>
      </g>
     </g>
    </g>
    <g id="xtick_2">
     <g id="line2d_2">
      <g>
       <use xlink:href="#m112bbb1a8f" x="138.243148" y="307.584" style="stroke: #000000; stroke-width: 0.8"/>
      </g>
     </g>
     <g id="text_2">
      <!-- 1 -->
      <g transform="translate(135.061898 322.182437) scale(0.1 -0.1)">
       <defs>
        <path id="DejaVuSans-31" d="M 794 531 
L 1825 531 
L 1825 4091 
L 703 3866 
L 703 4441 
L 1819 4666 
L 2450 4666 
L 2450 531 
L 3481 531 
L 3481 0 
L 794 0 
L 794 531 
z
" transform="scale(0.015625)"/>
       </defs>
       <use xlink:href="#DejaVuSans-31"/>
      </g>
     </g>
    </g>
    <g id="xtick_3">
     <g id="line2d_3">
      <g>
       <use xlink:href="#m112bbb1a8f" x="203.304179" y="307.584" style="stroke: #000000; stroke-width: 0.8"/>
      </g>
     </g>
     <g id="text_3">
      <!-- 2 -->
      <g transform="translate(200.122929 322.182437) scale(0.1 -0.1)">
       <defs>
        <path id="DejaVuSans-32" d="M 1228 531 
L 3431 531 
L 3431 0 
L 469 0 
L 469 531 
Q 828 903 1448 1529 
Q 2069 2156 2228 2338 
Q 2531 2678 2651 2914 
Q 2772 3150 2772 3378 
Q 2772 3750 2511 3984 
Q 2250 4219 1831 4219 
Q 1534 4219 1204 4116 
Q 875 4013 500 3803 
L 500 4441 
Q 881 4594 1212 4672 
Q 1544 4750 1819 4750 
Q 2544 4750 2975 4387 
Q 3406 4025 3406 3419 
Q 3406 3131 3298 2873 
Q 3191 2616 2906 2266 
Q 2828 2175 2409 1742 
Q 1991 1309 1228 531 
z
" transform="scale(0.015625)"/>
       </defs>
       <use xlink:href="#DejaVuSans-32"/>
      </g>
     </g>
    </g>
    <g id="xtick_4">
     <g id="line2d_4">
      <g>
       <use xlink:href="#m112bbb1a8f" x="268.36521" y="307.584" style="stroke: #000000; stroke-width: 0.8"/>
      </g>
     </g>
     <g id="text_4">
      <!-- 3 -->
      <g transform="translate(265.18396 322.182437) scale(0.1 -0.1)">
       <defs>
        <path id="DejaVuSans-33" d="M 2597 2516 
Q 3050 2419 3304 2112 
Q 3559 1806 3559 1356 
Q 3559 666 3084 287 
Q 2609 -91 1734 -91 
Q 1441 -91 1130 -33 
Q 819 25 488 141 
L 488 750 
Q 750 597 1062 519 
Q 1375 441 1716 441 
Q 2309 441 2620 675 
Q 2931 909 2931 1356 
Q 2931 1769 2642 2001 
Q 2353 2234 1838 2234 
L 1294 2234 
L 1294 2753 
L 1863 2753 
Q 2328 2753 2575 2939 
Q 2822 3125 2822 3475 
Q 2822 3834 2567 4026 
Q 2313 4219 1838 4219 
Q 1578 4219 1281 4162 
Q 984 4106 628 3988 
L 628 4550 
Q 988 4650 1302 4700 
Q 1616 4750 1894 4750 
Q 2613 4750 3031 4423 
Q 3450 4097 3450 3541 
Q 3450 3153 3228 2886 
Q 3006 2619 2597 2516 
z
" transform="scale(0.015625)"/>
       </defs>
       <use xlink:href="#DejaVuSans-33"/>
      </g>
     </g>
    </g>
    <g id="xtick_5">
     <g id="line2d_5">
      <g>
       <use xlink:href="#m112bbb1a8f" x="333.426242" y="307.584" style="stroke: #000000; stroke-width: 0.8"/>
      </g>
     </g>
     <g id="text_5">
      <!-- 4 -->
      <g transform="translate(330.244992 322.182437) scale(0.1 -0.1)">
       <defs>
        <path id="DejaVuSans-34" d="M 2419 4116 
L 825 1625 
L 2419 1625 
L 2419 4116 
z
M 2253 4666 
L 3047 4666 
L 3047 1625 
L 3713 1625 
L 3713 1100 
L 3047 1100 
L 3047 0 
L 2419 0 
L 2419 1100 
L 313 1100 
L 313 1709 
L 2253 4666 
z
" transform="scale(0.015625)"/>
       </defs>
       <use xlink:href="#DejaVuSans-34"/>
      </g>
     </g>
    </g>
    <g id="xtick_6">
     <g id="line2d_6">
      <g>
       <use xlink:href="#m112bbb1a8f" x="398.487273" y="307.584" style="stroke: #000000; stroke-width: 0.8"/>
      </g>
     </g>
     <g id="text_6">
      <!-- 5 -->
      <g transform="translate(395.306023 322.182437) scale(0.1 -0.1)">
       <defs>
        <path id="DejaVuSans-35" d="M 691 4666 
L 3169 4666 
L 3169 4134 
L 1269 4134 
L 1269 2991 
Q 1406 3038 1543 3061 
Q 1681 3084 1819 3084 
Q 2600 3084 3056 2656 
Q 3513 2228 3513 1497 
Q 3513 744 3044 326 
Q 2575 -91 1722 -91 
Q 1428 -91 1123 -41 
Q 819 9 494 109 
L 494 744 
Q 775 591 1075 516 
Q 1375 441 1709 441 
Q 2250 441 2565 725 
Q 2881 1009 2881 1497 
Q 2881 1984 2565 2268 
Q 2250 2553 1709 2553 
Q 1456 2553 1204 2497 
Q 953 2441 691 2322 
L 691 4666 
z
" transform="scale(0.015625)"/>
       </defs>
       <use xlink:href="#DejaVuSans-35"/>
      </g>
     </g>
    </g>
    <g id="text_7">
     <!-- timesteps -->
     <g transform="translate(211.443594 335.860562) scale(0.1 -0.1)">
      <defs>
       <path id="DejaVuSans-74" d="M 1172 4494 
L 1172 3500 
L 2356 3500 
L 2356 3053 
L 1172 3053 
L 1172 1153 
Q 1172 725 1289 603 
Q 1406 481 1766 481 
L 2356 481 
L 2356 0 
L 1766 0 
Q 1100 0 847 248 
Q 594 497 594 1153 
L 594 3053 
L 172 3053 
L 172 3500 
L 594 3500 
L 594 4494 
L 1172 4494 
z
" transform="scale(0.015625)"/>
       <path id="DejaVuSans-69" d="M 603 3500 
L 1178 3500 
L 1178 0 
L 603 0 
L 603 3500 
z
M 603 4863 
L 1178 4863 
L 1178 4134 
L 603 4134 
L 603 4863 
z
" transform="scale(0.015625)"/>
       <path id="DejaVuSans-6d" d="M 3328 2828 
Q 3544 3216 3844 3400 
Q 4144 3584 4550 3584 
Q 5097 3584 5394 3201 
Q 5691 2819 5691 2113 
L 5691 0 
L 5113 0 
L 5113 2094 
Q 5113 2597 4934 2840 
Q 4756 3084 4391 3084 
Q 3944 3084 3684 2787 
Q 3425 2491 3425 1978 
L 3425 0 
L 2847 0 
L 2847 2094 
Q 2847 2600 2669 2842 
Q 2491 3084 2119 3084 
Q 1678 3084 1418 2786 
Q 1159 2488 1159 1978 
L 1159 0 
L 581 0 
L 581 3500 
L 1159 3500 
L 1159 2956 
Q 1356 3278 1631 3431 
Q 1906 3584 2284 3584 
Q 2666 3584 2933 3390 
Q 3200 3197 3328 2828 
z
" transform="scale(0.015625)"/>
       <path id="DejaVuSans-65" d="M 3597 1894 
L 3597 1613 
L 953 1613 
Q 991 1019 1311 708 
Q 1631 397 2203 397 
Q 2534 397 2845 478 
Q 3156 559 3463 722 
L 3463 178 
Q 3153 47 2828 -22 
Q 2503 -91 2169 -91 
Q 1331 -91 842 396 
Q 353 884 353 1716 
Q 353 2575 817 3079 
Q 1281 3584 2069 3584 
Q 2775 3584 3186 3129 
Q 3597 2675 3597 1894 
z
M 3022 2063 
Q 3016 2534 2758 2815 
Q 2500 3097 2075 3097 
Q 1594 3097 1305 2825 
Q 1016 2553 972 2059 
L 3022 2063 
z
" transform="scale(0.015625)"/>
       <path id="DejaVuSans-73" d="M 2834 3397 
L 2834 2853 
Q 2591 2978 2328 3040 
Q 2066 3103 1784 3103 
Q 1356 3103 1142 2972 
Q 928 2841 928 2578 
Q 928 2378 1081 2264 
Q 1234 2150 1697 2047 
L 1894 2003 
Q 2506 1872 2764 1633 
Q 3022 1394 3022 966 
Q 3022 478 2636 193 
Q 2250 -91 1575 -91 
Q 1294 -91 989 -36 
Q 684 19 347 128 
L 347 722 
Q 666 556 975 473 
Q 1284 391 1588 391 
Q 1994 391 2212 530 
Q 2431 669 2431 922 
Q 2431 1156 2273 1281 
Q 2116 1406 1581 1522 
L 1381 1569 
Q 847 1681 609 1914 
Q 372 2147 372 2553 
Q 372 3047 722 3315 
Q 1072 3584 1716 3584 
Q 2034 3584 2315 3537 
Q 2597 3491 2834 3397 
z
" transform="scale(0.015625)"/>
       <path id="DejaVuSans-70" d="M 1159 525 
L 1159 -1331 
L 581 -1331 
L 581 3500 
L 1159 3500 
L 1159 2969 
Q 1341 3281 1617 3432 
Q 1894 3584 2278 3584 
Q 2916 3584 3314 3078 
Q 3713 2572 3713 1747 
Q 3713 922 3314 415 
Q 2916 -91 2278 -91 
Q 1894 -91 1617 61 
Q 1341 213 1159 525 
z
M 3116 1747 
Q 3116 2381 2855 2742 
Q 2594 3103 2138 3103 
Q 1681 3103 1420 2742 
Q 1159 2381 1159 1747 
Q 1159 1113 1420 752 
Q 1681 391 2138 391 
Q 2594 391 2855 752 
Q 3116 1113 3116 1747 
z
" transform="scale(0.015625)"/>
      </defs>
      <use xlink:href="#DejaVuSans-74"/>
      <use xlink:href="#DejaVuSans-69" x="39.208984"/>
      <use xlink:href="#DejaVuSans-6d" x="66.992188"/>
      <use xlink:href="#DejaVuSans-65" x="164.404297"/>
      <use xlink:href="#DejaVuSans-73" x="225.927734"/>
      <use xlink:href="#DejaVuSans-74" x="278.027344"/>
      <use xlink:href="#DejaVuSans-65" x="317.236328"/>
      <use xlink:href="#DejaVuSans-70" x="378.759766"/>
      <use xlink:href="#DejaVuSans-73" x="442.236328"/>
     </g>
    </g>
    <g id="text_8">
     <!-- 1e6 -->
     <g transform="translate(395.841875 334.860562) scale(0.1 -0.1)">
      <defs>
       <path id="DejaVuSans-36" d="M 2113 2584 
Q 1688 2584 1439 2293 
Q 1191 2003 1191 1497 
Q 1191 994 1439 701 
Q 1688 409 2113 409 
Q 2538 409 2786 701 
Q 3034 994 3034 1497 
Q 3034 2003 2786 2293 
Q 2538 2584 2113 2584 
z
M 3366 4563 
L 3366 3988 
Q 3128 4100 2886 4159 
Q 2644 4219 2406 4219 
Q 1781 4219 1451 3797 
Q 1122 3375 1075 2522 
Q 1259 2794 1537 2939 
Q 1816 3084 2150 3084 
Q 2853 3084 3261 2657 
Q 3669 2231 3669 1497 
Q 3669 778 3244 343 
Q 2819 -91 2113 -91 
Q 1303 -91 875 529 
Q 447 1150 447 2328 
Q 447 3434 972 4092 
Q 1497 4750 2381 4750 
Q 2619 4750 2861 4703 
Q 3103 4656 3366 4563 
z
" transform="scale(0.015625)"/>
      </defs>
      <use xlink:href="#DejaVuSans-31"/>
      <use xlink:href="#DejaVuSans-65" x="63.623047"/>
      <use xlink:href="#DejaVuSans-36" x="125.146484"/>
     </g>
    </g>
   </g>
   <g id="matplotlib.axis_2">
    <g id="ytick_1">
     <g id="line2d_7">
      <defs>
       <path id="mb91118d0cf" d="M 0 0 
L -3.5 0 
" style="stroke: #000000; stroke-width: 0.8"/>
      </defs>
      <g>
       <use xlink:href="#mb91118d0cf" x="57.6" y="290.997278" style="stroke: #000000; stroke-width: 0.8"/>
      </g>
     </g>
     <g id="text_9">
      <!-- 100 -->
      <g transform="translate(31.5125 294.796496) scale(0.1 -0.1)">
       <use xlink:href="#DejaVuSans-31"/>
       <use xlink:href="#DejaVuSans-30" x="63.623047"/>
       <use xlink:href="#DejaVuSans-30" x="127.246094"/>
      </g>
     </g>
    </g>
    <g id="ytick_2">
     <g id="line2d_8">
      <g>
       <use xlink:href="#mb91118d0cf" x="57.6" y="249.087875" style="stroke: #000000; stroke-width: 0.8"/>
      </g>
     </g>
     <g id="text_10">
      <!-- 200 -->
      <g transform="translate(31.5125 252.887093) scale(0.1 -0.1)">
       <use xlink:href="#DejaVuSans-32"/>
       <use xlink:href="#DejaVuSans-30" x="63.623047"/>
       <use xlink:href="#DejaVuSans-30" x="127.246094"/>
      </g>
     </g>
    </g>
    <g id="ytick_3">
     <g id="line2d_9">
      <g>
       <use xlink:href="#mb91118d0cf" x="57.6" y="207.178472" style="stroke: #000000; stroke-width: 0.8"/>
      </g>
     </g>
     <g id="text_11">
      <!-- 300 -->
      <g transform="translate(31.5125 210.97769) scale(0.1 -0.1)">
       <use xlink:href="#DejaVuSans-33"/>
       <use xlink:href="#DejaVuSans-30" x="63.623047"/>
       <use xlink:href="#DejaVuSans-30" x="127.246094"/>
      </g>
     </g>
    </g>
    <g id="ytick_4">
     <g id="line2d_10">
      <g>
       <use xlink:href="#mb91118d0cf" x="57.6" y="165.269069" style="stroke: #000000; stroke-width: 0.8"/>
      </g>
     </g>
     <g id="text_12">
      <!-- 400 -->
      <g transform="translate(31.5125 169.068288) scale(0.1 -0.1)">
       <use xlink:href="#DejaVuSans-34"/>
       <use xlink:href="#DejaVuSans-30" x="63.623047"/>
       <use xlink:href="#DejaVuSans-30" x="127.246094"/>
      </g>
     </g>
    </g>
    <g id="ytick_5">
     <g id="line2d_11">
      <g>
       <use xlink:href="#mb91118d0cf" x="57.6" y="123.359666" style="stroke: #000000; stroke-width: 0.8"/>
      </g>
     </g>
     <g id="text_13">
      <!-- 500 -->
      <g transform="translate(31.5125 127.158885) scale(0.1 -0.1)">
       <use xlink:href="#DejaVuSans-35"/>
       <use xlink:href="#DejaVuSans-30" x="63.623047"/>
       <use xlink:href="#DejaVuSans-30" x="127.246094"/>
      </g>
     </g>
    </g>
    <g id="ytick_6">
     <g id="line2d_12">
      <g>
       <use xlink:href="#mb91118d0cf" x="57.6" y="81.450263" style="stroke: #000000; stroke-width: 0.8"/>
      </g>
     </g>
     <g id="text_14">
      <!-- 600 -->
      <g transform="translate(31.5125 85.249482) scale(0.1 -0.1)">
       <use xlink:href="#DejaVuSans-36"/>
       <use xlink:href="#DejaVuSans-30" x="63.623047"/>
       <use xlink:href="#DejaVuSans-30" x="127.246094"/>
      </g>
     </g>
    </g>
   </g>
   <g id="line2d_13">
    <path d="M 73.832727 284.738444 
L 74.483338 284.645928 
L 75.133948 288.125306 
L 75.784558 277.941145 
L 76.435169 285.907263 
L 77.085779 289.60638 
L 77.736389 286.043662 
L 78.386999 260.280326 
L 79.03761 256.841688 
L 79.68822 267.110288 
L 80.33883 270.909175 
L 80.989441 269.445099 
L 81.640051 279.336602 
L 82.290661 266.706152 
L 82.941272 263.217173 
L 83.591882 273.123521 
L 84.242492 269.872613 
L 84.893103 270.478803 
L 85.543713 256.605298 
L 86.194323 264.898201 
L 86.844934 262.701281 
L 87.495544 263.946376 
L 88.146154 277.179094 
L 88.796764 265.716436 
L 89.447375 268.801634 
L 90.097985 264.338061 
L 90.748595 264.094161 
L 91.399206 267.372272 
L 92.049816 269.296341 
L 92.700426 253.454834 
L 93.351037 263.577627 
L 94.001647 271.888237 
L 94.652257 269.033427 
L 95.302868 271.129488 
L 95.953478 264.496449 
L 96.604088 275.842427 
L 97.254698 264.50445 
L 97.905309 266.713075 
L 98.555919 272.556042 
L 99.206529 270.036072 
L 99.85714 272.16592 
L 100.50775 287.018587 
L 101.15836 281.603411 
L 101.808971 268.928947 
L 102.459581 265.122224 
L 103.110191 269.725716 
L 103.760802 265.421863 
L 104.411412 265.967071 
L 105.062022 271.289607 
L 105.712633 264.069237 
L 106.363243 263.686768 
L 107.013853 258.811879 
L 107.664463 278.807919 
L 108.315074 274.879697 
L 108.965684 263.184932 
L 109.616294 272.287244 
L 110.266905 257.119816 
L 110.917515 279.346195 
L 111.568125 259.791092 
L 112.218736 263.602936 
L 112.869346 274.462518 
L 113.519956 251.62406 
L 114.170567 270.046939 
L 114.821177 279.17567 
L 115.471787 276.928698 
L 116.122398 270.49977 
L 116.773008 277.392211 
L 117.423618 257.555204 
L 118.074228 275.787936 
L 118.724839 272.299586 
L 119.375449 278.381101 
L 120.026059 252.787339 
L 120.67667 264.00763 
L 121.32728 280.999165 
L 121.97789 279.413514 
L 122.628501 277.041015 
L 123.279111 262.68621 
L 123.929721 267.909132 
L 124.580332 265.286265 
L 125.230942 271.475882 
L 125.881552 280.301713 
L 126.532163 273.509297 
L 127.182773 269.068811 
L 127.833383 267.555043 
L 128.483993 277.369597 
L 129.134604 256.512482 
L 129.785214 270.313277 
L 130.435824 272.275911 
L 131.086435 273.422155 
L 131.737045 264.931892 
L 132.387655 266.1376 
L 133.038266 277.616586 
L 133.688876 275.778414 
L 134.990097 269.956008 
L 135.640707 268.443908 
L 136.291317 258.734321 
L 136.941927 288.426098 
L 137.592538 273.453184 
L 138.893758 251.850643 
L 139.544369 258.488309 
L 140.194979 272.05437 
L 140.845589 254.336399 
L 141.4962 278.929461 
L 142.14681 262.807127 
L 142.79742 255.622955 
L 143.448031 266.792271 
L 144.098641 270.694841 
L 144.749251 268.255333 
L 145.399862 263.86303 
L 146.050472 261.700887 
L 146.701082 262.461115 
L 148.002303 286.235322 
L 148.652913 269.142127 
L 149.303523 275.422872 
L 149.954134 272.001191 
L 150.604744 275.140629 
L 151.255354 260.81685 
L 151.905965 277.32221 
L 152.556575 259.838043 
L 153.207185 264.296705 
L 153.857796 272.981649 
L 154.508406 266.478102 
L 155.159016 264.908251 
L 155.809627 274.360887 
L 156.460237 278.117047 
L 157.110847 263.296155 
L 157.761457 260.919071 
L 158.412068 250.128079 
L 159.062678 270.62919 
L 159.713288 275.408111 
L 160.363899 273.539891 
L 161.014509 272.991678 
L 161.665119 264.617387 
L 162.31573 267.661456 
L 163.61695 281.619827 
L 164.267561 265.873626 
L 164.918171 283.504191 
L 165.568781 271.93919 
L 166.219392 280.022039 
L 166.870002 269.800734 
L 167.520612 277.289533 
L 168.171222 270.087763 
L 168.821833 258.766998 
L 169.472443 276.546266 
L 170.123053 271.181011 
L 170.773664 270.855388 
L 171.424274 276.373796 
L 172.074884 270.53502 
L 172.725495 277.693536 
L 173.376105 271.353062 
L 174.026715 282.119181 
L 174.677326 285.04403 
L 175.327936 256.217268 
L 175.978546 268.168329 
L 176.629156 289.713878 
L 177.279767 262.079932 
L 177.930377 265.780377 
L 178.580987 278.798469 
L 179.231598 283.950605 
L 179.882208 260.422868 
L 180.532818 282.641582 
L 181.183429 271.032413 
L 181.834039 268.971108 
L 182.484649 258.016019 
L 183.13526 263.575545 
L 183.78587 252.067222 
L 184.43648 277.599462 
L 185.087091 267.468253 
L 185.737701 277.642172 
L 186.388311 271.868074 
L 187.038921 271.809875 
L 187.689532 283.130229 
L 188.340142 268.917066 
L 188.990752 263.234825 
L 189.641363 261.891767 
L 190.291973 276.277199 
L 190.942583 278.238161 
L 191.593194 262.866857 
L 192.243804 272.989838 
L 192.894414 263.29266 
L 193.545025 269.65297 
L 194.195635 269.219823 
L 194.846245 275.428911 
L 195.496856 284.301186 
L 196.147466 276.720001 
L 196.798076 272.571498 
L 197.448686 264.614013 
L 198.099297 277.781126 
L 198.749907 278.853592 
L 200.051128 269.104627 
L 200.701738 259.606288 
L 201.352348 270.97563 
L 202.002959 266.285591 
L 202.653569 263.413963 
L 203.304179 281.914416 
L 203.95479 265.740316 
L 205.25601 281.501642 
L 205.906621 258.709649 
L 206.557231 262.920253 
L 207.207841 274.355481 
L 207.858451 267.981023 
L 208.509062 271.595692 
L 209.159672 271.195399 
L 209.810282 263.835161 
L 210.460893 289.848541 
L 211.111503 277.191264 
L 211.762113 275.652552 
L 212.412724 254.842451 
L 213.063334 273.907214 
L 213.713944 270.336541 
L 214.364555 270.058678 
L 215.015165 273.572173 
L 215.665775 270.119895 
L 216.316385 275.29882 
L 216.966996 268.988957 
L 217.617606 274.206036 
L 218.268216 277.563784 
L 218.918827 278.268101 
L 219.569437 279.48852 
L 220.220047 266.401475 
L 220.870658 273.468569 
L 221.521268 268.450618 
L 222.171878 257.761235 
L 222.822489 277.01944 
L 223.473099 255.700914 
L 224.123709 283.33434 
L 224.77432 275.134292 
L 225.42493 273.332862 
L 226.07554 273.944966 
L 226.72615 264.268307 
L 227.376761 266.913842 
L 228.677981 288.391875 
L 229.328592 270.888836 
L 229.979202 266.799392 
L 230.629812 264.059397 
L 231.280423 266.11774 
L 231.931033 275.04005 
L 232.581643 268.602996 
L 233.232254 266.932421 
L 233.882864 278.722424 
L 234.533474 270.729224 
L 235.184085 271.905005 
L 235.834695 262.836481 
L 236.485305 266.183965 
L 237.135915 255.766532 
L 237.786526 274.304549 
L 238.437136 261.652661 
L 239.087746 272.519124 
L 239.738357 267.399128 
L 240.388967 256.63997 
L 241.039577 249.416461 
L 241.690188 283.551171 
L 242.340798 261.341983 
L 242.991408 258.995002 
L 243.642019 269.816684 
L 244.292629 272.269436 
L 244.943239 269.026491 
L 245.59385 272.894494 
L 246.24446 275.880539 
L 246.89507 272.595056 
L 247.54568 277.678432 
L 248.196291 269.580299 
L 248.846901 275.392668 
L 249.497511 275.061248 
L 250.148122 263.289869 
L 250.798732 273.393187 
L 251.449342 274.338877 
L 252.099953 269.733926 
L 252.750563 275.83674 
L 253.401173 243.088581 
L 254.051784 272.32826 
L 254.702394 269.474884 
L 255.353004 272.605537 
L 256.003615 261.69652 
L 256.654225 275.815793 
L 257.304835 283.129399 
L 257.955445 263.776668 
L 258.606056 260.647347 
L 259.256666 277.549992 
L 259.907276 252.040786 
L 261.208497 271.103689 
L 261.859107 260.03187 
L 262.509718 264.499978 
L 263.160328 260.795878 
L 263.810938 259.215697 
L 264.461549 276.333982 
L 265.112159 271.031148 
L 265.762769 262.136128 
L 266.413379 255.822284 
L 267.06399 260.400874 
L 267.7146 276.5622 
L 268.36521 271.607821 
L 269.015821 269.946557 
L 269.666431 261.883851 
L 270.967652 285.681439 
L 271.618262 281.655638 
L 272.268872 270.539144 
L 272.919483 261.999717 
L 273.570093 277.256844 
L 274.220703 261.511674 
L 274.871314 265.558228 
L 275.521924 264.545911 
L 276.172534 258.571327 
L 276.823144 271.902084 
L 277.473755 277.795916 
L 278.124365 274.236626 
L 278.774975 269.660354 
L 279.425586 278.459858 
L 280.076196 275.0853 
L 280.726806 250.013632 
L 281.377417 278.386332 
L 282.028027 256.356855 
L 282.678637 268.426964 
L 283.329248 275.934192 
L 283.979858 266.424915 
L 284.630468 259.677953 
L 285.281079 275.16411 
L 285.931689 258.888975 
L 286.582299 265.743497 
L 287.232909 256.176163 
L 287.88352 251.293093 
L 288.53413 278.031535 
L 289.18474 259.544459 
L 289.835351 276.565544 
L 290.485961 252.133846 
L 291.136571 263.215312 
L 291.787182 269.825238 
L 292.437792 254.262638 
L 293.088402 269.665982 
L 293.739013 279.76702 
L 294.389623 273.45753 
L 295.040233 271.365233 
L 295.690844 273.945792 
L 296.341454 271.32456 
L 296.992064 260.153822 
L 297.642674 272.599238 
L 298.293285 270.885709 
L 298.943895 270.549835 
L 299.594505 278.216766 
L 300.245116 262.21087 
L 300.895726 267.934759 
L 301.546336 268.72238 
L 302.196947 271.695613 
L 302.847557 272.620822 
L 303.498167 270.891627 
L 304.799388 262.041644 
L 305.449998 286.188182 
L 306.100608 266.420958 
L 306.751219 272.99089 
L 307.401829 253.215704 
L 308.052439 274.683141 
L 308.70305 257.949794 
L 309.35366 275.905274 
L 310.00427 259.100203 
L 310.654881 273.466591 
L 311.305491 274.728244 
L 311.956101 250.473609 
L 312.606712 265.739734 
L 313.907932 275.714125 
L 314.558543 277.543102 
L 315.209153 272.858863 
L 315.859763 262.858705 
L 316.510373 278.036137 
L 317.160984 270.914095 
L 317.811594 265.140584 
L 318.462204 267.9058 
L 319.112815 267.977679 
L 319.763425 271.355811 
L 320.414035 282.760978 
L 321.064646 265.674573 
L 321.715256 280.096835 
L 322.365866 269.728855 
L 323.016477 268.505725 
L 323.667087 281.611009 
L 324.317697 262.371823 
L 324.968308 264.572976 
L 325.618918 260.793745 
L 326.269528 269.991002 
L 326.920138 277.022969 
L 327.570749 265.817668 
L 328.221359 274.496875 
L 328.871969 270.681271 
L 329.52258 255.095571 
L 330.17319 266.727911 
L 330.8238 259.91115 
L 331.474411 279.829034 
L 332.125021 271.848859 
L 332.775631 267.0058 
L 333.426242 282.732102 
L 334.076852 260.800061 
L 335.378073 277.446891 
L 336.028683 247.490003 
L 336.679293 271.800843 
L 337.329903 271.806279 
L 337.980514 262.565939 
L 338.631124 273.73956 
L 339.281734 259.556211 
L 339.932345 286.539345 
L 340.582955 276.466244 
L 341.233565 278.311272 
L 341.884176 275.942557 
L 342.534786 268.892356 
L 343.185396 266.093989 
L 343.836007 256.585479 
L 344.486617 275.434812 
L 345.137227 281.32644 
L 346.438448 264.349163 
L 347.089058 248.943924 
L 347.739668 263.581139 
L 348.390279 286.093643 
L 349.691499 267.259561 
L 350.34211 265.337604 
L 350.99272 260.629921 
L 351.64333 263.305828 
L 352.293941 279.937541 
L 353.595161 260.107323 
L 354.245772 273.508031 
L 354.896382 255.35209 
L 355.546992 266.098516 
L 356.197602 260.967925 
L 356.848213 276.087144 
L 357.498823 265.252239 
L 358.149433 280.903607 
L 358.800044 265.117383 
L 359.450654 263.479564 
L 360.101264 275.168612 
L 360.751875 277.70442 
L 361.402485 256.953394 
L 362.703706 279.923342 
L 363.354316 270.152777 
L 364.655537 278.079127 
L 365.306147 274.095349 
L 365.956757 277.342293 
L 366.607367 273.612436 
L 367.257978 273.139266 
L 367.908588 275.968335 
L 368.559198 259.120085 
L 369.209809 263.542411 
L 369.860419 271.015071 
L 370.511029 264.80284 
L 371.16164 266.83755 
L 371.81225 277.926347 
L 372.46286 265.804056 
L 373.113471 281.001034 
L 373.764081 291.111673 
L 374.414691 282.115799 
L 375.065302 262.822412 
L 375.715912 287.148502 
L 376.366522 275.57085 
L 377.017132 269.429597 
L 377.667743 259.401733 
L 378.318353 262.0802 
L 378.968963 258.327427 
L 379.619574 277.742758 
L 380.270184 267.90852 
L 380.920794 269.897708 
L 381.571405 258.443503 
L 382.872625 273.737091 
L 383.523236 295.488 
L 384.173846 262.364782 
L 384.824456 282.906651 
L 385.475066 276.308459 
L 386.125677 273.403052 
L 386.776287 268.365949 
L 387.426897 268.098998 
L 388.077508 259.000911 
L 388.728118 260.859803 
L 389.378728 274.168955 
L 390.029339 261.154836 
L 390.679949 266.815112 
L 391.330559 273.90503 
L 391.98117 275.994927 
L 392.63178 262.271932 
L 393.28239 276.859115 
L 393.933001 269.548041 
L 394.583611 271.978153 
L 395.234221 262.778172 
L 395.884831 281.256028 
L 396.535442 280.905594 
L 397.186052 260.409264 
L 397.836662 274.638944 
L 398.487273 277.796415 
L 398.487273 277.796415 
" clip-path="url(#pb491ba2116)" style="fill: none; stroke: #1f77b4; stroke-width: 1.5; stroke-linecap: square"/>
   </g>
   <g id="line2d_14">
    <path d="M 73.832727 219.98578 
L 74.483338 267.946825 
L 75.133948 265.650391 
L 75.784558 212.203518 
L 76.435169 243.019313 
L 77.085779 262.419197 
L 77.736389 266.802879 
L 78.386999 171.844516 
L 79.03761 173.034663 
L 79.68822 219.386643 
L 80.33883 197.765637 
L 80.989441 134.356857 
L 81.640051 242.235704 
L 82.290661 168.412517 
L 82.941272 211.662656 
L 83.591882 188.13911 
L 84.242492 173.944449 
L 84.893103 188.164217 
L 85.543713 55.23159 
L 86.194323 189.308269 
L 86.844934 188.407208 
L 87.495544 173.458321 
L 88.146154 241.866784 
L 88.796764 198.134464 
L 89.447375 172.942873 
L 90.097985 168.148446 
L 90.748595 188.851611 
L 91.399206 216.880549 
L 92.049816 217.207455 
L 92.700426 168.575918 
L 93.351037 108.004543 
L 94.001647 198.075837 
L 94.652257 173.957072 
L 95.302868 216.654246 
L 95.953478 198.159572 
L 96.604088 186.395741 
L 97.254698 217.023062 
L 97.905309 188.147563 
L 98.555919 187.518909 
L 99.206529 209.978108 
L 99.85714 196.596528 
L 100.50775 217.438002 
L 101.15836 220.417585 
L 101.808971 110.707678 
L 103.110191 217.936712 
L 103.760802 173.349394 
L 104.411412 187.925342 
L 105.062022 132.156701 
L 105.712633 169.007496 
L 106.363243 184.543392 
L 107.013853 54.309679 
L 107.664463 218.104245 
L 108.315074 167.352222 
L 108.965684 132.253415 
L 109.616294 134.692216 
L 110.266905 158.027853 
L 110.917515 210.946135 
L 111.568125 186.995042 
L 112.218736 196.671923 
L 112.869346 217.257729 
L 113.519956 107.899794 
L 114.170567 216.985373 
L 114.821177 174.510331 
L 115.471787 242.256667 
L 116.122398 173.592398 
L 116.773008 186.517295 
L 117.423618 134.805136 
L 118.074228 209.387194 
L 118.724839 218.778978 
L 119.375449 131.343772 
L 120.026059 170.968672 
L 120.67667 186.676576 
L 121.32728 216.926704 
L 121.97789 217.102694 
L 122.628501 188.910205 
L 123.279111 167.917953 
L 123.929721 216.771618 
L 124.580332 186.73522 
L 125.230942 208.745992 
L 125.881552 235.957378 
L 126.532163 188.059557 
L 127.182773 187.942223 
L 127.833383 198.792459 
L 128.483993 197.099357 
L 129.134604 134.172468 
L 129.785214 197.002999 
L 130.435824 197.384286 
L 131.086435 167.997568 
L 131.737045 199.73941 
L 132.387655 55.751438 
L 133.038266 209.638679 
L 133.688876 218.867101 
L 134.339486 211.365091 
L 134.990097 208.787868 
L 135.640707 216.444737 
L 136.291317 189.760823 
L 136.941927 241.992634 
L 137.592538 108.113381 
L 138.243148 186.026976 
L 138.893758 210.250527 
L 140.194979 188.679628 
L 140.845589 208.813077 
L 141.4962 216.562058 
L 142.14681 186.496357 
L 142.79742 216.23519 
L 143.448031 173.592473 
L 144.098641 200.1125 
L 144.749251 197.015517 
L 145.399862 167.565951 
L 146.050472 212.00216 
L 146.701082 218.112685 
L 147.351692 219.038942 
L 148.002303 216.603968 
L 148.652913 219.964997 
L 149.303523 219.399203 
L 149.954134 209.1567 
L 150.604744 185.993428 
L 151.255354 173.395486 
L 152.556575 198.645763 
L 153.207185 197.434624 
L 153.857796 217.96591 
L 154.508406 212.81923 
L 155.159016 198.587094 
L 155.809627 197.078456 
L 156.460237 216.909923 
L 157.110847 173.093714 
L 157.761457 173.600813 
L 158.412068 167.620438 
L 159.062678 218.896198 
L 159.713288 189.434072 
L 160.363899 197.246102 
L 161.014509 198.742067 
L 161.665119 187.724223 
L 162.31573 218.716181 
L 162.96634 210.460011 
L 163.61695 210.196058 
L 164.267561 196.747343 
L 164.918171 240.077403 
L 165.568781 167.515652 
L 166.219392 196.420462 
L 166.870002 210.007382 
L 167.520612 187.963136 
L 168.171222 217.672704 
L 168.821833 54.573633 
L 169.472443 208.678937 
L 170.123053 199.404206 
L 170.773664 186.458639 
L 171.424274 210.074529 
L 172.074884 216.599785 
L 172.725495 209.169256 
L 173.376105 196.336677 
L 174.026715 175.381912 
L 174.677326 217.848627 
L 175.327936 187.418343 
L 175.978546 190.821207 
L 176.629156 262.955625 
L 177.279767 197.983574 
L 177.930377 210.388799 
L 178.580987 172.888387 
L 179.231598 217.513398 
L 179.882208 168.580113 
L 180.532818 217.362566 
L 181.183429 187.594359 
L 181.834039 168.676509 
L 182.484649 167.285167 
L 183.13526 172.565714 
L 183.78587 107.748769 
L 184.43648 186.87772 
L 185.087091 175.130364 
L 185.737701 57.896919 
L 186.388311 213.426895 
L 187.038921 199.5678 
L 187.689532 216.800984 
L 188.340142 208.921995 
L 188.990752 131.746165 
L 189.641363 172.158836 
L 190.291973 198.871961 
L 190.942583 209.089616 
L 191.593194 187.380587 
L 192.243804 217.354138 
L 192.894414 170.210179 
L 193.545025 217.064938 
L 194.195635 218.573601 
L 194.846245 173.172906 
L 195.496856 233.003088 
L 196.147466 210.212771 
L 196.798076 218.623917 
L 197.448686 172.423109 
L 198.099297 188.876732 
L 198.749907 171.953803 
L 199.400517 196.726392 
L 200.051128 173.445765 
L 200.701738 187.154314 
L 201.352348 209.538101 
L 202.002959 198.218254 
L 202.653569 173.311601 
L 203.304179 210.141521 
L 203.95479 190.355941 
L 204.6054 219.118368 
L 205.25601 217.597195 
L 205.906621 173.156548 
L 206.557231 188.709006 
L 207.207841 167.2348 
L 207.858451 210.669521 
L 208.509062 188.968857 
L 209.159672 190.200906 
L 209.810282 209.081289 
L 210.460893 216.658479 
L 211.111503 209.194402 
L 211.762113 187.740941 
L 212.412724 173.885743 
L 213.063334 218.016252 
L 213.713944 219.097544 
L 214.364555 217.085951 
L 215.015165 175.218357 
L 215.665775 209.948792 
L 216.316385 220.761041 
L 216.966996 197.774102 
L 217.617606 217.584698 
L 218.268216 220.509622 
L 218.918827 211.939183 
L 219.569437 196.956852 
L 220.220047 189.869943 
L 220.870658 189.387939 
L 221.521268 210.279788 
L 222.171878 167.561744 
L 222.822489 216.671039 
L 223.473099 133.116456 
L 224.123709 197.116083 
L 224.77432 216.83444 
L 225.42493 211.830365 
L 226.07554 217.236816 
L 226.72615 111.772194 
L 227.376761 131.947229 
L 228.027371 242.462011 
L 228.677981 240.177977 
L 229.328592 210.732418 
L 229.979202 216.876416 
L 230.629812 108.901307 
L 231.280423 196.474961 
L 231.931033 210.107998 
L 232.581643 217.362553 
L 233.232254 217.094211 
L 233.882864 217.123665 
L 234.533474 216.679455 
L 235.184085 219.378278 
L 235.834695 174.87058 
L 236.485305 185.322848 
L 237.135915 168.818938 
L 237.786526 196.219305 
L 238.437136 167.846711 
L 239.087746 176.915658 
L 239.738357 169.003238 
L 240.388967 174.342618 
L 241.039577 131.067182 
L 241.690188 236.648912 
L 242.340798 187.171095 
L 242.991408 171.643397 
L 243.642019 197.422118 
L 244.292629 169.816256 
L 244.943239 209.684801 
L 245.59385 173.211085 
L 246.24446 241.825004 
L 246.89507 189.538766 
L 247.54568 190.112925 
L 248.196291 188.248053 
L 248.846901 216.155575 
L 249.497511 186.978316 
L 250.148122 55.617198 
L 250.798732 188.030015 
L 251.449342 216.671027 
L 252.099953 173.311689 
L 252.750563 217.86959 
L 253.401173 53.568 
L 254.051784 217.597128 
L 254.702394 174.602364 
L 255.353004 210.996477 
L 256.003615 173.403877 
L 256.654225 216.130417 
L 257.304835 216.754837 
L 257.955445 187.409852 
L 258.606056 188.595884 
L 259.256666 187.766162 
L 259.907276 208.76276 
L 260.557887 198.142897 
L 261.208497 218.967486 
L 261.859107 171.161451 
L 262.509718 210.698899 
L 263.160328 197.204168 
L 263.810938 187.841519 
L 264.461549 174.636068 
L 265.112159 168.957218 
L 265.762769 173.609203 
L 266.413379 135.744326 
L 267.06399 53.789982 
L 267.7146 217.484057 
L 268.36521 232.692958 
L 269.015821 168.269987 
L 269.666431 216.574656 
L 270.317041 217.161359 
L 270.967652 222.118826 
L 271.618262 242.265062 
L 272.268872 187.925468 
L 272.919483 189.157504 
L 273.570093 187.17943 
L 274.220703 132.605111 
L 274.871314 168.357968 
L 275.521924 212.027356 
L 276.172534 55.043068 
L 276.823144 218.456267 
L 277.473755 241.938143 
L 278.124365 208.741814 
L 278.774975 186.446083 
L 279.425586 216.599773 
L 280.076196 216.54112 
L 280.726806 189.93686 
L 281.377417 186.542454 
L 282.028027 168.127487 
L 282.678637 208.276611 
L 283.329248 218.020535 
L 283.979858 174.229442 
L 284.630468 172.460815 
L 285.281079 209.173426 
L 285.931689 197.48489 
L 286.582299 188.453518 
L 287.232909 186.487929 
L 287.88352 210.0242 
L 288.53413 168.202828 
L 289.18474 189.563912 
L 289.835351 240.521597 
L 290.485961 186.785532 
L 291.136571 168.001776 
L 291.787182 211.432234 
L 292.437792 174.778363 
L 293.088402 174.837094 
L 293.739013 209.919389 
L 294.389623 217.186529 
L 295.040233 187.355534 
L 295.690844 107.63136 
L 296.341454 174.661071 
L 296.992064 216.587216 
L 297.642674 216.738082 
L 298.293285 212.396046 
L 298.943895 177.690982 
L 299.594505 233.899827 
L 300.245116 191.060094 
L 300.895726 172.846515 
L 301.546336 106.659138 
L 302.196947 210.237854 
L 302.847557 217.337395 
L 303.498167 211.784235 
L 304.148778 185.980893 
L 304.799388 173.035099 
L 305.449998 196.332457 
L 306.100608 170.352696 
L 306.751219 175.411098 
L 307.401829 197.007152 
L 308.052439 211.939283 
L 308.70305 217.287083 
L 309.35366 173.4374 
L 310.00427 167.97241 
L 310.654881 168.425115 
L 311.305491 209.219535 
L 311.956101 168.186202 
L 312.606712 210.853859 
L 313.257322 168.307731 
L 313.907932 219.7008 
L 314.558543 208.951319 
L 315.209153 187.26332 
L 315.859763 132.311917 
L 316.510373 208.82565 
L 317.160984 173.324274 
L 317.811594 209.290773 
L 318.462204 196.504285 
L 319.112815 198.021288 
L 319.763425 174.820394 
L 320.414035 217.999584 
L 321.064646 208.804686 
L 321.715256 216.826075 
L 322.365866 184.379912 
L 323.016477 216.834453 
L 323.667087 232.776722 
L 324.317697 188.59166 
L 324.968308 196.466583 
L 325.618918 190.372709 
L 326.269528 216.47826 
L 326.920138 216.930886 
L 327.570749 197.220923 
L 328.221359 196.474961 
L 328.871969 172.9806 
L 329.52258 196.252816 
L 330.17319 210.162522 
L 330.8238 132.927922 
L 331.474411 196.95272 
L 332.125021 167.905405 
L 332.775631 209.383011 
L 333.426242 217.010439 
L 334.076852 216.53273 
L 334.727462 187.78702 
L 335.378073 217.513448 
L 336.028683 187.367964 
L 336.679293 211.02987 
L 337.329903 196.081025 
L 337.980514 131.922239 
L 338.631124 218.565223 
L 339.281734 173.927719 
L 339.932345 219.449377 
L 340.582955 209.760196 
L 341.233565 217.48829 
L 341.884176 218.908985 
L 342.534786 187.095645 
L 343.185396 218.950668 
L 343.836007 174.321718 
L 344.486617 217.123615 
L 345.137227 218.791475 
L 345.787837 169.837307 
L 346.438448 198.511561 
L 347.089058 134.244192 
L 347.739668 218.787305 
L 348.390279 243.308547 
L 349.040889 196.625827 
L 349.691499 200.397417 
L 350.34211 187.414148 
L 350.99272 54.695137 
L 351.64333 134.008962 
L 352.944551 218.24667 
L 353.595161 187.09979 
L 354.245772 199.684991 
L 354.896382 172.624395 
L 355.546992 133.364052 
L 356.197602 196.969463 
L 356.848213 187.971552 
L 357.498823 188.403089 
L 358.149433 209.911036 
L 358.800044 169.284073 
L 359.450654 208.69151 
L 360.101264 220.35452 
L 360.751875 199.047947 
L 361.402485 209.36204 
L 362.703706 210.434816 
L 363.354316 210.204331 
L 364.004926 216.847063 
L 364.655537 172.372922 
L 365.306147 218.732873 
L 365.956757 218.028783 
L 366.607367 196.697119 
L 367.257978 208.624468 
L 367.908588 168.169459 
L 368.559198 193.322829 
L 369.209809 170.411373 
L 369.860419 55.571207 
L 370.511029 173.697184 
L 371.16164 169.334415 
L 371.81225 187.770319 
L 372.46286 169.166702 
L 373.113471 208.934593 
L 373.764081 232.475038 
L 374.414691 242.604465 
L 375.065302 167.645554 
L 375.715912 218.087502 
L 376.366522 208.62865 
L 377.017132 186.446083 
L 377.667743 197.635717 
L 378.318353 196.734783 
L 378.968963 134.004692 
L 379.619574 217.701919 
L 380.270184 208.880081 
L 380.920794 218.737056 
L 381.571405 172.884217 
L 382.222015 217.148811 
L 382.872625 209.789495 
L 383.523236 243.467535 
L 384.173846 167.800619 
L 384.824456 216.528547 
L 385.475066 209.114762 
L 386.125677 169.183558 
L 386.776287 170.076128 
L 387.426897 217.42118 
L 388.077508 197.233546 
L 388.728118 187.032735 
L 389.378728 187.929588 
L 390.029339 171.077666 
L 390.679949 173.043477 
L 391.330559 216.8261 
L 391.98117 218.443786 
L 392.63178 187.749407 
L 393.28239 216.440555 
L 393.933001 186.601169 
L 394.583611 189.056963 
L 395.234221 171.253681 
L 395.884831 219.52906 
L 396.535442 220.74426 
L 397.186052 189.283165 
L 397.836662 186.500527 
L 398.487273 219.101588 
L 398.487273 219.101588 
" clip-path="url(#pb491ba2116)" style="fill: none; stroke: #ff7f0e; stroke-width: 1.5; stroke-linecap: square"/>
   </g>
   <g id="patch_3">
    <path d="M 57.6 307.584 
L 57.6 41.472 
" style="fill: none; stroke: #000000; stroke-width: 0.8; stroke-linejoin: miter; stroke-linecap: square"/>
   </g>
   <g id="patch_4">
    <path d="M 414.72 307.584 
L 414.72 41.472 
" style="fill: none; stroke: #000000; stroke-width: 0.8; stroke-linejoin: miter; stroke-linecap: square"/>
   </g>
   <g id="patch_5">
    <path d="M 57.6 307.584 
L 414.72 307.584 
" style="fill: none; stroke: #000000; stroke-width: 0.8; stroke-linejoin: miter; stroke-linecap: square"/>
   </g>
   <g id="patch_6">
    <path d="M 57.6 41.472 
L 414.72 41.472 
" style="fill: none; stroke: #000000; stroke-width: 0.8; stroke-linejoin: miter; stroke-linecap: square"/>
   </g>
   <g id="legend_1">
    <g id="patch_7">
     <path d="M 314.459063 79.106375 
L 407.72 79.106375 
Q 409.72 79.106375 409.72 77.106375 
L 409.72 48.472 
Q 409.72 46.472 407.72 46.472 
L 314.459063 46.472 
Q 312.459063 46.472 312.459063 48.472 
L 312.459063 77.106375 
Q 312.459063 79.106375 314.459063 79.106375 
z
" style="fill: #ffffff; opacity: 0.8; stroke: #cccccc; stroke-linejoin: miter"/>
    </g>
    <g id="line2d_15">
     <path d="M 316.459063 54.570438 
L 326.459063 54.570438 
L 336.459063 54.570438 
" style="fill: none; stroke: #1f77b4; stroke-width: 1.5; stroke-linecap: square"/>
    </g>
    <g id="text_15">
     <!-- reward -->
     <g transform="translate(344.459063 58.070438) scale(0.1 -0.1)">
      <defs>
       <path id="DejaVuSans-72" d="M 2631 2963 
Q 2534 3019 2420 3045 
Q 2306 3072 2169 3072 
Q 1681 3072 1420 2755 
Q 1159 2438 1159 1844 
L 1159 0 
L 581 0 
L 581 3500 
L 1159 3500 
L 1159 2956 
Q 1341 3275 1631 3429 
Q 1922 3584 2338 3584 
Q 2397 3584 2469 3576 
Q 2541 3569 2628 3553 
L 2631 2963 
z
" transform="scale(0.015625)"/>
       <path id="DejaVuSans-77" d="M 269 3500 
L 844 3500 
L 1563 769 
L 2278 3500 
L 2956 3500 
L 3675 769 
L 4391 3500 
L 4966 3500 
L 4050 0 
L 3372 0 
L 2619 2869 
L 1863 0 
L 1184 0 
L 269 3500 
z
" transform="scale(0.015625)"/>
       <path id="DejaVuSans-61" d="M 2194 1759 
Q 1497 1759 1228 1600 
Q 959 1441 959 1056 
Q 959 750 1161 570 
Q 1363 391 1709 391 
Q 2188 391 2477 730 
Q 2766 1069 2766 1631 
L 2766 1759 
L 2194 1759 
z
M 3341 1997 
L 3341 0 
L 2766 0 
L 2766 531 
Q 2569 213 2275 61 
Q 1981 -91 1556 -91 
Q 1019 -91 701 211 
Q 384 513 384 1019 
Q 384 1609 779 1909 
Q 1175 2209 1959 2209 
L 2766 2209 
L 2766 2266 
Q 2766 2663 2505 2880 
Q 2244 3097 1772 3097 
Q 1472 3097 1187 3025 
Q 903 2953 641 2809 
L 641 3341 
Q 956 3463 1253 3523 
Q 1550 3584 1831 3584 
Q 2591 3584 2966 3190 
Q 3341 2797 3341 1997 
z
" transform="scale(0.015625)"/>
       <path id="DejaVuSans-64" d="M 2906 2969 
L 2906 4863 
L 3481 4863 
L 3481 0 
L 2906 0 
L 2906 525 
Q 2725 213 2448 61 
Q 2172 -91 1784 -91 
Q 1150 -91 751 415 
Q 353 922 353 1747 
Q 353 2572 751 3078 
Q 1150 3584 1784 3584 
Q 2172 3584 2448 3432 
Q 2725 3281 2906 2969 
z
M 947 1747 
Q 947 1113 1208 752 
Q 1469 391 1925 391 
Q 2381 391 2643 752 
Q 2906 1113 2906 1747 
Q 2906 2381 2643 2742 
Q 2381 3103 1925 3103 
Q 1469 3103 1208 2742 
Q 947 2381 947 1747 
z
" transform="scale(0.015625)"/>
      </defs>
      <use xlink:href="#DejaVuSans-72"/>
      <use xlink:href="#DejaVuSans-65" x="38.863281"/>
      <use xlink:href="#DejaVuSans-77" x="100.386719"/>
      <use xlink:href="#DejaVuSans-61" x="182.173828"/>
      <use xlink:href="#DejaVuSans-72" x="243.453125"/>
      <use xlink:href="#DejaVuSans-64" x="282.816406"/>
     </g>
    </g>
    <g id="line2d_16">
     <path d="M 316.459063 69.248563 
L 326.459063 69.248563 
L 336.459063 69.248563 
" style="fill: none; stroke: #ff7f0e; stroke-width: 1.5; stroke-linecap: square"/>
    </g>
    <g id="text_16">
     <!-- best_reward -->
     <g transform="translate(344.459063 72.748563) scale(0.1 -0.1)">
      <defs>
       <path id="DejaVuSans-62" d="M 3116 1747 
Q 3116 2381 2855 2742 
Q 2594 3103 2138 3103 
Q 1681 3103 1420 2742 
Q 1159 2381 1159 1747 
Q 1159 1113 1420 752 
Q 1681 391 2138 391 
Q 2594 391 2855 752 
Q 3116 1113 3116 1747 
z
M 1159 2969 
Q 1341 3281 1617 3432 
Q 1894 3584 2278 3584 
Q 2916 3584 3314 3078 
Q 3713 2572 3713 1747 
Q 3713 922 3314 415 
Q 2916 -91 2278 -91 
Q 1894 -91 1617 61 
Q 1341 213 1159 525 
L 1159 0 
L 581 0 
L 581 4863 
L 1159 4863 
L 1159 2969 
z
" transform="scale(0.015625)"/>
       <path id="DejaVuSans-5f" d="M 3263 -1063 
L 3263 -1509 
L -63 -1509 
L -63 -1063 
L 3263 -1063 
z
" transform="scale(0.015625)"/>
      </defs>
      <use xlink:href="#DejaVuSans-62"/>
      <use xlink:href="#DejaVuSans-65" x="63.476562"/>
      <use xlink:href="#DejaVuSans-73" x="125"/>
      <use xlink:href="#DejaVuSans-74" x="177.099609"/>
      <use xlink:href="#DejaVuSans-5f" x="216.308594"/>
      <use xlink:href="#DejaVuSans-72" x="266.308594"/>
      <use xlink:href="#DejaVuSans-65" x="305.171875"/>
      <use xlink:href="#DejaVuSans-77" x="366.695312"/>
      <use xlink:href="#DejaVuSans-61" x="448.482422"/>
      <use xlink:href="#DejaVuSans-72" x="509.761719"/>
      <use xlink:href="#DejaVuSans-64" x="549.125"/>
     </g>
    </g>
   </g>
  </g>
 </g>
 <defs>
  <clipPath id="pb491ba2116">
   <rect x="57.6" y="41.472" width="357.12" height="266.112"/>
  </clipPath>
 </defs>
</svg>
