<?xml version="1.0" encoding="utf-8" standalone="no"?>
<!DOCTYPE svg PUBLIC "-//W3C//DTD SVG 1.1//EN"
  "http://www.w3.org/Graphics/SVG/1.1/DTD/svg11.dtd">
<svg xmlns:xlink="http://www.w3.org/1999/xlink" width="460.8pt" height="345.6pt" viewBox="0 0 460.8 345.6" xmlns="http://www.w3.org/2000/svg" version="1.1">
 <metadata>
  <rdf:RDF xmlns:dc="http://purl.org/dc/elements/1.1/" xmlns:cc="http://creativecommons.org/ns#" xmlns:rdf="http://www.w3.org/1999/02/22-rdf-syntax-ns#">
   <cc:Work>
    <dc:type rdf:resource="http://purl.org/dc/dcmitype/StillImage"/>
    <dc:date>2024-08-07T13:43:30.768779</dc:date>
    <dc:format>image/svg+xml</dc:format>
    <dc:creator>
     <cc:Agent>
      <dc:title>Matplotlib v3.9.1, https://matplotlib.org/</dc:title>
     </cc:Agent>
    </dc:creator>
   </cc:Work>
  </rdf:RDF>
 </metadata>
 <defs>
  <style type="text/css">*{stroke-linejoin: round; stroke-linecap: butt}</style>
 </defs>
 <g id="figure_1">
  <g id="patch_1">
   <path d="M 0 345.6 
L 460.8 345.6 
L 460.8 0 
L 0 0 
z
" style="fill: #ffffff"/>
  </g>
  <g id="axes_1">
   <g id="patch_2">
    <path d="M 57.6 307.584 
L 414.72 307.584 
L 414.72 41.472 
L 57.6 41.472 
z
" style="fill: #ffffff"/>
   </g>
   <g id="matplotlib.axis_1">
    <g id="xtick_1">
     <g id="line2d_1">
      <defs>
       <path id="m0b594743f9" d="M 0 0 
L 0 3.5 
" style="stroke: #000000; stroke-width: 0.8"/>
      </defs>
      <g>
       <use xlink:href="#m0b594743f9" x="73.182117" y="307.584" style="stroke: #000000; stroke-width: 0.8"/>
      </g>
     </g>
     <g id="text_1">
      <!-- 0 -->
      <g transform="translate(70.000867 322.182437) scale(0.1 -0.1)">
       <defs>
        <path id="DejaVuSans-30" d="M 2034 4250 
Q 1547 4250 1301 3770 
Q 1056 3291 1056 2328 
Q 1056 1369 1301 889 
Q 1547 409 2034 409 
Q 2525 409 2770 889 
Q 3016 1369 3016 2328 
Q 3016 3291 2770 3770 
Q 2525 4250 2034 4250 
z
M 2034 4750 
Q 2819 4750 3233 4129 
Q 3647 3509 3647 2328 
Q 3647 1150 3233 529 
Q 2819 -91 2034 -91 
Q 1250 -91 836 529 
Q 422 1150 422 2328 
Q 422 3509 836 4129 
Q 1250 4750 2034 4750 
z
" transform="scale(0.015625)"/>
       </defs>
       <use xlink:href="#DejaVuSans-30"/>
      </g>
     </g>
    </g>
    <g id="xtick_2">
     <g id="line2d_2">
      <g>
       <use xlink:href="#m0b594743f9" x="138.243148" y="307.584" style="stroke: #000000; stroke-width: 0.8"/>
      </g>
     </g>
     <g id="text_2">
      <!-- 1 -->
      <g transform="translate(135.061898 322.182437) scale(0.1 -0.1)">
       <defs>
        <path id="DejaVuSans-31" d="M 794 531 
L 1825 531 
L 1825 4091 
L 703 3866 
L 703 4441 
L 1819 4666 
L 2450 4666 
L 2450 531 
L 3481 531 
L 3481 0 
L 794 0 
L 794 531 
z
" transform="scale(0.015625)"/>
       </defs>
       <use xlink:href="#DejaVuSans-31"/>
      </g>
     </g>
    </g>
    <g id="xtick_3">
     <g id="line2d_3">
      <g>
       <use xlink:href="#m0b594743f9" x="203.304179" y="307.584" style="stroke: #000000; stroke-width: 0.8"/>
      </g>
     </g>
     <g id="text_3">
      <!-- 2 -->
      <g transform="translate(200.122929 322.182437) scale(0.1 -0.1)">
       <defs>
        <path id="DejaVuSans-32" d="M 1228 531 
L 3431 531 
L 3431 0 
L 469 0 
L 469 531 
Q 828 903 1448 1529 
Q 2069 2156 2228 2338 
Q 2531 2678 2651 2914 
Q 2772 3150 2772 3378 
Q 2772 3750 2511 3984 
Q 2250 4219 1831 4219 
Q 1534 4219 1204 4116 
Q 875 4013 500 3803 
L 500 4441 
Q 881 4594 1212 4672 
Q 1544 4750 1819 4750 
Q 2544 4750 2975 4387 
Q 3406 4025 3406 3419 
Q 3406 3131 3298 2873 
Q 3191 2616 2906 2266 
Q 2828 2175 2409 1742 
Q 1991 1309 1228 531 
z
" transform="scale(0.015625)"/>
       </defs>
       <use xlink:href="#DejaVuSans-32"/>
      </g>
     </g>
    </g>
    <g id="xtick_4">
     <g id="line2d_4">
      <g>
       <use xlink:href="#m0b594743f9" x="268.36521" y="307.584" style="stroke: #000000; stroke-width: 0.8"/>
      </g>
     </g>
     <g id="text_4">
      <!-- 3 -->
      <g transform="translate(265.18396 322.182437) scale(0.1 -0.1)">
       <defs>
        <path id="DejaVuSans-33" d="M 2597 2516 
Q 3050 2419 3304 2112 
Q 3559 1806 3559 1356 
Q 3559 666 3084 287 
Q 2609 -91 1734 -91 
Q 1441 -91 1130 -33 
Q 819 25 488 141 
L 488 750 
Q 750 597 1062 519 
Q 1375 441 1716 441 
Q 2309 441 2620 675 
Q 2931 909 2931 1356 
Q 2931 1769 2642 2001 
Q 2353 2234 1838 2234 
L 1294 2234 
L 1294 2753 
L 1863 2753 
Q 2328 2753 2575 2939 
Q 2822 3125 2822 3475 
Q 2822 3834 2567 4026 
Q 2313 4219 1838 4219 
Q 1578 4219 1281 4162 
Q 984 4106 628 3988 
L 628 4550 
Q 988 4650 1302 4700 
Q 1616 4750 1894 4750 
Q 2613 4750 3031 4423 
Q 3450 4097 3450 3541 
Q 3450 3153 3228 2886 
Q 3006 2619 2597 2516 
z
" transform="scale(0.015625)"/>
       </defs>
       <use xlink:href="#DejaVuSans-33"/>
      </g>
     </g>
    </g>
    <g id="xtick_5">
     <g id="line2d_5">
      <g>
       <use xlink:href="#m0b594743f9" x="333.426242" y="307.584" style="stroke: #000000; stroke-width: 0.8"/>
      </g>
     </g>
     <g id="text_5">
      <!-- 4 -->
      <g transform="translate(330.244992 322.182437) scale(0.1 -0.1)">
       <defs>
        <path id="DejaVuSans-34" d="M 2419 4116 
L 825 1625 
L 2419 1625 
L 2419 4116 
z
M 2253 4666 
L 3047 4666 
L 3047 1625 
L 3713 1625 
L 3713 1100 
L 3047 1100 
L 3047 0 
L 2419 0 
L 2419 1100 
L 313 1100 
L 313 1709 
L 2253 4666 
z
" transform="scale(0.015625)"/>
       </defs>
       <use xlink:href="#DejaVuSans-34"/>
      </g>
     </g>
    </g>
    <g id="xtick_6">
     <g id="line2d_6">
      <g>
       <use xlink:href="#m0b594743f9" x="398.487273" y="307.584" style="stroke: #000000; stroke-width: 0.8"/>
      </g>
     </g>
     <g id="text_6">
      <!-- 5 -->
      <g transform="translate(395.306023 322.182437) scale(0.1 -0.1)">
       <defs>
        <path id="DejaVuSans-35" d="M 691 4666 
L 3169 4666 
L 3169 4134 
L 1269 4134 
L 1269 2991 
Q 1406 3038 1543 3061 
Q 1681 3084 1819 3084 
Q 2600 3084 3056 2656 
Q 3513 2228 3513 1497 
Q 3513 744 3044 326 
Q 2575 -91 1722 -91 
Q 1428 -91 1123 -41 
Q 819 9 494 109 
L 494 744 
Q 775 591 1075 516 
Q 1375 441 1709 441 
Q 2250 441 2565 725 
Q 2881 1009 2881 1497 
Q 2881 1984 2565 2268 
Q 2250 2553 1709 2553 
Q 1456 2553 1204 2497 
Q 953 2441 691 2322 
L 691 4666 
z
" transform="scale(0.015625)"/>
       </defs>
       <use xlink:href="#DejaVuSans-35"/>
      </g>
     </g>
    </g>
    <g id="text_7">
     <!-- timesteps -->
     <g transform="translate(211.443594 335.860562) scale(0.1 -0.1)">
      <defs>
       <path id="DejaVuSans-74" d="M 1172 4494 
L 1172 3500 
L 2356 3500 
L 2356 3053 
L 1172 3053 
L 1172 1153 
Q 1172 725 1289 603 
Q 1406 481 1766 481 
L 2356 481 
L 2356 0 
L 1766 0 
Q 1100 0 847 248 
Q 594 497 594 1153 
L 594 3053 
L 172 3053 
L 172 3500 
L 594 3500 
L 594 4494 
L 1172 4494 
z
" transform="scale(0.015625)"/>
       <path id="DejaVuSans-69" d="M 603 3500 
L 1178 3500 
L 1178 0 
L 603 0 
L 603 3500 
z
M 603 4863 
L 1178 4863 
L 1178 4134 
L 603 4134 
L 603 4863 
z
" transform="scale(0.015625)"/>
       <path id="DejaVuSans-6d" d="M 3328 2828 
Q 3544 3216 3844 3400 
Q 4144 3584 4550 3584 
Q 5097 3584 5394 3201 
Q 5691 2819 5691 2113 
L 5691 0 
L 5113 0 
L 5113 2094 
Q 5113 2597 4934 2840 
Q 4756 3084 4391 3084 
Q 3944 3084 3684 2787 
Q 3425 2491 3425 1978 
L 3425 0 
L 2847 0 
L 2847 2094 
Q 2847 2600 2669 2842 
Q 2491 3084 2119 3084 
Q 1678 3084 1418 2786 
Q 1159 2488 1159 1978 
L 1159 0 
L 581 0 
L 581 3500 
L 1159 3500 
L 1159 2956 
Q 1356 3278 1631 3431 
Q 1906 3584 2284 3584 
Q 2666 3584 2933 3390 
Q 3200 3197 3328 2828 
z
" transform="scale(0.015625)"/>
       <path id="DejaVuSans-65" d="M 3597 1894 
L 3597 1613 
L 953 1613 
Q 991 1019 1311 708 
Q 1631 397 2203 397 
Q 2534 397 2845 478 
Q 3156 559 3463 722 
L 3463 178 
Q 3153 47 2828 -22 
Q 2503 -91 2169 -91 
Q 1331 -91 842 396 
Q 353 884 353 1716 
Q 353 2575 817 3079 
Q 1281 3584 2069 3584 
Q 2775 3584 3186 3129 
Q 3597 2675 3597 1894 
z
M 3022 2063 
Q 3016 2534 2758 2815 
Q 2500 3097 2075 3097 
Q 1594 3097 1305 2825 
Q 1016 2553 972 2059 
L 3022 2063 
z
" transform="scale(0.015625)"/>
       <path id="DejaVuSans-73" d="M 2834 3397 
L 2834 2853 
Q 2591 2978 2328 3040 
Q 2066 3103 1784 3103 
Q 1356 3103 1142 2972 
Q 928 2841 928 2578 
Q 928 2378 1081 2264 
Q 1234 2150 1697 2047 
L 1894 2003 
Q 2506 1872 2764 1633 
Q 3022 1394 3022 966 
Q 3022 478 2636 193 
Q 2250 -91 1575 -91 
Q 1294 -91 989 -36 
Q 684 19 347 128 
L 347 722 
Q 666 556 975 473 
Q 1284 391 1588 391 
Q 1994 391 2212 530 
Q 2431 669 2431 922 
Q 2431 1156 2273 1281 
Q 2116 1406 1581 1522 
L 1381 1569 
Q 847 1681 609 1914 
Q 372 2147 372 2553 
Q 372 3047 722 3315 
Q 1072 3584 1716 3584 
Q 2034 3584 2315 3537 
Q 2597 3491 2834 3397 
z
" transform="scale(0.015625)"/>
       <path id="DejaVuSans-70" d="M 1159 525 
L 1159 -1331 
L 581 -1331 
L 581 3500 
L 1159 3500 
L 1159 2969 
Q 1341 3281 1617 3432 
Q 1894 3584 2278 3584 
Q 2916 3584 3314 3078 
Q 3713 2572 3713 1747 
Q 3713 922 3314 415 
Q 2916 -91 2278 -91 
Q 1894 -91 1617 61 
Q 1341 213 1159 525 
z
M 3116 1747 
Q 3116 2381 2855 2742 
Q 2594 3103 2138 3103 
Q 1681 3103 1420 2742 
Q 1159 2381 1159 1747 
Q 1159 1113 1420 752 
Q 1681 391 2138 391 
Q 2594 391 2855 752 
Q 3116 1113 3116 1747 
z
" transform="scale(0.015625)"/>
      </defs>
      <use xlink:href="#DejaVuSans-74"/>
      <use xlink:href="#DejaVuSans-69" x="39.208984"/>
      <use xlink:href="#DejaVuSans-6d" x="66.992188"/>
      <use xlink:href="#DejaVuSans-65" x="164.404297"/>
      <use xlink:href="#DejaVuSans-73" x="225.927734"/>
      <use xlink:href="#DejaVuSans-74" x="278.027344"/>
      <use xlink:href="#DejaVuSans-65" x="317.236328"/>
      <use xlink:href="#DejaVuSans-70" x="378.759766"/>
      <use xlink:href="#DejaVuSans-73" x="442.236328"/>
     </g>
    </g>
    <g id="text_8">
     <!-- 1e6 -->
     <g transform="translate(395.841875 334.860562) scale(0.1 -0.1)">
      <defs>
       <path id="DejaVuSans-36" d="M 2113 2584 
Q 1688 2584 1439 2293 
Q 1191 2003 1191 1497 
Q 1191 994 1439 701 
Q 1688 409 2113 409 
Q 2538 409 2786 701 
Q 3034 994 3034 1497 
Q 3034 2003 2786 2293 
Q 2538 2584 2113 2584 
z
M 3366 4563 
L 3366 3988 
Q 3128 4100 2886 4159 
Q 2644 4219 2406 4219 
Q 1781 4219 1451 3797 
Q 1122 3375 1075 2522 
Q 1259 2794 1537 2939 
Q 1816 3084 2150 3084 
Q 2853 3084 3261 2657 
Q 3669 2231 3669 1497 
Q 3669 778 3244 343 
Q 2819 -91 2113 -91 
Q 1303 -91 875 529 
Q 447 1150 447 2328 
Q 447 3434 972 4092 
Q 1497 4750 2381 4750 
Q 2619 4750 2861 4703 
Q 3103 4656 3366 4563 
z
" transform="scale(0.015625)"/>
      </defs>
      <use xlink:href="#DejaVuSans-31"/>
      <use xlink:href="#DejaVuSans-65" x="63.623047"/>
      <use xlink:href="#DejaVuSans-36" x="125.146484"/>
     </g>
    </g>
   </g>
   <g id="matplotlib.axis_2">
    <g id="ytick_1">
     <g id="line2d_7">
      <defs>
       <path id="mce3514e18d" d="M 0 0 
L -3.5 0 
" style="stroke: #000000; stroke-width: 0.8"/>
      </defs>
      <g>
       <use xlink:href="#mce3514e18d" x="57.6" y="277.088594" style="stroke: #000000; stroke-width: 0.8"/>
      </g>
     </g>
     <g id="text_9">
      <!-- 100 -->
      <g transform="translate(31.5125 280.887813) scale(0.1 -0.1)">
       <use xlink:href="#DejaVuSans-31"/>
       <use xlink:href="#DejaVuSans-30" x="63.623047"/>
       <use xlink:href="#DejaVuSans-30" x="127.246094"/>
      </g>
     </g>
    </g>
    <g id="ytick_2">
     <g id="line2d_8">
      <g>
       <use xlink:href="#mce3514e18d" x="57.6" y="237.782023" style="stroke: #000000; stroke-width: 0.8"/>
      </g>
     </g>
     <g id="text_10">
      <!-- 200 -->
      <g transform="translate(31.5125 241.581242) scale(0.1 -0.1)">
       <use xlink:href="#DejaVuSans-32"/>
       <use xlink:href="#DejaVuSans-30" x="63.623047"/>
       <use xlink:href="#DejaVuSans-30" x="127.246094"/>
      </g>
     </g>
    </g>
    <g id="ytick_3">
     <g id="line2d_9">
      <g>
       <use xlink:href="#mce3514e18d" x="57.6" y="198.475452" style="stroke: #000000; stroke-width: 0.8"/>
      </g>
     </g>
     <g id="text_11">
      <!-- 300 -->
      <g transform="translate(31.5125 202.274671) scale(0.1 -0.1)">
       <use xlink:href="#DejaVuSans-33"/>
       <use xlink:href="#DejaVuSans-30" x="63.623047"/>
       <use xlink:href="#DejaVuSans-30" x="127.246094"/>
      </g>
     </g>
    </g>
    <g id="ytick_4">
     <g id="line2d_10">
      <g>
       <use xlink:href="#mce3514e18d" x="57.6" y="159.168881" style="stroke: #000000; stroke-width: 0.8"/>
      </g>
     </g>
     <g id="text_12">
      <!-- 400 -->
      <g transform="translate(31.5125 162.968099) scale(0.1 -0.1)">
       <use xlink:href="#DejaVuSans-34"/>
       <use xlink:href="#DejaVuSans-30" x="63.623047"/>
       <use xlink:href="#DejaVuSans-30" x="127.246094"/>
      </g>
     </g>
    </g>
    <g id="ytick_5">
     <g id="line2d_11">
      <g>
       <use xlink:href="#mce3514e18d" x="57.6" y="119.86231" style="stroke: #000000; stroke-width: 0.8"/>
      </g>
     </g>
     <g id="text_13">
      <!-- 500 -->
      <g transform="translate(31.5125 123.661528) scale(0.1 -0.1)">
       <use xlink:href="#DejaVuSans-35"/>
       <use xlink:href="#DejaVuSans-30" x="63.623047"/>
       <use xlink:href="#DejaVuSans-30" x="127.246094"/>
      </g>
     </g>
    </g>
    <g id="ytick_6">
     <g id="line2d_12">
      <g>
       <use xlink:href="#mce3514e18d" x="57.6" y="80.555738" style="stroke: #000000; stroke-width: 0.8"/>
      </g>
     </g>
     <g id="text_14">
      <!-- 600 -->
      <g transform="translate(31.5125 84.354957) scale(0.1 -0.1)">
       <use xlink:href="#DejaVuSans-36"/>
       <use xlink:href="#DejaVuSans-30" x="63.623047"/>
       <use xlink:href="#DejaVuSans-30" x="127.246094"/>
      </g>
     </g>
    </g>
   </g>
   <g id="line2d_13">
    <path d="M 73.832727 246.501203 
L 74.483338 280.088857 
L 75.133948 264.043521 
L 75.784558 294.127985 
L 76.435169 266.972454 
L 77.085779 262.416229 
L 77.736389 282.191385 
L 78.386999 263.214337 
L 79.03761 264.817291 
L 79.68822 277.081118 
L 80.33883 279.729764 
L 80.989441 273.387424 
L 81.640051 256.740734 
L 82.290661 281.016893 
L 82.941272 281.808335 
L 83.591882 278.519145 
L 84.242492 257.348437 
L 84.893103 280.87985 
L 85.543713 295.173547 
L 86.194323 287.67677 
L 86.844934 283.771513 
L 87.495544 295.488 
L 88.146154 293.976065 
L 88.796764 279.218405 
L 89.447375 294.127985 
L 90.097985 271.332504 
L 90.748595 294.127985 
L 91.399206 267.414197 
L 92.049816 291.446282 
L 92.700426 265.91488 
L 94.001647 293.97292 
L 94.652257 285.437526 
L 95.302868 282.261162 
L 95.953478 280.912947 
L 96.604088 294.132309 
L 97.254698 269.051371 
L 97.905309 293.369368 
L 98.555919 270.158201 
L 99.206529 294.127985 
L 99.85714 294.127985 
L 100.50775 292.083056 
L 101.15836 294.127985 
L 101.808971 293.974493 
L 102.459581 293.980782 
L 103.110191 294.131915 
L 103.760802 292.721993 
L 104.411412 293.9741 
L 105.062022 294.127985 
L 105.712633 293.972924 
L 106.363243 292.027642 
L 107.013853 294.127985 
L 109.616294 294.127985 
L 110.266905 292.669711 
L 110.917515 294.195985 
L 112.218736 294.124054 
L 112.869346 294.118359 
L 113.519956 292.791365 
L 114.170567 292.698998 
L 114.821177 289.886814 
L 115.471787 293.993949 
L 116.122398 293.192099 
L 116.773008 294.127985 
L 118.074228 292.71511 
L 118.724839 294.127985 
L 119.375449 294.147835 
L 120.026059 293.9741 
L 120.67667 294.127985 
L 121.32728 278.411244 
L 121.97789 292.655368 
L 123.279111 292.66696 
L 123.929721 273.61644 
L 124.580332 294.127985 
L 125.230942 294.127985 
L 125.881552 293.97292 
L 126.532163 275.595923 
L 127.182773 293.972924 
L 127.833383 293.97292 
L 128.483993 295.020444 
L 129.134604 282.672698 
L 129.785214 293.456829 
L 130.435824 292.762081 
L 131.086435 294.131919 
L 131.737045 293.96899 
L 132.387655 292.808271 
L 133.038266 292.828903 
L 133.688876 294.126019 
L 134.339486 285.404504 
L 134.990097 293.32869 
L 135.640707 279.556842 
L 136.291317 281.356309 
L 136.941927 285.593966 
L 137.592538 284.842613 
L 138.243148 281.550869 
L 138.893758 294.837673 
L 139.544369 295.098865 
L 140.194979 280.503954 
L 140.845589 286.4135 
L 141.4962 283.025875 
L 142.14681 281.214809 
L 142.79742 264.491412 
L 143.448031 264.621316 
L 144.098641 266.133625 
L 144.749251 275.790491 
L 145.399862 281.358852 
L 146.050472 282.754794 
L 146.701082 279.475093 
L 147.351692 278.844045 
L 148.002303 280.988796 
L 148.652913 279.100658 
L 149.303523 283.983772 
L 149.954134 277.380249 
L 150.604744 281.260597 
L 151.255354 279.579656 
L 151.905965 281.687086 
L 152.556575 265.580208 
L 153.207185 281.323299 
L 153.857796 256.615727 
L 154.508406 275.917026 
L 155.159016 282.642404 
L 155.809627 273.99157 
L 156.460237 281.637532 
L 157.110847 279.008932 
L 157.761457 282.699021 
L 158.412068 285.415113 
L 159.062678 280.985039 
L 159.713288 273.994538 
L 160.363899 285.57785 
L 161.014509 282.43858 
L 161.665119 278.705262 
L 162.31573 282.194502 
L 162.96634 274.022662 
L 163.61695 279.67124 
L 164.267561 280.859482 
L 164.918171 283.581446 
L 165.568781 262.520199 
L 166.219392 281.856878 
L 166.870002 282.209269 
L 167.520612 285.379553 
L 168.171222 266.628298 
L 168.821833 282.702146 
L 169.472443 279.677529 
L 170.123053 283.483985 
L 170.773664 282.499521 
L 171.424274 283.442914 
L 172.074884 283.445418 
L 172.725495 285.973062 
L 174.026715 275.762988 
L 174.677326 281.710831 
L 175.327936 273.100333 
L 175.978546 279.184821 
L 176.629156 279.778936 
L 177.279767 278.501657 
L 177.930377 282.440966 
L 178.580987 283.394339 
L 179.231598 265.320839 
L 179.882208 273.134746 
L 180.532818 264.732393 
L 181.183429 280.489013 
L 181.834039 270.497047 
L 182.484649 273.978635 
L 183.13526 271.208111 
L 183.78587 269.363674 
L 184.43648 262.534931 
L 185.087091 277.94569 
L 185.737701 282.563414 
L 186.388311 277.370438 
L 187.038921 279.077636 
L 187.689532 281.553557 
L 188.340142 264.135491 
L 188.990752 271.03517 
L 190.291973 250.791806 
L 190.942583 255.419204 
L 191.593194 263.701743 
L 192.243804 263.700764 
L 192.894414 271.539658 
L 193.545025 270.156868 
L 194.195635 277.143045 
L 194.846245 273.648479 
L 195.496856 270.969693 
L 196.147466 271.513912 
L 196.798076 271.640074 
L 197.448686 272.444507 
L 198.099297 268.389641 
L 198.749907 246.522578 
L 200.051128 271.029077 
L 200.701738 272.020196 
L 201.352348 280.949679 
L 202.002959 276.083898 
L 202.653569 258.079103 
L 203.304179 247.53157 
L 203.95479 284.085745 
L 204.6054 272.186035 
L 205.25601 272.034543 
L 205.906621 279.220779 
L 206.557231 275.366974 
L 207.207841 256.955556 
L 207.858451 258.515795 
L 208.509062 254.607047 
L 209.159672 259.28372 
L 209.810282 256.786003 
L 210.460893 269.867737 
L 211.111503 267.008589 
L 211.762113 262.275492 
L 212.412724 249.983242 
L 213.063334 257.71615 
L 213.713944 248.340373 
L 214.364555 274.174994 
L 215.015165 269.453088 
L 215.665775 270.434585 
L 216.316385 256.745313 
L 216.966996 267.394611 
L 217.617606 251.52987 
L 218.268216 254.559451 
L 218.918827 275.15806 
L 219.569437 269.92299 
L 220.220047 276.947472 
L 220.870658 253.298504 
L 221.521268 268.525422 
L 222.171878 272.876085 
L 222.822489 235.810637 
L 223.473099 255.104665 
L 224.123709 262.149699 
L 224.77432 267.354695 
L 225.42493 262.255847 
L 226.07554 261.529654 
L 226.72615 248.516396 
L 227.376761 241.865952 
L 228.027371 249.758503 
L 228.677981 268.058287 
L 229.328592 275.101057 
L 229.979202 266.684325 
L 230.629812 264.008531 
L 231.280423 251.114564 
L 231.931033 256.537546 
L 232.581643 252.529652 
L 233.232254 251.107662 
L 233.882864 240.741753 
L 234.533474 254.455096 
L 235.184085 260.918449 
L 235.834695 265.700675 
L 236.485305 216.749344 
L 237.135915 206.092562 
L 237.786526 218.771223 
L 238.437136 269.879553 
L 239.087746 271.333271 
L 240.388967 254.705428 
L 241.039577 260.821294 
L 241.690188 261.174896 
L 242.340798 264.780504 
L 242.991408 273.808657 
L 244.292629 256.388559 
L 244.943239 265.70284 
L 245.59385 235.073376 
L 246.24446 270.929628 
L 246.89507 253.538105 
L 247.54568 263.704687 
L 248.196291 257.470684 
L 248.846901 246.481955 
L 249.497511 249.048894 
L 250.148122 252.41038 
L 250.798732 247.623472 
L 251.449342 267.739499 
L 252.099953 271.675285 
L 252.750563 214.489786 
L 253.401173 256.594867 
L 254.051784 248.247547 
L 254.702394 263.602494 
L 255.353004 214.049985 
L 256.003615 267.014485 
L 256.654225 263.895902 
L 257.304835 265.860688 
L 257.955445 264.656708 
L 258.606056 294.127985 
L 259.256666 253.507014 
L 259.907276 264.487678 
L 260.557887 225.427822 
L 261.208497 220.138321 
L 262.509718 260.668887 
L 263.160328 268.740661 
L 263.810938 266.701829 
L 264.461549 258.126699 
L 265.112159 263.311999 
L 265.762769 261.56935 
L 266.413379 293.969383 
L 267.06399 245.323547 
L 267.7146 251.381739 
L 268.36521 282.188032 
L 269.015821 294.127985 
L 269.666431 259.930847 
L 270.317041 292.850702 
L 270.967652 257.256648 
L 271.618262 287.665776 
L 272.268872 225.589152 
L 272.919483 214.267511 
L 273.570093 210.832133 
L 274.220703 258.653407 
L 274.871314 252.708316 
L 275.521924 243.314073 
L 276.172534 294.127985 
L 276.823144 268.862106 
L 277.473755 294.127985 
L 278.124365 266.653089 
L 278.774975 290.296974 
L 279.425586 264.371507 
L 280.076196 295.102595 
L 280.726806 214.569975 
L 281.377417 291.245634 
L 282.678637 294.127985 
L 283.329248 292.849731 
L 283.979858 284.036801 
L 284.630468 262.855657 
L 285.281079 291.516047 
L 285.931689 293.45054 
L 286.582299 293.437966 
L 287.232909 203.951742 
L 287.88352 294.265758 
L 288.53413 256.757274 
L 289.18474 291.902246 
L 289.835351 261.847263 
L 290.485961 292.981216 
L 291.136571 289.845538 
L 292.437792 252.035627 
L 293.088402 213.672044 
L 293.739013 213.063146 
L 294.389623 232.379751 
L 295.690844 292.58442 
L 296.341454 210.544601 
L 296.992064 207.667176 
L 297.642674 200.811941 
L 298.293285 158.877933 
L 298.943895 239.626185 
L 300.245116 288.526417 
L 300.895726 288.795651 
L 301.546336 264.131772 
L 302.196947 261.113047 
L 302.847557 210.303062 
L 303.498167 249.095276 
L 304.148778 230.367286 
L 304.799388 237.136448 
L 305.449998 233.989764 
L 306.751219 263.445664 
L 307.401829 217.021742 
L 308.052439 262.675456 
L 308.70305 262.691568 
L 309.35366 254.33332 
L 310.00427 262.613159 
L 310.654881 264.034886 
L 311.305491 249.074534 
L 311.956101 237.057823 
L 312.606712 214.60067 
L 313.257322 206.722658 
L 313.907932 235.109027 
L 314.558543 248.271418 
L 315.209153 219.252001 
L 315.859763 264.298035 
L 316.510373 211.925646 
L 317.160984 261.757459 
L 317.811594 261.932562 
L 318.462204 192.926445 
L 319.112815 247.727313 
L 319.763425 231.105059 
L 321.064646 214.482731 
L 321.715256 210.50138 
L 322.365866 209.787966 
L 323.016477 263.3346 
L 323.667087 262.532785 
L 324.317697 209.141199 
L 324.968308 237.405859 
L 325.618918 207.484031 
L 326.269528 228.273421 
L 326.920138 227.234553 
L 327.570749 210.55464 
L 328.221359 221.957453 
L 328.871969 180.319314 
L 329.52258 176.751292 
L 330.17319 213.767398 
L 330.8238 212.493846 
L 331.474411 245.78137 
L 332.125021 266.805437 
L 332.775631 207.462439 
L 333.426242 186.790166 
L 334.076852 191.015804 
L 334.727462 203.118851 
L 335.378073 249.514276 
L 336.028683 239.422349 
L 336.679293 258.481484 
L 337.329903 242.767723 
L 337.980514 258.270789 
L 338.631124 244.769002 
L 339.281734 246.624288 
L 339.932345 208.871961 
L 340.582955 208.900808 
L 341.233565 207.911478 
L 341.884176 209.488658 
L 342.534786 199.688166 
L 343.185396 202.951385 
L 343.836007 239.781477 
L 344.486617 226.184108 
L 345.137227 248.749794 
L 345.787837 245.92601 
L 346.438448 239.831381 
L 347.089058 160.766284 
L 347.739668 228.957537 
L 348.390279 172.43569 
L 349.040889 220.51002 
L 349.691499 207.40346 
L 350.34211 203.933267 
L 350.99272 207.709835 
L 351.64333 206.29856 
L 352.293941 229.150233 
L 352.944551 230.196122 
L 353.595161 237.460157 
L 354.245772 172.240426 
L 354.896382 190.381211 
L 355.546992 195.270732 
L 356.197602 206.227789 
L 356.848213 223.579038 
L 357.498823 206.182169 
L 358.149433 211.764689 
L 358.800044 234.392649 
L 359.450654 216.426456 
L 360.101264 245.024322 
L 360.751875 254.064801 
L 361.402485 259.427385 
L 362.053095 255.497337 
L 362.703706 192.279868 
L 363.354316 249.945768 
L 364.004926 184.570921 
L 364.655537 246.086994 
L 365.306147 186.260715 
L 365.956757 205.764753 
L 366.607367 185.101969 
L 367.257978 228.725628 
L 367.908588 195.331131 
L 368.559198 252.946305 
L 369.209809 200.334153 
L 369.860419 202.29754 
L 370.511029 220.029548 
L 371.16164 228.488613 
L 371.81225 185.791406 
L 372.46286 261.423389 
L 373.113471 259.56633 
L 373.764081 229.25548 
L 374.414691 243.062613 
L 375.065302 179.832432 
L 375.715912 180.955923 
L 376.366522 216.328736 
L 377.017132 170.445492 
L 377.667743 163.903542 
L 378.318353 231.629829 
L 378.968963 178.437379 
L 379.619574 244.523882 
L 380.270184 196.317419 
L 380.920794 174.534201 
L 381.571405 160.187998 
L 382.222015 180.255115 
L 382.872625 137.523648 
L 383.523236 170.164921 
L 384.173846 227.009133 
L 384.824456 153.844416 
L 385.475066 205.64043 
L 386.125677 168.684868 
L 386.776287 162.643641 
L 387.426897 169.25148 
L 388.077508 189.163112 
L 388.728118 260.256325 
L 389.378728 222.924792 
L 390.029339 160.919933 
L 390.679949 128.764407 
L 391.330559 178.200226 
L 391.98117 177.350163 
L 392.63178 226.173118 
L 393.28239 159.455477 
L 393.933001 192.486479 
L 394.583611 184.797669 
L 395.234221 182.132157 
L 395.884831 158.949196 
L 396.535442 160.064049 
L 397.186052 172.312939 
L 397.836662 252.093369 
L 398.487273 184.52007 
L 398.487273 184.52007 
" clip-path="url(#p7d457c1e13)" style="fill: none; stroke: #1f77b4; stroke-width: 1.5; stroke-linecap: square"/>
   </g>
   <g id="line2d_14">
    <path d="M 73.832727 168.563281 
L 74.483338 201.462732 
L 75.133948 263.865844 
L 75.784558 294.127989 
L 77.085779 230.875898 
L 77.736389 264.541921 
L 78.386999 249.974827 
L 79.03761 231.099937 
L 79.68822 232.149431 
L 80.33883 251.397572 
L 81.640051 208.133104 
L 82.941272 251.775111 
L 83.591882 254.86063 
L 84.242492 207.57894 
L 84.893103 256.212544 
L 85.543713 295.173547 
L 86.194323 211.926019 
L 87.495544 295.488 
L 88.146154 291.089614 
L 88.796764 250.462244 
L 89.447375 294.127989 
L 90.097985 263.928727 
L 90.748595 294.127989 
L 91.399206 249.959108 
L 92.049816 265.846899 
L 92.700426 265.752563 
L 93.351037 265.312318 
L 94.001647 291.02672 
L 94.652257 267.513537 
L 95.302868 259.565729 
L 95.953478 257.360685 
L 96.604088 294.127989 
L 97.254698 231.489017 
L 97.905309 278.95568 
L 98.555919 251.393849 
L 99.206529 294.127989 
L 99.85714 294.049376 
L 100.50775 253.229376 
L 101.15836 294.127989 
L 101.808971 291.058169 
L 102.459581 291.02672 
L 103.110191 294.127989 
L 103.760802 266.086685 
L 104.411412 291.050316 
L 105.062022 294.127989 
L 105.712633 291.02672 
L 106.363243 265.052918 
L 107.013853 294.127989 
L 109.616294 294.127989 
L 110.266905 264.962521 
L 110.917515 294.127989 
L 112.218736 294.049376 
L 112.869346 291.050316 
L 113.519956 267.395609 
L 114.170567 265.548189 
L 114.821177 209.225909 
L 115.471787 291.050312 
L 116.122398 278.48792 
L 116.773008 294.127989 
L 118.074228 265.870518 
L 118.724839 294.127989 
L 119.375449 294.127989 
L 120.026059 291.050316 
L 120.67667 294.127989 
L 121.32728 253.834536 
L 121.97789 279.156143 
L 122.628501 267.104729 
L 123.279111 264.907484 
L 123.929721 233.517252 
L 124.580332 294.127989 
L 125.230942 294.127989 
L 125.881552 291.02672 
L 126.532163 232.381328 
L 127.182773 291.02672 
L 127.833383 291.02672 
L 128.483993 294.127989 
L 129.134604 252.569092 
L 129.785214 280.704838 
L 130.435824 266.888531 
L 131.086435 294.127989 
L 131.737045 290.948115 
L 132.387655 267.812247 
L 133.038266 268.146357 
L 133.688876 294.088682 
L 134.339486 266.515119 
L 134.990097 281.243342 
L 135.640707 236.138989 
L 136.291317 264.439665 
L 136.941927 266.397191 
L 137.592538 266.385423 
L 138.243148 255.292833 
L 138.893758 290.948115 
L 139.544369 294.127989 
L 140.194979 265.194402 
L 140.845589 264.565501 
L 141.4962 253.461304 
L 142.14681 264.294286 
L 143.448031 264.235334 
L 144.098641 264.235334 
L 144.749251 252.20746 
L 145.399862 253.704981 
L 146.050472 251.665021 
L 146.701082 233.509395 
L 147.351692 256.542983 
L 148.002303 249.758641 
L 148.652913 252.215313 
L 149.303523 265.956981 
L 149.954134 234.562748 
L 150.604744 264.514418 
L 151.255354 264.097749 
L 151.905965 264.710947 
L 152.556575 263.956257 
L 153.207185 264.420086 
L 153.857796 181.542114 
L 154.508406 253.968166 
L 155.159016 232.267205 
L 155.809627 250.615544 
L 156.460237 263.834363 
L 157.110847 233.088866 
L 157.761457 254.597343 
L 158.412068 257.635705 
L 159.062678 233.230314 
L 159.713288 236.814845 
L 160.363899 267.415259 
L 161.014509 254.043049 
L 161.665119 249.813674 
L 162.31573 264.215645 
L 162.96634 253.752118 
L 163.61695 235.903 
L 164.267561 234.837941 
L 164.918171 255.171128 
L 165.568781 204.029521 
L 166.219392 265.901928 
L 166.870002 264.286393 
L 167.520612 234.48419 
L 168.171222 234.802565 
L 168.821833 267.458484 
L 169.472443 258.708782 
L 170.123053 265.642517 
L 170.773664 251.896938 
L 171.424274 266.082742 
L 172.074884 252.179733 
L 172.725495 266.397195 
L 173.376105 265.654297 
L 174.026715 251.264098 
L 174.677326 251.350569 
L 175.327936 191.054489 
L 175.978546 249.825466 
L 176.629156 232.644658 
L 177.279767 234.425202 
L 177.930377 251.991274 
L 178.580987 251.661099 
L 179.231598 234.837729 
L 179.882208 232.695804 
L 180.532818 188.251954 
L 181.183429 250.316794 
L 181.834039 250.041652 
L 182.484649 251.80261 
L 183.13526 250.222447 
L 183.78587 263.834375 
L 184.43648 262.439007 
L 185.087091 232.530622 
L 185.737701 252.474756 
L 186.388311 232.593563 
L 187.038921 250.55649 
L 187.689532 250.937862 
L 188.340142 262.439007 
L 188.990752 249.577835 
L 189.641363 249.852977 
L 190.291973 249.852977 
L 190.942583 231.768098 
L 191.593194 232.436333 
L 192.243804 210.145585 
L 192.894414 237.325799 
L 193.545025 232.672177 
L 194.195635 263.331282 
L 194.846245 233.210629 
L 195.496856 252.168153 
L 196.147466 263.40203 
L 196.798076 250.588021 
L 197.448686 250.104547 
L 198.099297 250.45831 
L 198.749907 207.264444 
L 199.400517 255.796224 
L 200.051128 250.847464 
L 200.701738 232.52675 
L 201.352348 251.837986 
L 202.002959 251.338785 
L 202.653569 209.567707 
L 203.304179 207.327358 
L 203.95479 264.062392 
L 204.6054 252.525627 
L 205.25601 211.245972 
L 205.906621 259.027032 
L 206.557231 208.585149 
L 207.207841 207.162279 
L 207.858451 207.767517 
L 209.159672 207.16619 
L 209.810282 207.126903 
L 210.460893 251.763162 
L 211.111503 264.235334 
L 211.762113 209.764118 
L 212.412724 207.409875 
L 213.063334 207.126903 
L 213.713944 209.64647 
L 214.364555 251.987347 
L 215.015165 208.463326 
L 215.665775 208.506556 
L 216.316385 207.16619 
L 216.966996 208.490841 
L 217.617606 209.119726 
L 218.268216 207.578893 
L 218.918827 252.097421 
L 219.569437 208.821051 
L 220.220047 208.282398 
L 220.870658 207.067959 
L 221.521268 252.160296 
L 222.171878 253.669366 
L 222.822489 207.126903 
L 223.473099 207.16619 
L 224.123709 207.005092 
L 224.77432 251.936017 
L 225.42493 209.198391 
L 226.07554 210.153477 
L 226.72615 207.610342 
L 227.376761 207.048298 
L 228.027371 209.410398 
L 228.677981 266.063081 
L 229.328592 250.477967 
L 229.979202 266.063081 
L 230.629812 213.45506 
L 231.280423 208.907514 
L 231.931033 209.119545 
L 232.581643 207.594592 
L 233.232254 207.64176 
L 233.882864 206.989353 
L 235.184085 207.119069 
L 235.834695 262.439015 
L 236.485305 206.989353 
L 237.135915 188.758997 
L 237.786526 207.291998 
L 238.437136 208.368955 
L 239.087746 249.805793 
L 239.738357 206.997199 
L 240.388967 208.125188 
L 241.039577 210.381404 
L 241.690188 208.345265 
L 242.340798 210.648555 
L 242.991408 207.861936 
L 243.642019 230.785481 
L 244.292629 207.755776 
L 244.943239 263.661461 
L 245.59385 207.637872 
L 246.24446 209.787954 
L 246.89507 206.989353 
L 247.54568 263.704687 
L 248.196291 208.522164 
L 248.846901 207.060101 
L 249.497511 207.893302 
L 250.148122 207.402017 
L 250.798732 207.284117 
L 251.449342 209.261081 
L 252.099953 207.27626 
L 252.750563 207.311644 
L 253.401173 209.316149 
L 254.051784 207.806863 
L 254.702394 263.602494 
L 255.353004 207.028648 
L 256.003615 263.602494 
L 256.654225 249.605357 
L 257.304835 208.058492 
L 257.955445 207.162291 
L 258.606056 294.127989 
L 259.256666 206.600187 
L 259.907276 209.697509 
L 260.557887 206.832115 
L 261.208497 207.067959 
L 262.509718 207.260557 
L 263.160328 208.337541 
L 263.810938 207.571083 
L 264.461549 207.063977 
L 265.112159 208.522164 
L 265.762769 208.58112 
L 266.413379 290.955976 
L 267.06399 166.73163 
L 267.7146 207.519945 
L 268.36521 229.040277 
L 269.015821 294.127989 
L 269.666431 206.698477 
L 270.317041 268.582369 
L 270.967652 207.225181 
L 271.618262 209.481146 
L 272.268872 207.087596 
L 272.919483 206.38007 
L 273.570093 207.020767 
L 274.220703 209.052803 
L 274.871314 207.048274 
L 275.521924 207.480638 
L 276.172534 294.127989 
L 276.823144 265.988391 
L 277.473755 294.127989 
L 278.124365 231.308235 
L 278.774975 230.883755 
L 279.425586 207.402068 
L 280.076196 294.127989 
L 280.726806 207.079751 
L 281.377417 263.720417 
L 282.028027 266.063081 
L 282.678637 294.127989 
L 283.979858 207.508177 
L 284.630468 262.533335 
L 285.281079 249.860854 
L 285.931689 264.384695 
L 286.582299 255.587908 
L 287.232909 188.134038 
L 287.88352 278.48792 
L 288.53413 162.14462 
L 289.18474 249.613214 
L 289.835351 207.217324 
L 290.485961 254.613002 
L 291.136571 208.479065 
L 291.787182 250.021999 
L 292.437792 151.909676 
L 293.088402 188.141884 
L 293.739013 161.311285 
L 294.389623 206.867503 
L 295.040233 210.06705 
L 295.690844 264.003405 
L 296.341454 201.175908 
L 296.992064 200.16576 
L 297.642674 178.425323 
L 298.293285 54.782105 
L 298.943895 153.937679 
L 299.594505 208.534039 
L 300.245116 179.10923 
L 300.895726 210.766707 
L 301.546336 263.799031 
L 302.196947 208.899621 
L 302.847557 206.938239 
L 303.498167 201.800906 
L 304.148778 206.867503 
L 304.799388 230.647924 
L 305.449998 230.647924 
L 306.100608 202.759711 
L 306.751219 231.001683 
L 307.401829 207.119069 
L 308.052439 208.062427 
L 308.70305 208.490868 
L 309.35366 151.811481 
L 310.00427 249.762568 
L 310.654881 264.034874 
L 311.305491 207.582812 
L 311.956101 230.718675 
L 312.606712 208.1882 
L 313.257322 179.907149 
L 313.907932 208.416158 
L 314.558543 154.794755 
L 315.209153 200.193267 
L 315.859763 263.928742 
L 316.510373 200.102858 
L 317.160984 207.547499 
L 317.811594 230.785481 
L 318.462204 166.456504 
L 319.112815 222.554653 
L 319.763425 207.052244 
L 320.414035 208.384733 
L 321.064646 166.468319 
L 321.715256 206.867503 
L 322.365866 188.373801 
L 323.016477 207.409875 
L 323.667087 207.696868 
L 324.317697 166.700224 
L 324.968308 200.236512 
L 325.618918 199.941701 
L 326.269528 206.867503 
L 326.920138 206.934305 
L 328.221359 206.867503 
L 328.871969 161.177655 
L 329.52258 152.263384 
L 330.17319 151.355489 
L 330.8238 208.097803 
L 331.474411 181.852903 
L 332.125021 189.670937 
L 332.775631 179.966168 
L 333.426242 125.915891 
L 334.076852 127.275883 
L 334.727462 199.784463 
L 335.378073 179.93865 
L 336.028683 200.126442 
L 336.679293 182.414948 
L 337.329903 199.933844 
L 337.980514 200.020283 
L 338.631124 180.488954 
L 339.281734 202.363009 
L 339.932345 200.106792 
L 340.582955 207.669361 
L 341.233565 166.570508 
L 341.884176 199.792332 
L 342.534786 159.797978 
L 343.185396 188.931926 
L 343.836007 161.165855 
L 344.486617 142.790654 
L 345.137227 167.561054 
L 345.787837 166.295355 
L 346.438448 129.870407 
L 347.089058 127.240676 
L 347.739668 165.933766 
L 348.390279 154.665527 
L 349.040889 200.032122 
L 349.691499 188.377735 
L 350.34211 178.77909 
L 350.99272 127.901022 
L 351.64333 168.437618 
L 352.293941 126.615536 
L 352.944551 201.179866 
L 353.595161 199.843446 
L 354.245772 143.60884 
L 354.896382 128.364852 
L 355.546992 161.272026 
L 356.197602 200.03211 
L 356.848213 179.364742 
L 357.498823 178.731887 
L 358.149433 199.619383 
L 358.800044 201.478552 
L 359.450654 206.867503 
L 360.101264 200.106792 
L 360.751875 201.470742 
L 361.402485 207.197678 
L 362.053095 179.396231 
L 362.703706 161.110841 
L 363.354316 206.867503 
L 364.004926 178.15805 
L 364.655537 157.774319 
L 365.306147 161.413498 
L 365.956757 200.633485 
L 366.607367 161.272026 
L 367.257978 201.285978 
L 367.908588 152.554394 
L 368.559198 179.769529 
L 369.209809 178.712253 
L 369.860419 179.600609 
L 370.511029 107.650689 
L 371.16164 178.370321 
L 371.81225 151.426225 
L 372.46286 190.449223 
L 373.113471 181.648501 
L 373.764081 201.455004 
L 374.414691 160.831757 
L 375.065302 130.959577 
L 375.715912 178.944197 
L 376.366522 101.116117 
L 377.017132 151.414445 
L 377.667743 128.019024 
L 378.318353 151.37515 
L 378.968963 122.925109 
L 379.619574 125.896206 
L 380.270184 178.531471 
L 380.920794 161.118711 
L 381.571405 53.568 
L 382.222015 157.668085 
L 382.872625 126.167457 
L 384.173846 179.042476 
L 384.824456 126.6312 
L 385.475066 155.109274 
L 386.776287 151.414445 
L 387.426897 126.764976 
L 388.077508 143.746271 
L 388.728118 178.606165 
L 389.378728 151.728858 
L 390.029339 108.637481 
L 390.679949 54.523366 
L 391.330559 127.169881 
L 391.98117 142.08733 
L 392.63178 153.997189 
L 393.28239 151.599198 
L 394.583611 137.780316 
L 395.234221 161.444939 
L 395.884831 151.335851 
L 396.535442 126.387538 
L 397.186052 157.25572 
L 397.836662 152.416904 
L 398.487273 152.57415 
L 398.487273 152.57415 
" clip-path="url(#p7d457c1e13)" style="fill: none; stroke: #ff7f0e; stroke-width: 1.5; stroke-linecap: square"/>
   </g>
   <g id="patch_3">
    <path d="M 57.6 307.584 
L 57.6 41.472 
" style="fill: none; stroke: #000000; stroke-width: 0.8; stroke-linejoin: miter; stroke-linecap: square"/>
   </g>
   <g id="patch_4">
    <path d="M 414.72 307.584 
L 414.72 41.472 
" style="fill: none; stroke: #000000; stroke-width: 0.8; stroke-linejoin: miter; stroke-linecap: square"/>
   </g>
   <g id="patch_5">
    <path d="M 57.6 307.584 
L 414.72 307.584 
" style="fill: none; stroke: #000000; stroke-width: 0.8; stroke-linejoin: miter; stroke-linecap: square"/>
   </g>
   <g id="patch_6">
    <path d="M 57.6 41.472 
L 414.72 41.472 
" style="fill: none; stroke: #000000; stroke-width: 0.8; stroke-linejoin: miter; stroke-linecap: square"/>
   </g>
   <g id="legend_1">
    <g id="patch_7">
     <path d="M 64.6 79.106375 
L 157.860938 79.106375 
Q 159.860938 79.106375 159.860938 77.106375 
L 159.860938 48.472 
Q 159.860938 46.472 157.860938 46.472 
L 64.6 46.472 
Q 62.6 46.472 62.6 48.472 
L 62.6 77.106375 
Q 62.6 79.106375 64.6 79.106375 
z
" style="fill: #ffffff; opacity: 0.8; stroke: #cccccc; stroke-linejoin: miter"/>
    </g>
    <g id="line2d_15">
     <path d="M 66.6 54.570438 
L 76.6 54.570438 
L 86.6 54.570438 
" style="fill: none; stroke: #1f77b4; stroke-width: 1.5; stroke-linecap: square"/>
    </g>
    <g id="text_15">
     <!-- reward -->
     <g transform="translate(94.6 58.070438) scale(0.1 -0.1)">
      <defs>
       <path id="DejaVuSans-72" d="M 2631 2963 
Q 2534 3019 2420 3045 
Q 2306 3072 2169 3072 
Q 1681 3072 1420 2755 
Q 1159 2438 1159 1844 
L 1159 0 
L 581 0 
L 581 3500 
L 1159 3500 
L 1159 2956 
Q 1341 3275 1631 3429 
Q 1922 3584 2338 3584 
Q 2397 3584 2469 3576 
Q 2541 3569 2628 3553 
L 2631 2963 
z
" transform="scale(0.015625)"/>
       <path id="DejaVuSans-77" d="M 269 3500 
L 844 3500 
L 1563 769 
L 2278 3500 
L 2956 3500 
L 3675 769 
L 4391 3500 
L 4966 3500 
L 4050 0 
L 3372 0 
L 2619 2869 
L 1863 0 
L 1184 0 
L 269 3500 
z
" transform="scale(0.015625)"/>
       <path id="DejaVuSans-61" d="M 2194 1759 
Q 1497 1759 1228 1600 
Q 959 1441 959 1056 
Q 959 750 1161 570 
Q 1363 391 1709 391 
Q 2188 391 2477 730 
Q 2766 1069 2766 1631 
L 2766 1759 
L 2194 1759 
z
M 3341 1997 
L 3341 0 
L 2766 0 
L 2766 531 
Q 2569 213 2275 61 
Q 1981 -91 1556 -91 
Q 1019 -91 701 211 
Q 384 513 384 1019 
Q 384 1609 779 1909 
Q 1175 2209 1959 2209 
L 2766 2209 
L 2766 2266 
Q 2766 2663 2505 2880 
Q 2244 3097 1772 3097 
Q 1472 3097 1187 3025 
Q 903 2953 641 2809 
L 641 3341 
Q 956 3463 1253 3523 
Q 1550 3584 1831 3584 
Q 2591 3584 2966 3190 
Q 3341 2797 3341 1997 
z
" transform="scale(0.015625)"/>
       <path id="DejaVuSans-64" d="M 2906 2969 
L 2906 4863 
L 3481 4863 
L 3481 0 
L 2906 0 
L 2906 525 
Q 2725 213 2448 61 
Q 2172 -91 1784 -91 
Q 1150 -91 751 415 
Q 353 922 353 1747 
Q 353 2572 751 3078 
Q 1150 3584 1784 3584 
Q 2172 3584 2448 3432 
Q 2725 3281 2906 2969 
z
M 947 1747 
Q 947 1113 1208 752 
Q 1469 391 1925 391 
Q 2381 391 2643 752 
Q 2906 1113 2906 1747 
Q 2906 2381 2643 2742 
Q 2381 3103 1925 3103 
Q 1469 3103 1208 2742 
Q 947 2381 947 1747 
z
" transform="scale(0.015625)"/>
      </defs>
      <use xlink:href="#DejaVuSans-72"/>
      <use xlink:href="#DejaVuSans-65" x="38.863281"/>
      <use xlink:href="#DejaVuSans-77" x="100.386719"/>
      <use xlink:href="#DejaVuSans-61" x="182.173828"/>
      <use xlink:href="#DejaVuSans-72" x="243.453125"/>
      <use xlink:href="#DejaVuSans-64" x="282.816406"/>
     </g>
    </g>
    <g id="line2d_16">
     <path d="M 66.6 69.248563 
L 76.6 69.248563 
L 86.6 69.248563 
" style="fill: none; stroke: #ff7f0e; stroke-width: 1.5; stroke-linecap: square"/>
    </g>
    <g id="text_16">
     <!-- best_reward -->
     <g transform="translate(94.6 72.748563) scale(0.1 -0.1)">
      <defs>
       <path id="DejaVuSans-62" d="M 3116 1747 
Q 3116 2381 2855 2742 
Q 2594 3103 2138 3103 
Q 1681 3103 1420 2742 
Q 1159 2381 1159 1747 
Q 1159 1113 1420 752 
Q 1681 391 2138 391 
Q 2594 391 2855 752 
Q 3116 1113 3116 1747 
z
M 1159 2969 
Q 1341 3281 1617 3432 
Q 1894 3584 2278 3584 
Q 2916 3584 3314 3078 
Q 3713 2572 3713 1747 
Q 3713 922 3314 415 
Q 2916 -91 2278 -91 
Q 1894 -91 1617 61 
Q 1341 213 1159 525 
L 1159 0 
L 581 0 
L 581 4863 
L 1159 4863 
L 1159 2969 
z
" transform="scale(0.015625)"/>
       <path id="DejaVuSans-5f" d="M 3263 -1063 
L 3263 -1509 
L -63 -1509 
L -63 -1063 
L 3263 -1063 
z
" transform="scale(0.015625)"/>
      </defs>
      <use xlink:href="#DejaVuSans-62"/>
      <use xlink:href="#DejaVuSans-65" x="63.476562"/>
      <use xlink:href="#DejaVuSans-73" x="125"/>
      <use xlink:href="#DejaVuSans-74" x="177.099609"/>
      <use xlink:href="#DejaVuSans-5f" x="216.308594"/>
      <use xlink:href="#DejaVuSans-72" x="266.308594"/>
      <use xlink:href="#DejaVuSans-65" x="305.171875"/>
      <use xlink:href="#DejaVuSans-77" x="366.695312"/>
      <use xlink:href="#DejaVuSans-61" x="448.482422"/>
      <use xlink:href="#DejaVuSans-72" x="509.761719"/>
      <use xlink:href="#DejaVuSans-64" x="549.125"/>
     </g>
    </g>
   </g>
  </g>
 </g>
 <defs>
  <clipPath id="p7d457c1e13">
   <rect x="57.6" y="41.472" width="357.12" height="266.112"/>
  </clipPath>
 </defs>
</svg>
