<?xml version="1.0" encoding="utf-8" standalone="no"?>
<!DOCTYPE svg PUBLIC "-//W3C//DTD SVG 1.1//EN"
  "http://www.w3.org/Graphics/SVG/1.1/DTD/svg11.dtd">
<svg xmlns:xlink="http://www.w3.org/1999/xlink" width="460.8pt" height="345.6pt" viewBox="0 0 460.8 345.6" xmlns="http://www.w3.org/2000/svg" version="1.1">
 <metadata>
  <rdf:RDF xmlns:dc="http://purl.org/dc/elements/1.1/" xmlns:cc="http://creativecommons.org/ns#" xmlns:rdf="http://www.w3.org/1999/02/22-rdf-syntax-ns#">
   <cc:Work>
    <dc:type rdf:resource="http://purl.org/dc/dcmitype/StillImage"/>
    <dc:date>2024-08-07T13:46:03.720877</dc:date>
    <dc:format>image/svg+xml</dc:format>
    <dc:creator>
     <cc:Agent>
      <dc:title>Matplotlib v3.9.1, https://matplotlib.org/</dc:title>
     </cc:Agent>
    </dc:creator>
   </cc:Work>
  </rdf:RDF>
 </metadata>
 <defs>
  <style type="text/css">*{stroke-linejoin: round; stroke-linecap: butt}</style>
 </defs>
 <g id="figure_1">
  <g id="patch_1">
   <path d="M 0 345.6 
L 460.8 345.6 
L 460.8 0 
L 0 0 
z
" style="fill: #ffffff"/>
  </g>
  <g id="axes_1">
   <g id="patch_2">
    <path d="M 57.6 307.584 
L 414.72 307.584 
L 414.72 41.472 
L 57.6 41.472 
z
" style="fill: #ffffff"/>
   </g>
   <g id="matplotlib.axis_1">
    <g id="xtick_1">
     <g id="line2d_1">
      <defs>
       <path id="m2e166aca90" d="M 0 0 
L 0 3.5 
" style="stroke: #000000; stroke-width: 0.8"/>
      </defs>
      <g>
       <use xlink:href="#m2e166aca90" x="73.182117" y="307.584" style="stroke: #000000; stroke-width: 0.8"/>
      </g>
     </g>
     <g id="text_1">
      <!-- 0 -->
      <g transform="translate(70.000867 322.182437) scale(0.1 -0.1)">
       <defs>
        <path id="DejaVuSans-30" d="M 2034 4250 
Q 1547 4250 1301 3770 
Q 1056 3291 1056 2328 
Q 1056 1369 1301 889 
Q 1547 409 2034 409 
Q 2525 409 2770 889 
Q 3016 1369 3016 2328 
Q 3016 3291 2770 3770 
Q 2525 4250 2034 4250 
z
M 2034 4750 
Q 2819 4750 3233 4129 
Q 3647 3509 3647 2328 
Q 3647 1150 3233 529 
Q 2819 -91 2034 -91 
Q 1250 -91 836 529 
Q 422 1150 422 2328 
Q 422 3509 836 4129 
Q 1250 4750 2034 4750 
z
" transform="scale(0.015625)"/>
       </defs>
       <use xlink:href="#DejaVuSans-30"/>
      </g>
     </g>
    </g>
    <g id="xtick_2">
     <g id="line2d_2">
      <g>
       <use xlink:href="#m2e166aca90" x="138.243148" y="307.584" style="stroke: #000000; stroke-width: 0.8"/>
      </g>
     </g>
     <g id="text_2">
      <!-- 1 -->
      <g transform="translate(135.061898 322.182437) scale(0.1 -0.1)">
       <defs>
        <path id="DejaVuSans-31" d="M 794 531 
L 1825 531 
L 1825 4091 
L 703 3866 
L 703 4441 
L 1819 4666 
L 2450 4666 
L 2450 531 
L 3481 531 
L 3481 0 
L 794 0 
L 794 531 
z
" transform="scale(0.015625)"/>
       </defs>
       <use xlink:href="#DejaVuSans-31"/>
      </g>
     </g>
    </g>
    <g id="xtick_3">
     <g id="line2d_3">
      <g>
       <use xlink:href="#m2e166aca90" x="203.304179" y="307.584" style="stroke: #000000; stroke-width: 0.8"/>
      </g>
     </g>
     <g id="text_3">
      <!-- 2 -->
      <g transform="translate(200.122929 322.182437) scale(0.1 -0.1)">
       <defs>
        <path id="DejaVuSans-32" d="M 1228 531 
L 3431 531 
L 3431 0 
L 469 0 
L 469 531 
Q 828 903 1448 1529 
Q 2069 2156 2228 2338 
Q 2531 2678 2651 2914 
Q 2772 3150 2772 3378 
Q 2772 3750 2511 3984 
Q 2250 4219 1831 4219 
Q 1534 4219 1204 4116 
Q 875 4013 500 3803 
L 500 4441 
Q 881 4594 1212 4672 
Q 1544 4750 1819 4750 
Q 2544 4750 2975 4387 
Q 3406 4025 3406 3419 
Q 3406 3131 3298 2873 
Q 3191 2616 2906 2266 
Q 2828 2175 2409 1742 
Q 1991 1309 1228 531 
z
" transform="scale(0.015625)"/>
       </defs>
       <use xlink:href="#DejaVuSans-32"/>
      </g>
     </g>
    </g>
    <g id="xtick_4">
     <g id="line2d_4">
      <g>
       <use xlink:href="#m2e166aca90" x="268.36521" y="307.584" style="stroke: #000000; stroke-width: 0.8"/>
      </g>
     </g>
     <g id="text_4">
      <!-- 3 -->
      <g transform="translate(265.18396 322.182437) scale(0.1 -0.1)">
       <defs>
        <path id="DejaVuSans-33" d="M 2597 2516 
Q 3050 2419 3304 2112 
Q 3559 1806 3559 1356 
Q 3559 666 3084 287 
Q 2609 -91 1734 -91 
Q 1441 -91 1130 -33 
Q 819 25 488 141 
L 488 750 
Q 750 597 1062 519 
Q 1375 441 1716 441 
Q 2309 441 2620 675 
Q 2931 909 2931 1356 
Q 2931 1769 2642 2001 
Q 2353 2234 1838 2234 
L 1294 2234 
L 1294 2753 
L 1863 2753 
Q 2328 2753 2575 2939 
Q 2822 3125 2822 3475 
Q 2822 3834 2567 4026 
Q 2313 4219 1838 4219 
Q 1578 4219 1281 4162 
Q 984 4106 628 3988 
L 628 4550 
Q 988 4650 1302 4700 
Q 1616 4750 1894 4750 
Q 2613 4750 3031 4423 
Q 3450 4097 3450 3541 
Q 3450 3153 3228 2886 
Q 3006 2619 2597 2516 
z
" transform="scale(0.015625)"/>
       </defs>
       <use xlink:href="#DejaVuSans-33"/>
      </g>
     </g>
    </g>
    <g id="xtick_5">
     <g id="line2d_5">
      <g>
       <use xlink:href="#m2e166aca90" x="333.426242" y="307.584" style="stroke: #000000; stroke-width: 0.8"/>
      </g>
     </g>
     <g id="text_5">
      <!-- 4 -->
      <g transform="translate(330.244992 322.182437) scale(0.1 -0.1)">
       <defs>
        <path id="DejaVuSans-34" d="M 2419 4116 
L 825 1625 
L 2419 1625 
L 2419 4116 
z
M 2253 4666 
L 3047 4666 
L 3047 1625 
L 3713 1625 
L 3713 1100 
L 3047 1100 
L 3047 0 
L 2419 0 
L 2419 1100 
L 313 1100 
L 313 1709 
L 2253 4666 
z
" transform="scale(0.015625)"/>
       </defs>
       <use xlink:href="#DejaVuSans-34"/>
      </g>
     </g>
    </g>
    <g id="xtick_6">
     <g id="line2d_6">
      <g>
       <use xlink:href="#m2e166aca90" x="398.487273" y="307.584" style="stroke: #000000; stroke-width: 0.8"/>
      </g>
     </g>
     <g id="text_6">
      <!-- 5 -->
      <g transform="translate(395.306023 322.182437) scale(0.1 -0.1)">
       <defs>
        <path id="DejaVuSans-35" d="M 691 4666 
L 3169 4666 
L 3169 4134 
L 1269 4134 
L 1269 2991 
Q 1406 3038 1543 3061 
Q 1681 3084 1819 3084 
Q 2600 3084 3056 2656 
Q 3513 2228 3513 1497 
Q 3513 744 3044 326 
Q 2575 -91 1722 -91 
Q 1428 -91 1123 -41 
Q 819 9 494 109 
L 494 744 
Q 775 591 1075 516 
Q 1375 441 1709 441 
Q 2250 441 2565 725 
Q 2881 1009 2881 1497 
Q 2881 1984 2565 2268 
Q 2250 2553 1709 2553 
Q 1456 2553 1204 2497 
Q 953 2441 691 2322 
L 691 4666 
z
" transform="scale(0.015625)"/>
       </defs>
       <use xlink:href="#DejaVuSans-35"/>
      </g>
     </g>
    </g>
    <g id="text_7">
     <!-- timesteps -->
     <g transform="translate(211.443594 335.860562) scale(0.1 -0.1)">
      <defs>
       <path id="DejaVuSans-74" d="M 1172 4494 
L 1172 3500 
L 2356 3500 
L 2356 3053 
L 1172 3053 
L 1172 1153 
Q 1172 725 1289 603 
Q 1406 481 1766 481 
L 2356 481 
L 2356 0 
L 1766 0 
Q 1100 0 847 248 
Q 594 497 594 1153 
L 594 3053 
L 172 3053 
L 172 3500 
L 594 3500 
L 594 4494 
L 1172 4494 
z
" transform="scale(0.015625)"/>
       <path id="DejaVuSans-69" d="M 603 3500 
L 1178 3500 
L 1178 0 
L 603 0 
L 603 3500 
z
M 603 4863 
L 1178 4863 
L 1178 4134 
L 603 4134 
L 603 4863 
z
" transform="scale(0.015625)"/>
       <path id="DejaVuSans-6d" d="M 3328 2828 
Q 3544 3216 3844 3400 
Q 4144 3584 4550 3584 
Q 5097 3584 5394 3201 
Q 5691 2819 5691 2113 
L 5691 0 
L 5113 0 
L 5113 2094 
Q 5113 2597 4934 2840 
Q 4756 3084 4391 3084 
Q 3944 3084 3684 2787 
Q 3425 2491 3425 1978 
L 3425 0 
L 2847 0 
L 2847 2094 
Q 2847 2600 2669 2842 
Q 2491 3084 2119 3084 
Q 1678 3084 1418 2786 
Q 1159 2488 1159 1978 
L 1159 0 
L 581 0 
L 581 3500 
L 1159 3500 
L 1159 2956 
Q 1356 3278 1631 3431 
Q 1906 3584 2284 3584 
Q 2666 3584 2933 3390 
Q 3200 3197 3328 2828 
z
" transform="scale(0.015625)"/>
       <path id="DejaVuSans-65" d="M 3597 1894 
L 3597 1613 
L 953 1613 
Q 991 1019 1311 708 
Q 1631 397 2203 397 
Q 2534 397 2845 478 
Q 3156 559 3463 722 
L 3463 178 
Q 3153 47 2828 -22 
Q 2503 -91 2169 -91 
Q 1331 -91 842 396 
Q 353 884 353 1716 
Q 353 2575 817 3079 
Q 1281 3584 2069 3584 
Q 2775 3584 3186 3129 
Q 3597 2675 3597 1894 
z
M 3022 2063 
Q 3016 2534 2758 2815 
Q 2500 3097 2075 3097 
Q 1594 3097 1305 2825 
Q 1016 2553 972 2059 
L 3022 2063 
z
" transform="scale(0.015625)"/>
       <path id="DejaVuSans-73" d="M 2834 3397 
L 2834 2853 
Q 2591 2978 2328 3040 
Q 2066 3103 1784 3103 
Q 1356 3103 1142 2972 
Q 928 2841 928 2578 
Q 928 2378 1081 2264 
Q 1234 2150 1697 2047 
L 1894 2003 
Q 2506 1872 2764 1633 
Q 3022 1394 3022 966 
Q 3022 478 2636 193 
Q 2250 -91 1575 -91 
Q 1294 -91 989 -36 
Q 684 19 347 128 
L 347 722 
Q 666 556 975 473 
Q 1284 391 1588 391 
Q 1994 391 2212 530 
Q 2431 669 2431 922 
Q 2431 1156 2273 1281 
Q 2116 1406 1581 1522 
L 1381 1569 
Q 847 1681 609 1914 
Q 372 2147 372 2553 
Q 372 3047 722 3315 
Q 1072 3584 1716 3584 
Q 2034 3584 2315 3537 
Q 2597 3491 2834 3397 
z
" transform="scale(0.015625)"/>
       <path id="DejaVuSans-70" d="M 1159 525 
L 1159 -1331 
L 581 -1331 
L 581 3500 
L 1159 3500 
L 1159 2969 
Q 1341 3281 1617 3432 
Q 1894 3584 2278 3584 
Q 2916 3584 3314 3078 
Q 3713 2572 3713 1747 
Q 3713 922 3314 415 
Q 2916 -91 2278 -91 
Q 1894 -91 1617 61 
Q 1341 213 1159 525 
z
M 3116 1747 
Q 3116 2381 2855 2742 
Q 2594 3103 2138 3103 
Q 1681 3103 1420 2742 
Q 1159 2381 1159 1747 
Q 1159 1113 1420 752 
Q 1681 391 2138 391 
Q 2594 391 2855 752 
Q 3116 1113 3116 1747 
z
" transform="scale(0.015625)"/>
      </defs>
      <use xlink:href="#DejaVuSans-74"/>
      <use xlink:href="#DejaVuSans-69" x="39.208984"/>
      <use xlink:href="#DejaVuSans-6d" x="66.992188"/>
      <use xlink:href="#DejaVuSans-65" x="164.404297"/>
      <use xlink:href="#DejaVuSans-73" x="225.927734"/>
      <use xlink:href="#DejaVuSans-74" x="278.027344"/>
      <use xlink:href="#DejaVuSans-65" x="317.236328"/>
      <use xlink:href="#DejaVuSans-70" x="378.759766"/>
      <use xlink:href="#DejaVuSans-73" x="442.236328"/>
     </g>
    </g>
    <g id="text_8">
     <!-- 1e6 -->
     <g transform="translate(395.841875 334.860562) scale(0.1 -0.1)">
      <defs>
       <path id="DejaVuSans-36" d="M 2113 2584 
Q 1688 2584 1439 2293 
Q 1191 2003 1191 1497 
Q 1191 994 1439 701 
Q 1688 409 2113 409 
Q 2538 409 2786 701 
Q 3034 994 3034 1497 
Q 3034 2003 2786 2293 
Q 2538 2584 2113 2584 
z
M 3366 4563 
L 3366 3988 
Q 3128 4100 2886 4159 
Q 2644 4219 2406 4219 
Q 1781 4219 1451 3797 
Q 1122 3375 1075 2522 
Q 1259 2794 1537 2939 
Q 1816 3084 2150 3084 
Q 2853 3084 3261 2657 
Q 3669 2231 3669 1497 
Q 3669 778 3244 343 
Q 2819 -91 2113 -91 
Q 1303 -91 875 529 
Q 447 1150 447 2328 
Q 447 3434 972 4092 
Q 1497 4750 2381 4750 
Q 2619 4750 2861 4703 
Q 3103 4656 3366 4563 
z
" transform="scale(0.015625)"/>
      </defs>
      <use xlink:href="#DejaVuSans-31"/>
      <use xlink:href="#DejaVuSans-65" x="63.623047"/>
      <use xlink:href="#DejaVuSans-36" x="125.146484"/>
     </g>
    </g>
   </g>
   <g id="matplotlib.axis_2">
    <g id="ytick_1">
     <g id="line2d_7">
      <defs>
       <path id="mcb944aeaa0" d="M 0 0 
L -3.5 0 
" style="stroke: #000000; stroke-width: 0.8"/>
      </defs>
      <g>
       <use xlink:href="#mcb944aeaa0" x="57.6" y="278.301728" style="stroke: #000000; stroke-width: 0.8"/>
      </g>
     </g>
     <g id="text_9">
      <!-- 100 -->
      <g transform="translate(31.5125 282.100946) scale(0.1 -0.1)">
       <use xlink:href="#DejaVuSans-31"/>
       <use xlink:href="#DejaVuSans-30" x="63.623047"/>
       <use xlink:href="#DejaVuSans-30" x="127.246094"/>
      </g>
     </g>
    </g>
    <g id="ytick_2">
     <g id="line2d_8">
      <g>
       <use xlink:href="#mcb944aeaa0" x="57.6" y="238.656338" style="stroke: #000000; stroke-width: 0.8"/>
      </g>
     </g>
     <g id="text_10">
      <!-- 200 -->
      <g transform="translate(31.5125 242.455557) scale(0.1 -0.1)">
       <use xlink:href="#DejaVuSans-32"/>
       <use xlink:href="#DejaVuSans-30" x="63.623047"/>
       <use xlink:href="#DejaVuSans-30" x="127.246094"/>
      </g>
     </g>
    </g>
    <g id="ytick_3">
     <g id="line2d_9">
      <g>
       <use xlink:href="#mcb944aeaa0" x="57.6" y="199.010949" style="stroke: #000000; stroke-width: 0.8"/>
      </g>
     </g>
     <g id="text_11">
      <!-- 300 -->
      <g transform="translate(31.5125 202.810168) scale(0.1 -0.1)">
       <use xlink:href="#DejaVuSans-33"/>
       <use xlink:href="#DejaVuSans-30" x="63.623047"/>
       <use xlink:href="#DejaVuSans-30" x="127.246094"/>
      </g>
     </g>
    </g>
    <g id="ytick_4">
     <g id="line2d_10">
      <g>
       <use xlink:href="#mcb944aeaa0" x="57.6" y="159.365559" style="stroke: #000000; stroke-width: 0.8"/>
      </g>
     </g>
     <g id="text_12">
      <!-- 400 -->
      <g transform="translate(31.5125 163.164778) scale(0.1 -0.1)">
       <use xlink:href="#DejaVuSans-34"/>
       <use xlink:href="#DejaVuSans-30" x="63.623047"/>
       <use xlink:href="#DejaVuSans-30" x="127.246094"/>
      </g>
     </g>
    </g>
    <g id="ytick_5">
     <g id="line2d_11">
      <g>
       <use xlink:href="#mcb944aeaa0" x="57.6" y="119.72017" style="stroke: #000000; stroke-width: 0.8"/>
      </g>
     </g>
     <g id="text_13">
      <!-- 500 -->
      <g transform="translate(31.5125 123.519389) scale(0.1 -0.1)">
       <use xlink:href="#DejaVuSans-35"/>
       <use xlink:href="#DejaVuSans-30" x="63.623047"/>
       <use xlink:href="#DejaVuSans-30" x="127.246094"/>
      </g>
     </g>
    </g>
    <g id="ytick_6">
     <g id="line2d_12">
      <g>
       <use xlink:href="#mcb944aeaa0" x="57.6" y="80.074781" style="stroke: #000000; stroke-width: 0.8"/>
      </g>
     </g>
     <g id="text_14">
      <!-- 600 -->
      <g transform="translate(31.5125 83.873999) scale(0.1 -0.1)">
       <use xlink:href="#DejaVuSans-36"/>
       <use xlink:href="#DejaVuSans-30" x="63.623047"/>
       <use xlink:href="#DejaVuSans-30" x="127.246094"/>
      </g>
     </g>
    </g>
   </g>
   <g id="line2d_13">
    <path d="M 73.832727 266.651811 
L 74.483338 259.352242 
L 75.133948 262.841405 
L 75.784558 248.818022 
L 76.435169 242.207142 
L 77.085779 244.569063 
L 78.386999 272.364823 
L 79.03761 264.184778 
L 79.68822 269.625338 
L 80.33883 261.166186 
L 80.989441 267.895598 
L 81.640051 245.890377 
L 82.290661 260.625799 
L 82.941272 262.02542 
L 83.591882 266.534362 
L 84.242492 253.219842 
L 84.893103 262.656571 
L 85.543713 261.90313 
L 86.194323 262.32954 
L 86.844934 264.635454 
L 87.495544 260.298705 
L 88.796764 258.836809 
L 89.447375 242.721925 
L 90.097985 273.91981 
L 90.748595 272.20776 
L 91.399206 284.392417 
L 92.049816 263.842963 
L 92.700426 255.796309 
L 93.351037 256.942901 
L 94.001647 256.215646 
L 94.652257 265.331814 
L 95.302868 265.024419 
L 96.604088 281.256586 
L 97.254698 268.977251 
L 97.905309 273.436358 
L 98.555919 236.597303 
L 99.206529 243.064505 
L 99.85714 251.029081 
L 100.50775 261.998564 
L 101.15836 253.225618 
L 101.808971 261.82906 
L 102.459581 283.071813 
L 103.110191 275.565744 
L 103.760802 264.643495 
L 104.411412 259.213281 
L 105.062022 272.433615 
L 105.712633 256.063408 
L 106.363243 251.024828 
L 107.013853 260.019272 
L 107.664463 274.238269 
L 108.315074 260.608399 
L 108.965684 270.436082 
L 109.616294 264.983053 
L 110.266905 263.820452 
L 110.917515 263.557599 
L 111.568125 256.478729 
L 112.218736 253.550921 
L 112.869346 265.031016 
L 113.519956 238.180419 
L 114.170567 271.90691 
L 114.821177 243.596772 
L 115.471787 273.786011 
L 116.122398 251.968479 
L 116.773008 262.563301 
L 117.423618 247.465528 
L 118.074228 267.133376 
L 118.724839 251.643553 
L 119.375449 266.528629 
L 120.026059 254.132523 
L 120.67667 245.144092 
L 121.32728 257.749728 
L 121.97789 251.063161 
L 122.628501 256.964012 
L 123.279111 274.973497 
L 123.929721 268.43359 
L 124.580332 255.619803 
L 125.230942 261.385429 
L 126.532163 267.572064 
L 127.833383 281.20536 
L 128.483993 268.222272 
L 129.134604 270.113547 
L 129.785214 250.872641 
L 130.435824 260.593674 
L 131.086435 242.150477 
L 131.737045 262.059448 
L 132.387655 254.068253 
L 133.038266 259.414398 
L 133.688876 268.843103 
L 134.339486 271.421845 
L 134.990097 259.644988 
L 135.640707 255.490722 
L 136.291317 250.218333 
L 136.941927 267.091597 
L 137.592538 273.69671 
L 138.243148 256.699855 
L 138.893758 267.281039 
L 139.544369 263.00991 
L 140.194979 263.7114 
L 140.845589 267.815701 
L 141.4962 259.750056 
L 142.14681 276.916819 
L 142.79742 280.471028 
L 143.448031 266.623917 
L 144.098641 271.006948 
L 144.749251 250.24708 
L 145.399862 265.023872 
L 146.050472 250.115838 
L 146.701082 269.802149 
L 147.351692 251.400955 
L 148.002303 266.097442 
L 149.303523 261.535883 
L 149.954134 246.336007 
L 150.604744 262.414742 
L 151.255354 260.358014 
L 151.905965 259.457065 
L 152.556575 268.6476 
L 153.207185 262.357101 
L 153.857796 261.990409 
L 154.508406 248.545631 
L 155.159016 257.028384 
L 155.809627 249.94497 
L 156.460237 257.765186 
L 157.110847 258.424723 
L 157.761457 256.181499 
L 158.412068 242.965586 
L 159.062678 273.334343 
L 159.713288 274.323107 
L 160.363899 267.141348 
L 161.014509 261.284142 
L 161.665119 259.57026 
L 162.31573 260.274783 
L 162.96634 250.558653 
L 164.267561 270.340743 
L 164.918171 263.286389 
L 165.568781 266.304672 
L 166.219392 238.434372 
L 166.870002 256.393305 
L 167.520612 250.938095 
L 168.171222 257.712672 
L 168.821833 260.734796 
L 169.472443 246.458162 
L 170.123053 245.148865 
L 170.773664 257.376891 
L 171.424274 241.97229 
L 172.074884 262.256779 
L 172.725495 251.065329 
L 173.376105 259.913708 
L 174.026715 257.900575 
L 174.677326 261.849478 
L 175.327936 253.868655 
L 175.978546 233.390035 
L 176.629156 244.121431 
L 177.279767 250.935098 
L 177.930377 246.304033 
L 178.580987 257.704909 
L 179.231598 253.929118 
L 179.882208 283.192181 
L 180.532818 245.087812 
L 181.834039 253.895808 
L 182.484649 269.252473 
L 183.13526 240.230248 
L 183.78587 238.909256 
L 184.43648 244.987303 
L 185.087091 247.740877 
L 185.737701 248.366287 
L 186.388311 246.793721 
L 187.038921 236.525755 
L 187.689532 259.616467 
L 188.990752 270.165487 
L 189.641363 274.387729 
L 190.291973 274.889259 
L 190.942583 270.749876 
L 191.593194 258.430681 
L 192.243804 271.741581 
L 192.894414 270.688818 
L 193.545025 262.31057 
L 194.195635 240.398361 
L 194.846245 258.575165 
L 195.496856 253.890856 
L 196.147466 266.646954 
L 198.099297 240.750249 
L 198.749907 279.155495 
L 199.400517 249.922579 
L 200.051128 267.377817 
L 200.701738 266.819234 
L 201.352348 238.029771 
L 202.002959 232.562231 
L 202.653569 264.84171 
L 203.304179 246.85914 
L 203.95479 243.634756 
L 204.6054 254.400494 
L 205.25601 275.196899 
L 205.906621 251.142071 
L 206.557231 265.104935 
L 207.207841 264.335446 
L 207.858451 258.840991 
L 208.509062 251.056948 
L 209.159672 267.637506 
L 209.810282 254.535899 
L 210.460893 259.443201 
L 211.111503 256.956 
L 211.762113 259.967705 
L 212.412724 264.7202 
L 213.063334 254.434811 
L 213.713944 259.374218 
L 214.364555 246.02123 
L 215.015165 273.533351 
L 215.665775 260.836328 
L 216.316385 266.10204 
L 216.966996 251.470501 
L 217.617606 263.419626 
L 218.268216 253.427409 
L 218.918827 252.918141 
L 219.569437 248.142683 
L 220.220047 246.881793 
L 220.870658 267.319764 
L 221.521268 249.820282 
L 222.171878 253.132448 
L 222.822489 252.482886 
L 223.473099 239.497435 
L 224.123709 270.214247 
L 224.77432 256.652566 
L 225.42493 266.614267 
L 226.07554 260.1602 
L 226.72615 266.480844 
L 227.376761 254.208261 
L 228.027371 271.750327 
L 228.677981 246.691285 
L 229.328592 251.361266 
L 229.979202 257.535651 
L 230.629812 266.664569 
L 231.280423 255.250895 
L 231.931033 256.978273 
L 232.581643 255.297887 
L 233.232254 261.60487 
L 233.882864 263.166101 
L 234.533474 266.107202 
L 235.184085 268.123547 
L 235.834695 265.996596 
L 236.485305 259.729433 
L 237.135915 249.631982 
L 237.786526 266.520716 
L 238.437136 256.014295 
L 239.087746 266.213258 
L 239.738357 265.93218 
L 240.388967 252.593045 
L 241.039577 266.507823 
L 241.690188 252.136924 
L 242.340798 258.25757 
L 242.991408 254.255629 
L 243.642019 267.520354 
L 244.292629 256.85159 
L 244.943239 257.340806 
L 245.59385 256.577838 
L 246.24446 250.327144 
L 246.89507 261.913493 
L 247.54568 263.959191 
L 248.196291 247.899463 
L 248.846901 249.244615 
L 249.497511 255.435254 
L 250.148122 267.426403 
L 250.798732 262.908422 
L 251.449342 266.990704 
L 252.099953 256.594279 
L 252.750563 255.037809 
L 253.401173 264.472821 
L 254.051784 269.974214 
L 254.702394 235.860351 
L 255.353004 266.587474 
L 256.003615 247.793379 
L 256.654225 257.207823 
L 257.304835 251.342883 
L 257.955445 272.209821 
L 258.606056 257.122376 
L 259.256666 273.576191 
L 259.907276 257.654222 
L 260.557887 259.869373 
L 261.208497 250.88476 
L 261.859107 262.996597 
L 262.509718 259.205336 
L 263.160328 249.611921 
L 263.810938 246.514039 
L 264.461549 263.91639 
L 265.112159 254.697077 
L 265.762769 272.878437 
L 266.413379 267.281879 
L 267.06399 266.513151 
L 267.7146 258.793246 
L 268.36521 256.823013 
L 269.015821 248.262032 
L 269.666431 259.515133 
L 270.317041 261.72423 
L 270.967652 259.68566 
L 271.618262 258.894905 
L 272.268872 267.125292 
L 272.919483 278.538609 
L 273.570093 258.382683 
L 274.871314 243.339264 
L 275.521924 264.431578 
L 276.172534 269.382482 
L 276.823144 263.720542 
L 277.473755 265.235392 
L 278.124365 258.524054 
L 278.774975 261.990219 
L 279.425586 258.24237 
L 280.076196 265.367201 
L 280.726806 257.230195 
L 281.377417 263.811548 
L 282.028027 256.294901 
L 282.678637 255.152793 
L 283.329248 264.153858 
L 283.979858 249.242617 
L 284.630468 265.341654 
L 285.281079 260.830583 
L 285.931689 263.07272 
L 286.582299 258.458405 
L 287.232909 257.333888 
L 287.88352 261.854818 
L 288.53413 264.397669 
L 289.18474 258.152379 
L 289.835351 266.510594 
L 290.485961 258.245125 
L 291.136571 262.309178 
L 291.787182 251.588462 
L 292.437792 245.848634 
L 293.088402 254.731969 
L 293.739013 253.011732 
L 294.389623 262.026903 
L 295.040233 255.597206 
L 295.690844 252.206137 
L 296.341454 268.508528 
L 297.642674 252.94573 
L 298.293285 266.460637 
L 298.943895 254.561268 
L 299.594505 270.68385 
L 300.245116 266.508223 
L 300.895726 248.561533 
L 301.546336 271.858159 
L 302.196947 250.706376 
L 303.498167 272.880974 
L 304.148778 259.609922 
L 304.799388 256.076142 
L 305.449998 275.468862 
L 306.100608 266.409677 
L 307.401829 245.387947 
L 308.052439 243.485983 
L 308.70305 238.475333 
L 309.35366 244.336742 
L 310.00427 254.619737 
L 310.654881 233.232064 
L 311.305491 266.292545 
L 311.956101 246.645035 
L 312.606712 254.281581 
L 313.257322 264.503721 
L 313.907932 271.85419 
L 314.558543 268.753917 
L 315.209153 252.007304 
L 315.859763 248.410884 
L 316.510373 266.039611 
L 317.160984 256.207142 
L 317.811594 264.345567 
L 318.462204 252.157584 
L 319.112815 236.434432 
L 319.763425 278.278515 
L 320.414035 260.672803 
L 321.064646 269.626524 
L 321.715256 261.508932 
L 322.365866 261.078589 
L 323.016477 236.921888 
L 323.667087 246.828446 
L 324.317697 251.670948 
L 324.968308 268.944417 
L 325.618918 295.487996 
L 326.269528 246.01708 
L 326.920138 251.185292 
L 327.570749 237.361916 
L 328.221359 237.705638 
L 328.871969 254.718255 
L 329.52258 240.445313 
L 330.17319 259.282054 
L 330.8238 262.918547 
L 331.474411 260.337434 
L 332.125021 262.531779 
L 332.775631 269.61779 
L 333.426242 245.03902 
L 334.076852 252.150967 
L 335.378073 259.597243 
L 336.028683 251.078242 
L 336.679293 271.497175 
L 337.329903 271.28688 
L 337.980514 253.988419 
L 338.631124 251.078638 
L 339.281734 261.708364 
L 339.932345 258.535908 
L 340.582955 260.388149 
L 341.233565 240.863393 
L 341.884176 231.71922 
L 342.534786 241.056042 
L 343.185396 265.906795 
L 343.836007 237.657885 
L 344.486617 251.599127 
L 345.787837 268.853621 
L 346.438448 257.208573 
L 347.089058 254.140428 
L 347.739668 259.634692 
L 348.390279 256.218496 
L 349.040889 264.007 
L 349.691499 258.171975 
L 350.34211 264.309197 
L 350.99272 231.986204 
L 351.64333 246.795941 
L 352.293941 281.942158 
L 352.944551 269.61283 
L 353.595161 279.367959 
L 354.245772 256.871428 
L 354.896382 254.188522 
L 355.546992 258.01182 
L 356.197602 251.121447 
L 356.848213 256.468996 
L 357.498823 262.758741 
L 358.149433 257.868486 
L 358.800044 272.638768 
L 359.450654 253.781459 
L 360.101264 248.077649 
L 360.751875 253.040284 
L 361.402485 235.839942 
L 362.703706 266.472336 
L 363.354316 257.502979 
L 364.004926 280.175551 
L 364.655537 268.723211 
L 365.306147 255.278655 
L 365.956757 253.205609 
L 366.607367 242.534288 
L 367.257978 255.831724 
L 367.908588 239.396343 
L 368.559198 262.839427 
L 369.209809 258.584085 
L 369.860419 249.953676 
L 370.511029 269.126012 
L 371.16164 280.831492 
L 371.81225 238.413883 
L 372.46286 245.685287 
L 373.113471 264.148906 
L 373.764081 243.416176 
L 374.414691 262.674102 
L 375.065302 261.225253 
L 375.715912 259.073936 
L 376.366522 259.228089 
L 377.017132 259.809148 
L 377.667743 252.851584 
L 378.318353 268.242888 
L 378.968963 260.284091 
L 379.619574 266.419592 
L 380.920794 242.126495 
L 381.571405 259.544879 
L 382.222015 257.920219 
L 382.872625 254.648487 
L 383.523236 260.862125 
L 384.173846 245.559786 
L 384.824456 243.363852 
L 385.475066 252.961782 
L 386.125677 269.266528 
L 386.776287 254.783099 
L 387.426897 254.914516 
L 388.077508 251.554767 
L 388.728118 250.874671 
L 389.378728 252.9267 
L 390.029339 244.657049 
L 390.679949 261.685913 
L 391.330559 245.600621 
L 391.98117 248.019774 
L 392.63178 249.082695 
L 393.28239 261.220309 
L 393.933001 258.305584 
L 394.583611 254.562437 
L 395.234221 253.778874 
L 395.884831 239.628653 
L 396.535442 252.607539 
L 397.186052 256.439083 
L 397.836662 247.980759 
L 398.487273 260.457124 
L 398.487273 260.457124 
" clip-path="url(#pb49f0bb366)" style="fill: none; stroke: #1f77b4; stroke-width: 1.5; stroke-linecap: square"/>
   </g>
   <g id="line2d_14">
    <path d="M 73.832727 222.933036 
L 74.483338 153.815907 
L 75.133948 169.062853 
L 75.784558 180.369885 
L 76.435169 208.01446 
L 77.085779 166.430554 
L 77.736389 161.855472 
L 78.386999 230.124662 
L 79.03761 231.809595 
L 79.68822 162.275709 
L 80.33883 208.066003 
L 80.989441 224.221385 
L 81.640051 189.714149 
L 82.290661 161.649344 
L 82.941272 202.499775 
L 83.591882 208.395028 
L 84.242492 191.533725 
L 84.893103 203.66125 
L 85.543713 167.429574 
L 86.194323 209.084941 
L 86.844934 234.037472 
L 87.495544 193.543675 
L 88.146154 208.954008 
L 88.796764 181.459998 
L 89.447375 161.304441 
L 90.097985 250.732229 
L 90.748595 207.162136 
L 91.399206 264.762819 
L 92.049816 179.818723 
L 92.700426 189.389076 
L 93.351037 192.497152 
L 94.001647 181.487718 
L 94.652257 202.087447 
L 95.302868 208.850938 
L 95.953478 211.74887 
L 96.604088 265.266296 
L 97.254698 250.763957 
L 97.905309 232.765021 
L 98.555919 163.560049 
L 99.206529 130.817517 
L 99.85714 189.385171 
L 100.50775 180.639422 
L 101.15836 179.767208 
L 101.808971 180.286586 
L 102.459581 263.854924 
L 103.110191 233.078192 
L 103.760802 231.551916 
L 104.411412 207.62996 
L 105.062022 207.760762 
L 105.712633 179.196338 
L 106.363243 181.329054 
L 107.013853 166.672395 
L 107.664463 232.479579 
L 108.315074 127.681285 
L 108.965684 208.224628 
L 109.616294 208.347494 
L 110.266905 207.974839 
L 110.917515 208.208743 
L 111.568125 189.167066 
L 112.218736 200.933873 
L 112.869346 200.925888 
L 113.519956 128.478114 
L 114.170567 232.562862 
L 114.821177 179.05363 
L 115.471787 250.783776 
L 116.122398 128.98971 
L 116.773008 189.61109 
L 117.423618 179.806817 
L 118.074228 212.224618 
L 118.724839 180.020966 
L 119.375449 208.585382 
L 120.026059 162.307422 
L 120.67667 189.178995 
L 121.32728 180.155701 
L 121.97789 180.385624 
L 122.628501 129.112769 
L 123.279111 208.264254 
L 123.929721 201.540436 
L 124.580332 189.920384 
L 125.230942 189.615059 
L 125.881552 202.063648 
L 126.532163 203.736517 
L 127.182773 207.697341 
L 127.833383 200.279716 
L 128.483993 208.946143 
L 129.134604 232.459756 
L 129.785214 179.747377 
L 130.435824 232.023728 
L 131.086435 180.437167 
L 131.737045 152.824748 
L 132.387655 162.113116 
L 133.038266 202.44424 
L 133.688876 208.783621 
L 134.339486 231.04838 
L 134.990097 207.887655 
L 135.640707 104.258781 
L 136.291317 166.628765 
L 137.592538 232.356674 
L 138.243148 167.806126 
L 138.893758 231.956319 
L 139.544369 200.898157 
L 140.194979 209.318845 
L 140.845589 208.33958 
L 141.4962 208.280069 
L 142.14681 256.433077 
L 142.79742 256.318102 
L 143.448031 208.367288 
L 144.098641 225.700003 
L 144.749251 161.581967 
L 145.399862 209.009564 
L 146.050472 207.92724 
L 146.701082 207.998614 
L 147.351692 130.504037 
L 148.002303 208.565563 
L 148.652913 209.306928 
L 149.303523 231.639148 
L 149.954134 189.638846 
L 150.604744 208.462469 
L 151.255354 166.842866 
L 151.905965 208.299947 
L 152.556575 232.083168 
L 153.207185 211.554576 
L 153.857796 180.393585 
L 154.508406 200.850598 
L 155.159016 200.941774 
L 155.809627 180.076442 
L 156.460237 207.859899 
L 157.110847 179.965482 
L 157.761457 128.057801 
L 158.412068 127.098522 
L 159.062678 208.474375 
L 159.713288 202.654336 
L 160.363899 201.029006 
L 161.014509 161.784122 
L 161.665119 207.947119 
L 162.31573 189.17107 
L 162.96634 180.310357 
L 163.61695 189.428749 
L 164.267561 207.879718 
L 164.918171 208.668585 
L 165.568781 212.268089 
L 166.219392 161.799996 
L 166.870002 179.925833 
L 167.520612 189.008508 
L 168.171222 207.875737 
L 168.821833 208.585346 
L 169.472443 188.620055 
L 170.123053 189.987813 
L 170.773664 200.803 
L 171.424274 179.33512 
L 172.074884 207.935142 
L 172.725495 202.353027 
L 173.376105 210.388997 
L 174.026715 208.430769 
L 174.677326 189.333604 
L 175.327936 180.706823 
L 175.978546 179.818782 
L 176.629156 191.454478 
L 177.279767 208.728038 
L 178.580987 209.596153 
L 179.231598 201.223265 
L 179.882208 201.647403 
L 180.532818 179.90599 
L 181.183429 57.317954 
L 181.834039 207.063011 
L 182.484649 207.998626 
L 183.13526 162.121088 
L 183.78587 166.398877 
L 184.43648 166.680356 
L 185.087091 207.483216 
L 185.737701 208.755877 
L 187.038921 208.256341 
L 187.689532 180.508572 
L 188.340142 163.694852 
L 188.990752 208.299971 
L 189.641363 232.130759 
L 190.291973 190.233491 
L 190.942583 208.121511 
L 191.593194 166.585163 
L 192.243804 210.955926 
L 192.894414 208.819297 
L 193.545025 161.724694 
L 194.195635 126.813075 
L 194.846245 179.378639 
L 195.496856 167.65166 
L 196.147466 208.839104 
L 196.798076 209.009587 
L 197.448686 179.013997 
L 198.099297 127.736721 
L 198.749907 208.228549 
L 199.400517 130.258101 
L 200.051128 208.454508 
L 200.701738 200.961605 
L 201.352348 179.652256 
L 202.002959 162.045762 
L 202.653569 208.696389 
L 203.304179 163.801942 
L 203.95479 181.015998 
L 204.6054 209.560654 
L 205.25601 202.662297 
L 205.906621 167.068861 
L 206.557231 202.170627 
L 207.207841 182.2965 
L 207.858451 207.733006 
L 208.509062 181.368885 
L 209.159672 181.293484 
L 209.810282 162.882153 
L 210.460893 200.588938 
L 211.111503 208.220612 
L 211.762113 200.957613 
L 212.412724 207.681479 
L 213.063334 188.853959 
L 213.713944 201.056691 
L 214.364555 207.685447 
L 215.015165 230.469573 
L 215.665775 162.184509 
L 216.316385 210.456474 
L 216.966996 181.0913 
L 217.617606 208.371245 
L 218.268216 191.854805 
L 218.918827 188.889628 
L 219.569437 180.37377 
L 220.220047 104.564059 
L 220.870658 180.052702 
L 221.521268 207.883674 
L 222.171878 188.6002 
L 222.822489 180.159717 
L 223.473099 107.525557 
L 224.123709 209.215763 
L 224.77432 208.45458 
L 225.42493 202.103309 
L 226.07554 179.902022 
L 226.72615 207.558554 
L 227.376761 128.628937 
L 228.027371 207.792462 
L 228.677981 178.970391 
L 229.328592 179.85842 
L 229.979202 167.378012 
L 230.629812 202.067569 
L 231.280423 189.484297 
L 231.931033 161.593785 
L 232.581643 207.685459 
L 233.232254 209.247476 
L 233.882864 181.428278 
L 234.533474 208.042252 
L 235.184085 209.342537 
L 235.834695 207.816285 
L 236.485305 208.006488 
L 237.135915 162.243914 
L 237.786526 167.271009 
L 238.437136 180.568076 
L 239.087746 207.855907 
L 239.738357 201.132076 
L 240.388967 170.339364 
L 241.690188 208.771644 
L 242.340798 166.482117 
L 242.991408 180.389593 
L 243.642019 180.19537 
L 244.292629 200.565163 
L 244.943239 201.346153 
L 245.59385 190.253369 
L 246.24446 200.549277 
L 246.89507 201.611793 
L 247.54568 200.549313 
L 248.196291 180.532348 
L 248.846901 190.118492 
L 249.497511 189.757826 
L 250.148122 161.922921 
L 250.798732 167.786442 
L 251.449342 207.780545 
L 252.099953 166.791375 
L 252.750563 207.903481 
L 253.401173 209.691516 
L 254.051784 230.739098 
L 254.702394 105.852439 
L 255.353004 208.046232 
L 256.003615 208.180967 
L 256.654225 179.699791 
L 257.304835 128.799444 
L 257.955445 208.96993 
L 258.606056 207.526866 
L 259.256666 201.076581 
L 259.907276 179.937762 
L 260.557887 209.370352 
L 261.208497 189.210751 
L 261.859107 211.606162 
L 262.509718 179.802896 
L 263.160328 207.855871 
L 263.810938 162.902019 
L 264.461549 208.252337 
L 265.112159 189.266251 
L 265.762769 179.192342 
L 267.06399 230.675745 
L 267.7146 168.492154 
L 268.36521 231.643108 
L 269.015821 179.985277 
L 269.666431 181.408483 
L 270.317041 179.002115 
L 270.967652 201.469003 
L 271.618262 208.137349 
L 272.268872 207.356383 
L 272.919483 200.77924 
L 273.570093 161.657245 
L 274.220703 208.070007 
L 274.871314 200.965562 
L 275.521924 180.302444 
L 276.172534 208.018393 
L 276.823144 208.494118 
L 277.473755 207.974827 
L 278.124365 129.822255 
L 278.774975 200.961557 
L 279.425586 207.721112 
L 280.076196 232.071263 
L 280.726806 188.592287 
L 281.377417 180.262751 
L 282.028027 203.244942 
L 282.678637 167.021239 
L 283.329248 180.635418 
L 283.979858 231.833387 
L 284.630468 128.054087 
L 285.281079 189.916344 
L 285.931689 223.079657 
L 286.582299 166.862721 
L 287.232909 180.643379 
L 287.88352 201.453129 
L 288.53413 209.136361 
L 289.18474 128.00252 
L 289.835351 208.161184 
L 290.485961 166.68032 
L 291.136571 179.664149 
L 291.787182 181.297476 
L 292.437792 127.855737 
L 293.088402 161.851492 
L 293.739013 127.050924 
L 294.389623 190.641898 
L 295.040233 201.469054 
L 295.690844 188.964966 
L 296.341454 207.689428 
L 296.992064 190.396121 
L 297.642674 201.67519 
L 298.293285 208.446619 
L 298.943895 201.092439 
L 299.594505 209.4853 
L 300.245116 208.644774 
L 300.895726 208.446655 
L 301.546336 208.676495 
L 302.196947 169.165864 
L 303.498167 232.45978 
L 304.148778 190.03132 
L 304.799388 162.240044 
L 305.449998 180.964542 
L 306.100608 231.991972 
L 306.751219 201.207414 
L 307.401829 179.216164 
L 308.052439 128.244282 
L 308.70305 189.674511 
L 309.35366 163.659329 
L 310.00427 207.744911 
L 310.654881 168.54361 
L 311.305491 200.787149 
L 311.956101 189.512001 
L 312.606712 208.434749 
L 313.257322 208.406997 
L 313.907932 207.994669 
L 314.558543 209.168157 
L 315.209153 202.424338 
L 315.859763 200.652371 
L 316.510373 200.537395 
L 317.160984 201.350134 
L 317.811594 201.675167 
L 318.462204 200.414518 
L 319.112815 161.609718 
L 319.763425 201.247028 
L 320.414035 201.595872 
L 321.064646 190.059048 
L 321.715256 189.214708 
L 322.365866 207.657703 
L 323.016477 127.411843 
L 323.667087 189.646819 
L 324.317697 127.261108 
L 324.968308 200.886291 
L 325.618918 295.488 
L 326.269528 105.812754 
L 326.920138 105.737475 
L 327.570749 169.360075 
L 328.221359 167.048971 
L 328.871969 202.135033 
L 329.52258 181.646348 
L 330.17319 180.571981 
L 330.8238 201.072588 
L 331.474411 166.767552 
L 332.125021 182.149788 
L 332.775631 201.167721 
L 333.426242 209.017453 
L 334.076852 189.38914 
L 334.727462 208.105601 
L 335.378073 180.278649 
L 336.028683 129.624306 
L 336.679293 208.831143 
L 337.329903 179.842593 
L 337.980514 180.005116 
L 338.631124 53.568 
L 339.281734 166.271996 
L 339.932345 201.639466 
L 340.582955 202.361036 
L 341.233565 208.565551 
L 341.884176 53.916856 
L 342.534786 231.670821 
L 343.185396 208.323682 
L 343.836007 166.030155 
L 344.486617 201.821831 
L 345.137227 200.715792 
L 345.787837 207.840056 
L 346.438448 231.944425 
L 347.089058 190.360368 
L 347.739668 208.058054 
L 348.390279 127.261096 
L 349.040889 162.041865 
L 349.691499 189.404998 
L 350.34211 190.88362 
L 350.99272 128.723987 
L 351.64333 200.965574 
L 352.293941 208.509992 
L 352.944551 224.106476 
L 353.595161 189.408954 
L 354.245772 180.171523 
L 354.896382 167.552427 
L 355.546992 201.199489 
L 356.197602 208.188892 
L 356.848213 208.335624 
L 357.498823 200.878342 
L 358.149433 201.556211 
L 358.800044 209.679587 
L 359.450654 179.172562 
L 360.101264 210.408939 
L 360.751875 201.722717 
L 361.402485 167.104542 
L 362.053095 169.716903 
L 362.703706 180.072433 
L 363.354316 161.946696 
L 364.004926 232.34082 
L 364.655537 189.480316 
L 365.306147 189.008532 
L 365.956757 181.590777 
L 366.607367 127.724939 
L 367.257978 180.837625 
L 367.908588 165.601954 
L 368.559198 201.338193 
L 369.209809 181.043666 
L 369.860419 201.017065 
L 370.511029 179.767184 
L 371.16164 231.995913 
L 372.46286 167.984657 
L 373.113471 209.659708 
L 373.764081 188.742928 
L 374.414691 208.462469 
L 375.065302 202.610659 
L 375.715912 207.986768 
L 376.366522 230.770866 
L 377.017132 167.005341 
L 377.667743 58.892566 
L 378.318353 208.403017 
L 378.968963 127.138183 
L 379.619574 201.55223 
L 380.270184 180.278597 
L 380.920794 166.311634 
L 381.571405 207.875725 
L 382.222015 192.394058 
L 382.872625 207.808324 
L 383.523236 189.805408 
L 384.173846 201.179611 
L 384.824456 207.808348 
L 385.475066 180.908995 
L 386.125677 168.705977 
L 386.776287 189.373289 
L 387.426897 200.969479 
L 388.077508 208.073952 
L 388.728118 162.56901 
L 389.378728 127.796419 
L 390.029339 200.826799 
L 390.679949 209.790566 
L 391.330559 161.883212 
L 391.98117 188.750841 
L 392.63178 167.956878 
L 393.28239 180.223126 
L 393.933001 200.549289 
L 394.583611 191.870727 
L 395.234221 201.67115 
L 395.884831 167.536625 
L 396.535442 188.734979 
L 397.186052 168.49196 
L 397.836662 177.658093 
L 398.487273 201.294646 
L 398.487273 201.294646 
" clip-path="url(#pb49f0bb366)" style="fill: none; stroke: #ff7f0e; stroke-width: 1.5; stroke-linecap: square"/>
   </g>
   <g id="patch_3">
    <path d="M 57.6 307.584 
L 57.6 41.472 
" style="fill: none; stroke: #000000; stroke-width: 0.8; stroke-linejoin: miter; stroke-linecap: square"/>
   </g>
   <g id="patch_4">
    <path d="M 414.72 307.584 
L 414.72 41.472 
" style="fill: none; stroke: #000000; stroke-width: 0.8; stroke-linejoin: miter; stroke-linecap: square"/>
   </g>
   <g id="patch_5">
    <path d="M 57.6 307.584 
L 414.72 307.584 
" style="fill: none; stroke: #000000; stroke-width: 0.8; stroke-linejoin: miter; stroke-linecap: square"/>
   </g>
   <g id="patch_6">
    <path d="M 57.6 41.472 
L 414.72 41.472 
" style="fill: none; stroke: #000000; stroke-width: 0.8; stroke-linejoin: miter; stroke-linecap: square"/>
   </g>
   <g id="legend_1">
    <g id="patch_7">
     <path d="M 64.6 79.106375 
L 157.860938 79.106375 
Q 159.860938 79.106375 159.860938 77.106375 
L 159.860938 48.472 
Q 159.860938 46.472 157.860938 46.472 
L 64.6 46.472 
Q 62.6 46.472 62.6 48.472 
L 62.6 77.106375 
Q 62.6 79.106375 64.6 79.106375 
z
" style="fill: #ffffff; opacity: 0.8; stroke: #cccccc; stroke-linejoin: miter"/>
    </g>
    <g id="line2d_15">
     <path d="M 66.6 54.570438 
L 76.6 54.570438 
L 86.6 54.570438 
" style="fill: none; stroke: #1f77b4; stroke-width: 1.5; stroke-linecap: square"/>
    </g>
    <g id="text_15">
     <!-- reward -->
     <g transform="translate(94.6 58.070438) scale(0.1 -0.1)">
      <defs>
       <path id="DejaVuSans-72" d="M 2631 2963 
Q 2534 3019 2420 3045 
Q 2306 3072 2169 3072 
Q 1681 3072 1420 2755 
Q 1159 2438 1159 1844 
L 1159 0 
L 581 0 
L 581 3500 
L 1159 3500 
L 1159 2956 
Q 1341 3275 1631 3429 
Q 1922 3584 2338 3584 
Q 2397 3584 2469 3576 
Q 2541 3569 2628 3553 
L 2631 2963 
z
" transform="scale(0.015625)"/>
       <path id="DejaVuSans-77" d="M 269 3500 
L 844 3500 
L 1563 769 
L 2278 3500 
L 2956 3500 
L 3675 769 
L 4391 3500 
L 4966 3500 
L 4050 0 
L 3372 0 
L 2619 2869 
L 1863 0 
L 1184 0 
L 269 3500 
z
" transform="scale(0.015625)"/>
       <path id="DejaVuSans-61" d="M 2194 1759 
Q 1497 1759 1228 1600 
Q 959 1441 959 1056 
Q 959 750 1161 570 
Q 1363 391 1709 391 
Q 2188 391 2477 730 
Q 2766 1069 2766 1631 
L 2766 1759 
L 2194 1759 
z
M 3341 1997 
L 3341 0 
L 2766 0 
L 2766 531 
Q 2569 213 2275 61 
Q 1981 -91 1556 -91 
Q 1019 -91 701 211 
Q 384 513 384 1019 
Q 384 1609 779 1909 
Q 1175 2209 1959 2209 
L 2766 2209 
L 2766 2266 
Q 2766 2663 2505 2880 
Q 2244 3097 1772 3097 
Q 1472 3097 1187 3025 
Q 903 2953 641 2809 
L 641 3341 
Q 956 3463 1253 3523 
Q 1550 3584 1831 3584 
Q 2591 3584 2966 3190 
Q 3341 2797 3341 1997 
z
" transform="scale(0.015625)"/>
       <path id="DejaVuSans-64" d="M 2906 2969 
L 2906 4863 
L 3481 4863 
L 3481 0 
L 2906 0 
L 2906 525 
Q 2725 213 2448 61 
Q 2172 -91 1784 -91 
Q 1150 -91 751 415 
Q 353 922 353 1747 
Q 353 2572 751 3078 
Q 1150 3584 1784 3584 
Q 2172 3584 2448 3432 
Q 2725 3281 2906 2969 
z
M 947 1747 
Q 947 1113 1208 752 
Q 1469 391 1925 391 
Q 2381 391 2643 752 
Q 2906 1113 2906 1747 
Q 2906 2381 2643 2742 
Q 2381 3103 1925 3103 
Q 1469 3103 1208 2742 
Q 947 2381 947 1747 
z
" transform="scale(0.015625)"/>
      </defs>
      <use xlink:href="#DejaVuSans-72"/>
      <use xlink:href="#DejaVuSans-65" x="38.863281"/>
      <use xlink:href="#DejaVuSans-77" x="100.386719"/>
      <use xlink:href="#DejaVuSans-61" x="182.173828"/>
      <use xlink:href="#DejaVuSans-72" x="243.453125"/>
      <use xlink:href="#DejaVuSans-64" x="282.816406"/>
     </g>
    </g>
    <g id="line2d_16">
     <path d="M 66.6 69.248563 
L 76.6 69.248563 
L 86.6 69.248563 
" style="fill: none; stroke: #ff7f0e; stroke-width: 1.5; stroke-linecap: square"/>
    </g>
    <g id="text_16">
     <!-- best_reward -->
     <g transform="translate(94.6 72.748563) scale(0.1 -0.1)">
      <defs>
       <path id="DejaVuSans-62" d="M 3116 1747 
Q 3116 2381 2855 2742 
Q 2594 3103 2138 3103 
Q 1681 3103 1420 2742 
Q 1159 2381 1159 1747 
Q 1159 1113 1420 752 
Q 1681 391 2138 391 
Q 2594 391 2855 752 
Q 3116 1113 3116 1747 
z
M 1159 2969 
Q 1341 3281 1617 3432 
Q 1894 3584 2278 3584 
Q 2916 3584 3314 3078 
Q 3713 2572 3713 1747 
Q 3713 922 3314 415 
Q 2916 -91 2278 -91 
Q 1894 -91 1617 61 
Q 1341 213 1159 525 
L 1159 0 
L 581 0 
L 581 4863 
L 1159 4863 
L 1159 2969 
z
" transform="scale(0.015625)"/>
       <path id="DejaVuSans-5f" d="M 3263 -1063 
L 3263 -1509 
L -63 -1509 
L -63 -1063 
L 3263 -1063 
z
" transform="scale(0.015625)"/>
      </defs>
      <use xlink:href="#DejaVuSans-62"/>
      <use xlink:href="#DejaVuSans-65" x="63.476562"/>
      <use xlink:href="#DejaVuSans-73" x="125"/>
      <use xlink:href="#DejaVuSans-74" x="177.099609"/>
      <use xlink:href="#DejaVuSans-5f" x="216.308594"/>
      <use xlink:href="#DejaVuSans-72" x="266.308594"/>
      <use xlink:href="#DejaVuSans-65" x="305.171875"/>
      <use xlink:href="#DejaVuSans-77" x="366.695312"/>
      <use xlink:href="#DejaVuSans-61" x="448.482422"/>
      <use xlink:href="#DejaVuSans-72" x="509.761719"/>
      <use xlink:href="#DejaVuSans-64" x="549.125"/>
     </g>
    </g>
   </g>
  </g>
 </g>
 <defs>
  <clipPath id="pb49f0bb366">
   <rect x="57.6" y="41.472" width="357.12" height="266.112"/>
  </clipPath>
 </defs>
</svg>
