<svg version="1.1" viewBox="0.0 0.0 425.0 117.0" fill="none" stroke="none" stroke-linecap="square" stroke-miterlimit="10" width="425" height="117" xmlns:xlink="http://www.w3.org/1999/xlink" xmlns="http://www.w3.org/2000/svg"><path fill="#ffffff" d="M0 0L425.0 0L425.0 117.0L0 117.0L0 0Z" fill-rule="nonzero"/><path stroke="#333333" stroke-width="1.0" stroke-linecap="butt" d="M35.5 51.5L35.5 91.5" fill-rule="nonzero"/><path stroke="#cccccc" stroke-width="1.0" stroke-linecap="butt" d="M131.5 51.5L131.5 91.5" fill-rule="nonzero"/><path stroke="#cccccc" stroke-width="1.0" stroke-linecap="butt" d="M227.5 51.5L227.5 91.5" fill-rule="nonzero"/><path stroke="#cccccc" stroke-width="1.0" stroke-linecap="butt" d="M323.5 51.5L323.5 91.5" fill-rule="nonzero"/><path stroke="#cccccc" stroke-width="1.0" stroke-linecap="butt" d="M419.5 51.5L419.5 91.5" fill-rule="nonzero"/><clipPath id="id_0"><path d="M35.85 51.65L419.15 51.65L419.15 91.15L35.85 91.15L35.85 51.65Z" clip-rule="nonzero"/></clipPath><path stroke="#000000" stroke-width="2.0" stroke-linecap="butt" stroke-opacity="0.0" clip-path="url(#id_0)" d="M36.0 69.0L36.0 58.0L74.0 58.0L74.0 69.0Z" fill-rule="nonzero"/><path fill="#4285f4" clip-path="url(#id_0)" d="M36.0 69.0L36.0 58.0L74.0 58.0L74.0 69.0Z" fill-rule="nonzero"/><path stroke="#000000" stroke-width="2.0" stroke-linecap="butt" stroke-opacity="0.0" clip-path="url(#id_0)" d="M36.0 86.0L36.0 75.0L101.0 75.0L101.0 86.0Z" fill-rule="nonzero"/><path fill="#4285f4" clip-path="url(#id_0)" d="M36.0 86.0L36.0 75.0L101.0 75.0L101.0 86.0Z" fill-rule="nonzero"/><path stroke="#000000" stroke-width="2.0" stroke-linecap="butt" stroke-opacity="0.0" clip-path="url(#id_0)" d="M74.0 69.0L74.0 58.0L227.0 58.0L227.0 69.0Z" fill-rule="nonzero"/><path fill="#ea4335" clip-path="url(#id_0)" d="M74.0 69.0L74.0 58.0L227.0 58.0L227.0 69.0Z" fill-rule="nonzero"/><path stroke="#000000" stroke-width="2.0" stroke-linecap="butt" stroke-opacity="0.0" clip-path="url(#id_0)" d="M101.0 86.0L101.0 75.0L296.0 75.0L296.0 86.0Z" fill-rule="nonzero"/><path fill="#ea4335" clip-path="url(#id_0)" d="M101.0 86.0L101.0 75.0L296.0 75.0L296.0 86.0Z" fill-rule="nonzero"/><path stroke="#000000" stroke-width="2.0" stroke-linecap="butt" stroke-opacity="0.0" clip-path="url(#id_0)" d="M227.0 69.0L227.0 58.0L417.0 58.0C418.10458 58.0 419.0 58.89543 419.0 60.0L419.0 67.0C419.0 68.10457 418.10458 69.0 417.0 69.0Z" fill-rule="nonzero"/><path fill="#fbbc04" clip-path="url(#id_0)" d="M227.0 69.0L227.0 58.0L417.0 58.0C418.10458 58.0 419.0 58.89543 419.0 60.0L419.0 67.0C419.0 68.10457 418.10458 69.0 417.0 69.0Z" fill-rule="nonzero"/><path stroke="#000000" stroke-width="2.0" stroke-linecap="butt" stroke-opacity="0.0" clip-path="url(#id_0)" d="M296.0 86.0L296.0 75.0L417.0 75.0C418.10458 75.0 419.0 75.89543 419.0 77.0L419.0 84.0C419.0 85.10457 418.10458 86.0 417.0 86.0Z" fill-rule="nonzero"/><path fill="#fbbc04" clip-path="url(#id_0)" d="M296.0 86.0L296.0 75.0L417.0 75.0C418.10458 75.0 419.0 75.89543 419.0 77.0L419.0 84.0C419.0 85.10457 418.10458 86.0 417.0 86.0Z" fill-rule="nonzero"/><path fill="#000000" d="M11.146875 67.13637Q11.334375 67.13637 11.334375 66.94887L11.334375 66.01137L7.63125 66.01137L7.63125 65.26137L11.334375 65.26137L11.334375 64.51137L6.4125 64.51137L6.4125 63.761368L11.334375 63.761368L11.334375 63.058243L7.63125 63.058243L7.63125 62.308243L11.334375 62.308243L11.334375 61.651993L9.740625 61.651993L8.19375 61.651993L8.19375 59.636368L11.334375 59.636368L11.334375 59.026993L6.69375 59.026993L6.69375 58.276993L11.334375 58.276993L11.334375 57.198868L12.225 57.198868Q12.6 57.245743 12.271875 57.480118L12.271875 58.276993L16.771875 58.276993L16.771875 59.026993L12.271875 59.026993L12.271875 59.636368L15.31875 59.636368L15.31875 61.651993L12.271875 61.651993L12.271875 62.308243L15.88125 62.308243L15.88125 63.761368L17.146875 63.761368L17.146875 64.51137L15.88125 64.51137L15.88125 66.29262L14.94375 66.29262L14.94375 66.01137L12.271875 66.01137L12.271875 67.27699Q12.271875 68.02699 11.521875 68.02699L10.490625 68.02699L10.35 67.13637L11.146875 67.13637ZM8.990625 61.089493L11.334375 61.089493L11.334375 60.198868L8.990625 60.198868L8.990625 61.089493ZM12.271875 61.089493L14.521875 61.089493L14.521875 60.198868L12.271875 60.198868L12.271875 61.089493ZM12.271875 65.26137L14.94375 65.26137L14.94375 64.51137L12.271875 64.51137L12.271875 65.26137ZM14.94375 63.761368L14.94375 63.058243L12.271875 63.058243L12.271875 63.761368L14.94375 63.761368ZM22.44375 62.448868L22.44375 61.511368L20.38125 61.511368L20.38125 62.448868L22.44375 62.448868ZM22.44375 63.339493L20.38125 63.339493L20.38125 64.32387L22.44375 64.32387L22.44375 63.339493ZM22.303125 67.04262Q22.44375 67.04262 22.44375 66.90199L22.44375 65.21449L20.38125 65.21449L20.38125 68.02699L19.44375 68.02699L19.44375 60.620743L23.38125 60.620743L23.38125 67.13637Q23.38125 67.93324 22.63125 67.93324L21.69375 67.93324L21.459375 67.04262L22.303125 67.04262ZM24.740625 60.855118L25.678125 60.855118L25.678125 66.24574L24.740625 66.24574L24.740625 60.855118ZM27.13125 66.99574Q27.271875 66.99574 27.271875 66.85512L27.271875 60.480118L28.1625 60.480118Q28.63125 60.573868 28.209375 60.855118L28.209375 67.08949Q28.209375 67.88637 27.459375 67.88637L26.428125 67.88637L26.240625 66.99574L27.13125 66.99574ZM26.334375 57.855118Q26.053125 58.370743 25.63125 59.026993L29.19375 59.026993L29.19375 59.917618L18.4125 59.917618L18.4125 59.026993L21.6 59.026993Q21.31875 58.370743 20.94375 57.901993L21.7875 57.433243Q22.303125 57.948868 22.81875 59.026993L24.553125 59.026993Q25.06875 58.136368 25.396875 57.245743L26.475 57.620743Q26.6625 57.808243 26.334375 57.855118Z" fill-rule="nonzero"/><path fill="#000000" d="M11.146875 83.94488Q11.334375 83.94488 11.334375 83.75738L11.334375 82.81988L7.63125 82.81988L7.63125 82.06988L11.334375 82.06988L11.334375 81.31988L6.4125 81.31988L6.4125 80.56988L11.334375 80.56988L11.334375 79.86675L7.63125 79.86675L7.63125 79.11675L11.334375 79.11675L11.334375 78.4605L9.740625 78.4605L8.19375 78.4605L8.19375 76.44488L11.334375 76.44488L11.334375 75.8355L6.69375 75.8355L6.69375 75.0855L11.334375 75.0855L11.334375 74.00738L12.225 74.00738Q12.6 74.05425 12.271875 74.28863L12.271875 75.0855L16.771875 75.0855L16.771875 75.8355L12.271875 75.8355L12.271875 76.44488L15.31875 76.44488L15.31875 78.4605L12.271875 78.4605L12.271875 79.11675L15.88125 79.11675L15.88125 80.56988L17.146875 80.56988L17.146875 81.31988L15.88125 81.31988L15.88125 83.10113L14.94375 83.10113L14.94375 82.81988L12.271875 82.81988L12.271875 84.0855Q12.271875 84.8355 11.521875 84.8355L10.490625 84.8355L10.35 83.94488L11.146875 83.94488ZM8.990625 77.898L11.334375 77.898L11.334375 77.00738L8.990625 77.00738L8.990625 77.898ZM12.271875 77.898L14.521875 77.898L14.521875 77.00738L12.271875 77.00738L12.271875 77.898ZM12.271875 82.06988L14.94375 82.06988L14.94375 81.31988L12.271875 81.31988L12.271875 82.06988ZM14.94375 80.56988L14.94375 79.86675L12.271875 79.86675L12.271875 80.56988L14.94375 80.56988ZM25.396875 83.28863Q23.94375 84.31988 21.50625 84.78863L21.178125 83.80425Q23.428125 83.523 24.69375 82.63238Q24.178125 82.023 23.803125 81.273Q23.146875 82.2105 21.975 82.9605L21.4125 82.2105Q23.240625 81.03863 23.803125 79.44488L22.021875 79.53863Q21.975 79.86675 21.7875 79.67925L21.459375 78.60113L23.334375 78.55425L24.225 77.80425Q23.146875 77.05425 22.25625 76.63238L22.771875 75.8355L23.240625 76.06988Q24.0375 75.0855 24.646875 73.91363L25.44375 74.38238Q25.865625 74.61675 25.396875 74.7105Q24.7875 75.55425 23.94375 76.53863Q24.4125 76.81988 24.834375 77.10113Q25.678125 76.30425 26.56875 75.03863L27.4125 75.55425Q27.6 75.74175 27.271875 75.78863Q26.38125 77.00738 24.553125 78.55425L27.365625 78.36675Q26.990625 77.94488 26.615625 77.56988L27.271875 77.00738Q28.35 77.80425 29.053125 79.11675L28.25625 79.72613L27.88125 79.06988L24.834375 79.35113L24.459375 80.148L26.803125 80.148L26.94375 79.91363L27.740625 80.38238Q28.06875 80.523 27.553125 80.66363Q26.896875 81.88238 26.1 82.63238Q27.31875 83.38238 29.146875 83.66363L28.771875 84.74175Q26.896875 84.31988 25.396875 83.28863ZM25.396875 82.11675Q25.9125 81.60113 26.38125 80.898L24.553125 80.898Q24.834375 81.55425 25.396875 82.11675ZM20.85 84.78863L19.9125 84.78863L19.9125 79.9605Q19.490625 80.38238 18.928125 80.85113L18.50625 79.91363Q20.053125 78.69488 21.0375 76.773L21.88125 77.3355Q22.06875 77.523 21.740625 77.56988Q21.4125 78.13238 20.85 78.88238L20.85 84.78863ZM21.69375 75.0855Q20.85 76.30425 19.209375 77.42925L18.69375 76.49175Q20.1 75.55425 21.13125 74.24175L21.975 74.898Q22.021875 75.13238 21.69375 75.0855Z" fill-rule="nonzero"/><path fill="#000000" d="M24.35 103.91563Q24.35 102.38438 24.6625 101.4625Q24.975 100.525 25.584375 100.025Q26.209375 99.525 27.146875 99.525Q27.834375 99.525 28.35 99.80625Q28.88125 100.0875 29.225 100.61875Q29.56875 101.13438 29.75625 101.88438Q29.94375 102.63438 29.94375 103.91563Q29.94375 105.43125 29.63125 106.35313Q29.334375 107.275 28.709375 107.79063Q28.1 108.29063 27.146875 108.29063Q25.9125 108.29063 25.19375 107.4Q24.35 106.3375 24.35 103.91563ZM25.428125 103.91563Q25.428125 106.025 25.928125 106.72813Q26.428125 107.43125 27.146875 107.43125Q27.88125 107.43125 28.365625 106.72813Q28.865625 106.025 28.865625 103.91563Q28.865625 101.79063 28.365625 101.10313Q27.88125 100.4 27.13125 100.4Q26.4125 100.4 25.975 101.00938Q25.428125 101.79063 25.428125 103.91563ZM31.94375 108.15L31.94375 106.94688L33.146873 106.94688L33.146873 108.15L31.94375 108.15ZM34.35 103.91563Q34.35 102.38438 34.6625 101.4625Q34.975 100.525 35.584373 100.025Q36.209373 99.525 37.146873 99.525Q37.834373 99.525 38.35 99.80625Q38.88125 100.0875 39.225 100.61875Q39.56875 101.13438 39.75625 101.88438Q39.94375 102.63438 39.94375 103.91563Q39.94375 105.43125 39.63125 106.35313Q39.334373 107.275 38.709373 107.79063Q38.1 108.29063 37.146873 108.29063Q35.9125 108.29063 35.19375 107.4Q34.35 106.3375 34.35 103.91563ZM35.428123 103.91563Q35.428123 106.025 35.928123 106.72813Q36.428123 107.43125 37.146873 107.43125Q37.88125 107.43125 38.365623 106.72813Q38.865623 106.025 38.865623 103.91563Q38.865623 101.79063 38.365623 101.10313Q37.88125 100.4 37.13125 100.4Q36.4125 100.4 35.975 101.00938Q35.428123 101.79063 35.428123 103.91563ZM41.35 103.91563Q41.35 102.38438 41.6625 101.4625Q41.975 100.525 42.584373 100.025Q43.209373 99.525 44.146873 99.525Q44.834373 99.525 45.35 99.80625Q45.88125 100.0875 46.225 100.61875Q46.56875 101.13438 46.75625 101.88438Q46.94375 102.63438 46.94375 103.91563Q46.94375 105.43125 46.63125 106.35313Q46.334373 107.275 45.709373 107.79063Q45.1 108.29063 44.146873 108.29063Q42.9125 108.29063 42.19375 107.4Q41.35 106.3375 41.35 103.91563ZM42.428123 103.91563Q42.428123 106.025 42.928123 106.72813Q43.428123 107.43125 44.146873 107.43125Q44.88125 107.43125 45.365623 106.72813Q45.865623 106.025 45.865623 103.91563Q45.865623 101.79063 45.365623 101.10313Q44.88125 100.4 44.13125 100.4Q43.4125 100.4 42.975 101.00938Q42.428123 101.79063 42.428123 103.91563Z" fill-rule="nonzero"/><path fill="#000000" d="M120.175 103.91563Q120.175 102.38438 120.4875 101.4625Q120.8 100.525 121.40938 100.025Q122.03438 99.525 122.97188 99.525Q123.65938 99.525 124.175 99.80625Q124.70625 100.0875 125.05 100.61875Q125.39375 101.13438 125.58125 101.88438Q125.76875 102.63438 125.76875 103.91563Q125.76875 105.43125 125.45625 106.35313Q125.15938 107.275 124.53438 107.79063Q123.925 108.29063 122.97188 108.29063Q121.7375 108.29063 121.01875 107.4Q120.175 106.3375 120.175 103.91563ZM121.25313 103.91563Q121.25313 106.025 121.75313 106.72813Q122.25313 107.43125 122.97188 107.43125Q123.70625 107.43125 124.19063 106.72813Q124.69063 106.025 124.69063 103.91563Q124.69063 101.79063 124.19063 101.10313Q123.70625 100.4 122.95625 100.4Q122.2375 100.4 121.8 101.00938Q121.25313 101.79063 121.25313 103.91563ZM127.76875 108.15L127.76875 106.94688L128.97188 106.94688L128.97188 108.15L127.76875 108.15ZM135.72188 107.13438L135.72188 108.15L130.03438 108.15Q130.03438 107.775 130.15938 107.41563Q130.37813 106.8375 130.84688 106.275Q131.33125 105.7125 132.2375 104.97813Q133.64375 103.82188 134.12813 103.15Q134.62813 102.47813 134.62813 101.88438Q134.62813 101.25938 134.175 100.8375Q133.72188 100.4 133.00313 100.4Q132.2375 100.4 131.78438 100.85313Q131.33125 101.30625 131.31563 102.11875L130.2375 102.00938Q130.34688 100.79063 131.06563 100.16563Q131.8 99.525 133.03438 99.525Q134.26875 99.525 134.9875 100.2125Q135.70625 100.9 135.70625 101.91563Q135.70625 102.43125 135.4875 102.93125Q135.28438 103.41563 134.78438 103.97813Q134.3 104.525 133.175 105.47813Q132.22188 106.275 131.94063 106.57188Q131.675 106.85313 131.50313 107.13438L135.72188 107.13438ZM137.175 105.9L138.28438 105.80625Q138.40938 106.61875 138.84688 107.025Q139.3 107.43125 139.94063 107.43125Q140.69063 107.43125 141.22188 106.85313Q141.75313 106.275 141.75313 105.3375Q141.75313 104.43125 141.2375 103.91563Q140.7375 103.38438 139.90938 103.38438Q139.40938 103.38438 138.9875 103.61875Q138.58125 103.85313 138.34688 104.2125L137.3625 104.0875L138.19063 99.68125L142.47188 99.68125L142.47188 100.68125L139.03438 100.68125L138.58125 102.99375Q139.34688 102.44688 140.19063 102.44688Q141.31563 102.44688 142.08125 103.22813Q142.8625 104.00938 142.8625 105.24375Q142.8625 106.4 142.19063 107.25938Q141.3625 108.29063 139.94063 108.29063Q138.76875 108.29063 138.01875 107.63438Q137.28438 106.97813 137.175 105.9Z" fill-rule="nonzero"/><path fill="#000000" d="M216.0 103.91563Q216.0 102.38438 216.3125 101.4625Q216.625 100.525 217.23438 100.025Q217.85938 99.525 218.79688 99.525Q219.48438 99.525 220.0 99.80625Q220.53125 100.0875 220.875 100.61875Q221.21875 101.13438 221.40625 101.88438Q221.59375 102.63438 221.59375 103.91563Q221.59375 105.43125 221.28125 106.35313Q220.98438 107.275 220.35938 107.79063Q219.75 108.29063 218.79688 108.29063Q217.5625 108.29063 216.84375 107.4Q216.0 106.3375 216.0 103.91563ZM217.07812 103.91563Q217.07812 106.025 217.57812 106.72813Q218.07812 107.43125 218.79688 107.43125Q219.53125 107.43125 220.01562 106.72813Q220.51562 106.025 220.51562 103.91563Q220.51562 101.79063 220.01562 101.10313Q219.53125 100.4 218.78125 100.4Q218.0625 100.4 217.625 101.00938Q217.07812 101.79063 217.07812 103.91563ZM223.59375 108.15L223.59375 106.94688L224.79688 106.94688L224.79688 108.15L223.59375 108.15ZM226.0 105.9L227.10938 105.80625Q227.23438 106.61875 227.67188 107.025Q228.125 107.43125 228.76562 107.43125Q229.51562 107.43125 230.04688 106.85313Q230.57812 106.275 230.57812 105.3375Q230.57812 104.43125 230.0625 103.91563Q229.5625 103.38438 228.73438 103.38438Q228.23438 103.38438 227.8125 103.61875Q227.40625 103.85313 227.17188 104.2125L226.1875 104.0875L227.01562 99.68125L231.29688 99.68125L231.29688 100.68125L227.85938 100.68125L227.40625 102.99375Q228.17188 102.44688 229.01562 102.44688Q230.14062 102.44688 230.90625 103.22813Q231.6875 104.00938 231.6875 105.24375Q231.6875 106.4 231.01562 107.25938Q230.1875 108.29063 228.76562 108.29063Q227.59375 108.29063 226.84375 107.63438Q226.10938 106.97813 226.0 105.9ZM233.0 103.91563Q233.0 102.38438 233.3125 101.4625Q233.625 100.525 234.23438 100.025Q234.85938 99.525 235.79688 99.525Q236.48438 99.525 237.0 99.80625Q237.53125 100.0875 237.875 100.61875Q238.21875 101.13438 238.40625 101.88438Q238.59375 102.63438 238.59375 103.91563Q238.59375 105.43125 238.28125 106.35313Q237.98438 107.275 237.35938 107.79063Q236.75 108.29063 235.79688 108.29063Q234.5625 108.29063 233.84375 107.4Q233.0 106.3375 233.0 103.91563ZM234.07812 103.91563Q234.07812 106.025 234.57812 106.72813Q235.07812 107.43125 235.79688 107.43125Q236.53125 107.43125 237.01562 106.72813Q237.51562 106.025 237.51562 103.91563Q237.51562 101.79063 237.01562 101.10313Q236.53125 100.4 235.78125 100.4Q235.0625 100.4 234.625 101.00938Q234.07812 101.79063 234.07812 103.91563Z" fill-rule="nonzero"/><path fill="#000000" d="M311.825 103.91563Q311.825 102.38438 312.1375 101.4625Q312.45 100.525 313.0594 100.025Q313.6844 99.525 314.6219 99.525Q315.3094 99.525 315.825 99.80625Q316.35626 100.0875 316.7 100.61875Q317.04376 101.13438 317.23126 101.88438Q317.41876 102.63438 317.41876 103.91563Q317.41876 105.43125 317.10626 106.35313Q316.8094 107.275 316.1844 107.79063Q315.575 108.29063 314.6219 108.29063Q313.3875 108.29063 312.66876 107.4Q311.825 106.3375 311.825 103.91563ZM312.90314 103.91563Q312.90314 106.025 313.40314 106.72813Q313.90314 107.43125 314.6219 107.43125Q315.35626 107.43125 315.84064 106.72813Q316.34064 106.025 316.34064 103.91563Q316.34064 101.79063 315.84064 101.10313Q315.35626 100.4 314.60626 100.4Q313.8875 100.4 313.45 101.00938Q312.90314 101.79063 312.90314 103.91563ZM319.41876 108.15L319.41876 106.94688L320.6219 106.94688L320.6219 108.15L319.41876 108.15ZM321.8875 100.68125L321.8875 99.66563L327.45 99.66563L327.45 100.49375Q326.6375 101.36875 325.825 102.82188Q325.02814 104.25938 324.59064 105.79063Q324.2625 106.86875 324.1844 108.15L323.09064 108.15Q323.10626 107.13438 323.48126 105.69688Q323.8719 104.25938 324.575 102.93125Q325.29376 101.60313 326.10626 100.68125L321.8875 100.68125ZM328.825 105.9L329.9344 105.80625Q330.0594 106.61875 330.4969 107.025Q330.95 107.43125 331.59064 107.43125Q332.34064 107.43125 332.8719 106.85313Q333.40314 106.275 333.40314 105.3375Q333.40314 104.43125 332.8875 103.91563Q332.3875 103.38438 331.5594 103.38438Q331.0594 103.38438 330.6375 103.61875Q330.23126 103.85313 329.9969 104.2125L329.0125 104.0875L329.84064 99.68125L334.1219 99.68125L334.1219 100.68125L330.6844 100.68125L330.23126 102.99375Q330.9969 102.44688 331.84064 102.44688Q332.96564 102.44688 333.73126 103.22813Q334.5125 104.00938 334.5125 105.24375Q334.5125 106.4 333.84064 107.25938Q333.0125 108.29063 331.59064 108.29063Q330.41876 108.29063 329.66876 107.63438Q328.9344 106.97813 328.825 105.9Z" fill-rule="nonzero"/><path fill="#4285f4" d="M111.0 35.75C111.0 35.197716 111.447716 34.75 112.0 34.75L122.0 34.75C122.552284 34.75 123.0 35.197716 123.0 35.75L123.0 45.75C123.0 46.302284 122.552284 46.75 122.0 46.75L112.0 46.75C111.447716 46.75 111.0 46.302284 111.0 45.75Z" fill-rule="nonzero"/><path fill="#1a1a1a" d="M138.21875 38.703125L131.70312 38.703125L131.70312 37.671875L139.29688 37.671875L139.29688 44.375L138.21875 44.375L138.21875 43.859375L131.70312 43.859375L131.70312 42.828125L138.21875 42.828125L138.21875 38.703125ZM141.70312 41.328125Q146.625 39.265625 149.15625 35.515625L150.04688 36.265625Q150.42188 36.546875 149.71875 36.6875Q148.82812 37.859375 147.42188 39.078125L147.42188 45.453125L146.34375 45.453125L146.34375 39.96875Q144.70312 41.234375 142.5 42.265625L141.70312 41.328125ZM160.75 39.3125Q158.26562 44.46875 152.40625 44.75Q152.17188 45.359375 151.9375 44.84375L151.5625 43.625Q157.65625 43.484375 159.76562 38.609375L160.75 39.3125ZM154.14062 39.3125Q152.875 38.140625 151.75 37.390625L152.54688 36.40625Q153.53125 37.015625 155.03125 38.421875L154.14062 39.3125Z" fill-rule="nonzero"/><path fill="#1a1a1a" d="M165.46875 44.75L164.42188 44.75L164.42188 38.03125Q164.03125 38.390625 163.40625 38.765625Q162.79688 39.125 162.3125 39.296875L162.3125 38.28125Q163.1875 37.859375 163.84375 37.28125Q164.51562 36.6875 164.79688 36.125L165.46875 36.125L165.46875 44.75Z" fill-rule="nonzero"/><path fill="#ea4335" d="M184.0 35.75C184.0 35.197716 184.44771 34.75 185.0 34.75L195.0 34.75C195.55229 34.75 196.0 35.197716 196.0 35.75L196.0 45.75C196.0 46.302284 195.55229 46.75 195.0 46.75L185.0 46.75C184.44771 46.75 184.0 46.302284 184.0 45.75Z" fill-rule="nonzero"/><path fill="#1a1a1a" d="M211.21875 38.703125L204.70312 38.703125L204.70312 37.671875L212.29688 37.671875L212.29688 44.375L211.21875 44.375L211.21875 43.859375L204.70312 43.859375L204.70312 42.828125L211.21875 42.828125L211.21875 38.703125ZM214.70312 41.328125Q219.625 39.265625 222.15625 35.515625L223.04688 36.265625Q223.42188 36.546875 222.71875 36.6875Q221.82812 37.859375 220.42188 39.078125L220.42188 45.453125L219.34375 45.453125L219.34375 39.96875Q217.70312 41.234375 215.5 42.265625L214.70312 41.328125ZM233.75 39.3125Q231.26562 44.46875 225.40625 44.75Q225.17188 45.359375 224.9375 44.84375L224.5625 43.625Q230.65625 43.484375 232.76562 38.609375L233.75 39.3125ZM227.14062 39.3125Q225.875 38.140625 224.75 37.390625L225.54688 36.40625Q226.53125 37.015625 228.03125 38.421875L227.14062 39.3125Z" fill-rule="nonzero"/><path fill="#1a1a1a" d="M240.04688 43.734375L240.04688 44.75L234.35938 44.75Q234.35938 44.375 234.48438 44.015625Q234.70312 43.4375 235.17188 42.875Q235.65625 42.3125 236.5625 41.578125Q237.96875 40.421875 238.45312 39.75Q238.95312 39.078125 238.95312 38.484375Q238.95312 37.859375 238.5 37.4375Q238.04688 37.0 237.32812 37.0Q236.5625 37.0 236.10938 37.453125Q235.65625 37.90625 235.64062 38.71875L234.5625 38.609375Q234.67188 37.390625 235.39062 36.765625Q236.125 36.125 237.35938 36.125Q238.59375 36.125 239.3125 36.8125Q240.03125 37.5 240.03125 38.515625Q240.03125 39.03125 239.8125 39.53125Q239.60938 40.015625 239.10938 40.578125Q238.625 41.125 237.5 42.078125Q236.54688 42.875 236.26562 43.171875Q236.0 43.453125 235.82812 43.734375L240.04688 43.734375Z" fill-rule="nonzero"/><path fill="#fbbc04" d="M257.0 35.75C257.0 35.197716 257.44772 34.75 258.0 34.75L268.0 34.75C268.55228 34.75 269.0 35.197716 269.0 35.75L269.0 45.75C269.0 46.302284 268.55228 46.75 268.0 46.75L258.0 46.75C257.44772 46.75 257.0 46.302284 257.0 45.75Z" fill-rule="nonzero"/><path fill="#1a1a1a" d="M284.21875 38.703125L277.70312 38.703125L277.70312 37.671875L285.29688 37.671875L285.29688 44.375L284.21875 44.375L284.21875 43.859375L277.70312 43.859375L277.70312 42.828125L284.21875 42.828125L284.21875 38.703125ZM287.70312 41.328125Q292.625 39.265625 295.15625 35.515625L296.04688 36.265625Q296.42188 36.546875 295.71875 36.6875Q294.82812 37.859375 293.42188 39.078125L293.42188 45.453125L292.34375 45.453125L292.34375 39.96875Q290.70312 41.234375 288.5 42.265625L287.70312 41.328125ZM306.75 39.3125Q304.26562 44.46875 298.40625 44.75Q298.17188 45.359375 297.9375 44.84375L297.5625 43.625Q303.65625 43.484375 305.76562 38.609375L306.75 39.3125ZM300.14062 39.3125Q298.875 38.140625 297.75 37.390625L298.54688 36.40625Q299.53125 37.015625 301.03125 38.421875L300.14062 39.3125Z" fill-rule="nonzero"/><path fill="#1a1a1a" d="M307.5 42.484375L308.5625 42.34375Q308.73438 43.234375 309.17188 43.640625Q309.60938 44.03125 310.23438 44.03125Q310.98438 44.03125 311.5 43.515625Q312.01562 43.0 312.01562 42.234375Q312.01562 41.515625 311.53125 41.046875Q311.0625 40.5625 310.32812 40.5625Q310.03125 40.5625 309.57812 40.6875L309.70312 39.75Q309.8125 39.765625 309.875 39.765625Q310.54688 39.765625 311.07812 39.421875Q311.625 39.0625 311.625 38.328125Q311.625 37.75 311.23438 37.375Q310.84375 36.984375 310.21875 36.984375Q309.60938 36.984375 309.1875 37.375Q308.78125 37.765625 308.67188 38.53125L307.60938 38.34375Q307.79688 37.296875 308.48438 36.71875Q309.17188 36.125 310.1875 36.125Q310.89062 36.125 311.48438 36.4375Q312.07812 36.734375 312.39062 37.25Q312.70312 37.765625 312.70312 38.359375Q312.70312 38.90625 312.40625 39.375Q312.10938 39.828125 311.53125 40.09375Q312.28125 40.265625 312.70312 40.828125Q313.125 41.375 313.125 42.21875Q313.125 43.34375 312.29688 44.125Q311.48438 44.90625 310.23438 44.90625Q309.10938 44.90625 308.35938 44.234375Q307.60938 43.546875 307.5 42.484375Z" fill-rule="nonzero"/><path fill="#757575" d="M14.678125 25.084375Q14.990625 25.084375 14.990625 24.771875L14.990625 23.209375L8.81875 23.209375L8.81875 21.959375L14.990625 21.959375L14.990625 20.709375L6.7875 20.709375L6.7875 19.459375L14.990625 19.459375L14.990625 18.2875L8.81875 18.2875L8.81875 17.0375L14.990625 17.0375L14.990625 15.94375L12.334375 15.94375L9.75625 15.94375L9.75625 12.584375L14.990625 12.584375L14.990625 11.56875L7.25625 11.56875L7.25625 10.31875L14.990625 10.31875L14.990625 8.521875L16.475 8.521875Q17.1 8.6 16.553125 8.990625L16.553125 10.31875L24.053125 10.31875L24.053125 11.56875L16.553125 11.56875L16.553125 12.584375L21.63125 12.584375L21.63125 15.94375L16.553125 15.94375L16.553125 17.0375L22.56875 17.0375L22.56875 19.459375L24.678125 19.459375L24.678125 20.709375L22.56875 20.709375L22.56875 23.678125L21.00625 23.678125L21.00625 23.209375L16.553125 23.209375L16.553125 25.31875Q16.553125 26.56875 15.303125 26.56875L13.584375 26.56875L13.35 25.084375L14.678125 25.084375ZM11.084375 15.00625L14.990625 15.00625L14.990625 13.521875L11.084375 13.521875L11.084375 15.00625ZM16.553125 15.00625L20.303125 15.00625L20.303125 13.521875L16.553125 13.521875L16.553125 15.00625ZM16.553125 21.959375L21.00625 21.959375L21.00625 20.709375L16.553125 20.709375L16.553125 21.959375ZM21.00625 19.459375L21.00625 18.2875L16.553125 18.2875L16.553125 19.459375L21.00625 19.459375ZM33.50625 17.271875L33.50625 15.709375L30.06875 15.709375L30.06875 17.271875L33.50625 17.271875ZM33.50625 18.75625L30.06875 18.75625L30.06875 20.396875L33.50625 20.396875L33.50625 18.75625ZM33.271873 24.928125Q33.50625 24.928125 33.50625 24.69375L33.50625 21.88125L30.06875 21.88125L30.06875 26.56875L28.50625 26.56875L28.50625 14.225L35.06875 14.225L35.06875 25.084375Q35.06875 26.4125 33.81875 26.4125L32.25625 26.4125L31.865625 24.928125L33.271873 24.928125ZM37.334373 14.615625L38.896873 14.615625L38.896873 23.6L37.334373 23.6L37.334373 14.615625ZM41.31875 24.85Q41.553123 24.85 41.553123 24.615625L41.553123 13.990625L43.0375 13.990625Q43.81875 14.146875 43.115623 14.615625L43.115623 25.00625Q43.115623 26.334375 41.865623 26.334375L40.146873 26.334375L39.834373 24.85L41.31875 24.85ZM39.990623 9.615625Q39.521873 10.475 38.81875 11.56875L44.75625 11.56875L44.75625 13.053125L26.7875 13.053125L26.7875 11.56875L32.1 11.56875Q31.63125 10.475 31.00625 9.69375L32.4125 8.9125Q33.271873 9.771875 34.13125 11.56875L37.021873 11.56875Q37.88125 10.084375 38.428123 8.6L40.225 9.225Q40.5375 9.5375 39.990623 9.615625Z" fill-rule="nonzero"/><path fill="#757575" d="M57.00625 9.225L58.646873 9.225Q59.50625 9.38125 58.803123 9.85L58.959373 13.6Q59.0375 15.240625 59.50625 16.25625Q61.69375 15.31875 65.36562 14.303125L66.14687 16.334375Q58.725 17.6625 56.225 20.1625Q55.365623 21.021875 55.365623 21.959375Q55.365623 22.6625 55.9125 23.209375Q56.459373 23.75625 58.178123 23.75625L65.67812 23.75625L65.67812 25.475L58.1 25.475Q55.521873 25.475 54.50625 24.459375Q53.490623 23.44375 53.490623 22.115625Q53.490623 20.396875 54.740623 19.146875Q55.678123 18.209375 57.865623 16.959375Q57.396873 15.7875 57.31875 14.38125L57.00625 9.225Z" fill-rule="nonzero"/><path fill="#757575" d="M81.67812 25.084375Q81.99062 25.084375 81.99062 24.771875L81.99062 23.209375L75.81875 23.209375L75.81875 21.959375L81.99062 21.959375L81.99062 20.709375L73.7875 20.709375L73.7875 19.459375L81.99062 19.459375L81.99062 18.2875L75.81875 18.2875L75.81875 17.0375L81.99062 17.0375L81.99062 15.94375L79.33437 15.94375L76.75625 15.94375L76.75625 12.584375L81.99062 12.584375L81.99062 11.56875L74.25625 11.56875L74.25625 10.31875L81.99062 10.31875L81.99062 8.521875L83.475 8.521875Q84.1 8.6 83.55312 8.990625L83.55312 10.31875L91.05312 10.31875L91.05312 11.56875L83.55312 11.56875L83.55312 12.584375L88.63125 12.584375L88.63125 15.94375L83.55312 15.94375L83.55312 17.0375L89.56875 17.0375L89.56875 19.459375L91.67812 19.459375L91.67812 20.709375L89.56875 20.709375L89.56875 23.678125L88.00625 23.678125L88.00625 23.209375L83.55312 23.209375L83.55312 25.31875Q83.55312 26.56875 82.30312 26.56875L80.58437 26.56875L80.35 25.084375L81.67812 25.084375ZM78.08437 15.00625L81.99062 15.00625L81.99062 13.521875L78.08437 13.521875L78.08437 15.00625ZM83.55312 15.00625L87.30312 15.00625L87.30312 13.521875L83.55312 13.521875L83.55312 15.00625ZM83.55312 21.959375L88.00625 21.959375L88.00625 20.709375L83.55312 20.709375L83.55312 21.959375ZM88.00625 19.459375L88.00625 18.2875L83.55312 18.2875L83.55312 19.459375L88.00625 19.459375ZM105.42812 23.990625Q103.00625 25.709375 98.94375 26.490625L98.39687 24.85Q102.14687 24.38125 104.25625 22.896875Q103.39687 21.88125 102.77187 20.63125Q101.67812 22.19375 99.725 23.44375L98.7875 22.19375Q101.83437 20.240625 102.77187 17.584375L99.80312 17.740625Q99.725 18.2875 99.4125 17.975L98.86562 16.178125L101.99062 16.1L103.475 14.85Q101.67812 13.6 100.19375 12.896875L101.05312 11.56875L101.83437 11.959375Q103.1625 10.31875 104.17812 8.365625L105.50625 9.146875Q106.20937 9.5375 105.42812 9.69375Q104.4125 11.1 103.00625 12.740625Q103.7875 13.209375 104.49062 13.678125Q105.89687 12.35 107.38125 10.240625L108.7875 11.1Q109.1 11.4125 108.55312 11.490625Q107.06875 13.521875 104.02187 16.1L108.70937 15.7875Q108.08437 15.084375 107.45937 14.459375L108.55312 13.521875Q110.35 14.85 111.52187 17.0375L110.19375 18.053125L109.56875 16.959375L104.49062 17.428125L103.86562 18.75625L107.77187 18.75625L108.00625 18.365625L109.33437 19.146875Q109.88125 19.38125 109.02187 19.615625Q107.92812 21.646875 106.6 22.896875Q108.63125 24.146875 111.67812 24.615625L111.05312 26.4125Q107.92812 25.709375 105.42812 23.990625ZM105.42812 22.0375Q106.2875 21.178125 107.06875 20.00625L104.02187 20.00625Q104.49062 21.1 105.42812 22.0375ZM97.85 26.490625L96.2875 26.490625L96.2875 18.44375Q95.58437 19.146875 94.64687 19.928125L93.94375 18.365625Q96.52187 16.334375 98.1625 13.13125L99.56875 14.06875Q99.88125 14.38125 99.33437 14.459375Q98.7875 15.396875 97.85 16.646875L97.85 26.490625ZM99.25625 10.31875Q97.85 12.35 95.11562 14.225L94.25625 12.6625Q96.6 11.1 98.31875 8.9125L99.725 10.00625Q99.80312 10.396875 99.25625 10.31875Z" fill-rule="nonzero"/></svg>