<svg version="1.1" viewBox="0.0 0.0 532.0 292.0" fill="none" stroke="none" stroke-linecap="square" stroke-miterlimit="10" width="532" height="292" xmlns:xlink="http://www.w3.org/1999/xlink" xmlns="http://www.w3.org/2000/svg"><path fill="#ffffff" d="M0 0L532.0 0L532.0 292.0L0 292.0L0 0Z" fill-rule="nonzero"/><path stroke="#333333" stroke-width="1.0" stroke-linecap="butt" d="M52.5 72.5L52.5 257.5" fill-rule="nonzero"/><path stroke="#cccccc" stroke-width="1.0" stroke-linecap="butt" d="M168.5 72.5L168.5 257.5" fill-rule="nonzero"/><path stroke="#cccccc" stroke-width="1.0" stroke-linecap="butt" d="M285.5 72.5L285.5 257.5" fill-rule="nonzero"/><path stroke="#cccccc" stroke-width="1.0" stroke-linecap="butt" d="M401.5 72.5L401.5 257.5" fill-rule="nonzero"/><path stroke="#cccccc" stroke-width="1.0" stroke-linecap="butt" d="M517.5 72.5L517.5 257.5" fill-rule="nonzero"/><clipPath id="id_0"><path d="M52.6 72.066666L517.4 72.066666L517.4 257.4L52.6 257.4L52.6 72.066666Z" clip-rule="nonzero"/></clipPath><path stroke="#000000" stroke-width="2.0" stroke-linecap="butt" stroke-opacity="0.0" clip-path="url(#id_0)" d="M53.0 89.0L53.0 78.0L99.0 78.0L99.0 89.0Z" fill-rule="nonzero"/><path fill="#4285f4" clip-path="url(#id_0)" d="M53.0 89.0L53.0 78.0L99.0 78.0L99.0 89.0Z" fill-rule="nonzero"/><path stroke="#000000" stroke-width="2.0" stroke-linecap="butt" stroke-opacity="0.0" clip-path="url(#id_0)" d="M53.0 105.0L53.0 94.0L132.0 94.0L132.0 105.0Z" fill-rule="nonzero"/><path fill="#4285f4" clip-path="url(#id_0)" d="M53.0 105.0L53.0 94.0L132.0 94.0L132.0 105.0Z" fill-rule="nonzero"/><path stroke="#000000" stroke-width="2.0" stroke-linecap="butt" stroke-opacity="0.0" clip-path="url(#id_0)" d="M53.0 122.0L53.0 111.0L170.0 111.0L170.0 122.0Z" fill-rule="nonzero"/><path fill="#4285f4" clip-path="url(#id_0)" d="M53.0 122.0L53.0 111.0L170.0 111.0L170.0 122.0Z" fill-rule="nonzero"/><path stroke="#000000" stroke-width="2.0" stroke-linecap="butt" stroke-opacity="0.0" clip-path="url(#id_0)" d="M53.0 138.0L53.0 127.0L210.0 127.0L210.0 138.0Z" fill-rule="nonzero"/><path fill="#4285f4" clip-path="url(#id_0)" d="M53.0 138.0L53.0 127.0L210.0 127.0L210.0 138.0Z" fill-rule="nonzero"/><path stroke="#000000" stroke-width="2.0" stroke-linecap="butt" stroke-opacity="0.0" clip-path="url(#id_0)" d="M53.0 154.0L53.0 143.0L249.0 143.0L249.0 154.0Z" fill-rule="nonzero"/><path fill="#4285f4" clip-path="url(#id_0)" d="M53.0 154.0L53.0 143.0L249.0 143.0L249.0 154.0Z" fill-rule="nonzero"/><path stroke="#000000" stroke-width="2.0" stroke-linecap="butt" stroke-opacity="0.0" clip-path="url(#id_0)" d="M53.0 171.0L53.0 160.0L173.0 160.0L173.0 171.0Z" fill-rule="nonzero"/><path fill="#4285f4" clip-path="url(#id_0)" d="M53.0 171.0L53.0 160.0L173.0 160.0L173.0 171.0Z" fill-rule="nonzero"/><path stroke="#000000" stroke-width="2.0" stroke-linecap="butt" stroke-opacity="0.0" clip-path="url(#id_0)" d="M53.0 187.0L53.0 176.0L206.0 176.0L206.0 187.0Z" fill-rule="nonzero"/><path fill="#4285f4" clip-path="url(#id_0)" d="M53.0 187.0L53.0 176.0L206.0 176.0L206.0 187.0Z" fill-rule="nonzero"/><path stroke="#000000" stroke-width="2.0" stroke-linecap="butt" stroke-opacity="0.0" clip-path="url(#id_0)" d="M53.0 203.0L53.0 192.0L240.0 192.0L240.0 203.0Z" fill-rule="nonzero"/><path fill="#4285f4" clip-path="url(#id_0)" d="M53.0 203.0L53.0 192.0L240.0 192.0L240.0 203.0Z" fill-rule="nonzero"/><path stroke="#000000" stroke-width="2.0" stroke-linecap="butt" stroke-opacity="0.0" clip-path="url(#id_0)" d="M53.0 220.0L53.0 209.0L168.0 209.0L168.0 220.0Z" fill-rule="nonzero"/><path fill="#4285f4" clip-path="url(#id_0)" d="M53.0 220.0L53.0 209.0L168.0 209.0L168.0 220.0Z" fill-rule="nonzero"/><path stroke="#000000" stroke-width="2.0" stroke-linecap="butt" stroke-opacity="0.0" clip-path="url(#id_0)" d="M53.0 236.0L53.0 225.0L198.0 225.0L198.0 236.0Z" fill-rule="nonzero"/><path fill="#4285f4" clip-path="url(#id_0)" d="M53.0 236.0L53.0 225.0L198.0 225.0L198.0 236.0Z" fill-rule="nonzero"/><path stroke="#000000" stroke-width="2.0" stroke-linecap="butt" stroke-opacity="0.0" clip-path="url(#id_0)" d="M53.0 252.0L53.0 241.0L137.0 241.0L137.0 252.0Z" fill-rule="nonzero"/><path fill="#4285f4" clip-path="url(#id_0)" d="M53.0 252.0L53.0 241.0L137.0 241.0L137.0 252.0Z" fill-rule="nonzero"/><path stroke="#000000" stroke-width="2.0" stroke-linecap="butt" stroke-opacity="0.0" clip-path="url(#id_0)" d="M99.0 89.0L99.0 78.0L285.0 78.0L285.0 89.0Z" fill-rule="nonzero"/><path fill="#ea4335" clip-path="url(#id_0)" d="M99.0 89.0L99.0 78.0L285.0 78.0L285.0 89.0Z" fill-rule="nonzero"/><path stroke="#000000" stroke-width="2.0" stroke-linecap="butt" stroke-opacity="0.0" clip-path="url(#id_0)" d="M132.0 105.0L132.0 94.0L369.0 94.0L369.0 105.0Z" fill-rule="nonzero"/><path fill="#ea4335" clip-path="url(#id_0)" d="M132.0 105.0L132.0 94.0L369.0 94.0L369.0 105.0Z" fill-rule="nonzero"/><path stroke="#000000" stroke-width="2.0" stroke-linecap="butt" stroke-opacity="0.0" clip-path="url(#id_0)" d="M170.0 122.0L170.0 111.0L435.0 111.0L435.0 122.0Z" fill-rule="nonzero"/><path fill="#ea4335" clip-path="url(#id_0)" d="M170.0 122.0L170.0 111.0L435.0 111.0L435.0 122.0Z" fill-rule="nonzero"/><path stroke="#000000" stroke-width="2.0" stroke-linecap="butt" stroke-opacity="0.0" clip-path="url(#id_0)" d="M210.0 138.0L210.0 127.0L476.0 127.0L476.0 138.0Z" fill-rule="nonzero"/><path fill="#ea4335" clip-path="url(#id_0)" d="M210.0 138.0L210.0 127.0L476.0 127.0L476.0 138.0Z" fill-rule="nonzero"/><path stroke="#000000" stroke-width="2.0" stroke-linecap="butt" stroke-opacity="0.0" clip-path="url(#id_0)" d="M249.0 154.0L249.0 143.0L498.0 143.0L498.0 154.0Z" fill-rule="nonzero"/><path fill="#ea4335" clip-path="url(#id_0)" d="M249.0 154.0L249.0 143.0L498.0 143.0L498.0 154.0Z" fill-rule="nonzero"/><path stroke="#000000" stroke-width="2.0" stroke-linecap="butt" stroke-opacity="0.0" clip-path="url(#id_0)" d="M173.0 171.0L173.0 160.0L476.0 160.0L476.0 171.0Z" fill-rule="nonzero"/><path fill="#ea4335" clip-path="url(#id_0)" d="M173.0 171.0L173.0 160.0L476.0 160.0L476.0 171.0Z" fill-rule="nonzero"/><path stroke="#000000" stroke-width="2.0" stroke-linecap="butt" stroke-opacity="0.0" clip-path="url(#id_0)" d="M206.0 187.0L206.0 176.0L497.0 176.0L497.0 187.0Z" fill-rule="nonzero"/><path fill="#ea4335" clip-path="url(#id_0)" d="M206.0 187.0L206.0 176.0L497.0 176.0L497.0 187.0Z" fill-rule="nonzero"/><path stroke="#000000" stroke-width="2.0" stroke-linecap="butt" stroke-opacity="0.0" clip-path="url(#id_0)" d="M240.0 203.0L240.0 192.0L508.0 192.0L508.0 203.0Z" fill-rule="nonzero"/><path fill="#ea4335" clip-path="url(#id_0)" d="M240.0 203.0L240.0 192.0L508.0 192.0L508.0 203.0Z" fill-rule="nonzero"/><path stroke="#000000" stroke-width="2.0" stroke-linecap="butt" stroke-opacity="0.0" clip-path="url(#id_0)" d="M168.0 220.0L168.0 209.0L498.0 209.0L498.0 220.0Z" fill-rule="nonzero"/><path fill="#ea4335" clip-path="url(#id_0)" d="M168.0 220.0L168.0 209.0L498.0 209.0L498.0 220.0Z" fill-rule="nonzero"/><path stroke="#000000" stroke-width="2.0" stroke-linecap="butt" stroke-opacity="0.0" clip-path="url(#id_0)" d="M198.0 236.0L198.0 225.0L508.0 225.0L508.0 236.0Z" fill-rule="nonzero"/><path fill="#ea4335" clip-path="url(#id_0)" d="M198.0 236.0L198.0 225.0L508.0 225.0L508.0 236.0Z" fill-rule="nonzero"/><path stroke="#000000" stroke-width="2.0" stroke-linecap="butt" stroke-opacity="0.0" clip-path="url(#id_0)" d="M137.0 252.0L137.0 241.0L498.0 241.0L498.0 252.0Z" fill-rule="nonzero"/><path fill="#ea4335" clip-path="url(#id_0)" d="M137.0 252.0L137.0 241.0L498.0 241.0L498.0 252.0Z" fill-rule="nonzero"/><path stroke="#000000" stroke-width="2.0" stroke-linecap="butt" stroke-opacity="0.0" clip-path="url(#id_0)" d="M285.0 89.0L285.0 78.0L515.0 78.0C516.10455 78.0 517.0 78.89543 517.0 80.0L517.0 87.0C517.0 88.10457 516.10455 89.0 515.0 89.0Z" fill-rule="nonzero"/><path fill="#fbbc04" clip-path="url(#id_0)" d="M285.0 89.0L285.0 78.0L515.0 78.0C516.10455 78.0 517.0 78.89543 517.0 80.0L517.0 87.0C517.0 88.10457 516.10455 89.0 515.0 89.0Z" fill-rule="nonzero"/><path stroke="#000000" stroke-width="2.0" stroke-linecap="butt" stroke-opacity="0.0" clip-path="url(#id_0)" d="M369.0 105.0L369.0 94.0L515.0 94.0C516.10455 94.0 517.0 94.89543 517.0 96.0L517.0 103.0C517.0 104.10457 516.10455 105.0 515.0 105.0Z" fill-rule="nonzero"/><path fill="#fbbc04" clip-path="url(#id_0)" d="M369.0 105.0L369.0 94.0L515.0 94.0C516.10455 94.0 517.0 94.89543 517.0 96.0L517.0 103.0C517.0 104.10457 516.10455 105.0 515.0 105.0Z" fill-rule="nonzero"/><path stroke="#000000" stroke-width="2.0" stroke-linecap="butt" stroke-opacity="0.0" clip-path="url(#id_0)" d="M435.0 122.0L435.0 111.0L515.0 111.0C516.10455 111.0 517.0 111.89543 517.0 113.0L517.0 120.0C517.0 121.10457 516.10455 122.0 515.0 122.0Z" fill-rule="nonzero"/><path fill="#fbbc04" clip-path="url(#id_0)" d="M435.0 122.0L435.0 111.0L515.0 111.0C516.10455 111.0 517.0 111.89543 517.0 113.0L517.0 120.0C517.0 121.10457 516.10455 122.0 515.0 122.0Z" fill-rule="nonzero"/><path stroke="#000000" stroke-width="2.0" stroke-linecap="butt" stroke-opacity="0.0" clip-path="url(#id_0)" d="M476.0 138.0L476.0 127.0L515.0 127.0C516.10455 127.0 517.0 127.89543 517.0 129.0L517.0 136.0C517.0 137.10457 516.10455 138.0 515.0 138.0Z" fill-rule="nonzero"/><path fill="#fbbc04" clip-path="url(#id_0)" d="M476.0 138.0L476.0 127.0L515.0 127.0C516.10455 127.0 517.0 127.89543 517.0 129.0L517.0 136.0C517.0 137.10457 516.10455 138.0 515.0 138.0Z" fill-rule="nonzero"/><path stroke="#000000" stroke-width="2.0" stroke-linecap="butt" stroke-opacity="0.0" clip-path="url(#id_0)" d="M498.0 154.0L498.0 143.0L515.0 143.0C516.10455 143.0 517.0 143.89543 517.0 145.0L517.0 152.0C517.0 153.10457 516.10455 154.0 515.0 154.0Z" fill-rule="nonzero"/><path fill="#fbbc04" clip-path="url(#id_0)" d="M498.0 154.0L498.0 143.0L515.0 143.0C516.10455 143.0 517.0 143.89543 517.0 145.0L517.0 152.0C517.0 153.10457 516.10455 154.0 515.0 154.0Z" fill-rule="nonzero"/><path stroke="#000000" stroke-width="2.0" stroke-linecap="butt" stroke-opacity="0.0" clip-path="url(#id_0)" d="M476.0 171.0L476.0 160.0L515.0 160.0C516.10455 160.0 517.0 160.89543 517.0 162.0L517.0 169.0C517.0 170.10457 516.10455 171.0 515.0 171.0Z" fill-rule="nonzero"/><path fill="#fbbc04" clip-path="url(#id_0)" d="M476.0 171.0L476.0 160.0L515.0 160.0C516.10455 160.0 517.0 160.89543 517.0 162.0L517.0 169.0C517.0 170.10457 516.10455 171.0 515.0 171.0Z" fill-rule="nonzero"/><path stroke="#000000" stroke-width="2.0" stroke-linecap="butt" stroke-opacity="0.0" clip-path="url(#id_0)" d="M497.0 187.0L497.0 176.0L515.0 176.0C516.10455 176.0 517.0 176.89543 517.0 178.0L517.0 185.0C517.0 186.10457 516.10455 187.0 515.0 187.0Z" fill-rule="nonzero"/><path fill="#fbbc04" clip-path="url(#id_0)" d="M497.0 187.0L497.0 176.0L515.0 176.0C516.10455 176.0 517.0 176.89543 517.0 178.0L517.0 185.0C517.0 186.10457 516.10455 187.0 515.0 187.0Z" fill-rule="nonzero"/><path stroke="#000000" stroke-width="2.0" stroke-linecap="butt" stroke-opacity="0.0" clip-path="url(#id_0)" d="M508.0 203.0L508.0 192.0L515.0 192.0C516.10455 192.0 517.0 192.89543 517.0 194.0L517.0 201.0C517.0 202.10457 516.10455 203.0 515.0 203.0Z" fill-rule="nonzero"/><path fill="#fbbc04" clip-path="url(#id_0)" d="M508.0 203.0L508.0 192.0L515.0 192.0C516.10455 192.0 517.0 192.89543 517.0 194.0L517.0 201.0C517.0 202.10457 516.10455 203.0 515.0 203.0Z" fill-rule="nonzero"/><path stroke="#000000" stroke-width="2.0" stroke-linecap="butt" stroke-opacity="0.0" clip-path="url(#id_0)" d="M498.0 220.0L498.0 209.0L515.0 209.0C516.10455 209.0 517.0 209.89543 517.0 211.0L517.0 218.0C517.0 219.10457 516.10455 220.0 515.0 220.0Z" fill-rule="nonzero"/><path fill="#fbbc04" clip-path="url(#id_0)" d="M498.0 220.0L498.0 209.0L515.0 209.0C516.10455 209.0 517.0 209.89543 517.0 211.0L517.0 218.0C517.0 219.10457 516.10455 220.0 515.0 220.0Z" fill-rule="nonzero"/><path stroke="#000000" stroke-width="2.0" stroke-linecap="butt" stroke-opacity="0.0" clip-path="url(#id_0)" d="M508.0 236.0L508.0 225.0L515.0 225.0C516.10455 225.0 517.0 225.89543 517.0 227.0L517.0 234.0C517.0 235.10457 516.10455 236.0 515.0 236.0Z" fill-rule="nonzero"/><path fill="#fbbc04" clip-path="url(#id_0)" d="M508.0 236.0L508.0 225.0L515.0 225.0C516.10455 225.0 517.0 225.89543 517.0 227.0L517.0 234.0C517.0 235.10457 516.10455 236.0 515.0 236.0Z" fill-rule="nonzero"/><path stroke="#000000" stroke-width="2.0" stroke-linecap="butt" stroke-opacity="0.0" clip-path="url(#id_0)" d="M498.0 252.0L498.0 241.0L515.0 241.0C516.10455 241.0 517.0 241.89543 517.0 243.0L517.0 250.0C517.0 251.10457 516.10455 252.0 515.0 252.0Z" fill-rule="nonzero"/><path fill="#fbbc04" clip-path="url(#id_0)" d="M498.0 252.0L498.0 241.0L515.0 241.0C516.10455 241.0 517.0 241.89543 517.0 243.0L517.0 250.0C517.0 251.10457 516.10455 252.0 515.0 252.0Z" fill-rule="nonzero"/><path fill="#000000" d="M27.896875 87.22932Q28.084375 87.22932 28.084375 87.04182L28.084375 86.10432L24.38125 86.10432L24.38125 85.35432L28.084375 85.35432L28.084375 84.60432L23.1625 84.60432L23.1625 83.85432L28.084375 83.85432L28.084375 83.15119L24.38125 83.15119L24.38125 82.40119L28.084375 82.40119L28.084375 81.74494L26.490625 81.74494L24.94375 81.74494L24.94375 79.72932L28.084375 79.72932L28.084375 79.11994L23.44375 79.11994L23.44375 78.36994L28.084375 78.36994L28.084375 77.29182L28.975 77.29182Q29.35 77.33869 29.021875 77.57307L29.021875 78.36994L33.521873 78.36994L33.521873 79.11994L29.021875 79.11994L29.021875 79.72932L32.06875 79.72932L32.06875 81.74494L29.021875 81.74494L29.021875 82.40119L32.63125 82.40119L32.63125 83.85432L33.896873 83.85432L33.896873 84.60432L32.63125 84.60432L32.63125 86.38557L31.69375 86.38557L31.69375 86.10432L29.021875 86.10432L29.021875 87.36994Q29.021875 88.11994 28.271875 88.11994L27.240625 88.11994L27.1 87.22932L27.896875 87.22932ZM25.740625 81.18244L28.084375 81.18244L28.084375 80.29182L25.740625 80.29182L25.740625 81.18244ZM29.021875 81.18244L31.271875 81.18244L31.271875 80.29182L29.021875 80.29182L29.021875 81.18244ZM29.021875 85.35432L31.69375 85.35432L31.69375 84.60432L29.021875 84.60432L29.021875 85.35432ZM31.69375 83.85432L31.69375 83.15119L29.021875 83.15119L29.021875 83.85432L31.69375 83.85432ZM39.19375 82.54182L39.19375 81.60432L37.13125 81.60432L37.13125 82.54182L39.19375 82.54182ZM39.19375 83.43244L37.13125 83.43244L37.13125 84.41682L39.19375 84.41682L39.19375 83.43244ZM39.053123 87.13557Q39.19375 87.13557 39.19375 86.99494L39.19375 85.30744L37.13125 85.30744L37.13125 88.11994L36.19375 88.11994L36.19375 80.71369L40.13125 80.71369L40.13125 87.22932Q40.13125 88.02619 39.38125 88.02619L38.44375 88.02619L38.209373 87.13557L39.053123 87.13557ZM41.490623 80.94807L42.428123 80.94807L42.428123 86.33869L41.490623 86.33869L41.490623 80.94807ZM43.88125 87.08869Q44.021873 87.08869 44.021873 86.94807L44.021873 80.57307L44.9125 80.57307Q45.38125 80.66682 44.959373 80.94807L44.959373 87.18244Q44.959373 87.97932 44.209373 87.97932L43.178123 87.97932L42.990623 87.08869L43.88125 87.08869ZM43.084373 77.94807Q42.803123 78.46369 42.38125 79.11994L45.94375 79.11994L45.94375 80.01057L35.1625 80.01057L35.1625 79.11994L38.35 79.11994Q38.06875 78.46369 37.69375 77.99494L38.5375 77.52619Q39.053123 78.04182 39.56875 79.11994L41.303123 79.11994Q41.81875 78.22932 42.146873 77.33869L43.225 77.71369Q43.4125 77.90119 43.084373 77.94807Z" fill-rule="nonzero"/><path fill="#000000" d="M26.06875 103.41762L25.021875 103.41762L25.021875 96.69887Q24.63125 97.05824 24.00625 97.43324Q23.396875 97.79262 22.9125 97.96449L22.9125 96.94887Q23.7875 96.52699 24.44375 95.94887Q25.115625 95.35512 25.396875 94.79262L26.06875 94.79262L26.06875 103.41762ZM29.678125 98.40199L29.678125 97.19887L30.88125 97.19887L30.88125 98.40199L29.678125 98.40199ZM29.678125 103.41762L29.678125 102.21449L30.88125 102.21449L30.88125 103.41762L29.678125 103.41762Z" fill-rule="nonzero"/><path fill="#000000" d="M42.990623 101.68324Q43.740623 102.62074 45.803123 103.37074L45.334373 104.40199Q41.678123 103.18324 40.69375 99.24574L40.4125 99.24574Q39.94375 99.90199 39.428123 100.41762L39.428123 103.04262L42.1 102.52699L42.240623 103.32387Q39.709373 103.93324 37.271873 104.40199Q37.13125 104.82387 36.990623 104.54262L36.6625 103.41762L38.490623 103.18324L38.490623 101.16762Q37.271873 102.01137 35.771873 102.52699L35.303123 101.58949Q37.646873 100.93324 39.2875 99.24574L35.5375 99.24574L35.5375 98.35512L40.084373 98.35512L40.084373 97.51137L36.709373 97.51137L36.709373 96.62074L40.084373 96.62074L40.084373 95.77699L36.1 95.77699L36.1 94.88637L40.084373 94.88637L40.084373 93.76137L40.975 93.76137Q41.35 93.80824 41.021873 94.04262L41.021873 94.88637L45.00625 94.88637L45.00625 95.77699L41.021873 95.77699L41.021873 96.62074L44.396873 96.62074L44.396873 97.51137L41.021873 97.51137L41.021873 98.35512L45.56875 98.35512L45.56875 99.24574L41.584373 99.24574Q41.865623 100.13637 42.521873 101.12074Q43.4125 100.37074 44.209373 99.48012L44.9125 100.18324Q44.959373 100.41762 44.678123 100.32387Q43.88125 101.07387 42.990623 101.68324Z" fill-rule="nonzero"/><path fill="#000000" d="M27.646875 118.73093L27.646875 119.74655L21.959375 119.74655Q21.959375 119.37155 22.084375 119.01218Q22.303125 118.43405 22.771875 117.87155Q23.25625 117.30905 24.1625 116.57468Q25.56875 115.41843 26.053125 114.74655Q26.553125 114.07468 26.553125 113.48093Q26.553125 112.85593 26.1 112.43405Q25.646875 111.99655 24.928125 111.99655Q24.1625 111.99655 23.709375 112.44968Q23.25625 112.9028 23.240625 113.7153L22.1625 113.60593Q22.271875 112.38718 22.990625 111.76218Q23.725 111.12155 24.959375 111.12155Q26.19375 111.12155 26.9125 111.80905Q27.63125 112.49655 27.63125 113.51218Q27.63125 114.0278 27.4125 114.5278Q27.209375 115.01218 26.709375 115.57468Q26.225 116.12155 25.1 117.07468Q24.146875 117.87155 23.865625 118.16843Q23.6 118.44968 23.428125 118.73093L27.646875 118.73093ZM29.678125 114.73093L29.678125 113.5278L30.88125 113.5278L30.88125 114.73093L29.678125 114.73093ZM29.678125 119.74655L29.678125 118.54343L30.88125 118.54343L30.88125 119.74655L29.678125 119.74655Z" fill-rule="nonzero"/><path fill="#000000" d="M42.990623 118.01218Q43.740623 118.94968 45.803123 119.69968L45.334373 120.73093Q41.678123 119.51218 40.69375 115.57468L40.4125 115.57468Q39.94375 116.23093 39.428123 116.74655L39.428123 119.37155L42.1 118.85593L42.240623 119.6528Q39.709373 120.26218 37.271873 120.73093Q37.13125 121.1528 36.990623 120.87155L36.6625 119.74655L38.490623 119.51218L38.490623 117.49655Q37.271873 118.3403 35.771873 118.85593L35.303123 117.91843Q37.646873 117.26218 39.2875 115.57468L35.5375 115.57468L35.5375 114.68405L40.084373 114.68405L40.084373 113.8403L36.709373 113.8403L36.709373 112.94968L40.084373 112.94968L40.084373 112.10593L36.1 112.10593L36.1 111.2153L40.084373 111.2153L40.084373 110.0903L40.975 110.0903Q41.35 110.13718 41.021873 110.37155L41.021873 111.2153L45.00625 111.2153L45.00625 112.10593L41.021873 112.10593L41.021873 112.94968L44.396873 112.94968L44.396873 113.8403L41.021873 113.8403L41.021873 114.68405L45.56875 114.68405L45.56875 115.57468L41.584373 115.57468Q41.865623 116.4653 42.521873 117.44968Q43.4125 116.69968 44.209373 115.80905L44.9125 116.51218Q44.959373 116.74655 44.678123 116.6528Q43.88125 117.4028 42.990623 118.01218Z" fill-rule="nonzero"/><path fill="#000000" d="M22.1 133.80984L23.1625 133.66922Q23.334375 134.55984 23.771875 134.9661Q24.209375 135.35672 24.834375 135.35672Q25.584375 135.35672 26.1 134.8411Q26.615625 134.32547 26.615625 133.55984Q26.615625 132.8411 26.13125 132.37234Q25.6625 131.88797 24.928125 131.88797Q24.63125 131.88797 24.178125 132.01297L24.303125 131.07547Q24.4125 131.0911 24.475 131.0911Q25.146875 131.0911 25.678125 130.74734Q26.225 130.38797 26.225 129.6536Q26.225 129.07547 25.834375 128.70047Q25.44375 128.30984 24.81875 128.30984Q24.209375 128.30984 23.7875 128.70047Q23.38125 129.0911 23.271875 129.85672L22.209375 129.66922Q22.396875 128.62234 23.084375 128.04422Q23.771875 127.45047 24.7875 127.45047Q25.490625 127.45047 26.084375 127.76297Q26.678125 128.05984 26.990625 128.57547Q27.303125 129.0911 27.303125 129.68484Q27.303125 130.23172 27.00625 130.70047Q26.709375 131.1536 26.13125 131.41922Q26.88125 131.5911 27.303125 132.1536Q27.725 132.70047 27.725 133.54422Q27.725 134.66922 26.896875 135.45047Q26.084375 136.23172 24.834375 136.23172Q23.709375 136.23172 22.959375 135.55984Q22.209375 134.87234 22.1 133.80984ZM29.678125 131.05984L29.678125 129.85672L30.88125 129.85672L30.88125 131.05984L29.678125 131.05984ZM29.678125 136.07547L29.678125 134.87234L30.88125 134.87234L30.88125 136.07547L29.678125 136.07547Z" fill-rule="nonzero"/><path fill="#000000" d="M42.990623 134.3411Q43.740623 135.2786 45.803123 136.0286L45.334373 137.05984Q41.678123 135.8411 40.69375 131.9036L40.4125 131.9036Q39.94375 132.55984 39.428123 133.07547L39.428123 135.70047L42.1 135.18484L42.240623 135.98172Q39.709373 136.5911 37.271873 137.05984Q37.13125 137.48172 36.990623 137.20047L36.6625 136.07547L38.490623 135.8411L38.490623 133.82547Q37.271873 134.66922 35.771873 135.18484L35.303123 134.24734Q37.646873 133.5911 39.2875 131.9036L35.5375 131.9036L35.5375 131.01297L40.084373 131.01297L40.084373 130.16922L36.709373 130.16922L36.709373 129.2786L40.084373 129.2786L40.084373 128.43484L36.1 128.43484L36.1 127.54422L40.084373 127.54422L40.084373 126.41922L40.975 126.41922Q41.35 126.466095 41.021873 126.70047L41.021873 127.54422L45.00625 127.54422L45.00625 128.43484L41.021873 128.43484L41.021873 129.2786L44.396873 129.2786L44.396873 130.16922L41.021873 130.16922L41.021873 131.01297L45.56875 131.01297L45.56875 131.9036L41.584373 131.9036Q41.865623 132.79422 42.521873 133.7786Q43.4125 133.0286 44.209373 132.13797L44.9125 132.8411Q44.959373 133.07547 44.678123 132.98172Q43.88125 133.73172 42.990623 134.3411Z" fill-rule="nonzero"/><path fill="#000000" d="M25.475 152.4044L25.475 150.3419L21.75625 150.3419L21.75625 149.37315L25.678125 143.81065L26.5375 143.81065L26.5375 149.37315L27.69375 149.37315L27.69375 150.3419L26.5375 150.3419L26.5375 152.4044L25.475 152.4044ZM25.475 149.37315L25.475 145.51378L22.7875 149.37315L25.475 149.37315ZM29.678125 147.38878L29.678125 146.18565L30.88125 146.18565L30.88125 147.38878L29.678125 147.38878ZM29.678125 152.4044L29.678125 151.20128L30.88125 151.20128L30.88125 152.4044L29.678125 152.4044Z" fill-rule="nonzero"/><path fill="#000000" d="M42.990623 150.67003Q43.740623 151.60753 45.803123 152.35753L45.334373 153.38878Q41.678123 152.17003 40.69375 148.23253L40.4125 148.23253Q39.94375 148.88878 39.428123 149.4044L39.428123 152.0294L42.1 151.51378L42.240623 152.31065Q39.709373 152.92003 37.271873 153.38878Q37.13125 153.81065 36.990623 153.5294L36.6625 152.4044L38.490623 152.17003L38.490623 150.1544Q37.271873 150.99815 35.771873 151.51378L35.303123 150.57628Q37.646873 149.92003 39.2875 148.23253L35.5375 148.23253L35.5375 147.3419L40.084373 147.3419L40.084373 146.49815L36.709373 146.49815L36.709373 145.60753L40.084373 145.60753L40.084373 144.76378L36.1 144.76378L36.1 143.87315L40.084373 143.87315L40.084373 142.74815L40.975 142.74815Q41.35 142.79503 41.021873 143.0294L41.021873 143.87315L45.00625 143.87315L45.00625 144.76378L41.021873 144.76378L41.021873 145.60753L44.396873 145.60753L44.396873 146.49815L41.021873 146.49815L41.021873 147.3419L45.56875 147.3419L45.56875 148.23253L41.584373 148.23253Q41.865623 149.12315 42.521873 150.10753Q43.4125 149.35753 44.209373 148.4669L44.9125 149.17003Q44.959373 149.4044 44.678123 149.31065Q43.88125 150.06065 42.990623 150.67003Z" fill-rule="nonzero"/><path fill="#000000" d="M22.1 166.48334L23.209375 166.38959Q23.334375 167.20209 23.771875 167.60834Q24.225 168.01459 24.865625 168.01459Q25.615625 168.01459 26.146875 167.43646Q26.678125 166.85834 26.678125 165.92084Q26.678125 165.01459 26.1625 164.49896Q25.6625 163.96771 24.834375 163.96771Q24.334375 163.96771 23.9125 164.20209Q23.50625 164.43646 23.271875 164.79584L22.2875 164.67084L23.115625 160.26459L27.396875 160.26459L27.396875 161.26459L23.959375 161.26459L23.50625 163.57709Q24.271875 163.03021 25.115625 163.03021Q26.240625 163.03021 27.00625 163.81146Q27.7875 164.59271 27.7875 165.82709Q27.7875 166.98334 27.115625 167.84271Q26.2875 168.87396 24.865625 168.87396Q23.69375 168.87396 22.94375 168.21771Q22.209375 167.56146 22.1 166.48334ZM29.678125 163.71771L29.678125 162.51459L30.88125 162.51459L30.88125 163.71771L29.678125 163.71771ZM29.678125 168.73334L29.678125 167.53021L30.88125 167.53021L30.88125 168.73334L29.678125 168.73334Z" fill-rule="nonzero"/><path fill="#000000" d="M42.896873 167.65521Q44.06875 168.45209 45.990623 168.78021L45.615623 169.71771Q41.9125 168.92084 40.6 166.24896L40.459373 166.24896Q40.084373 166.67084 39.19375 167.28021L39.19375 168.73334L41.959373 168.31146L41.959373 169.01459Q40.365623 169.38959 37.31875 169.85834Q37.271873 170.18646 37.084373 169.99896L36.85 169.01459L38.396873 168.82709L38.396873 167.70209Q37.178123 168.40521 35.584373 168.78021L35.25625 167.88959Q37.6 167.42084 39.240623 166.24896L35.209373 166.24896L35.209373 165.49896L40.13125 165.49896L40.13125 164.88959L36.146873 164.88959L36.146873 164.32709L40.13125 164.32709L40.13125 163.76459L38.5375 163.76459L36.94375 163.76459L36.94375 161.09271L44.1625 161.09271L44.1625 163.76459L40.928123 163.76459L40.928123 164.32709L44.959373 164.32709L44.959373 164.88959L40.928123 164.88959L40.928123 165.49896L45.896873 165.49896L45.896873 166.24896L41.490623 166.24896Q41.959373 166.90521 42.2875 167.18646L43.69375 166.34271L44.44375 166.81146Q44.678123 166.99896 44.303123 166.99896L42.896873 167.65521ZM35.490623 159.82709L40.084373 159.82709L40.084373 158.98334L40.975 158.98334Q41.35 159.03021 41.021873 159.26459L41.021873 159.82709L45.615623 159.82709L45.615623 160.57709L35.490623 160.57709L35.490623 159.82709ZM37.740623 161.65521L37.740623 162.26459L40.13125 162.26459L40.13125 161.65521L37.740623 161.65521ZM40.928123 161.65521L40.928123 162.26459L43.365623 162.26459L43.365623 161.65521L40.928123 161.65521ZM37.740623 162.59271L37.740623 163.20209L40.13125 163.20209L40.13125 162.59271L37.740623 162.59271ZM40.928123 162.59271L40.928123 163.20209L43.365623 163.20209L43.365623 162.59271L40.928123 162.59271Z" fill-rule="nonzero"/><path fill="#000000" d="M27.56875 178.57788L26.521875 178.656Q26.38125 178.031 26.13125 177.74976Q25.69375 177.29663 25.06875 177.29663Q24.56875 177.29663 24.178125 177.57788Q23.69375 177.95288 23.396875 178.656Q23.115625 179.3435 23.1 180.62476Q23.475 180.04663 24.021875 179.76538Q24.584375 179.48413 25.19375 179.48413Q26.240625 179.48413 26.975 180.26538Q27.725 181.04663 27.725 182.26538Q27.725 183.07788 27.365625 183.781Q27.021875 184.4685 26.4125 184.8435Q25.803125 185.20288 25.0375 185.20288Q23.709375 185.20288 22.88125 184.23413Q22.053125 183.26538 22.053125 181.04663Q22.053125 178.54663 22.975 177.42163Q23.771875 176.43726 25.13125 176.43726Q26.146875 176.43726 26.7875 177.01538Q27.44375 177.57788 27.56875 178.57788ZM23.271875 182.281Q23.271875 182.82788 23.490625 183.32788Q23.725 183.81226 24.13125 184.07788Q24.553125 184.3435 25.021875 184.3435Q25.678125 184.3435 26.1625 183.81226Q26.646875 183.26538 26.646875 182.3435Q26.646875 181.45288 26.1625 180.93726Q25.69375 180.42163 24.975 180.42163Q24.25625 180.42163 23.75625 180.93726Q23.271875 181.45288 23.271875 182.281ZM29.678125 180.04663L29.678125 178.8435L30.88125 178.8435L30.88125 180.04663L29.678125 180.04663ZM29.678125 185.06226L29.678125 183.85913L30.88125 183.85913L30.88125 185.06226L29.678125 185.06226Z" fill-rule="nonzero"/><path fill="#000000" d="M42.990623 183.32788Q43.740623 184.26538 45.803123 185.01538L45.334373 186.04663Q41.678123 184.82788 40.69375 180.89038L40.4125 180.89038Q39.94375 181.54663 39.428123 182.06226L39.428123 184.68726L42.1 184.17163L42.240623 184.9685Q39.709373 185.57788 37.271873 186.04663Q37.13125 186.4685 36.990623 186.18726L36.6625 185.06226L38.490623 184.82788L38.490623 182.81226Q37.271873 183.656 35.771873 184.17163L35.303123 183.23413Q37.646873 182.57788 39.2875 180.89038L35.5375 180.89038L35.5375 179.99976L40.084373 179.99976L40.084373 179.156L36.709373 179.156L36.709373 178.26538L40.084373 178.26538L40.084373 177.42163L36.1 177.42163L36.1 176.531L40.084373 176.531L40.084373 175.406L40.975 175.406Q41.35 175.45288 41.021873 175.68726L41.021873 176.531L45.00625 176.531L45.00625 177.42163L41.021873 177.42163L41.021873 178.26538L44.396873 178.26538L44.396873 179.156L41.021873 179.156L41.021873 179.99976L45.56875 179.99976L45.56875 180.89038L41.584373 180.89038Q41.865623 181.781 42.521873 182.76538Q43.4125 182.01538 44.209373 181.12476L44.9125 181.82788Q44.959373 182.06226 44.678123 181.9685Q43.88125 182.7185 42.990623 183.32788Z" fill-rule="nonzero"/><path fill="#000000" d="M22.1625 193.92244L22.1625 192.90681L27.725 192.90681L27.725 193.73494Q26.9125 194.60994 26.1 196.06306Q25.303125 197.50056 24.865625 199.03181Q24.5375 200.10994 24.459375 201.39119L23.365625 201.39119Q23.38125 200.37556 23.75625 198.93806Q24.146875 197.50056 24.85 196.17244Q25.56875 194.84431 26.38125 193.92244L22.1625 193.92244ZM29.678125 196.37556L29.678125 195.17244L30.88125 195.17244L30.88125 196.37556L29.678125 196.37556ZM29.678125 201.39119L29.678125 200.18806L30.88125 200.18806L30.88125 201.39119L29.678125 201.39119Z" fill-rule="nonzero"/><path fill="#000000" d="M42.990623 199.65681Q43.740623 200.59431 45.803123 201.34431L45.334373 202.37556Q41.678123 201.15681 40.69375 197.21931L40.4125 197.21931Q39.94375 197.87556 39.428123 198.39119L39.428123 201.01619L42.1 200.50056L42.240623 201.29744Q39.709373 201.90681 37.271873 202.37556Q37.13125 202.79744 36.990623 202.51619L36.6625 201.39119L38.490623 201.15681L38.490623 199.14119Q37.271873 199.98494 35.771873 200.50056L35.303123 199.56306Q37.646873 198.90681 39.2875 197.21931L35.5375 197.21931L35.5375 196.32869L40.084373 196.32869L40.084373 195.48494L36.709373 195.48494L36.709373 194.59431L40.084373 194.59431L40.084373 193.75056L36.1 193.75056L36.1 192.85994L40.084373 192.85994L40.084373 191.73494L40.975 191.73494Q41.35 191.78181 41.021873 192.01619L41.021873 192.85994L45.00625 192.85994L45.00625 193.75056L41.021873 193.75056L41.021873 194.59431L44.396873 194.59431L44.396873 195.48494L41.021873 195.48494L41.021873 196.32869L45.56875 196.32869L45.56875 197.21931L41.584373 197.21931Q41.865623 198.10994 42.521873 199.09431Q43.4125 198.34431 44.209373 197.45369L44.9125 198.15681Q44.959373 198.39119 44.678123 198.29744Q43.88125 199.04744 42.990623 199.65681Z" fill-rule="nonzero"/><path fill="#000000" d="M23.725 213.06387Q23.06875 212.81387 22.740625 212.37637Q22.428125 211.92325 22.428125 211.31387Q22.428125 210.37637 23.1 209.73575Q23.7875 209.09512 24.896875 209.09512Q26.021875 209.09512 26.709375 209.75137Q27.396875 210.40762 27.396875 211.34512Q27.396875 211.93887 27.084375 212.37637Q26.771875 212.81387 26.13125 213.06387Q26.928125 213.31387 27.334375 213.892Q27.740625 214.47012 27.740625 215.267Q27.740625 216.36075 26.959375 217.11075Q26.19375 217.86075 24.9125 217.86075Q23.646875 217.86075 22.865625 217.11075Q22.084375 216.36075 22.084375 215.23575Q22.084375 214.392 22.50625 213.8295Q22.94375 213.267 23.725 213.06387ZM23.50625 211.267Q23.50625 211.87637 23.896875 212.267Q24.303125 212.65762 24.928125 212.65762Q25.5375 212.65762 25.928125 212.28262Q26.31875 211.892 26.31875 211.3295Q26.31875 210.75137 25.9125 210.36075Q25.50625 209.9545 24.9125 209.9545Q24.303125 209.9545 23.896875 210.34512Q23.50625 210.73575 23.50625 211.267ZM23.178125 215.23575Q23.178125 215.68887 23.38125 216.11075Q23.6 216.53262 24.021875 216.767Q24.44375 217.00137 24.928125 217.00137Q25.678125 217.00137 26.1625 216.517Q26.6625 216.03262 26.6625 215.28262Q26.6625 214.517 26.1625 214.017Q25.6625 213.517 24.896875 213.517Q24.146875 213.517 23.6625 214.017Q23.178125 214.50137 23.178125 215.23575ZM29.678125 212.7045L29.678125 211.50137L30.88125 211.50137L30.88125 212.7045L29.678125 212.7045ZM29.678125 217.72012L29.678125 216.517L30.88125 216.517L30.88125 217.72012L29.678125 217.72012Z" fill-rule="nonzero"/><path fill="#000000" d="M42.896873 216.642Q44.06875 217.43887 45.990623 217.767L45.615623 218.7045Q41.9125 217.90762 40.6 215.23575L40.459373 215.23575Q40.084373 215.65762 39.19375 216.267L39.19375 217.72012L41.959373 217.29825L41.959373 218.00137Q40.365623 218.37637 37.31875 218.84512Q37.271873 219.17325 37.084373 218.98575L36.85 218.00137L38.396873 217.81387L38.396873 216.68887Q37.178123 217.392 35.584373 217.767L35.25625 216.87637Q37.6 216.40762 39.240623 215.23575L35.209373 215.23575L35.209373 214.48575L40.13125 214.48575L40.13125 213.87637L36.146873 213.87637L36.146873 213.31387L40.13125 213.31387L40.13125 212.75137L38.5375 212.75137L36.94375 212.75137L36.94375 210.0795L44.1625 210.0795L44.1625 212.75137L40.928123 212.75137L40.928123 213.31387L44.959373 213.31387L44.959373 213.87637L40.928123 213.87637L40.928123 214.48575L45.896873 214.48575L45.896873 215.23575L41.490623 215.23575Q41.959373 215.892 42.2875 216.17325L43.69375 215.3295L44.44375 215.79825Q44.678123 215.98575 44.303123 215.98575L42.896873 216.642ZM35.490623 208.81387L40.084373 208.81387L40.084373 207.97012L40.975 207.97012Q41.35 208.017 41.021873 208.25137L41.021873 208.81387L45.615623 208.81387L45.615623 209.56387L35.490623 209.56387L35.490623 208.81387ZM37.740623 210.642L37.740623 211.25137L40.13125 211.25137L40.13125 210.642L37.740623 210.642ZM40.928123 210.642L40.928123 211.25137L43.365623 211.25137L43.365623 210.642L40.928123 210.642ZM37.740623 211.5795L37.740623 212.18887L40.13125 212.18887L40.13125 211.5795L37.740623 211.5795ZM40.928123 211.5795L40.928123 212.18887L43.365623 212.18887L43.365623 211.5795L40.928123 211.5795Z" fill-rule="nonzero"/><path fill="#000000" d="M22.25625 232.06467L23.271875 231.97092Q23.396875 232.68967 23.75625 233.01779Q24.13125 233.33029 24.69375 233.33029Q25.178125 233.33029 25.5375 233.11154Q25.9125 232.87717 26.146875 232.51779Q26.38125 232.14279 26.5375 231.51779Q26.69375 230.87717 26.69375 230.22092Q26.69375 230.14279 26.69375 230.00217Q26.38125 230.50217 25.834375 230.83029Q25.2875 231.14279 24.646875 231.14279Q23.56875 231.14279 22.834375 230.37717Q22.1 229.59592 22.1 228.33029Q22.1 227.01779 22.865625 226.22092Q23.646875 225.42404 24.803125 225.42404Q25.63125 225.42404 26.31875 225.87717Q27.021875 226.33029 27.38125 227.17404Q27.740625 228.00217 27.740625 229.58029Q27.740625 231.22092 27.38125 232.20529Q27.0375 233.17404 26.31875 233.68967Q25.615625 234.18967 24.678125 234.18967Q23.6625 234.18967 23.021875 233.64279Q22.38125 233.08029 22.25625 232.06467ZM26.56875 228.26779Q26.56875 227.36154 26.084375 226.83029Q25.615625 226.29904 24.928125 226.29904Q24.225 226.29904 23.69375 226.87717Q23.178125 227.43967 23.178125 228.36154Q23.178125 229.17404 23.678125 229.68967Q24.178125 230.20529 24.896875 230.20529Q25.63125 230.20529 26.1 229.68967Q26.56875 229.17404 26.56875 228.26779ZM29.678125 229.03342L29.678125 227.83029L30.88125 227.83029L30.88125 229.03342L29.678125 229.03342ZM29.678125 234.04904L29.678125 232.84592L30.88125 232.84592L30.88125 234.04904L29.678125 234.04904Z" fill-rule="nonzero"/><path fill="#000000" d="M42.990623 232.31467Q43.740623 233.25217 45.803123 234.00217L45.334373 235.03342Q41.678123 233.81467 40.69375 229.87717L40.4125 229.87717Q39.94375 230.53342 39.428123 231.04904L39.428123 233.67404L42.1 233.15842L42.240623 233.95529Q39.709373 234.56467 37.271873 235.03342Q37.13125 235.45529 36.990623 235.17404L36.6625 234.04904L38.490623 233.81467L38.490623 231.79904Q37.271873 232.64279 35.771873 233.15842L35.303123 232.22092Q37.646873 231.56467 39.2875 229.87717L35.5375 229.87717L35.5375 228.98654L40.084373 228.98654L40.084373 228.14279L36.709373 228.14279L36.709373 227.25217L40.084373 227.25217L40.084373 226.40842L36.1 226.40842L36.1 225.51779L40.084373 225.51779L40.084373 224.39279L40.975 224.39279Q41.35 224.43967 41.021873 224.67404L41.021873 225.51779L45.00625 225.51779L45.00625 226.40842L41.021873 226.40842L41.021873 227.25217L44.396873 227.25217L44.396873 228.14279L41.021873 228.14279L41.021873 228.98654L45.56875 228.98654L45.56875 229.87717L41.584373 229.87717Q41.865623 230.76779 42.521873 231.75217Q43.4125 231.00217 44.209373 230.11154L44.9125 230.81467Q44.959373 231.04904 44.678123 230.95529Q43.88125 231.70529 42.990623 232.31467Z" fill-rule="nonzero"/><path fill="#000000" d="M19.06875 250.37798L18.021875 250.37798L18.021875 243.65923Q17.63125 244.0186 17.00625 244.3936Q16.396875 244.75298 15.9125 244.92485L15.9125 243.90923Q16.7875 243.48735 17.44375 242.90923Q18.115625 242.31548 18.396875 241.75298L19.06875 241.75298L19.06875 250.37798ZM22.1 246.1436Q22.1 244.61235 22.4125 243.69048Q22.725 242.75298 23.334375 242.25298Q23.959375 241.75298 24.896875 241.75298Q25.584375 241.75298 26.1 242.03423Q26.63125 242.31548 26.975 242.84673Q27.31875 243.36235 27.50625 244.11235Q27.69375 244.86235 27.69375 246.1436Q27.69375 247.65923 27.38125 248.5811Q27.084375 249.50298 26.459375 250.0186Q25.85 250.5186 24.896875 250.5186Q23.6625 250.5186 22.94375 249.62798Q22.1 248.56548 22.1 246.1436ZM23.178125 246.1436Q23.178125 248.25298 23.678125 248.9561Q24.178125 249.65923 24.896875 249.65923Q25.63125 249.65923 26.115625 248.9561Q26.615625 248.25298 26.615625 246.1436Q26.615625 244.0186 26.115625 243.3311Q25.63125 242.62798 24.88125 242.62798Q24.1625 242.62798 23.725 243.23735Q23.178125 244.0186 23.178125 246.1436ZM29.678125 245.36235L29.678125 244.15923L30.88125 244.15923L30.88125 245.36235L29.678125 245.36235ZM29.678125 250.37798L29.678125 249.17485L30.88125 249.17485L30.88125 250.37798L29.678125 250.37798Z" fill-rule="nonzero"/><path fill="#000000" d="M42.896873 249.29985Q44.06875 250.09673 45.990623 250.42485L45.615623 251.36235Q41.9125 250.56548 40.6 247.8936L40.459373 247.8936Q40.084373 248.31548 39.19375 248.92485L39.19375 250.37798L41.959373 249.9561L41.959373 250.65923Q40.365623 251.03423 37.31875 251.50298Q37.271873 251.8311 37.084373 251.6436L36.85 250.65923L38.396873 250.47173L38.396873 249.34673Q37.178123 250.04985 35.584373 250.42485L35.25625 249.53423Q37.6 249.06548 39.240623 247.8936L35.209373 247.8936L35.209373 247.1436L40.13125 247.1436L40.13125 246.53423L36.146873 246.53423L36.146873 245.97173L40.13125 245.97173L40.13125 245.40923L38.5375 245.40923L36.94375 245.40923L36.94375 242.73735L44.1625 242.73735L44.1625 245.40923L40.928123 245.40923L40.928123 245.97173L44.959373 245.97173L44.959373 246.53423L40.928123 246.53423L40.928123 247.1436L45.896873 247.1436L45.896873 247.8936L41.490623 247.8936Q41.959373 248.54985 42.2875 248.8311L43.69375 247.98735L44.44375 248.4561Q44.678123 248.6436 44.303123 248.6436L42.896873 249.29985ZM35.490623 241.47173L40.084373 241.47173L40.084373 240.62798L40.975 240.62798Q41.35 240.67485 41.021873 240.90923L41.021873 241.47173L45.615623 241.47173L45.615623 242.22173L35.490623 242.22173L35.490623 241.47173ZM37.740623 243.29985L37.740623 243.90923L40.13125 243.90923L40.13125 243.29985L37.740623 243.29985ZM40.928123 243.29985L40.928123 243.90923L43.365623 243.90923L43.365623 243.29985L40.928123 243.29985ZM37.740623 244.23735L37.740623 244.84673L40.13125 244.84673L40.13125 244.23735L37.740623 244.23735ZM40.928123 244.23735L40.928123 244.84673L43.365623 244.84673L43.365623 244.23735L40.928123 244.23735Z" fill-rule="nonzero"/><path fill="#000000" d="M41.1 270.16562Q41.1 268.63437 41.4125 267.7125Q41.725 266.775 42.334373 266.275Q42.959373 265.775 43.896873 265.775Q44.584373 265.775 45.1 266.05624Q45.63125 266.3375 45.975 266.86874Q46.31875 267.38437 46.50625 268.13437Q46.69375 268.88437 46.69375 270.16562Q46.69375 271.68124 46.38125 272.60312Q46.084373 273.525 45.459373 274.04062Q44.85 274.54062 43.896873 274.54062Q42.6625 274.54062 41.94375 273.65Q41.1 272.5875 41.1 270.16562ZM42.178123 270.16562Q42.178123 272.275 42.678123 272.97812Q43.178123 273.68124 43.896873 273.68124Q44.63125 273.68124 45.115623 272.97812Q45.615623 272.275 45.615623 270.16562Q45.615623 268.04062 45.115623 267.35312Q44.63125 266.65 43.88125 266.65Q43.1625 266.65 42.725 267.25937Q42.178123 268.04062 42.178123 270.16562ZM48.69375 274.4L48.69375 273.19687L49.896873 273.19687L49.896873 274.4L48.69375 274.4ZM51.1 270.16562Q51.1 268.63437 51.4125 267.7125Q51.725 266.775 52.334373 266.275Q52.959373 265.775 53.896873 265.775Q54.584373 265.775 55.1 266.05624Q55.63125 266.3375 55.975 266.86874Q56.31875 267.38437 56.50625 268.13437Q56.69375 268.88437 56.69375 270.16562Q56.69375 271.68124 56.38125 272.60312Q56.084373 273.525 55.459373 274.04062Q54.85 274.54062 53.896873 274.54062Q52.6625 274.54062 51.94375 273.65Q51.1 272.5875 51.1 270.16562ZM52.178123 270.16562Q52.178123 272.275 52.678123 272.97812Q53.178123 273.68124 53.896873 273.68124Q54.63125 273.68124 55.115623 272.97812Q55.615623 272.275 55.615623 270.16562Q55.615623 268.04062 55.115623 267.35312Q54.63125 266.65 53.88125 266.65Q53.1625 266.65 52.725 267.25937Q52.178123 268.04062 52.178123 270.16562ZM58.1 270.16562Q58.1 268.63437 58.4125 267.7125Q58.725 266.775 59.334373 266.275Q59.959373 265.775 60.896873 265.775Q61.584373 265.775 62.1 266.05624Q62.63125 266.3375 62.975 266.86874Q63.31875 267.38437 63.50625 268.13437Q63.69375 268.88437 63.69375 270.16562Q63.69375 271.68124 63.38125 272.60312Q63.084373 273.525 62.459373 274.04062Q61.85 274.54062 60.896873 274.54062Q59.6625 274.54062 58.94375 273.65Q58.1 272.5875 58.1 270.16562ZM59.178123 270.16562Q59.178123 272.275 59.678123 272.97812Q60.178123 273.68124 60.896873 273.68124Q61.63125 273.68124 62.115623 272.97812Q62.615623 272.275 62.615623 270.16562Q62.615623 268.04062 62.115623 267.35312Q61.63125 266.65 60.88125 266.65Q60.1625 266.65 59.725 267.25937Q59.178123 268.04062 59.178123 270.16562Z" fill-rule="nonzero"/><path fill="#000000" d="M157.3 270.16562Q157.3 268.63437 157.6125 267.7125Q157.925 266.775 158.53438 266.275Q159.15938 265.775 160.09688 265.775Q160.78438 265.775 161.3 266.05624Q161.83125 266.3375 162.175 266.86874Q162.51875 267.38437 162.70625 268.13437Q162.89375 268.88437 162.89375 270.16562Q162.89375 271.68124 162.58125 272.60312Q162.28438 273.525 161.65938 274.04062Q161.05 274.54062 160.09688 274.54062Q158.8625 274.54062 158.14375 273.65Q157.3 272.5875 157.3 270.16562ZM158.37813 270.16562Q158.37813 272.275 158.87813 272.97812Q159.37813 273.68124 160.09688 273.68124Q160.83125 273.68124 161.31563 272.97812Q161.81563 272.275 161.81563 270.16562Q161.81563 268.04062 161.31563 267.35312Q160.83125 266.65 160.08125 266.65Q159.3625 266.65 158.925 267.25937Q158.37813 268.04062 158.37813 270.16562ZM164.89375 274.4L164.89375 273.19687L166.09688 273.19687L166.09688 274.4L164.89375 274.4ZM172.84688 273.38437L172.84688 274.4L167.15938 274.4Q167.15938 274.025 167.28438 273.66562Q167.50313 273.0875 167.97188 272.525Q168.45625 271.9625 169.3625 271.22812Q170.76875 270.07187 171.25313 269.4Q171.75313 268.72812 171.75313 268.13437Q171.75313 267.50937 171.3 267.0875Q170.84688 266.65 170.12813 266.65Q169.3625 266.65 168.90938 267.10312Q168.45625 267.55624 168.44063 268.36874L167.3625 268.25937Q167.47188 267.04062 168.19063 266.41562Q168.925 265.775 170.15938 265.775Q171.39375 265.775 172.1125 266.4625Q172.83125 267.15 172.83125 268.16562Q172.83125 268.68124 172.6125 269.18124Q172.40938 269.66562 171.90938 270.22812Q171.425 270.775 170.3 271.72812Q169.34688 272.525 169.06563 272.82187Q168.8 273.10312 168.62813 273.38437L172.84688 273.38437ZM174.3 272.15L175.40938 272.05624Q175.53438 272.86874 175.97188 273.275Q176.425 273.68124 177.06563 273.68124Q177.81563 273.68124 178.34688 273.10312Q178.87813 272.525 178.87813 271.5875Q178.87813 270.68124 178.3625 270.16562Q177.8625 269.63437 177.03438 269.63437Q176.53438 269.63437 176.1125 269.86874Q175.70625 270.10312 175.47188 270.4625L174.4875 270.3375L175.31563 265.93124L179.59688 265.93124L179.59688 266.93124L176.15938 266.93124L175.70625 269.24374Q176.47188 268.69687 177.31563 268.69687Q178.44063 268.69687 179.20625 269.47812Q179.9875 270.25937 179.9875 271.49374Q179.9875 272.65 179.31563 273.50937Q178.4875 274.54062 177.06563 274.54062Q175.89375 274.54062 175.14375 273.88437Q174.40938 273.22812 174.3 272.15Z" fill-rule="nonzero"/><path fill="#000000" d="M273.5 270.16562Q273.5 268.63437 273.8125 267.7125Q274.125 266.775 274.73438 266.275Q275.35938 265.775 276.29688 265.775Q276.98438 265.775 277.5 266.05624Q278.03125 266.3375 278.375 266.86874Q278.71875 267.38437 278.90625 268.13437Q279.09375 268.88437 279.09375 270.16562Q279.09375 271.68124 278.78125 272.60312Q278.48438 273.525 277.85938 274.04062Q277.25 274.54062 276.29688 274.54062Q275.0625 274.54062 274.34375 273.65Q273.5 272.5875 273.5 270.16562ZM274.57812 270.16562Q274.57812 272.275 275.07812 272.97812Q275.57812 273.68124 276.29688 273.68124Q277.03125 273.68124 277.51562 272.97812Q278.01562 272.275 278.01562 270.16562Q278.01562 268.04062 277.51562 267.35312Q277.03125 266.65 276.28125 266.65Q275.5625 266.65 275.125 267.25937Q274.57812 268.04062 274.57812 270.16562ZM281.09375 274.4L281.09375 273.19687L282.29688 273.19687L282.29688 274.4L281.09375 274.4ZM283.5 272.15L284.60938 272.05624Q284.73438 272.86874 285.17188 273.275Q285.625 273.68124 286.26562 273.68124Q287.01562 273.68124 287.54688 273.10312Q288.07812 272.525 288.07812 271.5875Q288.07812 270.68124 287.5625 270.16562Q287.0625 269.63437 286.23438 269.63437Q285.73438 269.63437 285.3125 269.86874Q284.90625 270.10312 284.67188 270.4625L283.6875 270.3375L284.51562 265.93124L288.79688 265.93124L288.79688 266.93124L285.35938 266.93124L284.90625 269.24374Q285.67188 268.69687 286.51562 268.69687Q287.64062 268.69687 288.40625 269.47812Q289.1875 270.25937 289.1875 271.49374Q289.1875 272.65 288.51562 273.50937Q287.6875 274.54062 286.26562 274.54062Q285.09375 274.54062 284.34375 273.88437Q283.60938 273.22812 283.5 272.15ZM290.5 270.16562Q290.5 268.63437 290.8125 267.7125Q291.125 266.775 291.73438 266.275Q292.35938 265.775 293.29688 265.775Q293.98438 265.775 294.5 266.05624Q295.03125 266.3375 295.375 266.86874Q295.71875 267.38437 295.90625 268.13437Q296.09375 268.88437 296.09375 270.16562Q296.09375 271.68124 295.78125 272.60312Q295.48438 273.525 294.85938 274.04062Q294.25 274.54062 293.29688 274.54062Q292.0625 274.54062 291.34375 273.65Q290.5 272.5875 290.5 270.16562ZM291.57812 270.16562Q291.57812 272.275 292.07812 272.97812Q292.57812 273.68124 293.29688 273.68124Q294.03125 273.68124 294.51562 272.97812Q295.01562 272.275 295.01562 270.16562Q295.01562 268.04062 294.51562 267.35312Q294.03125 266.65 293.28125 266.65Q292.5625 266.65 292.125 267.25937Q291.57812 268.04062 291.57812 270.16562Z" fill-rule="nonzero"/><path fill="#000000" d="M389.7 270.16562Q389.7 268.63437 390.0125 267.7125Q390.325 266.775 390.9344 266.275Q391.5594 265.775 392.4969 265.775Q393.1844 265.775 393.7 266.05624Q394.23126 266.3375 394.575 266.86874Q394.91876 267.38437 395.10626 268.13437Q395.29376 268.88437 395.29376 270.16562Q395.29376 271.68124 394.98126 272.60312Q394.6844 273.525 394.0594 274.04062Q393.45 274.54062 392.4969 274.54062Q391.2625 274.54062 390.54376 273.65Q389.7 272.5875 389.7 270.16562ZM390.77814 270.16562Q390.77814 272.275 391.27814 272.97812Q391.77814 273.68124 392.4969 273.68124Q393.23126 273.68124 393.71564 272.97812Q394.21564 272.275 394.21564 270.16562Q394.21564 268.04062 393.71564 267.35312Q393.23126 266.65 392.48126 266.65Q391.7625 266.65 391.325 267.25937Q390.77814 268.04062 390.77814 270.16562ZM397.29376 274.4L397.29376 273.19687L398.4969 273.19687L398.4969 274.4L397.29376 274.4ZM399.7625 266.93124L399.7625 265.91562L405.325 265.91562L405.325 266.74374Q404.5125 267.61874 403.7 269.07187Q402.90314 270.50937 402.46564 272.04062Q402.1375 273.11874 402.0594 274.4L400.96564 274.4Q400.98126 273.38437 401.35626 271.94687Q401.7469 270.50937 402.45 269.18124Q403.16876 267.85312 403.98126 266.93124L399.7625 266.93124ZM406.7 272.15L407.8094 272.05624Q407.9344 272.86874 408.3719 273.275Q408.825 273.68124 409.46564 273.68124Q410.21564 273.68124 410.7469 273.10312Q411.27814 272.525 411.27814 271.5875Q411.27814 270.68124 410.7625 270.16562Q410.2625 269.63437 409.4344 269.63437Q408.9344 269.63437 408.5125 269.86874Q408.10626 270.10312 407.8719 270.4625L406.8875 270.3375L407.71564 265.93124L411.9969 265.93124L411.9969 266.93124L408.5594 266.93124L408.10626 269.24374Q408.8719 268.69687 409.71564 268.69687Q410.84064 268.69687 411.60626 269.47812Q412.3875 270.25937 412.3875 271.49374Q412.3875 272.65 411.71564 273.50937Q410.8875 274.54062 409.46564 274.54062Q408.29376 274.54062 407.54376 273.88437Q406.8094 273.22812 406.7 272.15Z" fill-rule="nonzero"/><path fill="#000000" d="M509.86874 274.4L508.82187 274.4L508.82187 267.68124Q508.43124 268.04062 507.80624 268.41562Q507.19687 268.775 506.7125 268.94687L506.7125 267.93124Q507.5875 267.50937 508.24374 266.93124Q508.91562 266.3375 509.19687 265.775L509.86874 265.775L509.86874 274.4ZM513.4938 274.4L513.4938 273.19687L514.6969 273.19687L514.6969 274.4L513.4938 274.4ZM515.9 270.16562Q515.9 268.63437 516.2125 267.7125Q516.525 266.775 517.1344 266.275Q517.7594 265.775 518.6969 265.775Q519.3844 265.775 519.9 266.05624Q520.4313 266.3375 520.775 266.86874Q521.1188 267.38437 521.3063 268.13437Q521.4938 268.88437 521.4938 270.16562Q521.4938 271.68124 521.1813 272.60312Q520.8844 273.525 520.2594 274.04062Q519.65 274.54062 518.6969 274.54062Q517.4625 274.54062 516.7438 273.65Q515.9 272.5875 515.9 270.16562ZM516.97815 270.16562Q516.97815 272.275 517.47815 272.97812Q517.97815 273.68124 518.6969 273.68124Q519.4313 273.68124 519.91565 272.97812Q520.41565 272.275 520.41565 270.16562Q520.41565 268.04062 519.91565 267.35312Q519.4313 266.65 518.6813 266.65Q517.9625 266.65 517.525 267.25937Q516.97815 268.04062 516.97815 270.16562ZM522.9 270.16562Q522.9 268.63437 523.2125 267.7125Q523.525 266.775 524.1344 266.275Q524.7594 265.775 525.6969 265.775Q526.3844 265.775 526.9 266.05624Q527.4313 266.3375 527.775 266.86874Q528.1188 267.38437 528.3063 268.13437Q528.4938 268.88437 528.4938 270.16562Q528.4938 271.68124 528.1813 272.60312Q527.8844 273.525 527.2594 274.04062Q526.65 274.54062 525.6969 274.54062Q524.4625 274.54062 523.7438 273.65Q522.9 272.5875 522.9 270.16562ZM523.97815 270.16562Q523.97815 272.275 524.47815 272.97812Q524.97815 273.68124 525.6969 273.68124Q526.4313 273.68124 526.91565 272.97812Q527.41565 272.275 527.41565 270.16562Q527.41565 268.04062 526.91565 267.35312Q526.4313 266.65 525.6813 266.65Q524.9625 266.65 524.525 267.25937Q523.97815 268.04062 523.97815 270.16562Z" fill-rule="nonzero"/><path fill="#4285f4" d="M163.0 50.333332C163.0 49.781048 163.44771 49.333332 164.0 49.333332L174.0 49.333332C174.55229 49.333332 175.0 49.781048 175.0 50.333332L175.0 60.333332C175.0 60.885616 174.55229 61.333332 174.0 61.333332L164.0 61.333332C163.44771 61.333332 163.0 60.885616 163.0 60.333332Z" fill-rule="nonzero"/><path fill="#1a1a1a" d="M190.21875 53.286457L183.70312 53.286457L183.70312 52.255207L191.29688 52.255207L191.29688 58.958332L190.21875 58.958332L190.21875 58.442707L183.70312 58.442707L183.70312 57.411457L190.21875 57.411457L190.21875 53.286457ZM193.70312 55.911457Q198.625 53.848957 201.15625 50.098957L202.04688 50.848957Q202.42188 51.130207 201.71875 51.270832Q200.82812 52.442707 199.42188 53.661457L199.42188 60.036457L198.34375 60.036457L198.34375 54.552082Q196.70312 55.817707 194.5 56.848957L193.70312 55.911457ZM212.75 53.895832Q210.26562 59.052082 204.40625 59.333332Q204.17188 59.942707 203.9375 59.427082L203.5625 58.208332Q209.65625 58.067707 211.76562 53.192707L212.75 53.895832ZM206.14062 53.895832Q204.875 52.723957 203.75 51.973957L204.54688 50.989582Q205.53125 51.598957 207.03125 53.005207L206.14062 53.895832ZM218.10938 51.083332L218.10938 59.192707L217.03125 59.192707L217.03125 52.958332L214.6875 52.958332L214.6875 52.208332Q216.75 52.255207 217.35938 51.083332L218.10938 51.083332Z" fill-rule="nonzero"/><path fill="#ea4335" d="M237.0 50.333332C237.0 49.781048 237.44771 49.333332 238.0 49.333332L248.0 49.333332C248.55229 49.333332 249.0 49.781048 249.0 50.333332L249.0 60.333332C249.0 60.885616 248.55229 61.333332 248.0 61.333332L238.0 61.333332C237.44771 61.333332 237.0 60.885616 237.0 60.333332Z" fill-rule="nonzero"/><path fill="#1a1a1a" d="M264.21875 53.286457L257.70312 53.286457L257.70312 52.255207L265.29688 52.255207L265.29688 58.958332L264.21875 58.958332L264.21875 58.442707L257.70312 58.442707L257.70312 57.411457L264.21875 57.411457L264.21875 53.286457ZM267.70312 55.911457Q272.625 53.848957 275.15625 50.098957L276.04688 50.848957Q276.42188 51.130207 275.71875 51.270832Q274.82812 52.442707 273.42188 53.661457L273.42188 60.036457L272.34375 60.036457L272.34375 54.552082Q270.70312 55.817707 268.5 56.848957L267.70312 55.911457ZM286.75 53.895832Q284.26562 59.052082 278.40625 59.333332Q278.17188 59.942707 277.9375 59.427082L277.5625 58.208332Q283.65625 58.067707 285.76562 53.192707L286.75 53.895832ZM280.14062 53.895832Q278.875 52.723957 277.75 51.973957L278.54688 50.989582Q279.53125 51.598957 281.03125 53.005207L280.14062 53.895832ZM293.42188 51.833332Q294.03125 52.442707 294.03125 53.239582Q294.03125 54.458332 292.8125 55.255207Q291.45312 56.145832 290.60938 56.802082Q290.0 57.270832 289.29688 58.161457L294.26562 58.161457L294.26562 59.192707L287.98438 59.192707L287.98438 58.208332Q288.26562 57.598957 288.96875 56.895832Q289.8125 56.052082 291.96875 54.552082Q292.85938 53.942707 292.85938 53.286457Q292.85938 52.817707 292.53125 52.489582Q292.15625 52.114582 291.3125 52.114582Q290.375 52.114582 289.95312 52.536457Q289.4375 53.052082 289.39062 54.083332L288.125 54.083332Q288.21875 52.677082 288.96875 51.927082Q289.8125 51.083332 291.26562 51.083332Q292.67188 51.083332 293.42188 51.833332Z" fill-rule="nonzero"/><path fill="#fbbc04" d="M311.0 50.333332C311.0 49.781048 311.44772 49.333332 312.0 49.333332L322.0 49.333332C322.55228 49.333332 323.0 49.781048 323.0 50.333332L323.0 60.333332C323.0 60.885616 322.55228 61.333332 322.0 61.333332L312.0 61.333332C311.44772 61.333332 311.0 60.885616 311.0 60.333332Z" fill-rule="nonzero"/><path fill="#1a1a1a" d="M338.21875 53.286457L331.70312 53.286457L331.70312 52.255207L339.29688 52.255207L339.29688 58.958332L338.21875 58.958332L338.21875 58.442707L331.70312 58.442707L331.70312 57.411457L338.21875 57.411457L338.21875 53.286457ZM341.70312 55.911457Q346.625 53.848957 349.15625 50.098957L350.04688 50.848957Q350.42188 51.130207 349.71875 51.270832Q348.82812 52.442707 347.42188 53.661457L347.42188 60.036457L346.34375 60.036457L346.34375 54.552082Q344.70312 55.817707 342.5 56.848957L341.70312 55.911457ZM360.75 53.895832Q358.26562 59.052082 352.40625 59.333332Q352.17188 59.942707 351.9375 59.427082L351.5625 58.208332Q357.65625 58.067707 359.76562 53.192707L360.75 53.895832ZM354.14062 53.895832Q352.875 52.723957 351.75 51.973957L352.54688 50.989582Q353.53125 51.598957 355.03125 53.005207L354.14062 53.895832ZM363.0625 56.427082Q363.10938 57.364582 363.57812 57.833332Q364.14062 58.395832 365.21875 58.395832Q366.15625 58.395832 366.625 57.927082Q367.04688 57.505207 367.04688 56.942707Q367.04688 56.192707 366.625 55.770832Q366.20312 55.348957 364.5625 55.442707L364.5625 54.411457Q366.10938 54.364582 366.53125 53.942707Q366.90625 53.567707 366.90625 53.098957Q366.90625 52.677082 366.53125 52.302082Q366.15625 51.927082 365.21875 51.927082Q364.28125 51.927082 363.71875 52.489582Q363.39062 52.817707 363.29688 53.520832L362.03125 53.520832Q362.17188 52.536457 362.92188 51.786457Q363.71875 50.989582 365.21875 50.989582Q366.67188 50.989582 367.32812 51.645832Q367.9375 52.255207 367.9375 53.098957Q367.9375 53.848957 367.375 54.411457Q367.09375 54.692707 366.625 54.880207Q367.1875 55.020832 367.51562 55.348957Q368.125 55.958332 368.125 56.895832Q368.125 57.880207 367.42188 58.583332Q366.67188 59.333332 365.21875 59.333332Q363.53125 59.333332 362.73438 58.536457Q361.98438 57.786457 361.84375 56.427082L363.0625 56.427082Z" fill-rule="nonzero"/><path fill="#757575" d="M22.053125 33.6L20.2875 33.6L20.2875 22.396873Q19.6625 23.006248 18.63125 23.615623Q17.6 24.209373 16.771875 24.521873L16.771875 22.818748Q18.25625 22.131248 19.35 21.146873Q20.459375 20.146873 20.9125 19.224998L22.053125 19.224998L22.053125 33.6ZM26.428125 26.537498Q26.428125 24.006248 26.94375 22.459373Q27.475 20.896873 28.50625 20.068748Q29.5375 19.224998 31.1 19.224998Q32.25625 19.224998 33.115623 19.693748Q33.990623 20.146873 34.553123 21.021873Q35.115623 21.896873 35.44375 23.162498Q35.771873 24.412498 35.771873 26.537498Q35.771873 29.053123 35.240623 30.599998Q34.725 32.146873 33.69375 33.00625Q32.678123 33.85 31.1 33.85Q29.021875 33.85 27.85 32.365623Q26.428125 30.568748 26.428125 26.537498ZM28.240625 26.537498Q28.240625 30.068748 29.053125 31.240623Q29.88125 32.396873 31.1 32.396873Q32.303123 32.396873 33.13125 31.224998Q33.959373 30.053123 33.959373 26.537498Q33.959373 23.006248 33.13125 21.849998Q32.303123 20.678123 31.084375 20.678123Q29.865625 20.678123 29.146875 21.709373Q28.240625 23.006248 28.240625 26.537498Z" fill-rule="nonzero"/><path fill="#757575" d="M44.4125 28.209373L48.7875 28.209373L48.7875 24.068748L44.4125 24.068748L44.4125 28.209373ZM48.7875 30.474998L48.7875 29.693748L44.4125 29.693748L44.4125 30.553123L42.85 30.553123L42.85 22.584373L50.35 22.584373L50.35 30.474998L48.7875 30.474998ZM40.271873 32.6625L52.85 32.6625L52.85 19.928123L40.271873 19.928123L40.271873 32.6625ZM52.85 34.85L52.85 34.146873L40.271873 34.146873L40.271873 35.240623L38.709373 35.240623L38.709373 18.443748L54.4125 18.443748L54.4125 34.85L52.85 34.85ZM70.50625 19.459373L67.45937 19.459373L67.45937 21.021873Q67.45937 24.224998 64.64687 25.553123L63.7875 24.146873Q65.89687 23.131248 65.89687 20.787498L65.89687 17.974998L72.06875 17.974998L72.06875 22.584373Q72.06875 23.209373 72.61562 23.209373L73.63125 23.209373Q73.94375 23.209373 73.94375 22.896873L73.94375 21.334373L75.50625 21.724998L75.50625 23.287498Q75.50625 24.693748 73.86562 24.693748L71.9125 24.693748Q70.50625 24.693748 70.50625 23.365623L70.50625 19.459373ZM70.975 31.646873Q72.61562 32.6625 75.6625 33.521873L75.0375 35.084373Q71.83437 34.06875 69.88125 32.740623Q67.5375 34.5375 64.25625 35.396873L63.63125 33.834373Q66.83437 33.053123 68.70937 31.803123Q66.99062 30.084373 66.05312 27.662498L64.88125 27.662498L64.88125 26.178123L72.30312 26.178123L72.61562 25.865623L73.7875 26.881248Q74.33437 27.271873 73.63125 27.349998Q72.77187 29.849998 70.975 31.646873ZM67.45937 27.662498Q68.475 29.459373 69.80312 30.787498Q71.13125 29.459373 71.83437 27.662498L67.45937 27.662498ZM62.146873 17.584373Q62.771873 17.662498 62.225 18.053123L62.225 21.021873L64.64687 21.021873L64.64687 22.506248L62.225 22.506248L62.225 26.568748L63.7875 25.943748L64.33437 27.349998L62.225 28.209373L62.225 34.146873Q62.225 35.396873 60.975 35.396873L59.4125 35.396873L59.178123 33.9125L60.35 33.9125Q60.6625 33.9125 60.6625 33.6L60.6625 28.756248L58.94375 29.459373Q58.865623 30.006248 58.553123 29.693748L57.928123 27.896873L60.6625 27.037498L60.6625 22.506248L57.928123 22.506248L57.928123 21.021873L60.6625 21.021873L60.6625 17.584373L62.146873 17.584373ZM94.49062 24.303123Q92.45937 24.537498 90.58437 24.693748L90.58437 27.349998Q90.58437 31.881248 87.92812 35.1625L86.2875 34.225Q89.02187 31.099998 89.02187 27.037498L89.02187 24.849998Q86.05312 25.084373 83.39687 25.084373L83.39687 23.365623Q86.05312 23.443748 89.02187 23.209373L89.02187 18.443748L90.42812 18.443748Q91.13125 18.599998 90.58437 19.068748L90.58437 23.131248Q92.5375 22.974998 94.25625 22.662498L94.49062 24.303123ZM80.58437 27.115623Q80.58437 29.928123 81.20937 33.053123L79.49062 33.365623Q78.94375 30.553123 78.94375 27.115623Q78.94375 22.584373 79.725 19.224998L81.20937 19.615623Q82.225 19.849998 81.2875 20.318748Q80.58437 23.678123 80.58437 27.115623ZM92.85 16.881248Q94.17812 17.584373 95.74062 18.756248L95.0375 19.849998Q93.39687 18.599998 92.14687 17.974998L92.85 16.881248ZM91.9125 18.834373Q93.1625 19.381248 94.80312 20.709373L94.1 21.803123Q92.30312 20.474998 91.20937 19.928123L91.9125 18.834373ZM113.475 21.334373Q110.74062 21.334373 109.17812 21.881248Q107.45937 22.506248 105.975 23.990623Q104.49062 25.474998 104.49062 27.818748Q104.49062 29.693748 105.6625 30.865623Q107.225 32.428123 111.67812 32.584373L111.05312 34.303123Q106.44375 34.06875 104.64687 32.271873Q102.85 30.474998 102.85 27.896873Q102.85 24.224998 105.74062 22.115623Q102.06875 22.662498 98.24062 23.209373L97.77187 21.412498Q105.42812 20.865623 113.1625 19.537498L113.475 21.334373Z" fill-rule="nonzero"/><path fill="#757575" d="M115.55312 21.162498L115.55312 19.474998L124.81875 19.474998L124.81875 20.834373Q123.44375 22.287498 122.1 24.709373Q120.75625 27.115623 120.0375 29.662498Q119.50625 31.459373 119.35 33.6L117.55312 33.6Q117.58437 31.912498 118.20937 29.521873Q118.85 27.131248 120.0375 24.912498Q121.225 22.678123 122.55312 21.162498L115.55312 21.162498Z" fill-rule="nonzero"/><path fill="#757575" d="M133.4125 28.209373L137.7875 28.209373L137.7875 24.068748L133.4125 24.068748L133.4125 28.209373ZM137.7875 30.474998L137.7875 29.693748L133.4125 29.693748L133.4125 30.553123L131.85 30.553123L131.85 22.584373L139.35 22.584373L139.35 30.474998L137.7875 30.474998ZM129.27188 32.6625L141.85 32.6625L141.85 19.928123L129.27188 19.928123L129.27188 32.6625ZM141.85 34.85L141.85 34.146873L129.27188 34.146873L129.27188 35.240623L127.70937 35.240623L127.70937 18.443748L143.4125 18.443748L143.4125 34.85L141.85 34.85ZM159.58438 30.709373Q160.83438 32.271873 164.27188 33.521873L163.49063 35.240623Q157.39688 33.209373 155.75626 26.646873L155.2875 26.646873Q154.50626 27.740623 153.64688 28.599998L153.64688 32.975L158.1 32.115623L158.33438 33.44375Q154.11563 34.459373 150.05313 35.240623Q149.81876 35.94375 149.58438 35.475L149.0375 33.6L152.08438 33.209373L152.08438 29.849998Q150.05313 31.256248 147.55313 32.115623L146.77188 30.553123Q150.67813 29.459373 153.4125 26.646873L147.1625 26.646873L147.1625 25.162498L154.74063 25.162498L154.74063 23.756248L149.11563 23.756248L149.11563 22.271873L154.74063 22.271873L154.74063 20.865623L148.1 20.865623L148.1 19.381248L154.74063 19.381248L154.74063 17.506248L156.225 17.506248Q156.85 17.584373 156.30313 17.974998L156.30313 19.381248L162.94376 19.381248L162.94376 20.865623L156.30313 20.865623L156.30313 22.271873L161.92813 22.271873L161.92813 23.756248L156.30313 23.756248L156.30313 25.162498L163.88126 25.162498L163.88126 26.646873L157.24063 26.646873Q157.70938 28.131248 158.80313 29.771873Q160.2875 28.521873 161.61563 27.037498L162.7875 28.209373Q162.86563 28.599998 162.39688 28.443748Q161.06876 29.693748 159.58438 30.709373ZM179.975 21.099998Q183.17813 24.381248 184.35 28.990623L182.63126 29.693748Q181.225 24.615623 178.56876 22.115623L179.975 21.099998ZM177.63126 27.349998Q177.63126 31.881248 176.30313 33.209373Q175.52188 33.990623 174.50626 33.990623Q173.02188 33.990623 171.5375 32.271873L172.55313 30.865623Q173.80313 32.115623 174.42813 32.115623Q174.81876 32.115623 175.13126 31.803123Q175.99063 30.943748 175.99063 27.037498Q175.99063 24.849998 175.52188 24.381248Q175.2875 24.146873 174.58438 24.146873Q173.88126 24.146873 172.63126 24.303123Q170.99063 30.084373 168.725 34.225L166.92813 33.6Q169.19376 30.084373 170.9125 24.459373Q169.19376 24.693748 167.55313 24.849998L167.39688 23.131248Q168.80313 23.131248 171.30313 22.896873Q172.00626 20.474998 172.475 17.974998L174.11563 18.521873Q175.05313 18.912498 174.0375 19.224998Q173.56876 20.865623 173.1 22.740623Q174.0375 22.584373 175.05313 22.584373Q176.14688 22.584373 176.69376 23.131248Q177.63126 24.068748 177.63126 27.349998ZM182.00626 17.037498Q183.4125 17.818748 185.13126 19.224998L184.19376 20.162498Q182.475 18.834373 181.06876 17.974998L182.00626 17.037498ZM182.55313 22.037498Q180.75626 20.553123 179.50626 19.771873L180.44376 18.834373Q181.85 19.615623 183.56876 21.021873L182.55313 22.037498ZM190.05313 19.459373Q190.67813 19.537498 190.13126 19.928123L190.13126 24.146873L194.74063 24.146873L194.74063 17.896873L196.225 17.896873Q196.85 17.974998 196.30313 18.365623L196.30313 24.146873L200.83438 24.146873L200.83438 19.537498L202.31876 19.537498Q202.94376 19.615623 202.39688 20.006248L202.39688 26.334373L200.83438 26.334373L200.83438 25.631248L196.30313 25.631248L196.30313 32.35L201.45938 32.35L201.45938 27.584373L202.94376 27.584373Q203.56876 27.662498 203.02188 28.053123L203.02188 34.69375L201.45938 34.69375L201.45938 33.834373L189.35 33.834373L189.35 34.928123L187.7875 34.928123L187.7875 27.506248L189.27188 27.506248Q189.89688 27.584373 189.35 27.974998L189.35 32.35L194.74063 32.35L194.74063 25.631248L190.13126 25.631248L190.13126 26.490623L188.56876 26.490623L188.56876 19.459373L190.05313 19.459373ZM216.61563 33.209373Q217.86563 33.053123 218.725 32.19375Q219.6625 31.256248 219.6625 29.693748Q219.6625 27.974998 218.64688 26.959373Q217.63126 25.943748 215.44376 25.943748Q212.86563 25.943748 211.45938 26.959373Q210.13126 27.896873 208.02188 30.318748L206.69376 29.146873Q212.31876 23.521873 215.20938 19.771873Q212.63126 20.084373 210.05313 20.318748L209.50626 18.521873Q213.33438 18.521873 216.30313 18.131248L217.00626 17.818748L217.86563 18.678123Q218.725 19.459373 217.475 19.693748Q215.13126 22.349998 212.7875 24.928123Q214.42813 24.537498 215.52188 24.537498Q218.49063 24.537498 219.89688 25.943748Q221.30313 27.349998 221.30313 29.537498Q221.30313 31.803123 220.05313 33.053123Q218.17813 34.928123 215.2875 34.928123Q212.55313 34.928123 211.30313 33.678123Q210.2875 32.6625 210.2875 31.256248Q210.2875 30.318748 210.99063 29.615623Q211.77188 28.834373 212.7875 28.834373Q214.19376 28.834373 215.13126 29.771873Q216.225 30.865623 216.61563 33.209373ZM215.05313 33.44375Q214.81876 31.412498 214.11563 30.709373Q213.56876 30.162498 213.02188 30.162498Q212.39688 30.162498 212.08438 30.474998Q211.69376 30.865623 211.69376 31.334373Q211.69376 32.0375 212.31876 32.6625Q213.1 33.44375 214.35 33.44375Q214.6625 33.44375 215.05313 33.44375ZM233.77188 32.6625Q232.83438 31.021873 232.20938 30.318748L233.5375 29.381248Q234.1625 30.084373 235.17813 31.646873L233.77188 32.6625ZM236.81876 33.75625Q237.13126 33.75625 237.13126 33.44375L237.13126 28.834373L230.56876 28.834373L230.56876 27.349998L237.13126 27.349998L237.13126 25.318748L229.70938 25.318748L229.70938 32.740623L228.38126 32.740623L228.38126 32.115623L225.725 32.115623L225.725 33.521873L224.39688 33.521873L224.39688 19.146873L229.70938 19.146873L229.70938 23.834373L234.475 23.834373L234.475 21.568748L231.11563 21.568748L231.11563 20.084373L234.475 20.084373L234.475 17.428123L235.95938 17.428123Q236.58438 17.506248 236.0375 17.896873L236.0375 20.084373L240.02188 20.084373L240.02188 21.568748L236.0375 21.568748L236.0375 23.834373L241.50626 23.834373L241.50626 25.318748L238.69376 25.318748L238.69376 27.349998L241.0375 27.349998L241.0375 28.834373L238.69376 28.834373L238.69376 33.990623Q238.69376 35.240623 237.44376 35.240623L235.80313 35.240623L235.49063 33.75625L236.81876 33.75625ZM225.725 24.615623L228.38126 24.615623L228.38126 20.631248L225.725 20.631248L225.725 24.615623ZM225.725 30.631248L228.38126 30.631248L228.38126 26.099998L225.725 26.099998L225.725 30.631248ZM253.38126 22.584373Q252.05313 30.396873 250.17813 32.271873Q249.1625 33.2875 248.06876 33.2875Q246.81876 33.2875 246.11563 32.584373Q244.24063 30.709373 244.24063 27.896873Q244.24063 24.459373 246.6625 22.037498Q249.31876 19.381248 253.14688 19.381248Q256.58438 19.381248 258.5375 21.334373Q260.725 23.521873 260.725 26.490623Q260.725 29.693748 258.69376 31.724998Q257.36563 33.053123 254.63126 34.303123L252.99063 32.6625Q255.725 31.803123 257.2875 30.240623Q258.77188 28.756248 258.77188 26.646873Q258.77188 24.146873 257.13126 22.506248Q255.49063 20.865623 251.975 21.021873L253.38126 21.724998Q254.31876 22.115623 253.38126 22.584373ZM251.58438 21.099998Q249.55313 21.568748 248.06876 23.053123Q246.0375 25.084373 246.0375 28.053123Q246.0375 29.849998 247.20938 31.021873Q247.44376 31.256248 247.9125 31.256248Q248.38126 31.256248 248.92813 30.709373Q250.725 28.912498 251.58438 21.099998ZM277.2875 23.834373L280.95938 23.834373L280.95938 25.084373L277.67813 25.084373L277.67813 26.881248L280.33438 26.881248L280.33438 28.131248L277.67813 28.131248L277.67813 30.006248L280.33438 30.006248L280.33438 31.256248L277.67813 31.256248L277.67813 33.209373L281.58438 33.209373L281.58438 34.459373L273.69376 34.459373L273.69376 35.240623L272.36563 35.240623L272.36563 26.568748Q271.74063 27.428123 270.80313 28.131248L270.25626 26.646873Q273.225 23.990623 274.08438 21.099998L272.2875 21.099998L272.2875 22.896873L270.95938 22.896873L270.95938 19.849998L274.39688 19.849998Q274.70938 18.599998 274.94376 17.193748L276.50626 17.584373Q276.74063 17.818748 276.35 18.053123Q276.11563 18.990623 275.88126 19.849998L281.42813 19.849998L281.42813 22.584373L280.1 22.584373L280.1 21.099998L275.56876 21.099998Q275.1 22.740623 274.31876 23.834373L275.95938 23.834373L276.975 21.490623L278.45938 21.803123Q278.85 21.959373 278.30313 22.193748L277.2875 23.834373ZM264.08438 20.240623L264.08438 18.756248L270.725 18.756248L270.725 20.240623L267.99063 20.240623Q267.83438 22.662498 266.975 24.693748L270.02188 24.693748L270.02188 33.990623L268.69376 33.990623L268.69376 32.740623L266.6625 32.740623L266.6625 34.771873L265.33438 34.771873L265.33438 27.740623Q264.86563 28.521873 264.31876 29.146873L263.30313 27.818748Q266.0375 24.771873 266.50626 20.240623L264.08438 20.240623ZM273.69376 28.131248L273.69376 30.006248L276.35 30.006248L276.35 28.131248L273.69376 28.131248ZM273.69376 25.084373L273.69376 26.881248L276.35 26.881248L276.35 25.084373L273.69376 25.084373ZM273.69376 31.256248L273.69376 33.209373L276.35 33.209373L276.35 31.256248L273.69376 31.256248ZM266.6625 25.943748L266.6625 31.490623L268.69376 31.490623L268.69376 25.943748L266.6625 25.943748ZM299.39688 22.662498Q298.5375 23.756248 297.20938 24.771873L296.0375 23.678123Q297.52188 22.506248 298.225 21.412498L299.70938 22.349998Q299.94376 22.662498 299.39688 22.662498ZM297.9125 25.162498Q299.70938 26.021873 301.19376 27.271873L300.02188 28.678123Q298.5375 27.349998 296.89688 26.256248L297.9125 25.162498ZM288.69376 26.334373Q287.44376 27.662498 285.88126 28.912498Q285.80313 29.459373 285.49063 29.146873L284.39688 27.818748Q286.27188 26.646873 287.67813 25.240623L288.69376 26.334373ZM288.85 26.881248L289.94376 26.881248L291.35 25.474998Q290.56876 24.615623 289.00626 23.521873L289.86563 22.506248L290.4125 22.896873L291.89688 20.865623L292.99063 21.724998Q293.30313 22.115623 292.75626 22.037498L291.42813 23.599998L292.36563 24.459373L294.475 22.115623L295.49063 23.053123Q295.80313 23.443748 295.17813 23.365623L291.6625 26.881248L294.70938 26.490623L293.92813 25.474998L295.1 24.771873Q296.11563 25.865623 297.05313 27.740623L295.725 28.521873L295.33438 27.662498L293.38126 27.896873L293.38126 29.849998L301.50626 29.849998L301.50626 31.334373L293.38126 31.334373L293.38126 35.240623L291.81876 35.240623L291.81876 31.334373L283.77188 31.334373L283.77188 29.849998L291.81876 29.849998L291.81876 28.131248L289.475 28.287498Q289.39688 28.834373 289.08438 28.521873L288.85 26.881248ZM300.56876 20.709373L284.70938 20.709373L284.70938 19.224998L291.81876 19.224998L291.81876 17.428123L293.30313 17.428123Q294.08438 17.584373 293.38126 18.053123L293.38126 19.224998L300.56876 19.224998L300.56876 20.709373ZM286.0375 21.646873Q287.44376 22.349998 288.5375 23.365623L287.44376 24.693748Q286.42813 23.678123 285.02188 22.818748L286.0375 21.646873ZM313.38126 22.584373Q312.05313 30.396873 310.17813 32.271873Q309.1625 33.2875 308.06876 33.2875Q306.81876 33.2875 306.11563 32.584373Q304.24063 30.709373 304.24063 27.896873Q304.24063 24.459373 306.6625 22.037498Q309.31876 19.381248 313.14688 19.381248Q316.58438 19.381248 318.5375 21.334373Q320.725 23.521873 320.725 26.490623Q320.725 29.693748 318.69376 31.724998Q317.36563 33.053123 314.63126 34.303123L312.99063 32.6625Q315.725 31.803123 317.2875 30.240623Q318.77188 28.756248 318.77188 26.646873Q318.77188 24.146873 317.13126 22.506248Q315.49063 20.865623 311.975 21.021873L313.38126 21.724998Q314.31876 22.115623 313.38126 22.584373ZM311.58438 21.099998Q309.55313 21.568748 308.06876 23.053123Q306.0375 25.084373 306.0375 28.053123Q306.0375 29.849998 307.20938 31.021873Q307.44376 31.256248 307.9125 31.256248Q308.38126 31.256248 308.92813 30.709373Q310.725 28.912498 311.58438 21.099998ZM325.49063 18.287498Q326.89688 19.224998 327.9125 20.709373L326.50626 21.959373Q325.56876 20.631248 324.1625 19.537498L325.49063 18.287498ZM341.74063 33.521873L341.42813 35.00625L330.88126 35.00625Q328.14688 35.00625 326.74063 32.81875L324.31876 35.1625L323.38126 33.365623L326.0375 31.803123L326.0375 26.724998L323.69376 26.724998L323.69376 25.240623L327.6 25.240623L327.6 31.881248Q328.69376 33.521873 331.27188 33.521873L341.74063 33.521873ZM328.45938 24.693748L332.52188 24.693748Q332.9125 24.224998 332.99063 23.834373L329.1625 23.834373L329.1625 20.240623L332.36563 20.240623L332.36563 19.146873L328.69376 19.146873L328.69376 17.896873L340.56876 17.896873L340.56876 19.146873L336.58438 19.146873L336.58438 20.240623L340.02188 20.240623L340.02188 23.834373L334.31876 23.834373Q334.24063 24.224998 333.92813 24.693748L341.11563 24.693748L341.11563 25.943748L337.83438 25.943748Q339.24063 27.271873 341.50626 27.818748L340.95938 29.224998Q339.00626 28.521873 337.44376 27.271873L337.44376 30.084373L332.52188 30.084373L332.52188 30.787498Q332.52188 31.256248 332.99063 31.256248L337.75626 31.256248Q338.45938 31.256248 338.61563 29.928123L340.02188 30.240623Q339.86563 32.50625 338.225 32.50625L332.52188 32.50625Q331.19376 32.50625 331.19376 31.178123L331.19376 29.146873L336.11563 29.146873L336.11563 27.974998L331.89688 27.974998L331.89688 27.428123Q330.33438 28.678123 328.30313 29.459373L327.9125 28.131248Q330.17813 27.428123 331.6625 25.943748L328.45938 25.943748L328.45938 24.693748ZM337.20938 27.037498L336.19376 25.943748L333.225 25.943748Q332.83438 26.490623 332.20938 27.037498L337.20938 27.037498ZM338.69376 22.896873L338.69376 21.178123L336.58438 21.178123L336.58438 22.896873L338.69376 22.896873ZM333.69376 22.896873L335.25626 22.896873L335.25626 21.178123L333.69376 21.178123L333.69376 22.896873ZM332.36563 22.896873L332.36563 21.178123L330.49063 21.178123L330.49063 22.896873L332.36563 22.896873ZM333.69376 20.240623L335.25626 20.240623L335.25626 19.146873L333.69376 19.146873L333.69376 20.240623ZM359.24063 19.537498L359.475 19.224998L360.725 20.240623L360.49063 20.474998Q358.45938 23.990623 356.50626 25.162498L357.2875 25.396873Q357.83438 25.631248 357.20938 25.865623Q357.05313 26.412498 356.81876 26.803123L360.17813 26.803123L360.4125 26.490623L361.81876 27.506248L361.50626 27.818748Q359.00626 34.459373 351.35 35.31875L350.725 33.834373Q354.39688 33.44375 356.50626 31.881248Q355.4125 30.787498 354.31876 30.006248Q353.30313 30.865623 351.58438 31.568748L350.88126 30.162498Q354.70938 28.599998 355.88126 25.396873Q354.70938 26.490623 351.6625 27.271873L350.95938 25.865623Q353.92813 25.240623 355.4125 24.224998Q354.63126 23.287498 353.5375 22.584373Q352.99063 23.131248 352.44376 23.521873L351.35 22.349998Q353.92813 20.162498 354.63126 17.662498L356.0375 18.131248Q356.58438 18.365623 355.95938 18.599998Q355.88126 19.068748 355.56876 19.537498L359.24063 19.537498ZM348.61563 22.584373L351.19376 22.584373L351.19376 24.068748L348.61563 24.068748L348.61563 26.021873Q350.17813 26.724998 351.58438 28.131248L350.56876 29.537498Q349.31876 28.287498 348.61563 27.740623L348.61563 35.31875L347.05313 35.31875L347.05313 27.584373Q346.58438 29.146873 344.475 31.568748L343.30313 30.084373Q346.19376 27.349998 346.89688 24.068748L343.85 24.068748L343.85 22.584373L347.05313 22.584373L347.05313 20.006248Q345.49063 20.240623 344.24063 20.396873L343.85 18.912498Q346.975 18.599998 350.33438 17.662498L351.19376 18.834373Q351.50626 19.303123 350.80313 19.146873Q349.70938 19.459373 348.61563 19.693748L348.61563 22.584373ZM354.31876 21.646873Q355.49063 22.271873 356.58438 23.209373Q357.75626 22.115623 358.5375 20.787498L354.94376 20.787498Q354.63126 21.334373 354.31876 21.646873ZM355.17813 29.068748Q356.27188 29.693748 357.67813 30.943748Q358.85 30.084373 359.70938 28.053123L356.11563 28.053123Q355.64688 28.678123 355.17813 29.068748Z" fill-rule="nonzero"/></svg>