<svg version="1.1" viewBox="0.0 0.0 516.0 319.0" fill="none" stroke="none" stroke-linecap="square" stroke-miterlimit="10" width="516" height="319" xmlns:xlink="http://www.w3.org/1999/xlink" xmlns="http://www.w3.org/2000/svg"><path fill="#ffffff" d="M0 0L516.0 0L516.0 319.0L0 319.0L0 0Z" fill-rule="nonzero"/><path stroke="#333333" stroke-width="1.0" stroke-linecap="butt" d="M68.5 53.5L68.5 249.5" fill-rule="nonzero"/><path stroke="#cccccc" stroke-width="1.0" stroke-linecap="butt" d="M140.5 53.5L140.5 249.5" fill-rule="nonzero"/><path stroke="#cccccc" stroke-width="1.0" stroke-linecap="butt" d="M211.5 53.5L211.5 249.5" fill-rule="nonzero"/><path stroke="#cccccc" stroke-width="1.0" stroke-linecap="butt" d="M283.5 53.5L283.5 249.5" fill-rule="nonzero"/><path stroke="#cccccc" stroke-width="1.0" stroke-linecap="butt" d="M354.5 53.5L354.5 249.5" fill-rule="nonzero"/><path stroke="#cccccc" stroke-width="1.0" stroke-linecap="butt" d="M425.5 53.5L425.5 249.5" fill-rule="nonzero"/><path stroke="#333333" stroke-width="1.0" stroke-linecap="butt" d="M68.5 249.5L425.5 249.5" fill-rule="nonzero"/><path stroke="#cccccc" stroke-width="1.0" stroke-linecap="butt" d="M68.5 200.5L425.5 200.5" fill-rule="nonzero"/><path stroke="#cccccc" stroke-width="1.0" stroke-linecap="butt" d="M68.5 151.5L425.5 151.5" fill-rule="nonzero"/><path stroke="#cccccc" stroke-width="1.0" stroke-linecap="butt" d="M68.5 102.5L425.5 102.5" fill-rule="nonzero"/><path stroke="#cccccc" stroke-width="1.0" stroke-linecap="butt" d="M68.5 53.5L425.5 53.5" fill-rule="nonzero"/><clipPath id="id_0"><path d="M68.95 53.083332L425.88556 53.083332L425.88556 249.05L68.95 249.05L68.95 53.083332Z" clip-rule="nonzero"/></clipPath><path stroke="#4285f4" stroke-width="2.0" stroke-linecap="butt" clip-path="url(#id_0)" d="M68.95 249.04987L104.643555 249.04869L140.33711 249.03806L176.03067 248.94759L211.72423 248.30704L247.41777 245.19615L283.11133 235.51375L318.8049 213.38756L354.49844 174.41762L390.192 126.81865L425.88556 89.14626" fill-rule="nonzero"/><path stroke="#db4437" stroke-width="2.0" stroke-linecap="butt" clip-path="url(#id_0)" d="M68.95 248.46977L104.643555 247.03412L140.33711 242.17168L176.03067 226.92824L211.72423 188.86963L247.41777 131.98914L283.11133 94.8637L318.8049 96.718445L354.49844 129.50336L390.192 175.62837L425.88556 213.03104" fill-rule="nonzero"/><path stroke="#f4b400" stroke-width="2.0" stroke-linecap="butt" clip-path="url(#id_0)" d="M68.95 53.663708L104.643555 55.100533L140.33711 59.973602L176.03067 75.30751L211.72423 114.00667L247.41777 173.99805L283.11133 220.80588L318.8049 241.07733L354.49844 247.26234L390.192 248.73631L425.88556 249.00603" fill-rule="nonzero"/><path fill="#000000" fill-opacity="0.0" clip-path="url(#id_0)" d="M71.95 249.04987C71.95 250.70671 70.60686 252.04987 68.95 252.04987C67.293144 252.04987 65.95 250.70671 65.95 249.04987C65.95 247.393 67.293144 246.04987 68.95 246.04987C70.60686 246.04987 71.95 247.393 71.95 249.04987Z" fill-rule="nonzero"/><path fill="#000000" fill-opacity="0.0" clip-path="url(#id_0)" d="M107.643555 249.04869C107.643555 250.70554 106.30041 252.04869 104.643555 252.04869C102.9867 252.04869 101.643555 250.70554 101.643555 249.04869C101.643555 247.39183 102.9867 246.04869 104.643555 246.04869C106.30041 246.04869 107.643555 247.39183 107.643555 249.04869Z" fill-rule="nonzero"/><path fill="#000000" fill-opacity="0.0" clip-path="url(#id_0)" d="M143.33711 249.03806C143.33711 250.69492 141.99397 252.03806 140.33711 252.03806C138.68025 252.03806 137.33711 250.69492 137.33711 249.03806C137.33711 247.38121 138.68025 246.03806 140.33711 246.03806C141.99397 246.03806 143.33711 247.38121 143.33711 249.03806Z" fill-rule="nonzero"/><path fill="#000000" fill-opacity="0.0" clip-path="url(#id_0)" d="M179.03067 248.94759C179.03067 250.60443 177.68752 251.94759 176.03067 251.94759C174.37381 251.94759 173.03067 250.60443 173.03067 248.94759C173.03067 247.29073 174.37381 245.94759 176.03067 245.94759C177.68752 245.94759 179.03067 247.29073 179.03067 248.94759Z" fill-rule="nonzero"/><path fill="#000000" fill-opacity="0.0" clip-path="url(#id_0)" d="M214.72423 248.30704C214.72423 249.96388 213.38107 251.30704 211.72423 251.30704C210.06737 251.30704 208.72423 249.96388 208.72423 248.30704C208.72423 246.65018 210.06737 245.30704 211.72423 245.30704C213.38107 245.30704 214.72423 246.65018 214.72423 248.30704Z" fill-rule="nonzero"/><path fill="#000000" fill-opacity="0.0" clip-path="url(#id_0)" d="M250.41777 245.19615C250.41777 246.853 249.07463 248.19615 247.41777 248.19615C245.76093 248.19615 244.41777 246.853 244.41777 245.19615C244.41777 243.53929 245.76093 242.19615 247.41777 242.19615C249.07463 242.19615 250.41777 243.53929 250.41777 245.19615Z" fill-rule="nonzero"/><path fill="#000000" fill-opacity="0.0" clip-path="url(#id_0)" d="M286.11133 235.51375C286.11133 237.17061 284.7682 238.51375 283.11133 238.51375C281.45447 238.51375 280.11133 237.17061 280.11133 235.51375C280.11133 233.8569 281.45447 232.51375 283.11133 232.51375C284.7682 232.51375 286.11133 233.8569 286.11133 235.51375Z" fill-rule="nonzero"/><path fill="#000000" fill-opacity="0.0" clip-path="url(#id_0)" d="M321.8049 213.38756C321.8049 215.04442 320.46173 216.38756 318.8049 216.38756C317.14804 216.38756 315.8049 215.04442 315.8049 213.38756C315.8049 211.73071 317.14804 210.38756 318.8049 210.38756C320.46173 210.38756 321.8049 211.73071 321.8049 213.38756Z" fill-rule="nonzero"/><path fill="#000000" fill-opacity="0.0" clip-path="url(#id_0)" d="M357.49844 174.41762C357.49844 176.07448 356.1553 177.41762 354.49844 177.41762C352.84158 177.41762 351.49844 176.07448 351.49844 174.41762C351.49844 172.76077 352.84158 171.41762 354.49844 171.41762C356.1553 171.41762 357.49844 172.76077 357.49844 174.41762Z" fill-rule="nonzero"/><path fill="#000000" fill-opacity="0.0" clip-path="url(#id_0)" d="M393.192 126.81865C393.192 128.4755 391.84885 129.81865 390.192 129.81865C388.53516 129.81865 387.192 128.4755 387.192 126.81865C387.192 125.16179 388.53516 123.81865 390.192 123.81865C391.84885 123.81865 393.192 125.16179 393.192 126.81865Z" fill-rule="nonzero"/><path fill="#000000" fill-opacity="0.0" clip-path="url(#id_0)" d="M428.88556 89.14626C428.88556 90.80312 427.54242 92.14626 425.88556 92.14626C424.2287 92.14626 422.88556 90.80312 422.88556 89.14626C422.88556 87.48941 424.2287 86.14626 425.88556 86.14626C427.54242 86.14626 428.88556 87.48941 428.88556 89.14626Z" fill-rule="nonzero"/><path fill="#000000" fill-opacity="0.0" clip-path="url(#id_0)" d="M71.95 248.46977C71.95 250.12662 70.60686 251.46977 68.95 251.46977C67.293144 251.46977 65.95 250.12662 65.95 248.46977C65.95 246.81291 67.293144 245.46977 68.95 245.46977C70.60686 245.46977 71.95 246.81291 71.95 248.46977Z" fill-rule="nonzero"/><path fill="#000000" fill-opacity="0.0" clip-path="url(#id_0)" d="M107.643555 247.03412C107.643555 248.69096 106.30041 250.03412 104.643555 250.03412C102.9867 250.03412 101.643555 248.69096 101.643555 247.03412C101.643555 245.37726 102.9867 244.03412 104.643555 244.03412C106.30041 244.03412 107.643555 245.37726 107.643555 247.03412Z" fill-rule="nonzero"/><path fill="#000000" fill-opacity="0.0" clip-path="url(#id_0)" d="M143.33711 242.17168C143.33711 243.82852 141.99397 245.17168 140.33711 245.17168C138.68025 245.17168 137.33711 243.82852 137.33711 242.17168C137.33711 240.51482 138.68025 239.17168 140.33711 239.17168C141.99397 239.17168 143.33711 240.51482 143.33711 242.17168Z" fill-rule="nonzero"/><path fill="#000000" fill-opacity="0.0" clip-path="url(#id_0)" d="M179.03067 226.92824C179.03067 228.5851 177.68752 229.92824 176.03067 229.92824C174.37381 229.92824 173.03067 228.5851 173.03067 226.92824C173.03067 225.2714 174.37381 223.92824 176.03067 223.92824C177.68752 223.92824 179.03067 225.2714 179.03067 226.92824Z" fill-rule="nonzero"/><path fill="#000000" fill-opacity="0.0" clip-path="url(#id_0)" d="M214.72423 188.86963C214.72423 190.52649 213.38107 191.86963 211.72423 191.86963C210.06737 191.86963 208.72423 190.52649 208.72423 188.86963C208.72423 187.21278 210.06737 185.86963 211.72423 185.86963C213.38107 185.86963 214.72423 187.21278 214.72423 188.86963Z" fill-rule="nonzero"/><path fill="#000000" fill-opacity="0.0" clip-path="url(#id_0)" d="M250.41777 131.98914C250.41777 133.646 249.07463 134.98914 247.41777 134.98914C245.76093 134.98914 244.41777 133.646 244.41777 131.98914C244.41777 130.33229 245.76093 128.98914 247.41777 128.98914C249.07463 128.98914 250.41777 130.33229 250.41777 131.98914Z" fill-rule="nonzero"/><path fill="#000000" fill-opacity="0.0" clip-path="url(#id_0)" d="M286.11133 94.8637C286.11133 96.52055 284.7682 97.8637 283.11133 97.8637C281.45447 97.8637 280.11133 96.52055 280.11133 94.8637C280.11133 93.20684 281.45447 91.8637 283.11133 91.8637C284.7682 91.8637 286.11133 93.20684 286.11133 94.8637Z" fill-rule="nonzero"/><path fill="#000000" fill-opacity="0.0" clip-path="url(#id_0)" d="M321.8049 96.718445C321.8049 98.375305 320.46173 99.718445 318.8049 99.718445C317.14804 99.718445 315.8049 98.375305 315.8049 96.718445C315.8049 95.06159 317.14804 93.718445 318.8049 93.718445C320.46173 93.718445 321.8049 95.06159 321.8049 96.718445Z" fill-rule="nonzero"/><path fill="#000000" fill-opacity="0.0" clip-path="url(#id_0)" d="M357.49844 129.50336C357.49844 131.16022 356.1553 132.50336 354.49844 132.50336C352.84158 132.50336 351.49844 131.16022 351.49844 129.50336C351.49844 127.84651 352.84158 126.503365 354.49844 126.503365C356.1553 126.503365 357.49844 127.84651 357.49844 129.50336Z" fill-rule="nonzero"/><path fill="#000000" fill-opacity="0.0" clip-path="url(#id_0)" d="M393.192 175.62837C393.192 177.28523 391.84885 178.62837 390.192 178.62837C388.53516 178.62837 387.192 177.28523 387.192 175.62837C387.192 173.97153 388.53516 172.62837 390.192 172.62837C391.84885 172.62837 393.192 173.97153 393.192 175.62837Z" fill-rule="nonzero"/><path fill="#000000" fill-opacity="0.0" clip-path="url(#id_0)" d="M428.88556 213.03104C428.88556 214.6879 427.54242 216.03104 425.88556 216.03104C424.2287 216.03104 422.88556 214.6879 422.88556 213.03104C422.88556 211.37418 424.2287 210.03104 425.88556 210.03104C427.54242 210.03104 428.88556 211.37418 428.88556 213.03104Z" fill-rule="nonzero"/><path fill="#000000" fill-opacity="0.0" clip-path="url(#id_0)" d="M71.95 53.663708C71.95 55.320564 70.60686 56.663708 68.95 56.663708C67.293144 56.663708 65.95 55.320564 65.95 53.663708C65.95 52.006855 67.293144 50.663708 68.95 50.663708C70.60686 50.663708 71.95 52.006855 71.95 53.663708Z" fill-rule="nonzero"/><path fill="#000000" fill-opacity="0.0" clip-path="url(#id_0)" d="M107.643555 55.100533C107.643555 56.757385 106.30041 58.100533 104.643555 58.100533C102.9867 58.100533 101.643555 56.757385 101.643555 55.100533C101.643555 53.44368 102.9867 52.100533 104.643555 52.100533C106.30041 52.100533 107.643555 53.44368 107.643555 55.100533Z" fill-rule="nonzero"/><path fill="#000000" fill-opacity="0.0" clip-path="url(#id_0)" d="M143.33711 59.973602C143.33711 61.63046 141.99397 62.973602 140.33711 62.973602C138.68025 62.973602 137.33711 61.63046 137.33711 59.973602C137.33711 58.31675 138.68025 56.973602 140.33711 56.973602C141.99397 56.973602 143.33711 58.31675 143.33711 59.973602Z" fill-rule="nonzero"/><path fill="#000000" fill-opacity="0.0" clip-path="url(#id_0)" d="M179.03067 75.30751C179.03067 76.96436 177.68752 78.30751 176.03067 78.30751C174.37381 78.30751 173.03067 76.96436 173.03067 75.30751C173.03067 73.65066 174.37381 72.30751 176.03067 72.30751C177.68752 72.30751 179.03067 73.65066 179.03067 75.30751Z" fill-rule="nonzero"/><path fill="#000000" fill-opacity="0.0" clip-path="url(#id_0)" d="M214.72423 114.00667C214.72423 115.66352 213.38107 117.00667 211.72423 117.00667C210.06737 117.00667 208.72423 115.66352 208.72423 114.00667C208.72423 112.349815 210.06737 111.00667 211.72423 111.00667C213.38107 111.00667 214.72423 112.349815 214.72423 114.00667Z" fill-rule="nonzero"/><path fill="#000000" fill-opacity="0.0" clip-path="url(#id_0)" d="M250.41777 173.99805C250.41777 175.6549 249.07463 176.99805 247.41777 176.99805C245.76093 176.99805 244.41777 175.6549 244.41777 173.99805C244.41777 172.3412 245.76093 170.99805 247.41777 170.99805C249.07463 170.99805 250.41777 172.3412 250.41777 173.99805Z" fill-rule="nonzero"/><path fill="#000000" fill-opacity="0.0" clip-path="url(#id_0)" d="M286.11133 220.80588C286.11133 222.46274 284.7682 223.80588 283.11133 223.80588C281.45447 223.80588 280.11133 222.46274 280.11133 220.80588C280.11133 219.14903 281.45447 217.80588 283.11133 217.80588C284.7682 217.80588 286.11133 219.14903 286.11133 220.80588Z" fill-rule="nonzero"/><path fill="#000000" fill-opacity="0.0" clip-path="url(#id_0)" d="M321.8049 241.07733C321.8049 242.73418 320.46173 244.07733 318.8049 244.07733C317.14804 244.07733 315.8049 242.73418 315.8049 241.07733C315.8049 239.42047 317.14804 238.07733 318.8049 238.07733C320.46173 238.07733 321.8049 239.42047 321.8049 241.07733Z" fill-rule="nonzero"/><path fill="#000000" fill-opacity="0.0" clip-path="url(#id_0)" d="M357.49844 247.26234C357.49844 248.9192 356.1553 250.26234 354.49844 250.26234C352.84158 250.26234 351.49844 248.9192 351.49844 247.26234C351.49844 245.60548 352.84158 244.26234 354.49844 244.26234C356.1553 244.26234 357.49844 245.60548 357.49844 247.26234Z" fill-rule="nonzero"/><path fill="#000000" fill-opacity="0.0" clip-path="url(#id_0)" d="M393.192 248.73631C393.192 250.39316 391.84885 251.73631 390.192 251.73631C388.53516 251.73631 387.192 250.39316 387.192 248.73631C387.192 247.07945 388.53516 245.73631 390.192 245.73631C391.84885 245.73631 393.192 247.07945 393.192 248.73631Z" fill-rule="nonzero"/><path fill="#000000" fill-opacity="0.0" clip-path="url(#id_0)" d="M428.88556 249.00603C428.88556 250.66289 427.54242 252.00603 425.88556 252.00603C424.2287 252.00603 422.88556 250.66289 422.88556 249.00603C422.88556 247.34918 424.2287 246.00603 425.88556 246.00603C427.54242 246.00603 428.88556 247.34918 428.88556 249.00603Z" fill-rule="nonzero"/><path fill="#424242" d="M220.3084 298.3156Q221.0584 299.2531 223.1209 300.0031L222.65215 301.03436Q218.9959 299.8156 218.01152 295.8781L217.73027 295.8781Q217.26152 296.53436 216.7459 297.05L216.7459 299.675L219.41777 299.15936L219.5584 299.95624Q217.02715 300.5656 214.58965 301.03436Q214.44902 301.45624 214.3084 301.175L213.98027 300.05L215.8084 299.8156L215.8084 297.8Q214.58965 298.64374 213.08965 299.15936L212.6209 298.22186Q214.96465 297.5656 216.60527 295.8781L212.85527 295.8781L212.85527 294.9875L217.40215 294.9875L217.40215 294.14374L214.02715 294.14374L214.02715 293.2531L217.40215 293.2531L217.40215 292.40936L213.41777 292.40936L213.41777 291.51874L217.40215 291.51874L217.40215 290.39374L218.29277 290.39374Q218.66777 290.4406 218.33965 290.675L218.33965 291.51874L222.32402 291.51874L222.32402 292.40936L218.33965 292.40936L218.33965 293.2531L221.71465 293.2531L221.71465 294.14374L218.33965 294.14374L218.33965 294.9875L222.88652 294.9875L222.88652 295.8781L218.90215 295.8781Q219.1834 296.76874 219.83965 297.7531Q220.73027 297.0031 221.52715 296.1125L222.23027 296.8156Q222.27715 297.05 221.9959 296.95624Q221.19902 297.70624 220.3084 298.3156ZM232.54277 292.55Q234.46465 294.51874 235.16777 297.28436L234.13652 297.70624Q233.29277 294.65936 231.69902 293.15936L232.54277 292.55ZM231.13652 296.3Q231.13652 299.01874 230.33965 299.8156Q229.8709 300.28436 229.26152 300.28436Q228.3709 300.28436 227.48027 299.2531L228.08965 298.40936Q228.83965 299.15936 229.21465 299.15936Q229.44902 299.15936 229.63652 298.97186Q230.15215 298.45624 230.15215 296.1125Q230.15215 294.8 229.8709 294.51874Q229.73027 294.3781 229.3084 294.3781Q228.88652 294.3781 228.13652 294.47186Q227.15215 297.9406 225.79277 300.425L224.71465 300.05Q226.07402 297.9406 227.10527 294.5656Q226.07402 294.70624 225.08965 294.8L224.9959 293.76874Q225.83965 293.76874 227.33965 293.6281Q227.76152 292.175 228.04277 290.675L229.02715 291.0031Q229.58965 291.2375 228.98027 291.425Q228.69902 292.40936 228.41777 293.53436Q228.98027 293.4406 229.58965 293.4406Q230.2459 293.4406 230.57402 293.76874Q231.13652 294.33124 231.13652 296.3ZM233.76152 290.1125Q234.60527 290.58124 235.63652 291.425L235.07402 291.9875Q234.04277 291.1906 233.19902 290.675L233.76152 290.1125ZM234.08965 293.1125Q233.01152 292.22186 232.26152 291.7531L232.82402 291.1906Q233.66777 291.65936 234.69902 292.5031L234.08965 293.1125ZM238.58965 291.5656Q238.96465 291.6125 238.63652 291.84686L238.63652 294.3781L241.40215 294.3781L241.40215 290.6281L242.29277 290.6281Q242.66777 290.675 242.33965 290.90936L242.33965 294.3781L245.0584 294.3781L245.0584 291.6125L245.94902 291.6125Q246.32402 291.65936 245.9959 291.89374L245.9959 295.6906L245.0584 295.6906L245.0584 295.26874L242.33965 295.26874L242.33965 299.3L245.4334 299.3L245.4334 296.4406L246.32402 296.4406Q246.69902 296.4875 246.3709 296.72186L246.3709 300.70624L245.4334 300.70624L245.4334 300.1906L238.16777 300.1906L238.16777 300.84686L237.23027 300.84686L237.23027 296.39374L238.1209 296.39374Q238.4959 296.4406 238.16777 296.675L238.16777 299.3L241.40215 299.3L241.40215 295.26874L238.63652 295.26874L238.63652 295.78436L237.69902 295.78436L237.69902 291.5656L238.58965 291.5656ZM258.1834 299.4406L258.1834 300.47186L256.1209 300.47186Q254.33965 300.47186 252.7459 299.6281L253.16777 298.78436Q254.38652 299.4406 256.1209 299.4406L258.1834 299.4406ZM251.71465 293.95624Q251.01152 298.1281 249.98027 300.5656L248.94902 300.2375Q250.21465 297.28436 250.73027 294.05Q249.60527 294.14374 248.71465 294.14374L248.52715 293.20624Q249.83965 293.20624 250.8709 293.1125Q251.0584 291.65936 251.19902 290.58124L252.13652 290.76874Q252.65215 290.90936 252.23027 291.14374Q252.08965 291.70624 251.85527 293.01874Q252.9334 292.8781 253.82402 292.64374L254.01152 293.58124Q252.79277 293.8156 251.71465 293.95624ZM257.94904 295.55Q255.23027 295.64374 253.6834 296.3L253.40215 295.3625Q255.41777 294.5656 257.76154 294.5656L257.94904 295.55ZM263.6053 296.8156L266.2303 296.8156L266.2303 294.33124L263.6053 294.33124L263.6053 296.8156ZM266.2303 298.175L266.2303 297.70624L263.6053 297.70624L263.6053 298.22186L262.6678 298.22186L262.6678 293.4406L267.1678 293.4406L267.1678 298.175L266.2303 298.175ZM261.1209 299.4875L268.6678 299.4875L268.6678 291.84686L261.1209 291.84686L261.1209 299.4875ZM268.6678 300.8L268.6678 300.3781L261.1209 300.3781L261.1209 301.03436L260.1834 301.03436L260.1834 290.95624L269.6053 290.95624L269.6053 300.8L268.6678 300.8ZM279.63654 297.47186Q280.2928 296.20624 280.4334 293.6281L278.83966 293.6281Q278.9803 296.20624 279.63654 297.47186ZM281.3709 293.6281Q281.27716 296.53436 280.2459 298.3156Q280.9959 299.2531 282.3553 299.95624L281.7459 300.9875Q280.2459 300.0031 279.63654 299.1125Q278.5584 300.33124 276.3084 301.22186L275.83966 300.28436Q278.27716 299.3 279.07404 298.26874Q278.27716 296.72186 278.1834 295.175Q277.90216 295.8781 277.6209 296.2531L276.82404 295.64374Q278.2303 293.58124 278.51154 290.53436L279.4959 290.76874Q279.77716 290.95624 279.3553 291.05Q279.21466 291.89374 278.9803 292.7375L282.1678 292.7375L282.1678 293.6281L281.3709 293.6281ZM277.01154 291.3781Q276.7303 292.08124 276.3553 292.55L275.6053 292.1281Q275.9803 291.51874 276.3084 290.72186L277.15216 291.14374Q277.33966 291.33124 277.01154 291.3781ZM274.01154 297.9875Q274.6678 298.175 275.1834 298.40936Q275.5584 297.9875 275.7928 297.14374L274.4334 297.14374Q274.2459 297.5656 274.01154 297.9875ZM273.3553 299.15936L272.6053 298.7375Q273.07404 298.03436 273.5428 297.14374L271.76154 297.14374L271.76154 296.39374L273.82404 296.39374Q274.1053 295.78436 274.2459 295.3625L275.13654 295.59686Q275.32404 295.78436 274.9959 295.83124L274.71466 296.39374L277.38654 296.39374L277.38654 297.14374L276.6834 297.14374Q276.44904 298.08124 275.9803 298.7375Q276.40216 298.925 276.8709 299.20624L276.44904 299.95624Q275.9334 299.6281 275.51154 299.4406Q274.2928 300.65936 272.2303 300.9406L271.90216 300.09686Q273.7303 299.90936 274.71466 299.0656Q274.19904 298.83124 273.6834 298.64374L273.3553 299.15936ZM274.2928 290.34686L275.0428 290.34686Q275.4178 290.39374 275.08966 290.6281L275.08966 292.64374L277.4803 292.64374L277.4803 293.39374L275.51154 293.39374Q276.02716 294.0031 277.1053 294.5656L276.58966 295.3625Q275.7928 294.89374 275.08966 294.05L275.08966 295.175L274.2928 295.175L274.2928 294.28436Q273.5428 295.22186 272.2303 295.97186L271.6209 295.22186Q273.07404 294.47186 274.01154 293.39374L271.8553 293.39374L271.8553 292.64374L274.2928 292.64374L274.2928 290.34686ZM272.9803 292.5031Q272.65216 291.8 272.13654 291.28436L272.88654 290.8156Q273.44904 291.3781 273.7303 291.9875L272.9803 292.5031Z" fill-rule="nonzero"/><path fill="#757575" d="M36.0125 249.90938Q36.0125 251.81563 35.35625 252.75313Q34.715626 253.675 33.325 253.675Q31.965626 253.675 31.309376 252.76875Q30.653126 251.8625 30.621876 250.05L30.621876 248.6125Q30.621876 246.72188 31.2625 245.81563Q31.91875 244.89375 33.309376 244.89375Q34.684376 244.89375 35.340626 245.78438Q35.996876 246.65938 36.0125 248.50313L36.0125 249.90938ZM34.91875 248.425Q34.91875 247.05 34.528126 246.425Q34.153126 245.78438 33.309376 245.78438Q32.48125 245.78438 32.090626 246.425Q31.715626 247.05 31.715626 248.34688L31.715626 250.08125Q31.715626 251.45625 32.10625 252.12813Q32.5125 252.78438 33.325 252.78438Q34.121876 252.78438 34.5125 252.15938Q34.903126 251.53438 34.91875 250.20625L34.91875 248.425ZM37.79375 252.9875Q37.79375 252.70625 37.95 252.51875Q38.121876 252.33125 38.45 252.33125Q38.79375 252.33125 38.965626 252.51875Q39.1375 252.70625 39.1375 252.9875Q39.1375 253.25313 38.965626 253.44063Q38.79375 253.6125 38.45 253.6125Q38.121876 253.6125 37.95 253.44063Q37.79375 253.25313 37.79375 252.9875ZM46.0125 249.90938Q46.0125 251.81563 45.35625 252.75313Q44.715626 253.675 43.325 253.675Q41.965626 253.675 41.309376 252.76875Q40.653126 251.8625 40.621876 250.05L40.621876 248.6125Q40.621876 246.72188 41.2625 245.81563Q41.91875 244.89375 43.309376 244.89375Q44.684376 244.89375 45.340626 245.78438Q45.996876 246.65938 46.0125 248.50313L46.0125 249.90938ZM44.91875 248.425Q44.91875 247.05 44.528126 246.425Q44.153126 245.78438 43.309376 245.78438Q42.48125 245.78438 42.090626 246.425Q41.715626 247.05 41.715626 248.34688L41.715626 250.08125Q41.715626 251.45625 42.10625 252.12813Q42.5125 252.78438 43.325 252.78438Q44.121876 252.78438 44.5125 252.15938Q44.903126 251.53438 44.91875 250.20625L44.91875 248.425ZM53.0125 249.90938Q53.0125 251.81563 52.35625 252.75313Q51.715626 253.675 50.325 253.675Q48.965626 253.675 48.309376 252.76875Q47.653126 251.8625 47.621876 250.05L47.621876 248.6125Q47.621876 246.72188 48.2625 245.81563Q48.91875 244.89375 50.309376 244.89375Q51.684376 244.89375 52.340626 245.78438Q52.996876 246.65938 53.0125 248.50313L53.0125 249.90938ZM51.91875 248.425Q51.91875 247.05 51.528126 246.425Q51.153126 245.78438 50.309376 245.78438Q49.48125 245.78438 49.090626 246.425Q48.715626 247.05 48.715626 248.34688L48.715626 250.08125Q48.715626 251.45625 49.10625 252.12813Q49.5125 252.78438 50.325 252.78438Q51.121876 252.78438 51.5125 252.15938Q51.903126 251.53438 51.91875 250.20625L51.91875 248.425ZM54.559376 246.65938Q54.559376 245.89375 55.04375 245.39375Q55.54375 244.89375 56.309376 244.89375Q57.090626 244.89375 57.575 245.39375Q58.059376 245.89375 58.059376 246.69063L58.059376 247.1125Q58.059376 247.87813 57.559376 248.37813Q57.075 248.8625 56.325 248.8625Q55.559376 248.8625 55.059376 248.37813Q54.559376 247.87813 54.559376 247.06563L54.559376 246.65938ZM55.371876 247.1125Q55.371876 247.56563 55.621876 247.8625Q55.8875 248.15938 56.325 248.15938Q56.746876 248.15938 56.996876 247.87813Q57.246876 247.58125 57.246876 247.08125L57.246876 246.65938Q57.246876 246.20625 56.996876 245.90938Q56.746876 245.59688 56.309376 245.59688Q55.871876 245.59688 55.621876 245.90938Q55.371876 246.20625 55.371876 246.675L55.371876 247.1125ZM58.715626 251.45625Q58.715626 250.69063 59.2 250.20625Q59.7 249.70625 60.465626 249.70625Q61.23125 249.70625 61.715626 250.20625Q62.215626 250.69063 62.215626 251.50313L62.215626 251.90938Q62.215626 252.675 61.73125 253.175Q61.246876 253.675 60.48125 253.675Q59.715626 253.675 59.215626 253.19063Q58.715626 252.69063 58.715626 251.87813L58.715626 251.45625ZM59.528126 251.90938Q59.528126 252.37813 59.778126 252.675Q60.04375 252.97188 60.48125 252.97188Q60.903126 252.97188 61.153126 252.69063Q61.403126 252.39375 61.403126 251.89375L61.403126 251.45625Q61.403126 250.9875 61.1375 250.70625Q60.8875 250.40938 60.465626 250.40938Q60.04375 250.40938 59.778126 250.70625Q59.528126 250.9875 59.528126 251.4875L59.528126 251.90938ZM56.575 252.90938L55.95 252.51875L60.121876 245.84688L60.73125 246.2375L56.575 252.90938Z" fill-rule="nonzero"/><path fill="#757575" d="M29.246876 204.55833L23.653126 204.55833L23.653126 203.77708L26.60625 200.49583Q27.2625 199.74583 27.5125 199.29271Q27.7625 198.82396 27.7625 198.32396Q27.7625 197.65208 27.35625 197.23021Q26.965626 196.79271 26.278126 196.79271Q25.48125 196.79271 25.028126 197.26146Q24.575 197.71458 24.575 198.54271L23.496876 198.54271Q23.496876 197.35521 24.246876 196.63646Q25.0125 195.90208 26.278126 195.90208Q27.48125 195.90208 28.16875 196.52708Q28.85625 197.15208 28.85625 198.19896Q28.85625 199.44896 27.246876 201.19896L24.965626 203.66771L29.246876 203.66771L29.246876 204.55833ZM31.153126 200.27708L31.590626 196.02708L35.965626 196.02708L35.965626 197.02708L32.5125 197.02708L32.246876 199.35521Q32.8875 198.98021 33.684376 198.98021Q34.840626 198.98021 35.528126 199.76146Q36.215626 200.52708 36.215626 201.83958Q36.215626 203.15208 35.496876 203.91771Q34.79375 204.68333 33.5125 204.68333Q32.3875 204.68333 31.66875 204.05833Q30.95 203.41771 30.85625 202.30833L31.871876 202.30833Q31.98125 203.04271 32.403126 203.41771Q32.825 203.79271 33.5125 203.79271Q34.2625 203.79271 34.7 203.27708Q35.1375 202.76146 35.1375 201.85521Q35.1375 200.99583 34.66875 200.48021Q34.2 199.96458 33.41875 199.96458Q32.715626 199.96458 32.309376 200.26146L32.028126 200.49583L31.153126 200.27708ZM37.79375 203.99583Q37.79375 203.71458 37.95 203.52708Q38.121876 203.33958 38.45 203.33958Q38.79375 203.33958 38.965626 203.52708Q39.1375 203.71458 39.1375 203.99583Q39.1375 204.26146 38.965626 204.44896Q38.79375 204.62083 38.45 204.62083Q38.121876 204.62083 37.95 204.44896Q37.79375 204.26146 37.79375 203.99583ZM46.0125 200.91771Q46.0125 202.82396 45.35625 203.76146Q44.715626 204.68333 43.325 204.68333Q41.965626 204.68333 41.309376 203.77708Q40.653126 202.87083 40.621876 201.05833L40.621876 199.62083Q40.621876 197.73021 41.2625 196.82396Q41.91875 195.90208 43.309376 195.90208Q44.684376 195.90208 45.340626 196.79271Q45.996876 197.66771 46.0125 199.51146L46.0125 200.91771ZM44.91875 199.43333Q44.91875 198.05833 44.528126 197.43333Q44.153126 196.79271 43.309376 196.79271Q42.48125 196.79271 42.090626 197.43333Q41.715626 198.05833 41.715626 199.35521L41.715626 201.08958Q41.715626 202.46458 42.10625 203.13646Q42.5125 203.79271 43.325 203.79271Q44.121876 203.79271 44.5125 203.16771Q44.903126 202.54271 44.91875 201.21458L44.91875 199.43333ZM53.0125 200.91771Q53.0125 202.82396 52.35625 203.76146Q51.715626 204.68333 50.325 204.68333Q48.965626 204.68333 48.309376 203.77708Q47.653126 202.87083 47.621876 201.05833L47.621876 199.62083Q47.621876 197.73021 48.2625 196.82396Q48.91875 195.90208 50.309376 195.90208Q51.684376 195.90208 52.340626 196.79271Q52.996876 197.66771 53.0125 199.51146L53.0125 200.91771ZM51.91875 199.43333Q51.91875 198.05833 51.528126 197.43333Q51.153126 196.79271 50.309376 196.79271Q49.48125 196.79271 49.090626 197.43333Q48.715626 198.05833 48.715626 199.35521L48.715626 201.08958Q48.715626 202.46458 49.10625 203.13646Q49.5125 203.79271 50.325 203.79271Q51.121876 203.79271 51.5125 203.16771Q51.903126 202.54271 51.91875 201.21458L51.91875 199.43333ZM54.559376 197.66771Q54.559376 196.90208 55.04375 196.40208Q55.54375 195.90208 56.309376 195.90208Q57.090626 195.90208 57.575 196.40208Q58.059376 196.90208 58.059376 197.69896L58.059376 198.12083Q58.059376 198.88646 57.559376 199.38646Q57.075 199.87083 56.325 199.87083Q55.559376 199.87083 55.059376 199.38646Q54.559376 198.88646 54.559376 198.07396L54.559376 197.66771ZM55.371876 198.12083Q55.371876 198.57396 55.621876 198.87083Q55.8875 199.16771 56.325 199.16771Q56.746876 199.16771 56.996876 198.88646Q57.246876 198.58958 57.246876 198.08958L57.246876 197.66771Q57.246876 197.21458 56.996876 196.91771Q56.746876 196.60521 56.309376 196.60521Q55.871876 196.60521 55.621876 196.91771Q55.371876 197.21458 55.371876 197.68333L55.371876 198.12083ZM58.715626 202.46458Q58.715626 201.69896 59.2 201.21458Q59.7 200.71458 60.465626 200.71458Q61.23125 200.71458 61.715626 201.21458Q62.215626 201.69896 62.215626 202.51146L62.215626 202.91771Q62.215626 203.68333 61.73125 204.18333Q61.246876 204.68333 60.48125 204.68333Q59.715626 204.68333 59.215626 204.19896Q58.715626 203.69896 58.715626 202.88646L58.715626 202.46458ZM59.528126 202.91771Q59.528126 203.38646 59.778126 203.68333Q60.04375 203.98021 60.48125 203.98021Q60.903126 203.98021 61.153126 203.69896Q61.403126 203.40208 61.403126 202.90208L61.403126 202.46458Q61.403126 201.99583 61.1375 201.71458Q60.8875 201.41771 60.465626 201.41771Q60.04375 201.41771 59.778126 201.71458Q59.528126 201.99583 59.528126 202.49583L59.528126 202.91771ZM56.575 203.91771L55.95 203.52708L60.121876 196.85521L60.73125 197.24583L56.575 203.91771Z" fill-rule="nonzero"/><path fill="#757575" d="M24.153126 151.28542L24.590626 147.03542L28.965626 147.03542L28.965626 148.03542L25.5125 148.03542L25.246876 150.36354Q25.8875 149.98854 26.684376 149.98854Q27.840626 149.98854 28.528126 150.76979Q29.215626 151.53542 29.215626 152.84792Q29.215626 154.16042 28.496876 154.92604Q27.79375 155.69167 26.5125 155.69167Q25.3875 155.69167 24.66875 155.06667Q23.95 154.42604 23.85625 153.31667L24.871876 153.31667Q24.98125 154.05104 25.403126 154.42604Q25.825 154.80104 26.5125 154.80104Q27.2625 154.80104 27.7 154.28542Q28.1375 153.76979 28.1375 152.86354Q28.1375 152.00417 27.66875 151.48854Q27.2 150.97292 26.41875 150.97292Q25.715626 150.97292 25.309376 151.26979L25.028126 151.50417L24.153126 151.28542ZM36.0125 151.92604Q36.0125 153.83229 35.35625 154.76979Q34.715626 155.69167 33.325 155.69167Q31.965626 155.69167 31.309376 154.78542Q30.653126 153.87917 30.621876 152.06667L30.621876 150.62917Q30.621876 148.73854 31.2625 147.83229Q31.91875 146.91042 33.309376 146.91042Q34.684376 146.91042 35.340626 147.80104Q35.996876 148.67604 36.0125 150.51979L36.0125 151.92604ZM34.91875 150.44167Q34.91875 149.06667 34.528126 148.44167Q34.153126 147.80104 33.309376 147.80104Q32.48125 147.80104 32.090626 148.44167Q31.715626 149.06667 31.715626 150.36354L31.715626 152.09792Q31.715626 153.47292 32.10625 154.14479Q32.5125 154.80104 33.325 154.80104Q34.121876 154.80104 34.5125 154.17604Q34.903126 153.55104 34.91875 152.22292L34.91875 150.44167ZM37.79375 155.00417Q37.79375 154.72292 37.95 154.53542Q38.121876 154.34792 38.45 154.34792Q38.79375 154.34792 38.965626 154.53542Q39.1375 154.72292 39.1375 155.00417Q39.1375 155.26979 38.965626 155.45729Q38.79375 155.62917 38.45 155.62917Q38.121876 155.62917 37.95 155.45729Q37.79375 155.26979 37.79375 155.00417ZM46.0125 151.92604Q46.0125 153.83229 45.35625 154.76979Q44.715626 155.69167 43.325 155.69167Q41.965626 155.69167 41.309376 154.78542Q40.653126 153.87917 40.621876 152.06667L40.621876 150.62917Q40.621876 148.73854 41.2625 147.83229Q41.91875 146.91042 43.309376 146.91042Q44.684376 146.91042 45.340626 147.80104Q45.996876 148.67604 46.0125 150.51979L46.0125 151.92604ZM44.91875 150.44167Q44.91875 149.06667 44.528126 148.44167Q44.153126 147.80104 43.309376 147.80104Q42.48125 147.80104 42.090626 148.44167Q41.715626 149.06667 41.715626 150.36354L41.715626 152.09792Q41.715626 153.47292 42.10625 154.14479Q42.5125 154.80104 43.325 154.80104Q44.121876 154.80104 44.5125 154.17604Q44.903126 153.55104 44.91875 152.22292L44.91875 150.44167ZM53.0125 151.92604Q53.0125 153.83229 52.35625 154.76979Q51.715626 155.69167 50.325 155.69167Q48.965626 155.69167 48.309376 154.78542Q47.653126 153.87917 47.621876 152.06667L47.621876 150.62917Q47.621876 148.73854 48.2625 147.83229Q48.91875 146.91042 50.309376 146.91042Q51.684376 146.91042 52.340626 147.80104Q52.996876 148.67604 53.0125 150.51979L53.0125 151.92604ZM51.91875 150.44167Q51.91875 149.06667 51.528126 148.44167Q51.153126 147.80104 50.309376 147.80104Q49.48125 147.80104 49.090626 148.44167Q48.715626 149.06667 48.715626 150.36354L48.715626 152.09792Q48.715626 153.47292 49.10625 154.14479Q49.5125 154.80104 50.325 154.80104Q51.121876 154.80104 51.5125 154.17604Q51.903126 153.55104 51.91875 152.22292L51.91875 150.44167ZM54.559376 148.67604Q54.559376 147.91042 55.04375 147.41042Q55.54375 146.91042 56.309376 146.91042Q57.090626 146.91042 57.575 147.41042Q58.059376 147.91042 58.059376 148.70729L58.059376 149.12917Q58.059376 149.89479 57.559376 150.39479Q57.075 150.87917 56.325 150.87917Q55.559376 150.87917 55.059376 150.39479Q54.559376 149.89479 54.559376 149.08229L54.559376 148.67604ZM55.371876 149.12917Q55.371876 149.58229 55.621876 149.87917Q55.8875 150.17604 56.325 150.17604Q56.746876 150.17604 56.996876 149.89479Q57.246876 149.59792 57.246876 149.09792L57.246876 148.67604Q57.246876 148.22292 56.996876 147.92604Q56.746876 147.61354 56.309376 147.61354Q55.871876 147.61354 55.621876 147.92604Q55.371876 148.22292 55.371876 148.69167L55.371876 149.12917ZM58.715626 153.47292Q58.715626 152.70729 59.2 152.22292Q59.7 151.72292 60.465626 151.72292Q61.23125 151.72292 61.715626 152.22292Q62.215626 152.70729 62.215626 153.51979L62.215626 153.92604Q62.215626 154.69167 61.73125 155.19167Q61.246876 155.69167 60.48125 155.69167Q59.715626 155.69167 59.215626 155.20729Q58.715626 154.70729 58.715626 153.89479L58.715626 153.47292ZM59.528126 153.92604Q59.528126 154.39479 59.778126 154.69167Q60.04375 154.98854 60.48125 154.98854Q60.903126 154.98854 61.153126 154.70729Q61.403126 154.41042 61.403126 153.91042L61.403126 153.47292Q61.403126 153.00417 61.1375 152.72292Q60.8875 152.42604 60.465626 152.42604Q60.04375 152.42604 59.778126 152.72292Q59.528126 153.00417 59.528126 153.50417L59.528126 153.92604ZM56.575 154.92604L55.95 154.53542L60.121876 147.86354L60.73125 148.25417L56.575 154.92604Z" fill-rule="nonzero"/><path fill="#757575" d="M29.16875 98.65312L25.6375 106.575L24.496876 106.575L28.0125 98.93437L23.403126 98.93437L23.403126 98.04375L29.16875 98.04375L29.16875 98.65312ZM31.153126 102.29375L31.590626 98.04375L35.965626 98.04375L35.965626 99.04375L32.5125 99.04375L32.246876 101.37187Q32.8875 100.99687 33.684376 100.99687Q34.840626 100.99687 35.528126 101.77812Q36.215626 102.54375 36.215626 103.85625Q36.215626 105.16875 35.496876 105.93437Q34.79375 106.7 33.5125 106.7Q32.3875 106.7 31.66875 106.075Q30.95 105.43437 30.85625 104.325L31.871876 104.325Q31.98125 105.05937 32.403126 105.43437Q32.825 105.80937 33.5125 105.80937Q34.2625 105.80937 34.7 105.29375Q35.1375 104.77812 35.1375 103.87187Q35.1375 103.0125 34.66875 102.49687Q34.2 101.98125 33.41875 101.98125Q32.715626 101.98125 32.309376 102.27812L32.028126 102.5125L31.153126 102.29375ZM37.79375 106.0125Q37.79375 105.73125 37.95 105.54375Q38.121876 105.35625 38.45 105.35625Q38.79375 105.35625 38.965626 105.54375Q39.1375 105.73125 39.1375 106.0125Q39.1375 106.27812 38.965626 106.46562Q38.79375 106.6375 38.45 106.6375Q38.121876 106.6375 37.95 106.46562Q37.79375 106.27812 37.79375 106.0125ZM46.0125 102.93437Q46.0125 104.84062 45.35625 105.77812Q44.715626 106.7 43.325 106.7Q41.965626 106.7 41.309376 105.79375Q40.653126 104.8875 40.621876 103.075L40.621876 101.6375Q40.621876 99.74687 41.2625 98.84062Q41.91875 97.91875 43.309376 97.91875Q44.684376 97.91875 45.340626 98.80937Q45.996876 99.68437 46.0125 101.52812L46.0125 102.93437ZM44.91875 101.45Q44.91875 100.075 44.528126 99.45Q44.153126 98.80937 43.309376 98.80937Q42.48125 98.80937 42.090626 99.45Q41.715626 100.075 41.715626 101.37187L41.715626 103.10625Q41.715626 104.48125 42.10625 105.15312Q42.5125 105.80937 43.325 105.80937Q44.121876 105.80937 44.5125 105.18437Q44.903126 104.55937 44.91875 103.23125L44.91875 101.45ZM53.0125 102.93437Q53.0125 104.84062 52.35625 105.77812Q51.715626 106.7 50.325 106.7Q48.965626 106.7 48.309376 105.79375Q47.653126 104.8875 47.621876 103.075L47.621876 101.6375Q47.621876 99.74687 48.2625 98.84062Q48.91875 97.91875 50.309376 97.91875Q51.684376 97.91875 52.340626 98.80937Q52.996876 99.68437 53.0125 101.52812L53.0125 102.93437ZM51.91875 101.45Q51.91875 100.075 51.528126 99.45Q51.153126 98.80937 50.309376 98.80937Q49.48125 98.80937 49.090626 99.45Q48.715626 100.075 48.715626 101.37187L48.715626 103.10625Q48.715626 104.48125 49.10625 105.15312Q49.5125 105.80937 50.325 105.80937Q51.121876 105.80937 51.5125 105.18437Q51.903126 104.55937 51.91875 103.23125L51.91875 101.45ZM54.559376 99.68437Q54.559376 98.91875 55.04375 98.41875Q55.54375 97.91875 56.309376 97.91875Q57.090626 97.91875 57.575 98.41875Q58.059376 98.91875 58.059376 99.71562L58.059376 100.1375Q58.059376 100.90312 57.559376 101.40312Q57.075 101.8875 56.325 101.8875Q55.559376 101.8875 55.059376 101.40312Q54.559376 100.90312 54.559376 100.09062L54.559376 99.68437ZM55.371876 100.1375Q55.371876 100.59062 55.621876 100.8875Q55.8875 101.18437 56.325 101.18437Q56.746876 101.18437 56.996876 100.90312Q57.246876 100.60625 57.246876 100.10625L57.246876 99.68437Q57.246876 99.23125 56.996876 98.93437Q56.746876 98.62187 56.309376 98.62187Q55.871876 98.62187 55.621876 98.93437Q55.371876 99.23125 55.371876 99.7L55.371876 100.1375ZM58.715626 104.48125Q58.715626 103.71562 59.2 103.23125Q59.7 102.73125 60.465626 102.73125Q61.23125 102.73125 61.715626 103.23125Q62.215626 103.71562 62.215626 104.52812L62.215626 104.93437Q62.215626 105.7 61.73125 106.2Q61.246876 106.7 60.48125 106.7Q59.715626 106.7 59.215626 106.21562Q58.715626 105.71562 58.715626 104.90312L58.715626 104.48125ZM59.528126 104.93437Q59.528126 105.40312 59.778126 105.7Q60.04375 105.99687 60.48125 105.99687Q60.903126 105.99687 61.153126 105.71562Q61.403126 105.41875 61.403126 104.91875L61.403126 104.48125Q61.403126 104.0125 61.1375 103.73125Q60.8875 103.43437 60.465626 103.43437Q60.04375 103.43437 59.778126 103.73125Q59.528126 104.0125 59.528126 104.5125L59.528126 104.93437ZM56.575 105.93437L55.95 105.54375L60.121876 98.87187L60.73125 99.2625L56.575 105.93437Z" fill-rule="nonzero"/><path fill="#757575" d="M20.215626 57.583332L19.1375 57.583332L19.1375 50.364582L16.95 51.161457L16.95 50.177082L20.059376 49.005207L20.215626 49.005207L20.215626 57.583332ZM29.0125 53.942707Q29.0125 55.848957 28.35625 56.786457Q27.715626 57.708332 26.325 57.708332Q24.965626 57.708332 24.309376 56.802082Q23.653126 55.895832 23.621876 54.083332L23.621876 52.645832Q23.621876 50.755207 24.2625 49.848957Q24.91875 48.927082 26.309376 48.927082Q27.684376 48.927082 28.340626 49.817707Q28.996876 50.692707 29.0125 52.536457L29.0125 53.942707ZM27.91875 52.458332Q27.91875 51.083332 27.528126 50.458332Q27.153126 49.817707 26.309376 49.817707Q25.48125 49.817707 25.090626 50.458332Q24.715626 51.083332 24.715626 52.380207L24.715626 54.114582Q24.715626 55.489582 25.10625 56.161457Q25.5125 56.817707 26.325 56.817707Q27.121876 56.817707 27.5125 56.192707Q27.903126 55.567707 27.91875 54.239582L27.91875 52.458332ZM36.0125 53.942707Q36.0125 55.848957 35.35625 56.786457Q34.715626 57.708332 33.325 57.708332Q31.965626 57.708332 31.309376 56.802082Q30.653126 55.895832 30.621876 54.083332L30.621876 52.645832Q30.621876 50.755207 31.2625 49.848957Q31.91875 48.927082 33.309376 48.927082Q34.684376 48.927082 35.340626 49.817707Q35.996876 50.692707 36.0125 52.536457L36.0125 53.942707ZM34.91875 52.458332Q34.91875 51.083332 34.528126 50.458332Q34.153126 49.817707 33.309376 49.817707Q32.48125 49.817707 32.090626 50.458332Q31.715626 51.083332 31.715626 52.380207L31.715626 54.114582Q31.715626 55.489582 32.10625 56.161457Q32.5125 56.817707 33.325 56.817707Q34.121876 56.817707 34.5125 56.192707Q34.903126 55.567707 34.91875 54.239582L34.91875 52.458332ZM37.79375 57.020832Q37.79375 56.739582 37.95 56.552082Q38.121876 56.364582 38.45 56.364582Q38.79375 56.364582 38.965626 56.552082Q39.1375 56.739582 39.1375 57.020832Q39.1375 57.286457 38.965626 57.473957Q38.79375 57.645832 38.45 57.645832Q38.121876 57.645832 37.95 57.473957Q37.79375 57.286457 37.79375 57.020832ZM46.0125 53.942707Q46.0125 55.848957 45.35625 56.786457Q44.715626 57.708332 43.325 57.708332Q41.965626 57.708332 41.309376 56.802082Q40.653126 55.895832 40.621876 54.083332L40.621876 52.645832Q40.621876 50.755207 41.2625 49.848957Q41.91875 48.927082 43.309376 48.927082Q44.684376 48.927082 45.340626 49.817707Q45.996876 50.692707 46.0125 52.536457L46.0125 53.942707ZM44.91875 52.458332Q44.91875 51.083332 44.528126 50.458332Q44.153126 49.817707 43.309376 49.817707Q42.48125 49.817707 42.090626 50.458332Q41.715626 51.083332 41.715626 52.380207L41.715626 54.114582Q41.715626 55.489582 42.10625 56.161457Q42.5125 56.817707 43.325 56.817707Q44.121876 56.817707 44.5125 56.192707Q44.903126 55.567707 44.91875 54.239582L44.91875 52.458332ZM53.0125 53.942707Q53.0125 55.848957 52.35625 56.786457Q51.715626 57.708332 50.325 57.708332Q48.965626 57.708332 48.309376 56.802082Q47.653126 55.895832 47.621876 54.083332L47.621876 52.645832Q47.621876 50.755207 48.2625 49.848957Q48.91875 48.927082 50.309376 48.927082Q51.684376 48.927082 52.340626 49.817707Q52.996876 50.692707 53.0125 52.536457L53.0125 53.942707ZM51.91875 52.458332Q51.91875 51.083332 51.528126 50.458332Q51.153126 49.817707 50.309376 49.817707Q49.48125 49.817707 49.090626 50.458332Q48.715626 51.083332 48.715626 52.380207L48.715626 54.114582Q48.715626 55.489582 49.10625 56.161457Q49.5125 56.817707 50.325 56.817707Q51.121876 56.817707 51.5125 56.192707Q51.903126 55.567707 51.91875 54.239582L51.91875 52.458332ZM54.559376 50.692707Q54.559376 49.927082 55.04375 49.427082Q55.54375 48.927082 56.309376 48.927082Q57.090626 48.927082 57.575 49.427082Q58.059376 49.927082 58.059376 50.723957L58.059376 51.145832Q58.059376 51.911457 57.559376 52.411457Q57.075 52.895832 56.325 52.895832Q55.559376 52.895832 55.059376 52.411457Q54.559376 51.911457 54.559376 51.098957L54.559376 50.692707ZM55.371876 51.145832Q55.371876 51.598957 55.621876 51.895832Q55.8875 52.192707 56.325 52.192707Q56.746876 52.192707 56.996876 51.911457Q57.246876 51.614582 57.246876 51.114582L57.246876 50.692707Q57.246876 50.239582 56.996876 49.942707Q56.746876 49.630207 56.309376 49.630207Q55.871876 49.630207 55.621876 49.942707Q55.371876 50.239582 55.371876 50.708332L55.371876 51.145832ZM58.715626 55.489582Q58.715626 54.723957 59.2 54.239582Q59.7 53.739582 60.465626 53.739582Q61.23125 53.739582 61.715626 54.239582Q62.215626 54.723957 62.215626 55.536457L62.215626 55.942707Q62.215626 56.708332 61.73125 57.208332Q61.246876 57.708332 60.48125 57.708332Q59.715626 57.708332 59.215626 57.223957Q58.715626 56.723957 58.715626 55.911457L58.715626 55.489582ZM59.528126 55.942707Q59.528126 56.411457 59.778126 56.708332Q60.04375 57.005207 60.48125 57.005207Q60.903126 57.005207 61.153126 56.723957Q61.403126 56.427082 61.403126 55.927082L61.403126 55.489582Q61.403126 55.020832 61.1375 54.739582Q60.8875 54.442707 60.465626 54.442707Q60.04375 54.442707 59.778126 54.739582Q59.528126 55.020832 59.528126 55.520832L59.528126 55.942707ZM56.575 56.942707L55.95 56.552082L60.121876 49.880207L60.73125 50.270832L56.575 56.942707Z" fill-rule="nonzero"/><path fill="#757575" d="M71.5125 263.40936Q71.5125 265.3156 70.85625 266.2531Q70.21562 267.175 68.825 267.175Q67.46562 267.175 66.80937 266.26874Q66.15312 265.3625 66.12187 263.55L66.12187 262.1125Q66.12187 260.22186 66.7625 259.3156Q67.41875 258.39374 68.80937 258.39374Q70.18437 258.39374 70.84062 259.28436Q71.49687 260.15936 71.5125 262.0031L71.5125 263.40936ZM70.41875 261.925Q70.41875 260.55 70.02812 259.925Q69.65312 259.28436 68.80937 259.28436Q67.98125 259.28436 67.59062 259.925Q67.21562 260.55 67.21562 261.84686L67.21562 263.58124Q67.21562 264.95624 67.60625 265.6281Q68.0125 266.28436 68.825 266.28436Q69.62187 266.28436 70.0125 265.65936Q70.40312 265.03436 70.41875 263.70624L70.41875 261.925Z" fill-rule="nonzero"/><path fill="#757575" d="M143.13399 267.05L137.54024 267.05L137.54024 266.26874L140.49336 262.9875Q141.14961 262.2375 141.39961 261.78436Q141.64961 261.3156 141.64961 260.8156Q141.64961 260.14374 141.24336 259.72186Q140.85274 259.28436 140.16524 259.28436Q139.36836 259.28436 138.91524 259.7531Q138.46211 260.20624 138.46211 261.03436L137.38399 261.03436Q137.38399 259.84686 138.13399 259.1281Q138.89961 258.39374 140.16524 258.39374Q141.36836 258.39374 142.05586 259.01874Q142.74336 259.64374 142.74336 260.6906Q142.74336 261.9406 141.13399 263.6906L138.85274 266.15936L143.13399 266.15936L143.13399 267.05Z" fill-rule="nonzero"/><path fill="#757575" d="M213.50548 264.1906L214.69298 264.1906L214.69298 265.0656L213.50548 265.0656L213.50548 267.05L212.42735 267.05L212.42735 265.0656L208.53673 265.0656L208.53673 264.425L212.34923 258.51874L213.50548 258.51874L213.50548 264.1906ZM209.7711 264.1906L212.42735 264.1906L212.42735 260.0031L212.28673 260.2375L209.7711 264.1906Z" fill-rule="nonzero"/><path fill="#757575" d="M284.58008 258.51874L284.58008 259.425L284.37695 259.425Q283.11133 259.45624 282.36133 260.1906Q281.61133 260.90936 281.48633 262.22186Q282.17383 261.45624 283.33008 261.45624Q284.43945 261.45624 285.11133 262.2375Q285.7832 263.01874 285.7832 264.26874Q285.7832 265.58124 285.06445 266.3781Q284.3457 267.175 283.12695 267.175Q281.9082 267.175 281.14258 266.2375Q280.39258 265.28436 280.39258 263.8L280.39258 263.39374Q280.39258 261.03436 281.39258 259.78436Q282.39258 258.53436 284.37695 258.51874L284.58008 258.51874ZM283.1582 262.3625Q282.5957 262.3625 282.12695 262.6906Q281.6582 263.01874 281.4707 263.53436L281.4707 263.925Q281.4707 264.9875 281.93945 265.6281Q282.42383 266.26874 283.12695 266.26874Q283.86133 266.26874 284.2832 265.7375Q284.70508 265.1906 284.70508 264.3156Q284.70508 263.4406 284.2832 262.90936Q283.86133 262.3625 283.1582 262.3625Z" fill-rule="nonzero"/><path fill="#757575" d="M356.88907 260.7375Q356.88907 261.3781 356.54532 261.8781Q356.20157 262.3781 355.63907 262.65936Q356.29532 262.9406 356.68594 263.5031Q357.07657 264.05 357.07657 264.7531Q357.07657 265.84686 356.32657 266.51874Q355.5922 267.175 354.37344 267.175Q353.13907 267.175 352.38907 266.51874Q351.6547 265.84686 351.6547 264.7531Q351.6547 264.05 352.0297 263.5031Q352.4047 262.9406 353.07657 262.65936Q352.51407 262.3781 352.18594 261.8781Q351.85782 261.3781 351.85782 260.7375Q351.85782 259.65936 352.54532 259.03436Q353.23282 258.39374 354.37344 258.39374Q355.49844 258.39374 356.18594 259.03436Q356.88907 259.65936 356.88907 260.7375ZM355.99844 264.72186Q355.99844 264.0031 355.54532 263.5656Q355.0922 263.1125 354.35782 263.1125Q353.62344 263.1125 353.17032 263.5656Q352.73282 264.0031 352.73282 264.7375Q352.73282 265.45624 353.17032 265.8781Q353.60782 266.28436 354.37344 266.28436Q355.12344 266.28436 355.56094 265.8625Q355.99844 265.4406 355.99844 264.72186ZM354.37344 259.28436Q353.73282 259.28436 353.32657 259.6906Q352.93594 260.08124 352.93594 260.76874Q352.93594 261.40936 353.32657 261.8156Q353.7172 262.22186 354.35782 262.22186Q355.01407 262.22186 355.4047 261.8156Q355.79532 261.40936 355.79532 260.76874Q355.79532 260.1125 355.38907 259.70624Q354.98282 259.28436 354.37344 259.28436Z" fill-rule="nonzero"/><path fill="#757575" d="M423.15118 267.05L422.07306 267.05L422.07306 259.83124L419.88556 260.6281L419.88556 259.64374L422.99493 258.47186L423.15118 258.47186L423.15118 267.05ZM431.94806 263.40936Q431.94806 265.3156 431.2918 266.2531Q430.65118 267.175 429.26056 267.175Q427.90118 267.175 427.24493 266.26874Q426.58868 265.3625 426.55743 263.55L426.55743 262.1125Q426.55743 260.22186 427.19806 259.3156Q427.8543 258.39374 429.24493 258.39374Q430.61993 258.39374 431.27618 259.28436Q431.93243 260.15936 431.94806 262.0031L431.94806 263.40936ZM430.8543 261.925Q430.8543 260.55 430.46368 259.925Q430.08868 259.28436 429.24493 259.28436Q428.4168 259.28436 428.02618 259.925Q427.65118 260.55 427.65118 261.84686L427.65118 263.58124Q427.65118 264.95624 428.0418 265.6281Q428.44806 266.28436 429.26056 266.28436Q430.05743 266.28436 430.44806 265.65936Q430.83868 265.03436 430.8543 263.70624L430.8543 261.925Z" fill-rule="nonzero"/><path stroke="#4285f4" stroke-width="4.0" stroke-linecap="butt" d="M443.05 53.083332L455.05 53.083332" fill-rule="nonzero"/><path fill="#757575" d="M470.26874 51.536457L463.7531 51.536457L463.7531 50.505207L471.34686 50.505207L471.34686 57.208332L470.26874 57.208332L470.26874 56.692707L463.7531 56.692707L463.7531 55.661457L470.26874 55.661457L470.26874 51.536457ZM473.7531 54.161457Q478.675 52.098957 481.20624 48.348957L482.09686 49.098957Q482.47186 49.380207 481.76874 49.520832Q480.8781 50.692707 479.47186 51.911457L479.47186 58.286457L478.39374 58.286457L478.39374 52.802082Q476.7531 54.067707 474.55 55.098957L473.7531 54.161457ZM492.8 52.145832Q490.3156 57.302082 484.45624 57.583332Q484.22186 58.192707 483.9875 57.677082L483.6125 56.458332Q489.70624 56.317707 491.8156 51.442707L492.8 52.145832ZM486.1906 52.145832Q484.925 50.973957 483.8 50.223957L484.59686 49.239582Q485.58124 49.848957 487.08124 51.255207L486.1906 52.145832Z" fill-rule="nonzero"/><path fill="#757575" d="M497.3156 57.583332L496.2375 57.583332L496.2375 50.364582L494.05 51.161457L494.05 50.177082L497.15936 49.005207L497.3156 49.005207L497.3156 57.583332Z" fill-rule="nonzero"/><path stroke="#db4437" stroke-width="4.0" stroke-linecap="butt" d="M443.05 78.083336L455.05 78.083336" fill-rule="nonzero"/><path fill="#757575" d="M470.26874 76.53646L463.7531 76.53646L463.7531 75.50521L471.34686 75.50521L471.34686 82.208336L470.26874 82.208336L470.26874 81.69271L463.7531 81.69271L463.7531 80.66146L470.26874 80.66146L470.26874 76.53646ZM473.7531 79.16146Q478.675 77.09896 481.20624 73.34896L482.09686 74.09896Q482.47186 74.38021 481.76874 74.520836Q480.8781 75.69271 479.47186 76.91146L479.47186 83.28646L478.39374 83.28646L478.39374 77.802086Q476.7531 79.06771 474.55 80.09896L473.7531 79.16146ZM492.8 77.145836Q490.3156 82.302086 484.45624 82.583336Q484.22186 83.19271 483.9875 82.677086L483.6125 81.458336Q489.70624 81.31771 491.8156 76.44271L492.8 77.145836ZM486.1906 77.145836Q484.925 75.97396 483.8 75.22396L484.59686 74.239586Q485.58124 74.84896 487.08124 76.25521L486.1906 77.145836Z" fill-rule="nonzero"/><path fill="#757575" d="M499.34686 82.583336L493.7531 82.583336L493.7531 81.802086L496.70624 78.520836Q497.3625 77.770836 497.6125 77.31771Q497.8625 76.84896 497.8625 76.34896Q497.8625 75.677086 497.45624 75.25521Q497.0656 74.81771 496.3781 74.81771Q495.58124 74.81771 495.1281 75.28646Q494.675 75.739586 494.675 76.56771L493.59686 76.56771Q493.59686 75.38021 494.34686 74.66146Q495.1125 73.927086 496.3781 73.927086Q497.58124 73.927086 498.26874 74.552086Q498.95624 75.177086 498.95624 76.22396Q498.95624 77.47396 497.34686 79.22396L495.0656 81.69271L499.34686 81.69271L499.34686 82.583336Z" fill-rule="nonzero"/><path stroke="#f4b400" stroke-width="4.0" stroke-linecap="butt" d="M443.05 103.083336L455.05 103.083336" fill-rule="nonzero"/><path fill="#757575" d="M470.26874 101.53646L463.7531 101.53646L463.7531 100.50521L471.34686 100.50521L471.34686 107.208336L470.26874 107.208336L470.26874 106.69271L463.7531 106.69271L463.7531 105.66146L470.26874 105.66146L470.26874 101.53646ZM473.7531 104.16146Q478.675 102.09896 481.20624 98.34896L482.09686 99.09896Q482.47186 99.38021 481.76874 99.520836Q480.8781 100.69271 479.47186 101.91146L479.47186 108.28646L478.39374 108.28646L478.39374 102.802086Q476.7531 104.06771 474.55 105.09896L473.7531 104.16146ZM492.8 102.145836Q490.3156 107.302086 484.45624 107.583336Q484.22186 108.19271 483.9875 107.677086L483.6125 106.458336Q489.70624 106.31771 491.8156 101.44271L492.8 102.145836ZM486.1906 102.145836Q484.925 100.97396 483.8 100.22396L484.59686 99.239586Q485.58124 99.84896 487.08124 101.25521L486.1906 102.145836Z" fill-rule="nonzero"/><path fill="#757575" d="M495.33124 102.78646L496.14374 102.78646Q496.925 102.770836 497.3625 102.38021Q497.8 101.989586 497.8 101.31771Q497.8 99.81771 496.3 99.81771Q495.59686 99.81771 495.175 100.22396Q494.76874 100.63021 494.76874 101.28646L493.675 101.28646Q493.675 100.270836 494.40936 99.59896Q495.15936 98.927086 496.3 98.927086Q497.5031 98.927086 498.1906 99.56771Q498.8781 100.208336 498.8781 101.34896Q498.8781 101.91146 498.51874 102.427086Q498.15936 102.94271 497.53436 103.208336Q498.2375 103.427086 498.6125 103.94271Q499.0031 104.458336 499.0031 105.208336Q499.0031 106.34896 498.2531 107.03646Q497.5031 107.708336 496.3 107.708336Q495.1125 107.708336 494.34686 107.052086Q493.59686 106.395836 493.59686 105.333336L494.6906 105.333336Q494.6906 106.00521 495.1281 106.41146Q495.5656 106.81771 496.3156 106.81771Q497.09686 106.81771 497.5031 106.41146Q497.925 105.989586 497.925 105.22396Q497.925 104.489586 497.47186 104.09896Q497.01874 103.69271 496.14374 103.677086L495.33124 103.677086L495.33124 102.78646Z" fill-rule="nonzero"/><path fill="#000000" d="M25.575 22.8875L16.8875 22.8875L16.8875 21.0125L27.5125 21.0125L27.5125 30.45L25.575 30.45L25.575 29.7625L16.8875 29.7625L16.8875 27.8875L25.575 27.8875L25.575 22.8875ZM30.23125 26.04375Q37.028126 23.184376 40.528126 18.0125L41.91875 19.184376Q42.85625 19.903126 41.465626 20.184376Q40.325 21.684376 38.5125 23.246876L38.5125 31.8875L36.575 31.8875L36.575 24.840626Q34.7625 26.23125 31.6375 27.7L30.23125 26.04375ZM56.5125 23.371876Q53.04375 30.575 45.246876 30.934376Q44.778126 32.153126 44.215626 30.91875L43.60625 28.95Q51.903126 28.7625 54.778126 22.121876L56.5125 23.371876ZM47.3875 23.79375Q45.54375 22.090626 43.840626 20.95L45.2 19.246876Q46.73125 20.184376 48.934376 22.2625L47.3875 23.79375Z" fill-rule="nonzero"/><path fill="#000000" d="M60.7 30.95L58.434376 30.95L58.434376 22.496876L60.7 22.496876L60.7 30.95ZM58.309376 20.309376Q58.309376 19.79375 58.6375 19.465626Q58.98125 19.1375 59.575 19.1375Q60.153126 19.1375 60.496876 19.465626Q60.840626 19.79375 60.840626 20.309376Q60.840626 20.825 60.48125 21.153126Q60.1375 21.48125 59.559376 21.48125Q58.996876 21.48125 58.653126 21.153126Q58.309376 20.825 58.309376 20.309376Z" fill-rule="nonzero"/><path fill="#000000" d="M75.37187 24.934376Q71.5125 25.075 69.23125 26.04375L68.7 24.309376Q71.65312 23.1375 75.02812 23.1375L75.37187 24.934376ZM75.6375 29.6375L75.6375 31.5125L72.6375 31.5125Q70.2 31.5125 67.80937 30.246876L68.59062 28.66875Q70.3875 29.6375 72.6375 29.6375L75.6375 29.6375ZM70.12187 22.278126Q68.24687 22.6375 66.98125 22.79375Q66.05937 28.215626 64.59062 31.7L62.73125 31.10625Q64.52812 26.95 65.15312 22.98125Q63.903126 23.075 62.559376 23.075L62.2 21.325Q64.24687 21.325 65.41875 21.215626Q65.6375 19.48125 65.85625 17.778126L67.3875 18.075Q68.66875 18.434376 67.66875 18.996876Q67.5125 19.621876 67.2625 21.028126Q68.34062 20.8875 69.7625 20.5125L70.12187 22.278126ZM73.49687 17.496876Q74.71562 18.184376 76.35625 19.3875L75.5125 20.684376Q73.93437 19.528126 72.66875 18.778126L73.49687 17.496876ZM72.24687 18.73125Q73.59062 19.559376 75.10625 20.6375L74.27812 21.91875Q72.68437 20.840626 71.41875 20.028126L72.24687 18.73125ZM82.21562 24.559376Q80.73125 25.059376 78.5125 25.965626L77.66875 24.16875Q79.93437 23.465626 81.55937 22.965626Q83.41875 22.3875 85.075 22.3875Q86.80937 22.3875 87.87187 23.465626Q89.0125 24.590626 89.0125 26.2625Q89.0125 28.246876 87.99687 29.246876Q86.24687 31.0125 81.96562 31.1375L81.27812 29.325Q85.46562 29.2625 86.65312 28.090626Q87.2625 27.465626 87.2625 26.2625Q87.2625 25.309376 86.46562 24.496876Q86.02812 24.075 84.8875 24.075Q83.73125 24.075 82.21562 24.559376ZM104.6375 29.6375L104.6375 31.5125L101.6375 31.5125Q99.2 31.5125 96.80937 30.246876L97.59062 28.66875Q99.3875 29.6375 101.6375 29.6375L104.6375 29.6375ZM95.98125 22.79375Q95.05937 28.215626 93.59062 31.7L91.73125 31.10625Q93.52812 26.95 94.15312 22.98125Q92.96562 23.075 91.55937 23.075L91.2 21.325Q93.24687 21.325 94.41875 21.215626Q94.6375 19.48125 94.85625 17.778126L96.3875 18.075Q97.66875 18.434376 96.66875 18.996876Q96.5125 19.621876 96.2625 21.028126Q97.34062 20.8875 98.7625 20.5125L99.12187 22.278126Q97.24687 22.6375 95.98125 22.79375ZM104.37187 24.934376Q100.5125 25.075 98.23125 26.04375L97.7 24.309376Q100.65312 23.1375 104.02812 23.1375L104.37187 24.934376ZM118.40312 22.6375L121.1375 22.6375L121.1375 24.1375L118.5125 24.1375L118.5125 25.075L120.6375 25.075L120.6375 26.575L118.5125 26.575L118.5125 27.575L120.6375 27.575L120.6375 29.075L118.5125 29.075L118.5125 30.1375L121.6375 30.1375L121.6375 31.6375L115.325 31.6375L115.325 32.2625L113.7625 32.2625L113.7625 25.840626Q113.7 25.934376 112.6375 26.73125L112.02812 25.059376Q114.48125 22.871876 115.05937 20.95L114.2 20.95L114.2 22.3875L112.6375 22.3875L112.6375 19.45L115.45 19.45Q115.6375 18.653126 115.87187 17.2625L117.45 17.66875Q117.91875 18.121876 117.41875 18.41875Q117.24687 19.075 117.15312 19.45L121.5125 19.45L121.5125 22.1375L119.95 22.1375L119.95 20.95L116.7625 20.95Q116.43437 22.121876 116.05937 22.6375L116.71562 22.6375L117.55937 20.73125L118.96562 21.028126Q119.85625 21.371876 118.93437 21.778126L118.40312 22.6375ZM107.1375 20.2625L107.1375 18.575L112.95 18.575L112.95 20.2625L110.74687 20.2625Q110.6375 22.0125 110.075 23.325L112.3875 23.325L112.3875 31.2625L110.825 31.2625L110.825 30.2625L109.7 30.2625L109.7 31.8875L108.1375 31.8875L108.18437 26.746876Q108.21562 26.778126 107.55937 27.528126L106.43437 26.059376Q108.71562 23.528126 109.04375 20.2625L107.1375 20.2625ZM115.325 26.575L115.325 27.575L116.95 27.575L116.95 26.575L115.325 26.575ZM115.325 24.1375L115.325 25.075L116.95 25.075L116.95 24.1375L115.325 24.1375ZM115.325 29.075L115.325 30.1375L116.95 30.1375L116.95 29.075L115.325 29.075ZM109.7 24.825L109.7 28.7625L110.825 28.7625L110.825 24.825L109.7 24.825ZM136.2625 22.2Q135.62187 22.996876 134.37187 23.965626L133.05937 22.746876Q134.45 21.653126 135.12187 20.60625L136.55937 21.5125Q137.075 22.2 136.2625 22.2ZM134.8875 23.6375Q136.52812 24.41875 137.91875 25.60625L136.66875 27.121876Q135.29375 25.903126 133.74687 24.871876L134.8875 23.6375ZM127.91875 24.8875Q126.74687 26.1375 125.55937 27.090626Q125.43437 27.91875 124.825 27.309376L123.7625 26.0125Q125.48125 24.934376 126.7625 23.653126L127.91875 24.8875ZM127.41875 25.075L128.46562 25.075L129.35625 24.184376Q128.90312 23.7 127.45 22.684376L128.46562 21.48125L128.8875 21.79375L130.09062 20.153126L131.18437 21.028126Q131.85625 21.85625 130.91875 21.715626L130.10625 22.684376L130.49687 23.028126L132.18437 21.153126L133.2 22.090626Q133.84062 22.903126 132.85625 22.778126L130.6375 24.98125L131.91875 24.825L131.3875 24.1375L132.74687 23.325Q133.71562 24.371876 134.59062 26.10625L133.09062 26.996876L132.73125 26.215626L131.575 26.35625L131.575 27.45L138.075 27.45L138.075 29.1375L131.575 29.1375L131.575 32.2625L129.825 32.2625L129.825 29.1375L123.3875 29.1375L123.3875 27.45L129.825 27.45L129.825 26.590626L128.41875 26.684376Q128.30937 27.41875 127.65312 26.7625L127.41875 25.075ZM137.325 20.6375L124.1375 20.6375L124.1375 18.95L129.825 18.95L129.825 17.5125L131.29375 17.5125Q132.52812 17.7625 131.575 18.403126L131.575 18.95L137.325 18.95L137.325 20.6375ZM125.3875 20.825Q126.71562 21.496876 127.79375 22.496876L126.59062 23.95Q125.60625 22.965626 124.2625 22.1375L125.3875 20.825Z" fill-rule="nonzero"/></svg>