<svg version="1.1" viewBox="0.0 0.0 600.0 371.0" fill="none" stroke="none" stroke-linecap="square" stroke-miterlimit="10" width="600" height="371" xmlns:xlink="http://www.w3.org/1999/xlink" xmlns="http://www.w3.org/2000/svg"><path fill="#ffffff" d="M0 0L600.0 0L600.0 371.0L0 371.0L0 0Z" fill-rule="nonzero"/><path stroke="#333333" stroke-width="1.0" stroke-linecap="butt" d="M88.5 61.5L88.5 300.5" fill-rule="nonzero"/><path stroke="#cccccc" stroke-width="1.0" stroke-linecap="butt" d="M187.5 61.5L187.5 300.5" fill-rule="nonzero"/><path stroke="#cccccc" stroke-width="1.0" stroke-linecap="butt" d="M285.5 61.5L285.5 300.5" fill-rule="nonzero"/><path stroke="#cccccc" stroke-width="1.0" stroke-linecap="butt" d="M384.5 61.5L384.5 300.5" fill-rule="nonzero"/><path stroke="#cccccc" stroke-width="1.0" stroke-linecap="butt" d="M482.5 61.5L482.5 300.5" fill-rule="nonzero"/><path stroke="#cccccc" stroke-width="1.0" stroke-linecap="butt" d="M581.5 61.5L581.5 300.5" fill-rule="nonzero"/><path stroke="#cccccc" stroke-width="1.0" stroke-linecap="butt" d="M88.5 275.5L581.5 275.5" fill-rule="nonzero"/><path stroke="#cccccc" stroke-width="1.0" stroke-linecap="butt" d="M88.5 204.5L581.5 204.5" fill-rule="nonzero"/><path stroke="#cccccc" stroke-width="1.0" stroke-linecap="butt" d="M88.5 133.5L581.5 133.5" fill-rule="nonzero"/><path stroke="#cccccc" stroke-width="1.0" stroke-linecap="butt" d="M88.5 61.5L581.5 61.5" fill-rule="nonzero"/><clipPath id="id_0"><path d="M88.55 61.916668L581.45 61.916668L581.45 300.45L88.55 300.45L88.55 61.916668Z" clip-rule="nonzero"/></clipPath><path stroke="#4285f4" stroke-width="2.0" stroke-linecap="butt" clip-path="url(#id_0)" d="M88.55 300.39355L98.408 246.82454L108.266 205.04558L118.124 172.94206L127.982 148.54503L137.84 130.15071L147.698 116.35667L157.556 106.04791L167.414 98.35916L177.272 92.62998L187.13 88.36191L196.988 85.18148L206.846 82.81017L216.704 81.0408L226.562 79.719444L236.42 78.73178L246.278 77.9929L256.136 77.43966L265.994 77.02509L275.852 76.71422L285.71 76.480934L295.568 76.30578L305.426 76.17419L315.284 76.07528L325.142 76.0009L335.0 75.944954L344.858 75.902855L354.716 75.87116L364.574 75.8473L374.432 75.82933L384.29 75.815796L394.148 75.805595L404.006 75.79791L413.864 75.79212L423.722 75.78776L433.58 75.78447L443.438 75.78199L453.296 75.78011L463.154 75.77871L473.012 75.77764L482.87 75.77684L492.728 75.77624L502.586 75.77578L512.444 75.77544L522.302 75.77518L532.16 75.77499L542.018 75.77483L551.876 75.77473L561.734 75.77464L571.592 75.774574L581.45 75.77453" fill-rule="nonzero"/><path fill="#000000" fill-opacity="0.0" clip-path="url(#id_0)" d="M91.55 300.39355C91.55 302.0504 90.206856 303.39355 88.55 303.39355C86.89314 303.39355 85.55 302.0504 85.55 300.39355C85.55 298.7367 86.89314 297.39355 88.55 297.39355C90.206856 297.39355 91.55 298.7367 91.55 300.39355Z" fill-rule="nonzero"/><path fill="#000000" fill-opacity="0.0" clip-path="url(#id_0)" d="M101.408 246.82454C101.408 248.4814 100.06486 249.82454 98.408 249.82454C96.751144 249.82454 95.408 248.4814 95.408 246.82454C95.408 245.1677 96.751144 243.82454 98.408 243.82454C100.06486 243.82454 101.408 245.1677 101.408 246.82454Z" fill-rule="nonzero"/><path fill="#000000" fill-opacity="0.0" clip-path="url(#id_0)" d="M111.266 205.04558C111.266 206.70244 109.92285 208.04558 108.266 208.04558C106.609146 208.04558 105.266 206.70244 105.266 205.04558C105.266 203.38873 106.609146 202.04558 108.266 202.04558C109.92285 202.04558 111.266 203.38873 111.266 205.04558Z" fill-rule="nonzero"/><path fill="#000000" fill-opacity="0.0" clip-path="url(#id_0)" d="M121.124 172.94206C121.124 174.5989 119.78085 175.94206 118.124 175.94206C116.46715 175.94206 115.124 174.5989 115.124 172.94206C115.124 171.2852 116.46715 169.94206 118.124 169.94206C119.78085 169.94206 121.124 171.2852 121.124 172.94206Z" fill-rule="nonzero"/><path fill="#000000" fill-opacity="0.0" clip-path="url(#id_0)" d="M130.982 148.54503C130.982 150.20189 129.63885 151.54503 127.982 151.54503C126.32515 151.54503 124.982 150.20189 124.982 148.54503C124.982 146.88817 126.32515 145.54503 127.982 145.54503C129.63885 145.54503 130.982 146.88817 130.982 148.54503Z" fill-rule="nonzero"/><path fill="#000000" fill-opacity="0.0" clip-path="url(#id_0)" d="M140.84 130.15071C140.84 131.80757 139.49686 133.15071 137.84 133.15071C136.18315 133.15071 134.84 131.80757 134.84 130.15071C134.84 128.49387 136.18315 127.15071 137.84 127.15071C139.49686 127.15071 140.84 128.49387 140.84 130.15071Z" fill-rule="nonzero"/><path fill="#000000" fill-opacity="0.0" clip-path="url(#id_0)" d="M150.698 116.35667C150.698 118.01353 149.35486 119.35667 147.698 119.35667C146.04115 119.35667 144.698 118.01353 144.698 116.35667C144.698 114.699814 146.04115 113.35667 147.698 113.35667C149.35486 113.35667 150.698 114.699814 150.698 116.35667Z" fill-rule="nonzero"/><path fill="#000000" fill-opacity="0.0" clip-path="url(#id_0)" d="M160.556 106.04791C160.556 107.704765 159.21286 109.04791 157.556 109.04791C155.89914 109.04791 154.556 107.704765 154.556 106.04791C154.556 104.39106 155.89914 103.04791 157.556 103.04791C159.21286 103.04791 160.556 104.39106 160.556 106.04791Z" fill-rule="nonzero"/><path fill="#000000" fill-opacity="0.0" clip-path="url(#id_0)" d="M170.414 98.35916C170.414 100.01602 169.07086 101.35916 167.414 101.35916C165.75714 101.35916 164.414 100.01602 164.414 98.35916C164.414 96.70231 165.75714 95.35916 167.414 95.35916C169.07086 95.35916 170.414 96.70231 170.414 98.35916Z" fill-rule="nonzero"/><path fill="#000000" fill-opacity="0.0" clip-path="url(#id_0)" d="M180.272 92.62998C180.272 94.286835 178.92885 95.62998 177.272 95.62998C175.61514 95.62998 174.272 94.286835 174.272 92.62998C174.272 90.97313 175.61514 89.62998 177.272 89.62998C178.92885 89.62998 180.272 90.97313 180.272 92.62998Z" fill-rule="nonzero"/><path fill="#000000" fill-opacity="0.0" clip-path="url(#id_0)" d="M190.13 88.36191C190.13 90.01876 188.78685 91.36191 187.13 91.36191C185.47314 91.36191 184.13 90.01876 184.13 88.36191C184.13 86.705055 185.47314 85.36191 187.13 85.36191C188.78685 85.36191 190.13 86.705055 190.13 88.36191Z" fill-rule="nonzero"/><path fill="#000000" fill-opacity="0.0" clip-path="url(#id_0)" d="M199.988 85.18148C199.988 86.83834 198.64485 88.18148 196.988 88.18148C195.33115 88.18148 193.988 86.83834 193.988 85.18148C193.988 83.52463 195.33115 82.18148 196.988 82.18148C198.64485 82.18148 199.988 83.52463 199.988 85.18148Z" fill-rule="nonzero"/><path fill="#000000" fill-opacity="0.0" clip-path="url(#id_0)" d="M209.846 82.81017C209.846 84.46703 208.50285 85.81017 206.846 85.81017C205.18915 85.81017 203.846 84.46703 203.846 82.81017C203.846 81.15332 205.18915 79.81017 206.846 79.81017C208.50285 79.81017 209.846 81.15332 209.846 82.81017Z" fill-rule="nonzero"/><path fill="#000000" fill-opacity="0.0" clip-path="url(#id_0)" d="M219.704 81.0408C219.704 82.697655 218.36086 84.0408 216.704 84.0408C215.04715 84.0408 213.704 82.697655 213.704 81.0408C213.704 79.38395 215.04715 78.0408 216.704 78.0408C218.36086 78.0408 219.704 79.38395 219.704 81.0408Z" fill-rule="nonzero"/><path fill="#000000" fill-opacity="0.0" clip-path="url(#id_0)" d="M229.562 79.719444C229.562 81.3763 228.21886 82.719444 226.562 82.719444C224.90515 82.719444 223.562 81.3763 223.562 79.719444C223.562 78.06259 224.90515 76.719444 226.562 76.719444C228.21886 76.719444 229.562 78.06259 229.562 79.719444Z" fill-rule="nonzero"/><path fill="#000000" fill-opacity="0.0" clip-path="url(#id_0)" d="M239.42 78.73178C239.42 80.38863 238.07686 81.73178 236.42 81.73178C234.76315 81.73178 233.42 80.38863 233.42 78.73178C233.42 77.07493 234.76315 75.73178 236.42 75.73178C238.07686 75.73178 239.42 77.07493 239.42 78.73178Z" fill-rule="nonzero"/><path fill="#000000" fill-opacity="0.0" clip-path="url(#id_0)" d="M249.278 77.9929C249.278 79.64975 247.93486 80.9929 246.278 80.9929C244.62114 80.9929 243.278 79.64975 243.278 77.9929C243.278 76.336044 244.62114 74.9929 246.278 74.9929C247.93486 74.9929 249.278 76.336044 249.278 77.9929Z" fill-rule="nonzero"/><path fill="#000000" fill-opacity="0.0" clip-path="url(#id_0)" d="M259.136 77.43966C259.136 79.09651 257.79285 80.43966 256.136 80.43966C254.47914 80.43966 253.136 79.09651 253.136 77.43966C253.136 75.78281 254.47914 74.43966 256.136 74.43966C257.79285 74.43966 259.136 75.78281 259.136 77.43966Z" fill-rule="nonzero"/><path fill="#000000" fill-opacity="0.0" clip-path="url(#id_0)" d="M268.994 77.02509C268.994 78.681946 267.65085 80.02509 265.994 80.02509C264.33716 80.02509 262.994 78.681946 262.994 77.02509C262.994 75.36824 264.33716 74.02509 265.994 74.02509C267.65085 74.02509 268.994 75.36824 268.994 77.02509Z" fill-rule="nonzero"/><path fill="#000000" fill-opacity="0.0" clip-path="url(#id_0)" d="M278.852 76.71422C278.852 78.37107 277.50885 79.71422 275.852 79.71422C274.19516 79.71422 272.852 78.37107 272.852 76.71422C272.852 75.057365 274.19516 73.71422 275.852 73.71422C277.50885 73.71422 278.852 75.057365 278.852 76.71422Z" fill-rule="nonzero"/><path fill="#000000" fill-opacity="0.0" clip-path="url(#id_0)" d="M288.71 76.480934C288.71 78.13779 287.36685 79.480934 285.71 79.480934C284.05313 79.480934 282.71 78.13779 282.71 76.480934C282.71 74.82408 284.05313 73.480934 285.71 73.480934C287.36685 73.480934 288.71 74.82408 288.71 76.480934Z" fill-rule="nonzero"/><path fill="#000000" fill-opacity="0.0" clip-path="url(#id_0)" d="M298.568 76.30578C298.568 77.96263 297.22485 79.30578 295.568 79.30578C293.91113 79.30578 292.568 77.96263 292.568 76.30578C292.568 74.648926 293.91113 73.30578 295.568 73.30578C297.22485 73.30578 298.568 74.648926 298.568 76.30578Z" fill-rule="nonzero"/><path fill="#000000" fill-opacity="0.0" clip-path="url(#id_0)" d="M308.426 76.17419C308.426 77.83104 307.08286 79.17419 305.426 79.17419C303.76913 79.17419 302.426 77.83104 302.426 76.17419C302.426 74.517334 303.76913 73.17419 305.426 73.17419C307.08286 73.17419 308.426 74.517334 308.426 76.17419Z" fill-rule="nonzero"/><path fill="#000000" fill-opacity="0.0" clip-path="url(#id_0)" d="M318.284 76.07528C318.284 77.73213 316.94086 79.07528 315.284 79.07528C313.62714 79.07528 312.284 77.73213 312.284 76.07528C312.284 74.41843 313.62714 73.07528 315.284 73.07528C316.94086 73.07528 318.284 74.41843 318.284 76.07528Z" fill-rule="nonzero"/><path fill="#000000" fill-opacity="0.0" clip-path="url(#id_0)" d="M328.142 76.0009C328.142 77.65776 326.79886 79.0009 325.142 79.0009C323.48514 79.0009 322.142 77.65776 322.142 76.0009C322.142 74.34405 323.48514 73.0009 325.142 73.0009C326.79886 73.0009 328.142 74.34405 328.142 76.0009Z" fill-rule="nonzero"/><path fill="#000000" fill-opacity="0.0" clip-path="url(#id_0)" d="M338.0 75.944954C338.0 77.60181 336.65686 78.944954 335.0 78.944954C333.34314 78.944954 332.0 77.60181 332.0 75.944954C332.0 74.2881 333.34314 72.944954 335.0 72.944954C336.65686 72.944954 338.0 74.2881 338.0 75.944954Z" fill-rule="nonzero"/><path fill="#000000" fill-opacity="0.0" clip-path="url(#id_0)" d="M347.858 75.902855C347.858 77.55971 346.51486 78.902855 344.858 78.902855C343.20114 78.902855 341.858 77.55971 341.858 75.902855C341.858 74.246 343.20114 72.902855 344.858 72.902855C346.51486 72.902855 347.858 74.246 347.858 75.902855Z" fill-rule="nonzero"/><path fill="#000000" fill-opacity="0.0" clip-path="url(#id_0)" d="M357.716 75.87116C357.716 77.528015 356.37286 78.87116 354.716 78.87116C353.05914 78.87116 351.716 77.528015 351.716 75.87116C351.716 74.21431 353.05914 72.87116 354.716 72.87116C356.37286 72.87116 357.716 74.21431 357.716 75.87116Z" fill-rule="nonzero"/><path fill="#000000" fill-opacity="0.0" clip-path="url(#id_0)" d="M367.574 75.8473C367.574 77.50416 366.23087 78.8473 364.574 78.8473C362.91714 78.8473 361.574 77.50416 361.574 75.8473C361.574 74.190445 362.91714 72.8473 364.574 72.8473C366.23087 72.8473 367.574 74.190445 367.574 75.8473Z" fill-rule="nonzero"/><path fill="#000000" fill-opacity="0.0" clip-path="url(#id_0)" d="M377.432 75.82933C377.432 77.48618 376.08887 78.82933 374.432 78.82933C372.77515 78.82933 371.432 77.48618 371.432 75.82933C371.432 74.17248 372.77515 72.82933 374.432 72.82933C376.08887 72.82933 377.432 74.17248 377.432 75.82933Z" fill-rule="nonzero"/><path fill="#000000" fill-opacity="0.0" clip-path="url(#id_0)" d="M387.29 75.815796C387.29 77.47265 385.94687 78.815796 384.29 78.815796C382.63315 78.815796 381.29 77.47265 381.29 75.815796C381.29 74.15894 382.63315 72.815796 384.29 72.815796C385.94687 72.815796 387.29 74.15894 387.29 75.815796Z" fill-rule="nonzero"/><path fill="#000000" fill-opacity="0.0" clip-path="url(#id_0)" d="M397.148 75.805595C397.148 77.46245 395.80484 78.805595 394.148 78.805595C392.49115 78.805595 391.148 77.46245 391.148 75.805595C391.148 74.14874 392.49115 72.805595 394.148 72.805595C395.80484 72.805595 397.148 74.14874 397.148 75.805595Z" fill-rule="nonzero"/><path fill="#000000" fill-opacity="0.0" clip-path="url(#id_0)" d="M407.006 75.79791C407.006 77.454765 405.66284 78.79791 404.006 78.79791C402.34915 78.79791 401.006 77.454765 401.006 75.79791C401.006 74.14106 402.34915 72.79791 404.006 72.79791C405.66284 72.79791 407.006 74.14106 407.006 75.79791Z" fill-rule="nonzero"/><path fill="#000000" fill-opacity="0.0" clip-path="url(#id_0)" d="M416.864 75.79212C416.864 77.448975 415.52084 78.79212 413.864 78.79212C412.20715 78.79212 410.864 77.448975 410.864 75.79212C410.864 74.13527 412.20715 72.79212 413.864 72.79212C415.52084 72.79212 416.864 74.13527 416.864 75.79212Z" fill-rule="nonzero"/><path fill="#000000" fill-opacity="0.0" clip-path="url(#id_0)" d="M426.722 75.78776C426.722 77.44461 425.37885 78.78776 423.722 78.78776C422.06516 78.78776 420.722 77.44461 420.722 75.78776C420.722 74.130905 422.06516 72.78776 423.722 72.78776C425.37885 72.78776 426.722 74.130905 426.722 75.78776Z" fill-rule="nonzero"/><path fill="#000000" fill-opacity="0.0" clip-path="url(#id_0)" d="M436.58 75.78447C436.58 77.44132 435.23685 78.78447 433.58 78.78447C431.92316 78.78447 430.58 77.44132 430.58 75.78447C430.58 74.12761 431.92316 72.78447 433.58 72.78447C435.23685 72.78447 436.58 74.12761 436.58 75.78447Z" fill-rule="nonzero"/><path fill="#000000" fill-opacity="0.0" clip-path="url(#id_0)" d="M446.438 75.78199C446.438 77.43884 445.09485 78.78199 443.438 78.78199C441.78116 78.78199 440.438 77.43884 440.438 75.78199C440.438 74.12513 441.78116 72.78199 443.438 72.78199C445.09485 72.78199 446.438 74.12513 446.438 75.78199Z" fill-rule="nonzero"/><path fill="#000000" fill-opacity="0.0" clip-path="url(#id_0)" d="M456.296 75.78011C456.296 77.43697 454.95285 78.78011 453.296 78.78011C451.63916 78.78011 450.296 77.43697 450.296 75.78011C450.296 74.12326 451.63916 72.78011 453.296 72.78011C454.95285 72.78011 456.296 74.12326 456.296 75.78011Z" fill-rule="nonzero"/><path fill="#000000" fill-opacity="0.0" clip-path="url(#id_0)" d="M466.154 75.77871C466.154 77.43556 464.81085 78.77871 463.154 78.77871C461.49713 78.77871 460.154 77.43556 460.154 75.77871C460.154 74.12185 461.49713 72.77871 463.154 72.77871C464.81085 72.77871 466.154 74.12185 466.154 75.77871Z" fill-rule="nonzero"/><path fill="#000000" fill-opacity="0.0" clip-path="url(#id_0)" d="M476.012 75.77764C476.012 77.434494 474.66885 78.77764 473.012 78.77764C471.35513 78.77764 470.012 77.434494 470.012 75.77764C470.012 74.12079 471.35513 72.77764 473.012 72.77764C474.66885 72.77764 476.012 74.12079 476.012 75.77764Z" fill-rule="nonzero"/><path fill="#000000" fill-opacity="0.0" clip-path="url(#id_0)" d="M485.87 75.77684C485.87 77.43369 484.52686 78.77684 482.87 78.77684C481.21313 78.77684 479.87 77.43369 479.87 75.77684C479.87 74.11999 481.21313 72.77684 482.87 72.77684C484.52686 72.77684 485.87 74.11999 485.87 75.77684Z" fill-rule="nonzero"/><path fill="#000000" fill-opacity="0.0" clip-path="url(#id_0)" d="M495.728 75.77624C495.728 77.43309 494.38486 78.77624 492.728 78.77624C491.07114 78.77624 489.728 77.43309 489.728 75.77624C489.728 74.119385 491.07114 72.77624 492.728 72.77624C494.38486 72.77624 495.728 74.119385 495.728 75.77624Z" fill-rule="nonzero"/><path fill="#000000" fill-opacity="0.0" clip-path="url(#id_0)" d="M505.586 75.77578C505.586 77.43263 504.24286 78.77578 502.586 78.77578C500.92914 78.77578 499.586 77.43263 499.586 75.77578C499.586 74.11893 500.92914 72.77578 502.586 72.77578C504.24286 72.77578 505.586 74.11893 505.586 75.77578Z" fill-rule="nonzero"/><path fill="#000000" fill-opacity="0.0" clip-path="url(#id_0)" d="M515.444 75.77544C515.444 77.43229 514.1008 78.77544 512.444 78.77544C510.78714 78.77544 509.444 77.43229 509.444 75.77544C509.444 74.11858 510.78714 72.77544 512.444 72.77544C514.1008 72.77544 515.444 74.11858 515.444 75.77544Z" fill-rule="nonzero"/><path fill="#000000" fill-opacity="0.0" clip-path="url(#id_0)" d="M525.302 75.77518C525.302 77.43203 523.95886 78.77518 522.302 78.77518C520.64514 78.77518 519.302 77.43203 519.302 75.77518C519.302 74.118324 520.64514 72.77518 522.302 72.77518C523.95886 72.77518 525.302 74.118324 525.302 75.77518Z" fill-rule="nonzero"/><path fill="#000000" fill-opacity="0.0" clip-path="url(#id_0)" d="M535.16 75.77499C535.16 77.43184 533.81683 78.77499 532.16 78.77499C530.5032 78.77499 529.16 77.43184 529.16 75.77499C529.16 74.118126 530.5032 72.77499 532.16 72.77499C533.81683 72.77499 535.16 74.118126 535.16 75.77499Z" fill-rule="nonzero"/><path fill="#000000" fill-opacity="0.0" clip-path="url(#id_0)" d="M545.018 75.77483C545.018 77.43169 543.67487 78.77483 542.018 78.77483C540.36115 78.77483 539.018 77.43169 539.018 75.77483C539.018 74.11798 540.36115 72.77483 542.018 72.77483C543.67487 72.77483 545.018 74.11798 545.018 75.77483Z" fill-rule="nonzero"/><path fill="#000000" fill-opacity="0.0" clip-path="url(#id_0)" d="M554.876 75.77473C554.876 77.43158 553.53284 78.77473 551.876 78.77473C550.2191 78.77473 548.876 77.43158 548.876 75.77473C548.876 74.11787 550.2191 72.77473 551.876 72.77473C553.53284 72.77473 554.876 74.11787 554.876 75.77473Z" fill-rule="nonzero"/><path fill="#000000" fill-opacity="0.0" clip-path="url(#id_0)" d="M564.734 75.77464C564.734 77.431496 563.39087 78.77464 561.734 78.77464C560.07715 78.77464 558.734 77.431496 558.734 75.77464C558.734 74.11778 560.07715 72.77464 561.734 72.77464C563.39087 72.77464 564.734 74.11778 564.734 75.77464Z" fill-rule="nonzero"/><path fill="#000000" fill-opacity="0.0" clip-path="url(#id_0)" d="M574.592 75.774574C574.592 77.431435 573.24884 78.774574 571.592 78.774574C569.9351 78.774574 568.592 77.431435 568.592 75.774574C568.592 74.11772 569.9351 72.774574 571.592 72.774574C573.24884 72.774574 574.592 74.11772 574.592 75.774574Z" fill-rule="nonzero"/><path fill="#000000" fill-opacity="0.0" clip-path="url(#id_0)" d="M584.45 75.77453C584.45 77.43138 583.1069 78.77453 581.45 78.77453C579.79315 78.77453 578.45 77.43138 578.45 75.77453C578.45 74.117676 579.79315 72.77453 581.45 72.77453C583.1069 72.77453 584.45 74.117676 584.45 75.77453Z" fill-rule="nonzero"/><path fill="#000000" d="M310.25 343.825Q309.6875 343.2625 308.60938 342.5125L309.17188 341.7625L309.5 341.9969Q310.4375 340.54376 310.90625 339.7L311.79688 340.35626Q311.9375 340.59064 311.5625 340.54376Q310.90625 341.48126 310.15625 342.46564Q310.4375 342.7 310.8125 343.02814Q311.51562 342.04376 312.03125 341.2L312.82812 341.85626Q312.96875 342.09064 312.59375 342.04376Q311.5625 343.45 310.4375 344.85626L311.89062 344.71564L311.5625 344.10626L312.26562 343.73126Q312.82812 344.52814 313.20312 345.7L312.40625 346.075L312.17188 345.41876L311.28125 345.5594L311.28125 350.48126L310.48438 350.48126L310.48438 345.60626L308.98438 345.7469Q308.89062 346.075 308.75 345.8875L308.60938 344.85626L309.40625 344.85626Q309.78125 344.48126 310.25 343.825ZM313.29688 345.5125L313.29688 343.02814L315.82812 343.02814L315.82812 345.5125L313.29688 345.5125ZM314.79688 341.71564L317.375 341.71564L317.375 340.77814L314.79688 340.77814L314.79688 341.71564ZM314.0 340.02814L318.17188 340.02814L318.17188 342.46564L314.0 342.46564L314.0 340.02814ZM314.09375 343.59064L314.09375 344.95L315.03125 344.95L315.03125 343.59064L314.09375 343.59064ZM316.4375 343.02814L319.0625 343.02814L319.0625 345.5125L316.4375 345.5125L316.4375 343.02814ZM317.23438 344.95L318.26562 344.95L318.26562 343.59064L317.23438 343.59064L317.23438 344.95ZM313.10938 346.35626L315.73438 346.35626L315.73438 345.79376L316.48438 345.79376Q316.85938 345.84064 316.53125 346.075L316.53125 346.35626L319.25 346.35626L319.25 347.10626L316.67188 347.10626Q317.65625 348.23126 319.57812 349.02814L319.15625 350.0125Q317.32812 348.98126 316.53125 347.9969L316.53125 350.48126L315.73438 350.48126L315.73438 348.09064Q314.60938 349.45 312.875 350.2L312.5 349.21564Q314.51562 348.46564 315.54688 347.10626L313.10938 347.10626L313.10938 346.35626ZM309.96875 346.6844Q309.92188 348.1375 309.45312 349.59064L308.60938 349.075Q309.03125 347.7625 309.07812 346.3094L310.0625 346.45Q310.25 346.59064 309.96875 346.6844ZM312.26562 348.5594Q312.07812 347.2 311.75 346.59064L312.5 346.3094Q312.96875 346.96564 313.15625 348.27814L312.26562 348.5594ZM326.46875 345.09064Q326.46875 341.90314 326.28125 340.16876L327.21875 340.16876Q327.73438 340.21564 327.3125 340.54376Q327.45312 342.04376 327.45312 345.1375Q327.45312 348.65314 324.125 350.4344L323.32812 349.6375Q326.46875 348.1375 326.46875 345.09064ZM323.28125 346.6375Q322.85938 346.96564 322.34375 346.96564Q322.01562 346.96564 321.73438 346.6844Q321.40625 346.35626 321.40625 343.8719Q321.40625 341.9969 321.59375 340.45L322.625 340.45Q323.0 340.59064 322.625 340.77814Q322.39062 341.90314 322.39062 343.8719Q322.39062 345.8875 322.57812 345.8875Q322.71875 345.8875 322.95312 345.7Q323.28125 345.41876 324.03125 344.4344L324.73438 345.1375Q323.9375 346.1219 323.28125 346.6375ZM338.42188 342.79376L338.51562 342.5594L339.35938 343.21564Q339.64062 343.45 339.17188 343.54376Q338.65625 345.1844 337.8125 346.3094Q338.84375 347.15314 340.10938 347.575L339.64062 348.60626Q338.375 348.1375 337.15625 347.0594Q335.98438 348.1375 334.76562 348.7469L334.20312 347.85626Q335.1875 347.3875 336.45312 346.40314Q335.46875 344.9969 335.14062 343.6844L334.4375 343.6844L334.4375 345.04376Q334.4375 347.29376 333.3125 348.41876L332.70312 347.48126Q333.5 346.825 333.5 344.95L333.5 340.2625L339.73438 340.2625L339.73438 341.29376L334.4375 341.29376L334.4375 342.79376L338.42188 342.79376ZM340.39062 349.21564L340.20312 350.10626L334.48438 350.10626Q332.79688 350.10626 331.8125 348.8875Q331.39062 349.59064 330.3125 350.2469L329.70312 349.21564Q330.73438 348.79376 331.29688 348.27814L331.29688 345.41876L329.75 345.41876L329.75 344.3875L332.23438 344.3875L332.23438 348.23126Q332.98438 349.21564 334.4375 349.21564L340.39062 349.21564ZM330.96875 340.02814Q332.09375 340.77814 332.70312 341.7625L331.95312 342.5125Q331.25 341.52814 330.26562 340.77814L330.96875 340.02814ZM336.03125 343.6844Q336.45312 344.95 337.10938 345.65314Q337.8125 344.66876 338.09375 343.6844L336.03125 343.6844ZM349.71875 347.7625Q347.70312 349.96564 345.35938 349.96564Q343.67188 349.96564 342.875 349.16876Q342.26562 348.5594 342.26562 346.825L342.26562 340.54376L343.25 340.54376Q343.67188 340.6375 343.34375 340.91876L343.34375 346.825Q343.34375 347.9969 343.76562 348.41876Q344.28125 348.9344 345.3125 348.9344Q347.14062 348.9344 349.01562 346.8719L349.71875 347.7625ZM358.71875 346.8719Q359.375 345.60626 359.51562 343.02814L357.92188 343.02814Q358.0625 345.60626 358.71875 346.8719ZM360.45312 343.02814Q360.35938 345.9344 359.32812 347.71564Q360.07812 348.65314 361.4375 349.35626L360.82812 350.3875Q359.32812 349.40314 358.71875 348.5125Q357.64062 349.73126 355.39062 350.6219L354.92188 349.6844Q357.35938 348.7 358.15625 347.66876Q357.35938 346.1219 357.26562 344.575Q356.98438 345.27814 356.70312 345.65314L355.90625 345.04376Q357.3125 342.98126 357.59375 339.9344L358.57812 340.16876Q358.85938 340.35626 358.4375 340.45Q358.29688 341.29376 358.0625 342.1375L361.25 342.1375L361.25 343.02814L360.45312 343.02814ZM356.09375 340.77814Q355.8125 341.48126 355.4375 341.95L354.6875 341.52814Q355.0625 340.91876 355.39062 340.1219L356.23438 340.54376Q356.42188 340.73126 356.09375 340.77814ZM353.09375 347.3875Q353.75 347.575 354.26562 347.8094Q354.64062 347.3875 354.875 346.54376L353.51562 346.54376Q353.32812 346.96564 353.09375 347.3875ZM352.4375 348.5594L351.6875 348.1375Q352.15625 347.4344 352.625 346.54376L350.84375 346.54376L350.84375 345.79376L352.90625 345.79376Q353.1875 345.1844 353.32812 344.7625L354.21875 344.9969Q354.40625 345.1844 354.07812 345.23126L353.79688 345.79376L356.46875 345.79376L356.46875 346.54376L355.76562 346.54376Q355.53125 347.48126 355.0625 348.1375Q355.48438 348.325 355.95312 348.60626L355.53125 349.35626Q355.01562 349.02814 354.59375 348.84064Q353.375 350.0594 351.3125 350.34064L350.98438 349.4969Q352.8125 349.3094 353.79688 348.46564Q353.28125 348.23126 352.76562 348.04376L352.4375 348.5594ZM353.375 339.7469L354.125 339.7469Q354.5 339.79376 354.17188 340.02814L354.17188 342.04376L356.5625 342.04376L356.5625 342.79376L354.59375 342.79376Q355.10938 343.40314 356.1875 343.96564L355.67188 344.7625Q354.875 344.29376 354.17188 343.45L354.17188 344.575L353.375 344.575L353.375 343.6844Q352.625 344.6219 351.3125 345.3719L350.70312 344.6219Q352.15625 343.8719 353.09375 342.79376L350.9375 342.79376L350.9375 342.04376L353.375 342.04376L353.375 339.7469ZM352.0625 341.90314Q351.73438 341.2 351.21875 340.6844L351.96875 340.21564Q352.53125 340.77814 352.8125 341.3875L352.0625 341.90314Z" fill-rule="nonzero"/><path fill="#000000" d="M29.550013 205.91771L20.956263 205.91771L20.956263 204.85521L29.550013 204.85521L29.550013 205.91771ZM26.440638 203.27708Q24.706263 203.27708 23.878138 202.32396Q23.190638 201.52708 23.190638 200.37083Q23.190638 199.08958 24.034388 198.27708Q24.862513 197.44896 26.346888 197.44896Q27.550013 197.44896 28.237513 197.80833Q28.925013 198.16771 29.315638 198.87083Q29.690638 199.55833 29.690638 200.37083Q29.690638 201.66771 28.862513 202.48021Q28.018763 203.27708 26.440638 203.27708ZM26.440638 202.19896Q27.628138 202.19896 28.221888 201.68333Q28.815638 201.15208 28.815638 200.37083Q28.815638 199.57396 28.221888 199.05833Q27.628138 198.54271 26.409388 198.54271Q25.253138 198.54271 24.659388 199.07396Q24.065638 199.58958 24.065638 200.37083Q24.065638 201.15208 24.659388 201.68333Q25.237513 202.19896 26.440638 202.19896ZM30.065638 196.08958L30.221888 195.05833Q30.690638 194.99583 30.909388 194.69896Q31.206263 194.30833 31.206263 193.63646Q31.206263 192.90208 30.909388 192.51146Q30.612513 192.10521 30.096888 191.96458Q29.768763 191.87083 28.737513 191.88646Q29.550013 192.57396 29.550013 193.60521Q29.550013 194.88646 28.628138 195.58958Q27.690638 196.29271 26.409388 196.29271Q25.518763 196.29271 24.768763 195.98021Q24.003138 195.65208 23.596888 195.04271Q23.190638 194.43333 23.190638 193.60521Q23.190638 192.49583 24.081263 191.77708L23.331263 191.77708L23.331263 190.80833L28.706263 190.80833Q30.159388 190.80833 30.768763 191.10521Q31.378138 191.40208 31.721888 192.04271Q32.08126 192.68333 32.08126 193.62083Q32.08126 194.73021 31.581263 195.41771Q31.081263 196.10521 30.065638 196.08958ZM26.331263 195.21458Q27.550013 195.21458 28.112513 194.73021Q28.675013 194.24583 28.675013 193.51146Q28.675013 192.77708 28.112513 192.29271Q27.550013 191.79271 26.362513 191.79271Q25.221888 191.79271 24.643763 192.30833Q24.065638 192.80833 24.065638 193.52708Q24.065638 194.23021 24.643763 194.73021Q25.206263 195.21458 26.331263 195.21458ZM29.550013 188.76146L20.956263 188.76146L20.956263 185.51146Q20.956263 184.66771 21.034388 184.21458Q21.143763 183.57396 21.440638 183.15208Q21.737513 182.71458 22.268763 182.46458Q22.800013 182.19896 23.440638 182.19896Q24.534388 182.19896 25.300013 182.90208Q26.050013 183.58958 26.050013 185.41771L26.050013 187.62083L29.550013 187.62083L29.550013 188.76146ZM25.050013 187.62083L25.050013 185.40208Q25.050013 184.29271 24.643763 183.83958Q24.221888 183.37083 23.471888 183.37083Q22.940638 183.37083 22.565638 183.65208Q22.175013 183.91771 22.050013 184.35521Q21.971888 184.65208 21.971888 185.41771L21.971888 187.62083L25.050013 187.62083ZM32.08126 178.87083Q30.971888 179.74583 29.503138 180.35521Q28.018763 180.94896 26.440638 180.94896Q25.050013 180.94896 23.768763 180.51146Q22.284388 179.98021 20.815638 178.87083L20.815638 178.12083Q22.034388 178.82396 22.550013 179.05833Q23.362513 179.41771 24.237513 179.62083Q25.331263 179.87083 26.440638 179.87083Q29.268763 179.87083 32.08126 178.12083L32.08126 178.87083ZM29.550013 177.58958L26.315638 175.32396L23.331263 177.41771L23.331263 176.10521L24.784388 175.15208Q25.206263 174.88646 25.487513 174.71458Q25.096888 174.46458 24.800013 174.24583L23.331263 173.19896L23.331263 171.93333L26.253138 174.08958L29.550013 171.77708L29.550013 173.05833L27.612513 174.33958L27.096888 174.68333L29.550013 176.32396L29.550013 177.58958ZM32.08126 171.19896L32.08126 171.94896Q29.268763 170.19896 26.440638 170.19896Q25.346888 170.19896 24.253138 170.44896Q23.378138 170.65208 22.565638 171.01146Q22.050013 171.24583 20.815638 171.94896L20.815638 171.19896Q22.284388 170.10521 23.768763 169.57396Q25.050013 169.12083 26.440638 169.12083Q28.018763 169.12083 29.503138 169.73021Q30.971888 170.33958 32.08126 171.19896Z" fill-rule="nonzero"/><path fill="#000000" d="M50.925 276.95047L50.925 275.88797L54.175 275.88797L54.175 276.95047L50.925 276.95047ZM55.1125 272.05984L55.1125 271.04422L60.675 271.04422L60.675 271.87234Q59.8625 272.74734 59.05 274.20047Q58.253124 275.63797 57.815624 277.16922Q57.4875 278.24734 57.409374 279.5286L56.315624 279.5286Q56.33125 278.51297 56.70625 277.07547Q57.096874 275.63797 57.8 274.30984Q58.51875 272.98172 59.33125 272.05984L55.1125 272.05984ZM67.59688 278.51297L67.59688 279.5286L61.909374 279.5286Q61.909374 279.1536 62.034374 278.79422Q62.253124 278.2161 62.721874 277.6536Q63.20625 277.0911 64.1125 276.35672Q65.51875 275.20047 66.00313 274.5286Q66.50313 273.85672 66.50313 273.26297Q66.50313 272.63797 66.05 272.2161Q65.59688 271.7786 64.87813 271.7786Q64.1125 271.7786 63.659374 272.23172Q63.20625 272.68484 63.190624 273.49734L62.1125 273.38797Q62.221874 272.16922 62.940624 271.54422Q63.675 270.9036 64.90938 270.9036Q66.14375 270.9036 66.8625 271.5911Q67.58125 272.2786 67.58125 273.29422Q67.58125 273.80984 67.3625 274.30984Q67.15938 274.79422 66.65938 275.35672Q66.175 275.9036 65.05 276.85672Q64.09688 277.6536 63.815624 277.95047Q63.55 278.23172 63.378124 278.51297L67.59688 278.51297ZM69.05 275.29422Q69.05 273.76297 69.3625 272.8411Q69.675 271.9036 70.28438 271.4036Q70.90938 270.9036 71.84688 270.9036Q72.53438 270.9036 73.05 271.18484Q73.58125 271.4661 73.925 271.99734Q74.26875 272.51297 74.45625 273.26297Q74.64375 274.01297 74.64375 275.29422Q74.64375 276.80984 74.33125 277.73172Q74.03438 278.6536 73.40938 279.16922Q72.8 279.66922 71.84688 279.66922Q70.6125 279.66922 69.89375 278.7786Q69.05 277.7161 69.05 275.29422ZM70.12813 275.29422Q70.12813 277.4036 70.62813 278.10672Q71.12813 278.80984 71.84688 278.80984Q72.58125 278.80984 73.06563 278.10672Q73.56563 277.4036 73.56563 275.29422Q73.56563 273.16922 73.06563 272.48172Q72.58125 271.7786 71.83125 271.7786Q71.1125 271.7786 70.675 272.38797Q70.12813 273.16922 70.12813 275.29422ZM76.05 275.29422Q76.05 273.76297 76.3625 272.8411Q76.675 271.9036 77.28438 271.4036Q77.90938 270.9036 78.84688 270.9036Q79.53438 270.9036 80.05 271.18484Q80.58125 271.4661 80.925 271.99734Q81.26875 272.51297 81.45625 273.26297Q81.64375 274.01297 81.64375 275.29422Q81.64375 276.80984 81.33125 277.73172Q81.03438 278.6536 80.40938 279.16922Q79.8 279.66922 78.84688 279.66922Q77.6125 279.66922 76.89375 278.7786Q76.05 277.7161 76.05 275.29422ZM77.12813 275.29422Q77.12813 277.4036 77.62813 278.10672Q78.12813 278.80984 78.84688 278.80984Q79.58125 278.80984 80.06563 278.10672Q80.56563 277.4036 80.56563 275.29422Q80.56563 273.16922 80.06563 272.48172Q79.58125 271.7786 78.83125 271.7786Q78.1125 271.7786 77.675 272.38797Q77.12813 273.16922 77.12813 275.29422Z" fill-rule="nonzero"/><path fill="#000000" d="M50.925 205.7465L50.925 204.684L54.175 204.684L54.175 205.7465L50.925 205.7465ZM55.1125 200.85588L55.1125 199.84026L60.675 199.84026L60.675 200.66838Q59.8625 201.54338 59.05 202.9965Q58.253124 204.434 57.815624 205.96526Q57.4875 207.04338 57.409374 208.32463L56.315624 208.32463Q56.33125 207.309 56.70625 205.8715Q57.096874 204.434 57.8 203.10588Q58.51875 201.77776 59.33125 200.85588L55.1125 200.85588ZM66.01875 208.32463L64.97188 208.32463L64.97188 201.60588Q64.58125 201.96526 63.95625 202.34026Q63.346874 202.69963 62.8625 202.8715L62.8625 201.85588Q63.7375 201.434 64.39375 200.85588Q65.06563 200.26213 65.34688 199.69963L66.01875 199.69963L66.01875 208.32463ZM69.05 204.09026Q69.05 202.559 69.3625 201.63713Q69.675 200.69963 70.28438 200.19963Q70.90938 199.69963 71.84688 199.69963Q72.53438 199.69963 73.05 199.98088Q73.58125 200.26213 73.925 200.79338Q74.26875 201.309 74.45625 202.059Q74.64375 202.809 74.64375 204.09026Q74.64375 205.60588 74.33125 206.52776Q74.03438 207.44963 73.40938 207.96526Q72.8 208.46526 71.84688 208.46526Q70.6125 208.46526 69.89375 207.57463Q69.05 206.51213 69.05 204.09026ZM70.12813 204.09026Q70.12813 206.19963 70.62813 206.90276Q71.12813 207.60588 71.84688 207.60588Q72.58125 207.60588 73.06563 206.90276Q73.56563 206.19963 73.56563 204.09026Q73.56563 201.96526 73.06563 201.27776Q72.58125 200.57463 71.83125 200.57463Q71.1125 200.57463 70.675 201.184Q70.12813 201.96526 70.12813 204.09026ZM76.05 204.09026Q76.05 202.559 76.3625 201.63713Q76.675 200.69963 77.28438 200.19963Q77.90938 199.69963 78.84688 199.69963Q79.53438 199.69963 80.05 199.98088Q80.58125 200.26213 80.925 200.79338Q81.26875 201.309 81.45625 202.059Q81.64375 202.809 81.64375 204.09026Q81.64375 205.60588 81.33125 206.52776Q81.03438 207.44963 80.40938 207.96526Q79.8 208.46526 78.84688 208.46526Q77.6125 208.46526 76.89375 207.57463Q76.05 206.51213 76.05 204.09026ZM77.12813 204.09026Q77.12813 206.19963 77.62813 206.90276Q78.12813 207.60588 78.84688 207.60588Q79.58125 207.60588 80.06563 206.90276Q80.56563 206.19963 80.56563 204.09026Q80.56563 201.96526 80.06563 201.27776Q79.58125 200.57463 78.83125 200.57463Q78.1125 200.57463 77.675 201.184Q77.12813 201.96526 77.12813 204.09026Z" fill-rule="nonzero"/><path fill="#000000" d="M50.925 134.54253L50.925 133.48003L54.175 133.48003L54.175 134.54253L50.925 134.54253ZM55.1125 129.6519L55.1125 128.63628L60.675 128.63628L60.675 129.4644Q59.8625 130.3394 59.05 131.79253Q58.253124 133.23003 57.815624 134.76128Q57.4875 135.8394 57.409374 137.12065L56.315624 137.12065Q56.33125 136.10503 56.70625 134.66753Q57.096874 133.23003 57.8 131.9019Q58.51875 130.57378 59.33125 129.6519L55.1125 129.6519ZM62.05 132.88628Q62.05 131.35503 62.3625 130.43315Q62.675 129.49565 63.284374 128.99565Q63.909374 128.49565 64.84688 128.49565Q65.53438 128.49565 66.05 128.7769Q66.58125 129.05815 66.925 129.5894Q67.26875 130.10503 67.45625 130.85503Q67.64375 131.60503 67.64375 132.88628Q67.64375 134.4019 67.33125 135.32378Q67.03438 136.24565 66.40938 136.76128Q65.8 137.26128 64.84688 137.26128Q63.6125 137.26128 62.89375 136.37065Q62.05 135.30815 62.05 132.88628ZM63.128124 132.88628Q63.128124 134.99565 63.628124 135.69878Q64.12813 136.4019 64.84688 136.4019Q65.58125 136.4019 66.06563 135.69878Q66.56563 134.99565 66.56563 132.88628Q66.56563 130.76128 66.06563 130.07378Q65.58125 129.37065 64.83125 129.37065Q64.1125 129.37065 63.675 129.98003Q63.128124 130.76128 63.128124 132.88628ZM69.05 132.88628Q69.05 131.35503 69.3625 130.43315Q69.675 129.49565 70.28438 128.99565Q70.90938 128.49565 71.84688 128.49565Q72.53438 128.49565 73.05 128.7769Q73.58125 129.05815 73.925 129.5894Q74.26875 130.10503 74.45625 130.85503Q74.64375 131.60503 74.64375 132.88628Q74.64375 134.4019 74.33125 135.32378Q74.03438 136.24565 73.40938 136.76128Q72.8 137.26128 71.84688 137.26128Q70.6125 137.26128 69.89375 136.37065Q69.05 135.30815 69.05 132.88628ZM70.12813 132.88628Q70.12813 134.99565 70.62813 135.69878Q71.12813 136.4019 71.84688 136.4019Q72.58125 136.4019 73.06563 135.69878Q73.56563 134.99565 73.56563 132.88628Q73.56563 130.76128 73.06563 130.07378Q72.58125 129.37065 71.83125 129.37065Q71.1125 129.37065 70.675 129.98003Q70.12813 130.76128 70.12813 132.88628ZM76.05 132.88628Q76.05 131.35503 76.3625 130.43315Q76.675 129.49565 77.28438 128.99565Q77.90938 128.49565 78.84688 128.49565Q79.53438 128.49565 80.05 128.7769Q80.58125 129.05815 80.925 129.5894Q81.26875 130.10503 81.45625 130.85503Q81.64375 131.60503 81.64375 132.88628Q81.64375 134.4019 81.33125 135.32378Q81.03438 136.24565 80.40938 136.76128Q79.8 137.26128 78.84688 137.26128Q77.6125 137.26128 76.89375 136.37065Q76.05 135.30815 76.05 132.88628ZM77.12813 132.88628Q77.12813 134.99565 77.62813 135.69878Q78.12813 136.4019 78.84688 136.4019Q79.58125 136.4019 80.06563 135.69878Q80.56563 134.99565 80.56563 132.88628Q80.56563 130.76128 80.06563 130.07378Q79.58125 129.37065 78.83125 129.37065Q78.1125 129.37065 77.675 129.98003Q77.12813 130.76128 77.12813 132.88628Z" fill-rule="nonzero"/><path fill="#000000" d="M50.925 63.33854L50.925 62.27604L54.175 62.27604L54.175 63.33854L50.925 63.33854ZM60.51875 59.43229L59.471874 59.510414Q59.33125 58.885414 59.08125 58.604164Q58.64375 58.15104 58.01875 58.15104Q57.51875 58.15104 57.128124 58.43229Q56.64375 58.80729 56.346874 59.510414Q56.065624 60.197914 56.05 61.479164Q56.425 60.90104 56.971874 60.61979Q57.534374 60.33854 58.14375 60.33854Q59.190624 60.33854 59.925 61.11979Q60.675 61.90104 60.675 63.11979Q60.675 63.93229 60.315624 64.635414Q59.971874 65.322914 59.3625 65.697914Q58.753124 66.05729 57.9875 66.05729Q56.659374 66.05729 55.83125 65.08854Q55.003124 64.11979 55.003124 61.90104Q55.003124 59.40104 55.925 58.27604Q56.721874 57.291664 58.08125 57.291664Q59.096874 57.291664 59.7375 57.86979Q60.39375 58.43229 60.51875 59.43229ZM56.221874 63.135414Q56.221874 63.68229 56.440624 64.18229Q56.675 64.666664 57.08125 64.93229Q57.503124 65.197914 57.971874 65.197914Q58.628124 65.197914 59.1125 64.666664Q59.596874 64.11979 59.596874 63.197914Q59.596874 62.30729 59.1125 61.791664Q58.64375 61.27604 57.925 61.27604Q57.20625 61.27604 56.70625 61.791664Q56.221874 62.30729 56.221874 63.135414ZM62.20625 63.93229L63.221874 63.83854Q63.346874 64.55729 63.70625 64.885414Q64.08125 65.197914 64.64375 65.197914Q65.12813 65.197914 65.4875 64.979164Q65.8625 64.74479 66.09688 64.385414Q66.33125 64.010414 66.4875 63.385414Q66.64375 62.74479 66.64375 62.08854Q66.64375 62.010414 66.64375 61.86979Q66.33125 62.36979 65.78438 62.697914Q65.2375 63.010414 64.59688 63.010414Q63.51875 63.010414 62.784374 62.24479Q62.05 61.46354 62.05 60.197914Q62.05 58.885414 62.815624 58.08854Q63.596874 57.291664 64.75313 57.291664Q65.58125 57.291664 66.26875 57.74479Q66.97188 58.197914 67.33125 59.041664Q67.69063 59.86979 67.69063 61.447914Q67.69063 63.08854 67.33125 64.072914Q66.9875 65.041664 66.26875 65.55729Q65.56563 66.05729 64.62813 66.05729Q63.6125 66.05729 62.971874 65.510414Q62.33125 64.947914 62.20625 63.93229ZM66.51875 60.135414Q66.51875 59.229164 66.03438 58.697914Q65.56563 58.166664 64.87813 58.166664Q64.175 58.166664 63.64375 58.74479Q63.128124 59.30729 63.128124 60.229164Q63.128124 61.041664 63.628124 61.55729Q64.12813 62.072914 64.84688 62.072914Q65.58125 62.072914 66.05 61.55729Q66.51875 61.041664 66.51875 60.135414ZM69.05 61.68229Q69.05 60.15104 69.3625 59.229164Q69.675 58.291664 70.28438 57.791664Q70.90938 57.291664 71.84688 57.291664Q72.53438 57.291664 73.05 57.572914Q73.58125 57.854164 73.925 58.385414Q74.26875 58.90104 74.45625 59.65104Q74.64375 60.40104 74.64375 61.68229Q74.64375 63.197914 74.33125 64.11979Q74.03438 65.041664 73.40938 65.55729Q72.8 66.05729 71.84688 66.05729Q70.6125 66.05729 69.89375 65.166664Q69.05 64.104164 69.05 61.68229ZM70.12813 61.68229Q70.12813 63.791664 70.62813 64.49479Q71.12813 65.197914 71.84688 65.197914Q72.58125 65.197914 73.06563 64.49479Q73.56563 63.791664 73.56563 61.68229Q73.56563 59.55729 73.06563 58.86979Q72.58125 58.166664 71.83125 58.166664Q71.1125 58.166664 70.675 58.77604Q70.12813 59.55729 70.12813 61.68229ZM76.05 61.68229Q76.05 60.15104 76.3625 59.229164Q76.675 58.291664 77.28438 57.791664Q77.90938 57.291664 78.84688 57.291664Q79.53438 57.291664 80.05 57.572914Q80.58125 57.854164 80.925 58.385414Q81.26875 58.90104 81.45625 59.65104Q81.64375 60.40104 81.64375 61.68229Q81.64375 63.197914 81.33125 64.11979Q81.03438 65.041664 80.40938 65.55729Q79.8 66.05729 78.84688 66.05729Q77.6125 66.05729 76.89375 65.166664Q76.05 64.104164 76.05 61.68229ZM77.12813 61.68229Q77.12813 63.791664 77.62813 64.49479Q78.12813 65.197914 78.84688 65.197914Q79.58125 65.197914 80.06563 64.49479Q80.56563 63.791664 80.56563 61.68229Q80.56563 59.55729 80.06563 58.86979Q79.58125 58.166664 78.83125 58.166664Q78.1125 58.166664 77.675 58.77604Q77.12813 59.55729 77.12813 61.68229Z" fill-rule="nonzero"/><path fill="#000000" d="M85.55 313.21564Q85.55 311.6844 85.8625 310.7625Q86.175 309.825 86.78438 309.325Q87.40938 308.825 88.34688 308.825Q89.03438 308.825 89.55 309.10626Q90.08125 309.3875 90.425 309.91876Q90.76875 310.4344 90.95625 311.1844Q91.14375 311.9344 91.14375 313.21564Q91.14375 314.73126 90.83125 315.65314Q90.53438 316.575 89.90938 317.09064Q89.3 317.59064 88.34688 317.59064Q87.1125 317.59064 86.39375 316.7Q85.55 315.6375 85.55 313.21564ZM86.62813 313.21564Q86.62813 315.325 87.12813 316.02814Q87.62813 316.73126 88.34688 316.73126Q89.08125 316.73126 89.56563 316.02814Q90.06563 315.325 90.06563 313.21564Q90.06563 311.09064 89.56563 310.40314Q89.08125 309.7 88.33125 309.7Q87.6125 309.7 87.175 310.3094Q86.62813 311.09064 86.62813 313.21564Z" fill-rule="nonzero"/><path fill="#000000" d="M184.59875 317.45L183.55188 317.45L183.55188 310.73126Q183.16125 311.09064 182.53625 311.46564Q181.92688 311.825 181.4425 311.9969L181.4425 310.98126Q182.3175 310.5594 182.97375 309.98126Q183.64563 309.3875 183.92688 308.825L184.59875 308.825L184.59875 317.45ZM187.63 313.21564Q187.63 311.6844 187.9425 310.7625Q188.255 309.825 188.86438 309.325Q189.48938 308.825 190.42688 308.825Q191.11438 308.825 191.63 309.10626Q192.16125 309.3875 192.505 309.91876Q192.84875 310.4344 193.03625 311.1844Q193.22375 311.9344 193.22375 313.21564Q193.22375 314.73126 192.91125 315.65314Q192.61438 316.575 191.98938 317.09064Q191.38 317.59064 190.42688 317.59064Q189.1925 317.59064 188.47375 316.7Q187.63 315.6375 187.63 313.21564ZM188.70813 313.21564Q188.70813 315.325 189.20813 316.02814Q189.70813 316.73126 190.42688 316.73126Q191.16125 316.73126 191.64563 316.02814Q192.14563 315.325 192.14563 313.21564Q192.14563 311.09064 191.64563 310.40314Q191.16125 309.7 190.41125 309.7Q189.6925 309.7 189.255 310.3094Q188.70813 311.09064 188.70813 313.21564Z" fill-rule="nonzero"/><path fill="#000000" d="M284.75687 316.4344L284.75687 317.45L279.06937 317.45Q279.06937 317.075 279.19437 316.71564Q279.41312 316.1375 279.88187 315.575Q280.36624 315.0125 281.2725 314.27814Q282.67874 313.1219 283.16312 312.45Q283.66312 311.77814 283.66312 311.1844Q283.66312 310.5594 283.21 310.1375Q282.75687 309.7 282.03812 309.7Q281.2725 309.7 280.81937 310.15314Q280.36624 310.60626 280.35062 311.41876L279.2725 311.3094Q279.38187 310.09064 280.10062 309.46564Q280.835 308.825 282.06937 308.825Q283.30374 308.825 284.0225 309.5125Q284.74124 310.2 284.74124 311.21564Q284.74124 311.73126 284.5225 312.23126Q284.31937 312.71564 283.81937 313.27814Q283.335 313.825 282.21 314.77814Q281.25687 315.575 280.97562 315.8719Q280.71 316.15314 280.53812 316.4344L284.75687 316.4344ZM286.21 313.21564Q286.21 311.6844 286.5225 310.7625Q286.835 309.825 287.44437 309.325Q288.06937 308.825 289.00687 308.825Q289.69437 308.825 290.21 309.10626Q290.74124 309.3875 291.085 309.91876Q291.42874 310.4344 291.61624 311.1844Q291.80374 311.9344 291.80374 313.21564Q291.80374 314.73126 291.49124 315.65314Q291.19437 316.575 290.56937 317.09064Q289.96 317.59064 289.00687 317.59064Q287.7725 317.59064 287.05374 316.7Q286.21 315.6375 286.21 313.21564ZM287.28812 313.21564Q287.28812 315.325 287.78812 316.02814Q288.28812 316.73126 289.00687 316.73126Q289.74124 316.73126 290.22562 316.02814Q290.72562 315.325 290.72562 313.21564Q290.72562 311.09064 290.22562 310.40314Q289.74124 309.7 288.99124 309.7Q288.2725 309.7 287.835 310.3094Q287.28812 311.09064 287.28812 313.21564Z" fill-rule="nonzero"/><path fill="#000000" d="M377.79 315.1844L378.8525 315.04376Q379.02438 315.9344 379.46188 316.34064Q379.89938 316.73126 380.52438 316.73126Q381.27438 316.73126 381.79 316.21564Q382.30563 315.7 382.30563 314.9344Q382.30563 314.21564 381.82126 313.7469Q381.3525 313.2625 380.61813 313.2625Q380.32126 313.2625 379.86813 313.3875L379.99313 312.45Q380.1025 312.46564 380.165 312.46564Q380.83688 312.46564 381.36813 312.1219Q381.915 311.7625 381.915 311.02814Q381.915 310.45 381.52438 310.075Q381.13376 309.6844 380.50876 309.6844Q379.89938 309.6844 379.4775 310.075Q379.07126 310.46564 378.96188 311.23126L377.89938 311.04376Q378.08688 309.9969 378.77438 309.41876Q379.46188 308.825 380.4775 308.825Q381.18063 308.825 381.77438 309.1375Q382.36813 309.4344 382.68063 309.95Q382.99313 310.46564 382.99313 311.0594Q382.99313 311.60626 382.69626 312.075Q382.39938 312.52814 381.82126 312.79376Q382.57126 312.96564 382.99313 313.52814Q383.415 314.075 383.415 314.91876Q383.415 316.04376 382.58688 316.825Q381.77438 317.60626 380.52438 317.60626Q379.39938 317.60626 378.64938 316.9344Q377.89938 316.2469 377.79 315.1844ZM384.79 313.21564Q384.79 311.6844 385.1025 310.7625Q385.415 309.825 386.02438 309.325Q386.64938 308.825 387.58688 308.825Q388.27438 308.825 388.79 309.10626Q389.32126 309.3875 389.665 309.91876Q390.00876 310.4344 390.19626 311.1844Q390.38376 311.9344 390.38376 313.21564Q390.38376 314.73126 390.07126 315.65314Q389.77438 316.575 389.14938 317.09064Q388.54 317.59064 387.58688 317.59064Q386.3525 317.59064 385.63376 316.7Q384.79 315.6375 384.79 313.21564ZM385.86813 313.21564Q385.86813 315.325 386.36813 316.02814Q386.86813 316.73126 387.58688 316.73126Q388.32126 316.73126 388.80563 316.02814Q389.30563 315.325 389.30563 313.21564Q389.30563 311.09064 388.80563 310.40314Q388.32126 309.7 387.57126 309.7Q386.8525 309.7 386.415 310.3094Q385.86813 311.09064 385.86813 313.21564Z" fill-rule="nonzero"/><path fill="#000000" d="M479.745 317.45L479.745 315.3875L476.02625 315.3875L476.02625 314.41876L479.94812 308.85626L480.8075 308.85626L480.8075 314.41876L481.96375 314.41876L481.96375 315.3875L480.8075 315.3875L480.8075 317.45L479.745 317.45ZM479.745 314.41876L479.745 310.5594L477.0575 314.41876L479.745 314.41876ZM483.37 313.21564Q483.37 311.6844 483.6825 310.7625Q483.995 309.825 484.60437 309.325Q485.22937 308.825 486.16687 308.825Q486.85437 308.825 487.37 309.10626Q487.90125 309.3875 488.245 309.91876Q488.58875 310.4344 488.77625 311.1844Q488.96375 311.9344 488.96375 313.21564Q488.96375 314.73126 488.65125 315.65314Q488.35437 316.575 487.72937 317.09064Q487.12 317.59064 486.16687 317.59064Q484.9325 317.59064 484.21375 316.7Q483.37 315.6375 483.37 313.21564ZM484.44812 313.21564Q484.44812 315.325 484.94812 316.02814Q485.44812 316.73126 486.16687 316.73126Q486.90125 316.73126 487.38562 316.02814Q487.88562 315.325 487.88562 313.21564Q487.88562 311.09064 487.38562 310.40314Q486.90125 309.7 486.15125 309.7Q485.4325 309.7 484.995 310.3094Q484.44812 311.09064 484.44812 313.21564Z" fill-rule="nonzero"/><path fill="#000000" d="M574.95 315.2L576.0594 315.10626Q576.1844 315.91876 576.6219 316.325Q577.075 316.73126 577.71564 316.73126Q578.46564 316.73126 578.9969 316.15314Q579.52814 315.575 579.52814 314.6375Q579.52814 313.73126 579.0125 313.21564Q578.5125 312.6844 577.6844 312.6844Q577.1844 312.6844 576.7625 312.91876Q576.35626 313.15314 576.1219 313.5125L575.1375 313.3875L575.96564 308.98126L580.2469 308.98126L580.2469 309.98126L576.8094 309.98126L576.35626 312.29376Q577.1219 311.7469 577.96564 311.7469Q579.09064 311.7469 579.85626 312.52814Q580.6375 313.3094 580.6375 314.54376Q580.6375 315.7 579.96564 316.5594Q579.1375 317.59064 577.71564 317.59064Q576.54376 317.59064 575.79376 316.9344Q575.0594 316.27814 574.95 315.2ZM581.95 313.21564Q581.95 311.6844 582.2625 310.7625Q582.575 309.825 583.1844 309.325Q583.8094 308.825 584.7469 308.825Q585.4344 308.825 585.95 309.10626Q586.48126 309.3875 586.825 309.91876Q587.16876 310.4344 587.35626 311.1844Q587.54376 311.9344 587.54376 313.21564Q587.54376 314.73126 587.23126 315.65314Q586.9344 316.575 586.3094 317.09064Q585.7 317.59064 584.7469 317.59064Q583.5125 317.59064 582.79376 316.7Q581.95 315.6375 581.95 313.21564ZM583.02814 313.21564Q583.02814 315.325 583.52814 316.02814Q584.02814 316.73126 584.7469 316.73126Q585.48126 316.73126 585.96564 316.02814Q586.46564 315.325 586.46564 313.21564Q586.46564 311.09064 585.96564 310.40314Q585.48126 309.7 584.73126 309.7Q584.0125 309.7 583.575 310.3094Q583.02814 311.09064 583.02814 313.21564Z" fill-rule="nonzero"/><path fill="#757575" d="M19.83125 37.55L19.83125 23.2375L21.58125 23.2375L21.58125 37.55L19.83125 37.55ZM23.221874 32.3625Q23.221874 29.4875 24.815624 28.096874Q26.159374 26.940624 28.08125 26.940624Q30.221874 26.940624 31.565624 28.346874Q32.925 29.753124 32.925 32.221874Q32.925 34.221874 32.33125 35.378124Q31.7375 36.51875 30.58125 37.159374Q29.440624 37.784374 28.08125 37.784374Q25.89375 37.784374 24.55 36.39375Q23.221874 34.9875 23.221874 32.3625ZM25.01875 32.3625Q25.01875 34.3625 25.878124 35.346874Q26.753124 36.33125 28.08125 36.33125Q29.39375 36.33125 30.253124 35.346874Q31.128124 34.346874 31.128124 32.3Q31.128124 30.378124 30.253124 29.39375Q29.378124 28.39375 28.08125 28.39375Q26.753124 28.39375 25.878124 29.39375Q25.01875 30.378124 25.01875 32.3625ZM34.55 38.409374L36.253124 38.659374Q36.3625 39.45625 36.846874 39.815624Q37.503124 40.3 38.64375 40.3Q39.8625 40.3 40.51875 39.815624Q41.190624 39.33125 41.425 38.45625Q41.565624 37.909374 41.55 36.190624Q40.39375 37.55 38.675 37.55Q36.534374 37.55 35.3625 36.003124Q34.190624 34.45625 34.190624 32.3Q34.190624 30.815624 34.721874 29.565624Q35.26875 28.315624 36.284374 27.628124Q37.315624 26.940624 38.690624 26.940624Q40.51875 26.940624 41.721874 28.425L41.721874 27.175L43.33125 27.175L43.33125 36.14375Q43.33125 38.565624 42.83125 39.565624Q42.346874 40.58125 41.26875 41.159374Q40.20625 41.753124 38.64375 41.753124Q36.8 41.753124 35.64375 40.925Q34.503124 40.096874 34.55 38.409374ZM36.003124 32.175Q36.003124 34.221874 36.815624 35.159374Q37.628124 36.096874 38.846874 36.096874Q40.05 36.096874 40.8625 35.159374Q41.690624 34.221874 41.690624 32.2375Q41.690624 30.33125 40.846874 29.3625Q40.003124 28.39375 38.815624 28.39375Q37.64375 28.39375 36.815624 29.346874Q36.003124 30.3 36.003124 32.175ZM46.096874 37.55L46.096874 23.2375L51.4875 23.2375Q52.925 23.2375 53.675 23.3625Q54.721874 23.55 55.440624 24.05Q56.159374 24.534374 56.58125 25.425Q57.01875 26.315624 57.01875 27.378124Q57.01875 29.20625 55.846874 30.471874Q54.690624 31.721874 51.659374 31.721874L47.9875 31.721874L47.9875 37.55L46.096874 37.55ZM47.9875 30.034374L51.690624 30.034374Q53.51875 30.034374 54.284374 29.3625Q55.065624 28.675 55.065624 27.425Q55.065624 26.534374 54.6125 25.89375Q54.159374 25.253124 53.425 25.05Q52.940624 24.925 51.64375 24.925L47.9875 24.925L47.9875 30.034374ZM62.221874 41.753124Q60.76875 39.925 59.76875 37.471874Q58.76875 35.003124 58.76875 32.3625Q58.76875 30.034374 59.51875 27.909374Q60.39375 25.440624 62.221874 22.9875L63.4875 22.9875Q62.3 25.01875 61.925 25.89375Q61.33125 27.2375 60.9875 28.70625Q60.565624 30.534374 60.565624 32.378124Q60.565624 37.065624 63.4875 41.753124L62.221874 41.753124ZM64.69063 37.55L68.4875 32.159374L64.9875 27.175L67.175 27.175L68.76875 29.6125Q69.22188 30.3 69.4875 30.76875Q69.925 30.128124 70.28438 29.628124L72.03438 27.175L74.12813 27.175L70.55 32.065624L74.40938 37.55L72.25313 37.55L70.1125 34.33125L69.55 33.45625L66.83125 37.55L64.69063 37.55ZM76.01875 41.753124L74.76875 41.753124Q77.675 37.065624 77.675 32.378124Q77.675 30.534374 77.26875 28.7375Q76.925 27.26875 76.33125 25.925Q75.95625 25.034374 74.76875 22.9875L76.01875 22.9875Q77.8625 25.440624 78.7375 27.909374Q79.4875 30.034374 79.4875 32.3625Q79.4875 35.003124 78.47188 37.471874Q77.47188 39.925 76.01875 41.753124Z" fill-rule="nonzero"/><path fill="#757575" d="M91.70625 21.925L93.34688 21.925Q94.20625 22.08125 93.50313 22.55L93.65938 26.3Q93.7375 27.940624 94.20625 28.95625Q96.39375 28.01875 100.06563 27.003124L100.84688 29.034374Q93.425 30.3625 90.925 32.8625Q90.06563 33.721874 90.06563 34.659374Q90.06563 35.3625 90.6125 35.909374Q91.15938 36.45625 92.87813 36.45625L100.37813 36.45625L100.37813 38.175L92.8 38.175Q90.22188 38.175 89.20625 37.159374Q88.19063 36.14375 88.19063 34.815624Q88.19063 33.096874 89.44063 31.846874Q90.37813 30.909374 92.56563 29.659374Q92.09688 28.4875 92.01875 27.08125L91.70625 21.925Z" fill-rule="nonzero"/><path fill="#757575" d="M111.3 28.175Q110.3625 27.2375 108.56563 25.9875L109.50313 24.7375L110.05 25.128124Q111.6125 22.70625 112.39375 21.3L113.87813 22.39375Q114.1125 22.784374 113.4875 22.70625Q112.39375 24.26875 111.14375 25.909374Q111.6125 26.3 112.2375 26.846874Q113.40938 25.20625 114.26875 23.8L115.59688 24.89375Q115.83125 25.284374 115.20625 25.20625Q113.4875 27.55 111.6125 29.89375L114.03438 29.659374L113.4875 28.64375L114.65938 28.01875Q115.59688 29.346874 116.22188 31.3L114.89375 31.925L114.50313 30.83125L113.01875 31.065624L113.01875 39.26875L111.69063 39.26875L111.69063 31.14375L109.19063 31.378124Q109.03438 31.925 108.8 31.6125L108.56563 29.89375L109.89375 29.89375Q110.51875 29.26875 111.3 28.175ZM116.37813 30.9875L116.37813 26.846874L120.59688 26.846874L120.59688 30.9875L116.37813 30.9875ZM118.87813 24.659374L123.175 24.659374L123.175 23.096874L118.87813 23.096874L118.87813 24.659374ZM117.55 21.846874L124.50313 21.846874L124.50313 25.909374L117.55 25.909374L117.55 21.846874ZM117.70625 27.784374L117.70625 30.05L119.26875 30.05L119.26875 27.784374L117.70625 27.784374ZM121.6125 26.846874L125.9875 26.846874L125.9875 30.9875L121.6125 30.9875L121.6125 26.846874ZM122.94063 30.05L124.65938 30.05L124.65938 27.784374L122.94063 27.784374L122.94063 30.05ZM116.06563 32.39375L120.44063 32.39375L120.44063 31.45625L121.69063 31.45625Q122.31563 31.534374 121.76875 31.925L121.76875 32.39375L126.3 32.39375L126.3 33.64375L122.00313 33.64375Q123.64375 35.51875 126.84688 36.846874L126.14375 38.4875Q123.09688 36.76875 121.76875 35.128124L121.76875 39.26875L120.44063 39.26875L120.44063 35.284374Q118.56563 37.55 115.675 38.8L115.05 37.159374Q118.40938 35.909374 120.12813 33.64375L116.06563 33.64375L116.06563 32.39375ZM110.83125 32.940624Q110.75313 35.3625 109.97188 37.784374L108.56563 36.925Q109.26875 34.7375 109.34688 32.315624L110.9875 32.55Q111.3 32.784374 110.83125 32.940624ZM114.65938 36.065624Q114.34688 33.8 113.8 32.784374L115.05 32.315624Q115.83125 33.409374 116.14375 35.596874L114.65938 36.065624ZM138.33125 30.284374Q138.33125 24.971874 138.01875 22.08125L139.58125 22.08125Q140.44063 22.159374 139.7375 22.70625Q139.97188 25.20625 139.97188 30.3625Q139.97188 36.221874 134.425 39.190624L133.09688 37.8625Q138.33125 35.3625 138.33125 30.284374ZM133.01875 32.8625Q132.31563 33.409374 131.45625 33.409374Q130.90938 33.409374 130.44063 32.940624Q129.89375 32.39375 129.89375 28.253124Q129.89375 25.128124 130.20625 22.55L131.925 22.55Q132.55 22.784374 131.925 23.096874Q131.53438 24.971874 131.53438 28.253124Q131.53438 31.6125 131.84688 31.6125Q132.08125 31.6125 132.47188 31.3Q133.01875 30.83125 134.26875 29.190624L135.44063 30.3625Q134.1125 32.003124 133.01875 32.8625ZM158.25313 26.45625L158.40938 26.065624L159.81563 27.159374Q160.28438 27.55 159.50313 27.70625Q158.64375 30.440624 157.2375 32.315624Q158.95625 33.721874 161.06563 34.425L160.28438 36.14375Q158.175 35.3625 156.14375 33.565624Q154.19063 35.3625 152.15938 36.378124L151.22188 34.89375Q152.8625 34.1125 154.97188 32.471874Q153.33125 30.128124 152.78438 27.940624L151.6125 27.940624L151.6125 30.20625Q151.6125 33.95625 149.7375 35.83125L148.72188 34.26875Q150.05 33.175 150.05 30.05L150.05 22.2375L160.44063 22.2375L160.44063 23.95625L151.6125 23.95625L151.6125 26.45625L158.25313 26.45625ZM161.53438 37.159374L161.22188 38.64375L151.69063 38.64375Q148.87813 38.64375 147.2375 36.6125Q146.53438 37.784374 144.7375 38.878124L143.72188 37.159374Q145.44063 36.45625 146.37813 35.596874L146.37813 30.83125L143.8 30.83125L143.8 29.1125L147.94063 29.1125L147.94063 35.51875Q149.19063 37.159374 151.6125 37.159374L161.53438 37.159374ZM145.83125 21.846874Q147.70625 23.096874 148.72188 24.7375L147.47188 25.9875Q146.3 24.346874 144.65938 23.096874L145.83125 21.846874ZM154.26875 27.940624Q154.97188 30.05 156.06563 31.221874Q157.2375 29.58125 157.70625 27.940624L154.26875 27.940624ZM177.08125 34.7375Q173.72188 38.409374 169.81563 38.409374Q167.00313 38.409374 165.675 37.08125Q164.65938 36.065624 164.65938 33.175L164.65938 22.70625L166.3 22.70625Q167.00313 22.8625 166.45625 23.33125L166.45625 33.175Q166.45625 35.128124 167.15938 35.83125Q168.01875 36.690624 169.7375 36.690624Q172.78438 36.690624 175.90938 33.253124L177.08125 34.7375ZM192.08125 33.253124Q193.175 31.14375 193.40938 26.846874L190.75313 26.846874Q190.9875 31.14375 192.08125 33.253124ZM194.97188 26.846874Q194.81563 31.690624 193.09688 34.659374Q194.34688 36.221874 196.6125 37.39375L195.59688 39.1125Q193.09688 37.471874 192.08125 35.9875Q190.28438 38.01875 186.53438 39.503124L185.75313 37.940624Q189.81563 36.3 191.14375 34.58125Q189.81563 32.003124 189.65938 29.425Q189.19063 30.596874 188.72188 31.221874L187.39375 30.20625Q189.7375 26.76875 190.20625 21.690624L191.84688 22.08125Q192.31563 22.39375 191.6125 22.55Q191.37813 23.95625 190.9875 25.3625L196.3 25.3625L196.3 26.846874L194.97188 26.846874ZM187.70625 23.096874Q187.2375 24.26875 186.6125 25.05L185.3625 24.346874Q185.9875 23.33125 186.53438 22.003124L187.94063 22.70625Q188.25313 23.01875 187.70625 23.096874ZM182.70625 34.1125Q183.8 34.425 184.65938 34.815624Q185.28438 34.1125 185.675 32.70625L183.40938 32.70625Q183.09688 33.409374 182.70625 34.1125ZM181.6125 36.065624L180.3625 35.3625Q181.14375 34.190624 181.925 32.70625L178.95625 32.70625L178.95625 31.45625L182.39375 31.45625Q182.8625 30.440624 183.09688 29.7375L184.58125 30.128124Q184.89375 30.440624 184.34688 30.51875L183.87813 31.45625L188.33125 31.45625L188.33125 32.70625L187.15938 32.70625Q186.76875 34.26875 185.9875 35.3625Q186.69063 35.675 187.47188 36.14375L186.76875 37.39375Q185.90938 36.846874 185.20625 36.534374Q183.175 38.565624 179.7375 39.034374L179.19063 37.628124Q182.2375 37.315624 183.87813 35.909374Q183.01875 35.51875 182.15938 35.20625L181.6125 36.065624ZM183.175 21.378124L184.425 21.378124Q185.05 21.45625 184.50313 21.846874L184.50313 25.20625L188.4875 25.20625L188.4875 26.45625L185.20625 26.45625Q186.06563 27.471874 187.8625 28.409374L187.00313 29.7375Q185.675 28.95625 184.50313 27.55L184.50313 29.425L183.175 29.425L183.175 27.940624Q181.925 29.503124 179.7375 30.753124L178.72188 29.503124Q181.14375 28.253124 182.70625 26.45625L179.1125 26.45625L179.1125 25.20625L183.175 25.20625L183.175 21.378124ZM180.9875 24.971874Q180.44063 23.8 179.58125 22.940624L180.83125 22.159374Q181.76875 23.096874 182.2375 24.1125L180.9875 24.971874Z" fill-rule="nonzero"/></svg>