<svg version="1.1" viewBox="0.0 0.0 600.0 371.0" fill="none" stroke="none" stroke-linecap="square" stroke-miterlimit="10" width="600" height="371" xmlns:xlink="http://www.w3.org/1999/xlink" xmlns="http://www.w3.org/2000/svg"><path fill="#ffffff" d="M0 0L600.0 0L600.0 371.0L0 371.0L0 0Z" fill-rule="nonzero"/><path stroke="#333333" stroke-width="1.0" stroke-linecap="butt" d="M45.5 88.5L45.5 300.5" fill-rule="nonzero"/><path stroke="#cccccc" stroke-width="1.0" stroke-linecap="butt" d="M152.5 88.5L152.5 300.5" fill-rule="nonzero"/><path stroke="#cccccc" stroke-width="1.0" stroke-linecap="butt" d="M259.5 88.5L259.5 300.5" fill-rule="nonzero"/><path stroke="#cccccc" stroke-width="1.0" stroke-linecap="butt" d="M367.5 88.5L367.5 300.5" fill-rule="nonzero"/><path stroke="#cccccc" stroke-width="1.0" stroke-linecap="butt" d="M474.5 88.5L474.5 300.5" fill-rule="nonzero"/><path stroke="#cccccc" stroke-width="1.0" stroke-linecap="butt" d="M581.5 88.5L581.5 300.5" fill-rule="nonzero"/><path stroke="#333333" stroke-width="1.0" stroke-linecap="butt" d="M45.5 300.5L581.5 300.5" fill-rule="nonzero"/><path stroke="#cccccc" stroke-width="1.0" stroke-linecap="butt" d="M45.5 262.5L581.5 262.5" fill-rule="nonzero"/><path stroke="#cccccc" stroke-width="1.0" stroke-linecap="butt" d="M45.5 224.5L581.5 224.5" fill-rule="nonzero"/><path stroke="#cccccc" stroke-width="1.0" stroke-linecap="butt" d="M45.5 186.5L581.5 186.5" fill-rule="nonzero"/><path stroke="#cccccc" stroke-width="1.0" stroke-linecap="butt" d="M45.5 148.5L581.5 148.5" fill-rule="nonzero"/><path stroke="#cccccc" stroke-width="1.0" stroke-linecap="butt" d="M45.5 111.5L581.5 111.5" fill-rule="nonzero"/><clipPath id="id_0"><path d="M45.55 88.28333L581.45 88.28333L581.45 300.45L45.55 300.45L45.55 88.28333Z" clip-rule="nonzero"/></clipPath><path stroke="#4285f4" stroke-width="2.0" stroke-linecap="butt" clip-path="url(#id_0)" d="M45.55 186.78929L56.268 198.58159L66.986 208.43112L77.704 216.61288L88.422 223.39291L99.14 229.01054L109.858 233.67174L120.576 237.54883L131.294 240.78357L142.012 243.4914L152.73 245.76588L163.448 247.68279L174.166 249.30345L184.884 250.67773L195.602 251.84627L206.32 252.84232L217.038 253.69325L227.756 254.42166L238.474 255.0463L249.192 255.58278L259.91 256.04422L270.628 256.4416L281.346 256.78412L292.064 257.0797L302.782 257.335L313.5 257.5556L324.218 257.7464L334.936 257.91147L345.654 258.05438L356.372 258.17816L367.09 258.2854L377.808 258.37833L388.526 258.4589L399.244 258.52875L409.962 258.58932L420.68 258.64188L431.398 258.68747L442.116 258.72702L452.834 258.76135L463.552 258.79117L474.27 258.81702L484.988 258.83948L495.706 258.85898L506.424 258.8759L517.142 258.8906L527.86 258.90335L538.578 258.91443L549.296 258.92404L560.014 258.93237L570.732 258.93964L581.45 258.94592" fill-rule="nonzero"/><path stroke="#ea4335" stroke-width="2.0" stroke-linecap="butt" clip-path="url(#id_0)" d="M45.55 111.01547L56.268 111.01547L66.986 112.337814L77.704 114.49462L88.422 117.110435L99.14 119.91593L109.858 122.72966L120.576 125.43711L131.294 127.971825L142.012 130.30025L152.73 132.4105L163.448 134.30437L174.166 135.99171L184.884 137.4869L195.602 138.80629L206.32 139.9669L217.038 140.98532L227.756 141.87723L238.474 142.65715L249.192 143.33835L259.91 143.93272L270.628 144.45094L281.346 144.90247L292.064 145.29568L302.782 145.63799L313.5 145.93584L324.218 146.19496L334.936 146.42032L345.654 146.61627L356.372 146.78664L367.09 146.93472L377.808 147.06343L388.526 147.1753L399.244 147.2725L409.962 147.35696L420.68 147.43034L431.398 147.49411L442.116 147.5495L452.834 147.59763L463.552 147.63943L474.27 147.67574L484.988 147.70729L495.706 147.73468L506.424 147.75848L517.142 147.77916L527.86 147.79712L538.578 147.81271L549.296 147.82626L560.014 147.83803L570.732 147.84825L581.45 147.85713" fill-rule="nonzero"/><path stroke="#fbbc04" stroke-width="2.0" stroke-linecap="butt" clip-path="url(#id_0)" d="M45.55 224.6762L56.268 212.8839L66.986 201.71202L77.704 191.37344L88.422 181.9776L99.14 173.55447L109.858 166.07954L120.576 159.49501L131.294 153.72557L142.012 148.68932L152.73 144.30455L163.448 140.4938L174.166 137.18579L184.884 134.31635L195.602 131.8284L206.32 129.67172L217.038 127.80238L227.756 126.18207L238.474 124.777504L249.192 123.559814L259.91 122.50401L270.628 121.58844L281.346 120.79436L292.064 120.105545L302.782 119.50798L313.5 118.9895L324.218 118.539604L334.936 118.14916L345.654 117.810295L356.372 117.51616L367.09 117.26084L377.808 117.0392L388.526 116.84678L399.244 116.67972L409.962 116.53467L420.68 116.40873L431.398 116.29937L442.116 116.204414L452.834 116.12196L463.552 116.05036L474.27 115.98818L484.988 115.93418L495.706 115.88729L506.424 115.84657L517.142 115.8112L527.86 115.780495L538.578 115.75382L549.296 115.73066L560.014 115.71054L570.732 115.69307L581.45 115.677895" fill-rule="nonzero"/><path fill="#000000" fill-opacity="0.0" clip-path="url(#id_0)" d="M48.55 186.78929C48.55 188.44614 47.206856 189.78929 45.55 189.78929C43.893147 189.78929 42.55 188.44614 42.55 186.78929C42.55 185.13243 43.893147 183.78929 45.55 183.78929C47.206856 183.78929 48.55 185.13243 48.55 186.78929Z" fill-rule="nonzero"/><path fill="#000000" fill-opacity="0.0" clip-path="url(#id_0)" d="M59.268 198.58159C59.268 200.23843 57.924854 201.58159 56.268 201.58159C54.611145 201.58159 53.268 200.23843 53.268 198.58159C53.268 196.92473 54.611145 195.58159 56.268 195.58159C57.924854 195.58159 59.268 196.92473 59.268 198.58159Z" fill-rule="nonzero"/><path fill="#000000" fill-opacity="0.0" clip-path="url(#id_0)" d="M69.986 208.43112C69.986 210.08797 68.64285 211.43112 66.986 211.43112C65.32915 211.43112 63.986 210.08797 63.986 208.43112C63.986 206.77426 65.32915 205.43112 66.986 205.43112C68.64285 205.43112 69.986 206.77426 69.986 208.43112Z" fill-rule="nonzero"/><path fill="#000000" fill-opacity="0.0" clip-path="url(#id_0)" d="M80.704 216.61288C80.704 218.26974 79.360855 219.61288 77.704 219.61288C76.04714 219.61288 74.704 218.26974 74.704 216.61288C74.704 214.95604 76.04714 213.61288 77.704 213.61288C79.360855 213.61288 80.704 214.95604 80.704 216.61288Z" fill-rule="nonzero"/><path fill="#000000" fill-opacity="0.0" clip-path="url(#id_0)" d="M91.422 223.39291C91.422 225.04977 90.07886 226.39291 88.422 226.39291C86.765144 226.39291 85.422 225.04977 85.422 223.39291C85.422 221.73607 86.765144 220.39291 88.422 220.39291C90.07886 220.39291 91.422 221.73607 91.422 223.39291Z" fill-rule="nonzero"/><path fill="#000000" fill-opacity="0.0" clip-path="url(#id_0)" d="M102.14 229.01054C102.14 230.6674 100.79685 232.01054 99.14 232.01054C97.48315 232.01054 96.14 230.6674 96.14 229.01054C96.14 227.3537 97.48315 226.01054 99.14 226.01054C100.79685 226.01054 102.14 227.3537 102.14 229.01054Z" fill-rule="nonzero"/><path fill="#000000" fill-opacity="0.0" clip-path="url(#id_0)" d="M112.858 233.67174C112.858 235.3286 111.514854 236.67174 109.858 236.67174C108.20115 236.67174 106.858 235.3286 106.858 233.67174C106.858 232.01488 108.20115 230.67174 109.858 230.67174C111.514854 230.67174 112.858 232.01488 112.858 233.67174Z" fill-rule="nonzero"/><path fill="#000000" fill-opacity="0.0" clip-path="url(#id_0)" d="M123.576 237.54883C123.576 239.20569 122.23286 240.54883 120.576 240.54883C118.91914 240.54883 117.576 239.20569 117.576 237.54883C117.576 235.89197 118.91914 234.54883 120.576 234.54883C122.23286 234.54883 123.576 235.89197 123.576 237.54883Z" fill-rule="nonzero"/><path fill="#000000" fill-opacity="0.0" clip-path="url(#id_0)" d="M134.294 240.78357C134.294 242.44041 132.95085 243.78357 131.294 243.78357C129.63715 243.78357 128.294 242.44041 128.294 240.78357C128.294 239.12671 129.63715 237.78357 131.294 237.78357C132.95085 237.78357 134.294 239.12671 134.294 240.78357Z" fill-rule="nonzero"/><path fill="#000000" fill-opacity="0.0" clip-path="url(#id_0)" d="M145.012 243.4914C145.012 245.14824 143.66885 246.4914 142.012 246.4914C140.35515 246.4914 139.012 245.14824 139.012 243.4914C139.012 241.83453 140.35515 240.4914 142.012 240.4914C143.66885 240.4914 145.012 241.83453 145.012 243.4914Z" fill-rule="nonzero"/><path fill="#000000" fill-opacity="0.0" clip-path="url(#id_0)" d="M155.73 245.76588C155.73 247.42274 154.38686 248.76588 152.73 248.76588C151.07315 248.76588 149.73 247.42274 149.73 245.76588C149.73 244.10902 151.07315 242.76588 152.73 242.76588C154.38686 242.76588 155.73 244.10902 155.73 245.76588Z" fill-rule="nonzero"/><path fill="#000000" fill-opacity="0.0" clip-path="url(#id_0)" d="M166.448 247.68279C166.448 249.33963 165.10486 250.68279 163.448 250.68279C161.79115 250.68279 160.448 249.33963 160.448 247.68279C160.448 246.02592 161.79115 244.68279 163.448 244.68279C165.10486 244.68279 166.448 246.02592 166.448 247.68279Z" fill-rule="nonzero"/><path fill="#000000" fill-opacity="0.0" clip-path="url(#id_0)" d="M177.166 249.30345C177.166 250.9603 175.82286 252.30345 174.166 252.30345C172.50914 252.30345 171.166 250.9603 171.166 249.30345C171.166 247.64659 172.50914 246.30345 174.166 246.30345C175.82286 246.30345 177.166 247.64659 177.166 249.30345Z" fill-rule="nonzero"/><path fill="#000000" fill-opacity="0.0" clip-path="url(#id_0)" d="M187.884 250.67773C187.884 252.33458 186.54085 253.67773 184.884 253.67773C183.22714 253.67773 181.884 252.33458 181.884 250.67773C181.884 249.02087 183.22714 247.67773 184.884 247.67773C186.54085 247.67773 187.884 249.02087 187.884 250.67773Z" fill-rule="nonzero"/><path fill="#000000" fill-opacity="0.0" clip-path="url(#id_0)" d="M198.602 251.84627C198.602 253.50311 197.25885 254.84627 195.602 254.84627C193.94514 254.84627 192.602 253.50311 192.602 251.84627C192.602 250.1894 193.94514 248.84627 195.602 248.84627C197.25885 248.84627 198.602 250.1894 198.602 251.84627Z" fill-rule="nonzero"/><path fill="#000000" fill-opacity="0.0" clip-path="url(#id_0)" d="M209.32 252.84232C209.32 254.49918 207.97685 255.84232 206.32 255.84232C204.66315 255.84232 203.32 254.49918 203.32 252.84232C203.32 251.18547 204.66315 249.84232 206.32 249.84232C207.97685 249.84232 209.32 251.18547 209.32 252.84232Z" fill-rule="nonzero"/><path fill="#000000" fill-opacity="0.0" clip-path="url(#id_0)" d="M220.038 253.69325C220.038 255.35011 218.69485 256.69324 217.038 256.69324C215.38115 256.69324 214.038 255.35011 214.038 253.69325C214.038 252.03639 215.38115 250.69325 217.038 250.69325C218.69485 250.69325 220.038 252.03639 220.038 253.69325Z" fill-rule="nonzero"/><path fill="#000000" fill-opacity="0.0" clip-path="url(#id_0)" d="M230.756 254.42166C230.756 256.07852 229.41286 257.42166 227.756 257.42166C226.09915 257.42166 224.756 256.07852 224.756 254.42166C224.756 252.7648 226.09915 251.42166 227.756 251.42166C229.41286 251.42166 230.756 252.7648 230.756 254.42166Z" fill-rule="nonzero"/><path fill="#000000" fill-opacity="0.0" clip-path="url(#id_0)" d="M241.474 255.0463C241.474 256.70316 240.13086 258.0463 238.474 258.0463C236.81714 258.0463 235.474 256.70316 235.474 255.0463C235.474 253.38943 236.81714 252.0463 238.474 252.0463C240.13086 252.0463 241.474 253.38943 241.474 255.0463Z" fill-rule="nonzero"/><path fill="#000000" fill-opacity="0.0" clip-path="url(#id_0)" d="M252.192 255.58278C252.192 257.23965 250.84886 258.5828 249.192 258.5828C247.53514 258.5828 246.192 257.23965 246.192 255.58278C246.192 253.92593 247.53514 252.58278 249.192 252.58278C250.84886 252.58278 252.192 253.92593 252.192 255.58278Z" fill-rule="nonzero"/><path fill="#000000" fill-opacity="0.0" clip-path="url(#id_0)" d="M262.91 256.04422C262.91 257.70108 261.56686 259.04422 259.91 259.04422C258.25314 259.04422 256.91 257.70108 256.91 256.04422C256.91 254.38736 258.25314 253.04422 259.91 253.04422C261.56686 253.04422 262.91 254.38736 262.91 256.04422Z" fill-rule="nonzero"/><path fill="#000000" fill-opacity="0.0" clip-path="url(#id_0)" d="M273.628 256.4416C273.628 258.09842 272.28485 259.4416 270.628 259.4416C268.97116 259.4416 267.628 258.09842 267.628 256.4416C267.628 254.78471 268.97116 253.44157 270.628 253.44157C272.28485 253.44157 273.628 254.78471 273.628 256.4416Z" fill-rule="nonzero"/><path fill="#000000" fill-opacity="0.0" clip-path="url(#id_0)" d="M284.346 256.78412C284.346 258.44098 283.00287 259.78412 281.346 259.78412C279.68915 259.78412 278.346 258.44098 278.346 256.78412C278.346 255.12727 279.68915 253.78413 281.346 253.78413C283.00287 253.78413 284.346 255.12727 284.346 256.78412Z" fill-rule="nonzero"/><path fill="#000000" fill-opacity="0.0" clip-path="url(#id_0)" d="M295.064 257.0797C295.064 258.73657 293.72086 260.0797 292.064 260.0797C290.40714 260.0797 289.064 258.73657 289.064 257.0797C289.064 255.42287 290.40714 254.07971 292.064 254.07971C293.72086 254.07971 295.064 255.42287 295.064 257.0797Z" fill-rule="nonzero"/><path fill="#000000" fill-opacity="0.0" clip-path="url(#id_0)" d="M305.782 257.335C305.782 258.99185 304.43884 260.335 302.782 260.335C301.12515 260.335 299.782 258.99185 299.782 257.335C299.782 255.67813 301.12515 254.33499 302.782 254.33499C304.43884 254.33499 305.782 255.67813 305.782 257.335Z" fill-rule="nonzero"/><path fill="#000000" fill-opacity="0.0" clip-path="url(#id_0)" d="M316.5 257.5556C316.5 259.21246 315.15686 260.5556 313.5 260.5556C311.84314 260.5556 310.5 259.21246 310.5 257.5556C310.5 255.89876 311.84314 254.5556 313.5 254.5556C315.15686 254.5556 316.5 255.89876 316.5 257.5556Z" fill-rule="nonzero"/><path fill="#000000" fill-opacity="0.0" clip-path="url(#id_0)" d="M327.218 257.7464C327.218 259.40326 325.87485 260.7464 324.218 260.7464C322.56116 260.7464 321.218 259.40326 321.218 257.7464C321.218 256.08954 322.56116 254.7464 324.218 254.7464C325.87485 254.7464 327.218 256.08954 327.218 257.7464Z" fill-rule="nonzero"/><path fill="#000000" fill-opacity="0.0" clip-path="url(#id_0)" d="M337.936 257.91147C337.936 259.56833 336.59286 260.91147 334.936 260.91147C333.27914 260.91147 331.936 259.56833 331.936 257.91147C331.936 256.25464 333.27914 254.91148 334.936 254.91148C336.59286 254.91148 337.936 256.25464 337.936 257.91147Z" fill-rule="nonzero"/><path fill="#000000" fill-opacity="0.0" clip-path="url(#id_0)" d="M348.654 258.05438C348.654 259.71124 347.31085 261.05438 345.654 261.05438C343.99713 261.05438 342.654 259.71124 342.654 258.05438C342.654 256.39752 343.99713 255.05438 345.654 255.05438C347.31085 255.05438 348.654 256.39752 348.654 258.05438Z" fill-rule="nonzero"/><path fill="#000000" fill-opacity="0.0" clip-path="url(#id_0)" d="M359.372 258.17816C359.372 259.83502 358.02884 261.17816 356.372 261.17816C354.71515 261.17816 353.372 259.83502 353.372 258.17816C353.372 256.5213 354.71515 255.17816 356.372 255.17816C358.02884 255.17816 359.372 256.5213 359.372 258.17816Z" fill-rule="nonzero"/><path fill="#000000" fill-opacity="0.0" clip-path="url(#id_0)" d="M370.09 258.2854C370.09 259.94223 368.74686 261.2854 367.09 261.2854C365.43314 261.2854 364.09 259.94223 364.09 258.2854C364.09 256.62854 365.43314 255.28539 367.09 255.28539C368.74686 255.28539 370.09 256.62854 370.09 258.2854Z" fill-rule="nonzero"/><path fill="#000000" fill-opacity="0.0" clip-path="url(#id_0)" d="M380.808 258.37833C380.808 260.0352 379.46484 261.37833 377.808 261.37833C376.15115 261.37833 374.808 260.0352 374.808 258.37833C374.808 256.72147 376.15115 255.37831 377.808 255.37831C379.46484 255.37831 380.808 256.72147 380.808 258.37833Z" fill-rule="nonzero"/><path fill="#000000" fill-opacity="0.0" clip-path="url(#id_0)" d="M391.526 258.4589C391.526 260.11572 390.18286 261.4589 388.526 261.4589C386.86914 261.4589 385.526 260.11572 385.526 258.4589C385.526 256.80203 386.86914 255.45888 388.526 255.45888C390.18286 255.45888 391.526 256.80203 391.526 258.4589Z" fill-rule="nonzero"/><path fill="#000000" fill-opacity="0.0" clip-path="url(#id_0)" d="M402.244 258.52875C402.244 260.18558 400.90085 261.52875 399.244 261.52875C397.58716 261.52875 396.244 260.18558 396.244 258.52875C396.244 256.8719 397.58716 255.52873 399.244 255.52873C400.90085 255.52873 402.244 256.8719 402.244 258.52875Z" fill-rule="nonzero"/><path fill="#000000" fill-opacity="0.0" clip-path="url(#id_0)" d="M412.962 258.58932C412.962 260.2462 411.61887 261.58932 409.962 261.58932C408.30515 261.58932 406.962 260.2462 406.962 258.58932C406.962 256.93246 408.30515 255.58932 409.962 255.58932C411.61887 255.58932 412.962 256.93246 412.962 258.58932Z" fill-rule="nonzero"/><path fill="#000000" fill-opacity="0.0" clip-path="url(#id_0)" d="M423.68 258.64188C423.68 260.29874 422.33685 261.64188 420.68 261.64188C419.02313 261.64188 417.68 260.29874 417.68 258.64188C417.68 256.98502 419.02313 255.64188 420.68 255.64188C422.33685 255.64188 423.68 256.98502 423.68 258.64188Z" fill-rule="nonzero"/><path fill="#000000" fill-opacity="0.0" clip-path="url(#id_0)" d="M434.398 258.68747C434.398 260.34433 433.05484 261.68747 431.398 261.68747C429.74115 261.68747 428.398 260.34433 428.398 258.68747C428.398 257.0306 429.74115 255.68747 431.398 255.68747C433.05484 255.68747 434.398 257.0306 434.398 258.68747Z" fill-rule="nonzero"/><path fill="#000000" fill-opacity="0.0" clip-path="url(#id_0)" d="M445.116 258.72702C445.116 260.38388 443.77286 261.72702 442.116 261.72702C440.45914 261.72702 439.116 260.38388 439.116 258.72702C439.116 257.0702 440.45914 255.72704 442.116 255.72704C443.77286 255.72704 445.116 257.0702 445.116 258.72702Z" fill-rule="nonzero"/><path fill="#000000" fill-opacity="0.0" clip-path="url(#id_0)" d="M455.834 258.76135C455.834 260.4182 454.49084 261.76135 452.834 261.76135C451.17715 261.76135 449.834 260.4182 449.834 258.76135C449.834 257.10452 451.17715 255.76137 452.834 255.76137C454.49084 255.76137 455.834 257.10452 455.834 258.76135Z" fill-rule="nonzero"/><path fill="#000000" fill-opacity="0.0" clip-path="url(#id_0)" d="M466.552 258.79117C466.552 260.44803 465.20886 261.79117 463.552 261.79117C461.89514 261.79117 460.552 260.44803 460.552 258.79117C460.552 257.1343 461.89514 255.79117 463.552 255.79117C465.20886 255.79117 466.552 257.1343 466.552 258.79117Z" fill-rule="nonzero"/><path fill="#000000" fill-opacity="0.0" clip-path="url(#id_0)" d="M477.27 258.81702C477.27 260.47388 475.92685 261.81702 474.27 261.81702C472.61316 261.81702 471.27 260.47388 471.27 258.81702C471.27 257.1602 472.61316 255.81703 474.27 255.81703C475.92685 255.81703 477.27 257.1602 477.27 258.81702Z" fill-rule="nonzero"/><path fill="#000000" fill-opacity="0.0" clip-path="url(#id_0)" d="M487.988 258.83948C487.988 260.49634 486.64487 261.83948 484.988 261.83948C483.33115 261.83948 481.988 260.49634 481.988 258.83948C481.988 257.18262 483.33115 255.83948 484.988 255.83948C486.64487 255.83948 487.988 257.18262 487.988 258.83948Z" fill-rule="nonzero"/><path fill="#000000" fill-opacity="0.0" clip-path="url(#id_0)" d="M498.706 258.85898C498.706 260.51584 497.36285 261.85898 495.706 261.85898C494.04913 261.85898 492.706 260.51584 492.706 258.85898C492.706 257.20212 494.04913 255.85898 495.706 255.85898C497.36285 255.85898 498.706 257.20212 498.706 258.85898Z" fill-rule="nonzero"/><path fill="#000000" fill-opacity="0.0" clip-path="url(#id_0)" d="M509.424 258.8759C509.424 260.53275 508.08084 261.8759 506.424 261.8759C504.76715 261.8759 503.424 260.53275 503.424 258.8759C503.424 257.21902 504.76715 255.8759 506.424 255.8759C508.08084 255.8759 509.424 257.21902 509.424 258.8759Z" fill-rule="nonzero"/><path fill="#000000" fill-opacity="0.0" clip-path="url(#id_0)" d="M520.142 258.8906C520.142 260.54742 518.7988 261.8906 517.142 261.8906C515.48517 261.8906 514.142 260.54742 514.142 258.8906C514.142 257.23373 515.48517 255.89058 517.142 255.89058C518.7988 255.89058 520.142 257.23373 520.142 258.8906Z" fill-rule="nonzero"/><path fill="#000000" fill-opacity="0.0" clip-path="url(#id_0)" d="M530.86 258.90335C530.86 260.56018 529.51685 261.90335 527.86 261.90335C526.2031 261.90335 524.86 260.56018 524.86 258.90335C524.86 257.2465 526.2031 255.90334 527.86 255.90334C529.51685 255.90334 530.86 257.2465 530.86 258.90335Z" fill-rule="nonzero"/><path fill="#000000" fill-opacity="0.0" clip-path="url(#id_0)" d="M541.578 258.91443C541.578 260.57126 540.23486 261.91443 538.578 261.91443C536.92114 261.91443 535.578 260.57126 535.578 258.91443C535.578 257.25757 536.92114 255.91441 538.578 255.91441C540.23486 255.91441 541.578 257.25757 541.578 258.91443Z" fill-rule="nonzero"/><path fill="#000000" fill-opacity="0.0" clip-path="url(#id_0)" d="M552.296 258.92404C552.296 260.5809 550.9529 261.92404 549.296 261.92404C547.63916 261.92404 546.296 260.5809 546.296 258.92404C546.296 257.26718 547.63916 255.92403 549.296 255.92403C550.9529 255.92403 552.296 257.26718 552.296 258.92404Z" fill-rule="nonzero"/><path fill="#000000" fill-opacity="0.0" clip-path="url(#id_0)" d="M563.014 258.93237C563.014 260.58923 561.67084 261.93237 560.014 261.93237C558.3571 261.93237 557.014 260.58923 557.014 258.93237C557.014 257.27554 558.3571 255.93239 560.014 255.93239C561.67084 255.93239 563.014 257.27554 563.014 258.93237Z" fill-rule="nonzero"/><path fill="#000000" fill-opacity="0.0" clip-path="url(#id_0)" d="M573.732 258.93964C573.732 260.5965 572.38885 261.93964 570.732 261.93964C569.07513 261.93964 567.732 260.5965 567.732 258.93964C567.732 257.28278 569.07513 255.93964 570.732 255.93964C572.38885 255.93964 573.732 257.28278 573.732 258.93964Z" fill-rule="nonzero"/><path fill="#000000" fill-opacity="0.0" clip-path="url(#id_0)" d="M584.45 258.94592C584.45 260.60278 583.1069 261.94592 581.45 261.94592C579.79315 261.94592 578.45 260.60278 578.45 258.94592C578.45 257.2891 579.79315 255.94594 581.45 255.94594C583.1069 255.94594 584.45 257.2891 584.45 258.94592Z" fill-rule="nonzero"/><path fill="#000000" fill-opacity="0.0" clip-path="url(#id_0)" d="M48.55 111.01547C48.55 112.67233 47.206856 114.01547 45.55 114.01547C43.893147 114.01547 42.55 112.67233 42.55 111.01547C42.55 109.35862 43.893147 108.01547 45.55 108.01547C47.206856 108.01547 48.55 109.35862 48.55 111.01547Z" fill-rule="nonzero"/><path fill="#000000" fill-opacity="0.0" clip-path="url(#id_0)" d="M59.268 111.01547C59.268 112.67233 57.924854 114.01547 56.268 114.01547C54.611145 114.01547 53.268 112.67233 53.268 111.01547C53.268 109.35862 54.611145 108.01547 56.268 108.01547C57.924854 108.01547 59.268 109.35862 59.268 111.01547Z" fill-rule="nonzero"/><path fill="#000000" fill-opacity="0.0" clip-path="url(#id_0)" d="M69.986 112.337814C69.986 113.99467 68.64285 115.337814 66.986 115.337814C65.32915 115.337814 63.986 113.99467 63.986 112.337814C63.986 110.680954 65.32915 109.337814 66.986 109.337814C68.64285 109.337814 69.986 110.680954 69.986 112.337814Z" fill-rule="nonzero"/><path fill="#000000" fill-opacity="0.0" clip-path="url(#id_0)" d="M80.704 114.49462C80.704 116.151474 79.360855 117.49462 77.704 117.49462C76.04714 117.49462 74.704 116.151474 74.704 114.49462C74.704 112.83777 76.04714 111.49462 77.704 111.49462C79.360855 111.49462 80.704 112.83777 80.704 114.49462Z" fill-rule="nonzero"/><path fill="#000000" fill-opacity="0.0" clip-path="url(#id_0)" d="M91.422 117.110435C91.422 118.76729 90.07886 120.110435 88.422 120.110435C86.765144 120.110435 85.422 118.76729 85.422 117.110435C85.422 115.45358 86.765144 114.110435 88.422 114.110435C90.07886 114.110435 91.422 115.45358 91.422 117.110435Z" fill-rule="nonzero"/><path fill="#000000" fill-opacity="0.0" clip-path="url(#id_0)" d="M102.14 119.91593C102.14 121.572784 100.79685 122.91593 99.14 122.91593C97.48315 122.91593 96.14 121.572784 96.14 119.91593C96.14 118.25908 97.48315 116.91593 99.14 116.91593C100.79685 116.91593 102.14 118.25908 102.14 119.91593Z" fill-rule="nonzero"/><path fill="#000000" fill-opacity="0.0" clip-path="url(#id_0)" d="M112.858 122.72966C112.858 124.38652 111.514854 125.72966 109.858 125.72966C108.20115 125.72966 106.858 124.38652 106.858 122.72966C106.858 121.07281 108.20115 119.72966 109.858 119.72966C111.514854 119.72966 112.858 121.07281 112.858 122.72966Z" fill-rule="nonzero"/><path fill="#000000" fill-opacity="0.0" clip-path="url(#id_0)" d="M123.576 125.43711C123.576 127.09397 122.23286 128.43712 120.576 128.43712C118.91914 128.43712 117.576 127.09397 117.576 125.43711C117.576 123.78026 118.91914 122.43711 120.576 122.43711C122.23286 122.43711 123.576 123.78026 123.576 125.43711Z" fill-rule="nonzero"/><path fill="#000000" fill-opacity="0.0" clip-path="url(#id_0)" d="M134.294 127.971825C134.294 129.62868 132.95085 130.97182 131.294 130.97182C129.63715 130.97182 128.294 129.62868 128.294 127.971825C128.294 126.314964 129.63715 124.971825 131.294 124.971825C132.95085 124.971825 134.294 126.314964 134.294 127.971825Z" fill-rule="nonzero"/><path fill="#000000" fill-opacity="0.0" clip-path="url(#id_0)" d="M145.012 130.30025C145.012 131.9571 143.66885 133.30025 142.012 133.30025C140.35515 133.30025 139.012 131.9571 139.012 130.30025C139.012 128.64339 140.35515 127.30025 142.012 127.30025C143.66885 127.30025 145.012 128.64339 145.012 130.30025Z" fill-rule="nonzero"/><path fill="#000000" fill-opacity="0.0" clip-path="url(#id_0)" d="M155.73 132.4105C155.73 134.06737 154.38686 135.4105 152.73 135.4105C151.07315 135.4105 149.73 134.06737 149.73 132.4105C149.73 130.75366 151.07315 129.4105 152.73 129.4105C154.38686 129.4105 155.73 130.75366 155.73 132.4105Z" fill-rule="nonzero"/><path fill="#000000" fill-opacity="0.0" clip-path="url(#id_0)" d="M166.448 134.30437C166.448 135.96123 165.10486 137.30437 163.448 137.30437C161.79115 137.30437 160.448 135.96123 160.448 134.30437C160.448 132.64752 161.79115 131.30437 163.448 131.30437C165.10486 131.30437 166.448 132.64752 166.448 134.30437Z" fill-rule="nonzero"/><path fill="#000000" fill-opacity="0.0" clip-path="url(#id_0)" d="M177.166 135.99171C177.166 137.64857 175.82286 138.99171 174.166 138.99171C172.50914 138.99171 171.166 137.64857 171.166 135.99171C171.166 134.33485 172.50914 132.99171 174.166 132.99171C175.82286 132.99171 177.166 134.33485 177.166 135.99171Z" fill-rule="nonzero"/><path fill="#000000" fill-opacity="0.0" clip-path="url(#id_0)" d="M187.884 137.4869C187.884 139.14374 186.54085 140.4869 184.884 140.4869C183.22714 140.4869 181.884 139.14374 181.884 137.4869C181.884 135.83003 183.22714 134.4869 184.884 134.4869C186.54085 134.4869 187.884 135.83003 187.884 137.4869Z" fill-rule="nonzero"/><path fill="#000000" fill-opacity="0.0" clip-path="url(#id_0)" d="M198.602 138.80629C198.602 140.46315 197.25885 141.80629 195.602 141.80629C193.94514 141.80629 192.602 140.46315 192.602 138.80629C192.602 137.14944 193.94514 135.80629 195.602 135.80629C197.25885 135.80629 198.602 137.14944 198.602 138.80629Z" fill-rule="nonzero"/><path fill="#000000" fill-opacity="0.0" clip-path="url(#id_0)" d="M209.32 139.9669C209.32 141.62376 207.97685 142.9669 206.32 142.9669C204.66315 142.9669 203.32 141.62376 203.32 139.9669C203.32 138.31004 204.66315 136.9669 206.32 136.9669C207.97685 136.9669 209.32 138.31004 209.32 139.9669Z" fill-rule="nonzero"/><path fill="#000000" fill-opacity="0.0" clip-path="url(#id_0)" d="M220.038 140.98532C220.038 142.64217 218.69485 143.98532 217.038 143.98532C215.38115 143.98532 214.038 142.64217 214.038 140.98532C214.038 139.32846 215.38115 137.98532 217.038 137.98532C218.69485 137.98532 220.038 139.32846 220.038 140.98532Z" fill-rule="nonzero"/><path fill="#000000" fill-opacity="0.0" clip-path="url(#id_0)" d="M230.756 141.87723C230.756 143.53407 229.41286 144.87723 227.756 144.87723C226.09915 144.87723 224.756 143.53407 224.756 141.87723C224.756 140.22037 226.09915 138.87723 227.756 138.87723C229.41286 138.87723 230.756 140.22037 230.756 141.87723Z" fill-rule="nonzero"/><path fill="#000000" fill-opacity="0.0" clip-path="url(#id_0)" d="M241.474 142.65715C241.474 144.31401 240.13086 145.65715 238.474 145.65715C236.81714 145.65715 235.474 144.31401 235.474 142.65715C235.474 141.0003 236.81714 139.65715 238.474 139.65715C240.13086 139.65715 241.474 141.0003 241.474 142.65715Z" fill-rule="nonzero"/><path fill="#000000" fill-opacity="0.0" clip-path="url(#id_0)" d="M252.192 143.33835C252.192 144.99521 250.84886 146.33835 249.192 146.33835C247.53514 146.33835 246.192 144.99521 246.192 143.33835C246.192 141.68149 247.53514 140.33835 249.192 140.33835C250.84886 140.33835 252.192 141.68149 252.192 143.33835Z" fill-rule="nonzero"/><path fill="#000000" fill-opacity="0.0" clip-path="url(#id_0)" d="M262.91 143.93272C262.91 145.58958 261.56686 146.93272 259.91 146.93272C258.25314 146.93272 256.91 145.58958 256.91 143.93272C256.91 142.27586 258.25314 140.93272 259.91 140.93272C261.56686 140.93272 262.91 142.27586 262.91 143.93272Z" fill-rule="nonzero"/><path fill="#000000" fill-opacity="0.0" clip-path="url(#id_0)" d="M273.628 144.45094C273.628 146.10779 272.28485 147.45094 270.628 147.45094C268.97116 147.45094 267.628 146.10779 267.628 144.45094C267.628 142.79408 268.97116 141.45094 270.628 141.45094C272.28485 141.45094 273.628 142.79408 273.628 144.45094Z" fill-rule="nonzero"/><path fill="#000000" fill-opacity="0.0" clip-path="url(#id_0)" d="M284.346 144.90247C284.346 146.55933 283.00287 147.90247 281.346 147.90247C279.68915 147.90247 278.346 146.55933 278.346 144.90247C278.346 143.24562 279.68915 141.90247 281.346 141.90247C283.00287 141.90247 284.346 143.24562 284.346 144.90247Z" fill-rule="nonzero"/><path fill="#000000" fill-opacity="0.0" clip-path="url(#id_0)" d="M295.064 145.29568C295.064 146.95255 293.72086 148.29568 292.064 148.29568C290.40714 148.29568 289.064 146.95255 289.064 145.29568C289.064 143.63884 290.40714 142.29568 292.064 142.29568C293.72086 142.29568 295.064 143.63884 295.064 145.29568Z" fill-rule="nonzero"/><path fill="#000000" fill-opacity="0.0" clip-path="url(#id_0)" d="M305.782 145.63799C305.782 147.29483 304.43884 148.63799 302.782 148.63799C301.12515 148.63799 299.782 147.29483 299.782 145.63799C299.782 143.98112 301.12515 142.63799 302.782 142.63799C304.43884 142.63799 305.782 143.98112 305.782 145.63799Z" fill-rule="nonzero"/><path fill="#000000" fill-opacity="0.0" clip-path="url(#id_0)" d="M316.5 145.93584C316.5 147.5927 315.15686 148.93584 313.5 148.93584C311.84314 148.93584 310.5 147.5927 310.5 145.93584C310.5 144.27899 311.84314 142.93584 313.5 142.93584C315.15686 142.93584 316.5 144.27899 316.5 145.93584Z" fill-rule="nonzero"/><path fill="#000000" fill-opacity="0.0" clip-path="url(#id_0)" d="M327.218 146.19496C327.218 147.8518 325.87485 149.19496 324.218 149.19496C322.56116 149.19496 321.218 147.8518 321.218 146.19496C321.218 144.5381 322.56116 143.19496 324.218 143.19496C325.87485 143.19496 327.218 144.5381 327.218 146.19496Z" fill-rule="nonzero"/><path fill="#000000" fill-opacity="0.0" clip-path="url(#id_0)" d="M337.936 146.42032C337.936 148.07716 336.59286 149.42032 334.936 149.42032C333.27914 149.42032 331.936 148.07716 331.936 146.42032C331.936 144.76346 333.27914 143.42032 334.936 143.42032C336.59286 143.42032 337.936 144.76346 337.936 146.42032Z" fill-rule="nonzero"/><path fill="#000000" fill-opacity="0.0" clip-path="url(#id_0)" d="M348.654 146.61627C348.654 148.27312 347.31085 149.61627 345.654 149.61627C343.99713 149.61627 342.654 148.27312 342.654 146.61627C342.654 144.95941 343.99713 143.61627 345.654 143.61627C347.31085 143.61627 348.654 144.95941 348.654 146.61627Z" fill-rule="nonzero"/><path fill="#000000" fill-opacity="0.0" clip-path="url(#id_0)" d="M359.372 146.78664C359.372 148.44348 358.02884 149.78664 356.372 149.78664C354.71515 149.78664 353.372 148.44348 353.372 146.78664C353.372 145.12978 354.71515 143.78664 356.372 143.78664C358.02884 143.78664 359.372 145.12978 359.372 146.78664Z" fill-rule="nonzero"/><path fill="#000000" fill-opacity="0.0" clip-path="url(#id_0)" d="M370.09 146.93472C370.09 148.59158 368.74686 149.93472 367.09 149.93472C365.43314 149.93472 364.09 148.59158 364.09 146.93472C364.09 145.27786 365.43314 143.93472 367.09 143.93472C368.74686 143.93472 370.09 145.27786 370.09 146.93472Z" fill-rule="nonzero"/><path fill="#000000" fill-opacity="0.0" clip-path="url(#id_0)" d="M380.808 147.06343C380.808 148.72029 379.46484 150.06343 377.808 150.06343C376.15115 150.06343 374.808 148.72029 374.808 147.06343C374.808 145.40659 376.15115 144.06343 377.808 144.06343C379.46484 144.06343 380.808 145.40659 380.808 147.06343Z" fill-rule="nonzero"/><path fill="#000000" fill-opacity="0.0" clip-path="url(#id_0)" d="M391.526 147.1753C391.526 148.83215 390.18286 150.1753 388.526 150.1753C386.86914 150.1753 385.526 148.83215 385.526 147.1753C385.526 145.51845 386.86914 144.1753 388.526 144.1753C390.18286 144.1753 391.526 145.51845 391.526 147.1753Z" fill-rule="nonzero"/><path fill="#000000" fill-opacity="0.0" clip-path="url(#id_0)" d="M402.244 147.2725C402.244 148.92935 400.90085 150.2725 399.244 150.2725C397.58716 150.2725 396.244 148.92935 396.244 147.2725C396.244 145.61565 397.58716 144.2725 399.244 144.2725C400.90085 144.2725 402.244 145.61565 402.244 147.2725Z" fill-rule="nonzero"/><path fill="#000000" fill-opacity="0.0" clip-path="url(#id_0)" d="M412.962 147.35696C412.962 149.01382 411.61887 150.35696 409.962 150.35696C408.30515 150.35696 406.962 149.01382 406.962 147.35696C406.962 145.7001 408.30515 144.35696 409.962 144.35696C411.61887 144.35696 412.962 145.7001 412.962 147.35696Z" fill-rule="nonzero"/><path fill="#000000" fill-opacity="0.0" clip-path="url(#id_0)" d="M423.68 147.43034C423.68 149.0872 422.33685 150.43034 420.68 150.43034C419.02313 150.43034 417.68 149.0872 417.68 147.43034C417.68 145.7735 419.02313 144.43034 420.68 144.43034C422.33685 144.43034 423.68 145.7735 423.68 147.43034Z" fill-rule="nonzero"/><path fill="#000000" fill-opacity="0.0" clip-path="url(#id_0)" d="M434.398 147.49411C434.398 149.15097 433.05484 150.49411 431.398 150.49411C429.74115 150.49411 428.398 149.15097 428.398 147.49411C428.398 145.83725 429.74115 144.49411 431.398 144.49411C433.05484 144.49411 434.398 145.83725 434.398 147.49411Z" fill-rule="nonzero"/><path fill="#000000" fill-opacity="0.0" clip-path="url(#id_0)" d="M445.116 147.5495C445.116 149.20636 443.77286 150.5495 442.116 150.5495C440.45914 150.5495 439.116 149.20636 439.116 147.5495C439.116 145.89265 440.45914 144.5495 442.116 144.5495C443.77286 144.5495 445.116 145.89265 445.116 147.5495Z" fill-rule="nonzero"/><path fill="#000000" fill-opacity="0.0" clip-path="url(#id_0)" d="M455.834 147.59763C455.834 149.25449 454.49084 150.59763 452.834 150.59763C451.17715 150.59763 449.834 149.25449 449.834 147.59763C449.834 145.94077 451.17715 144.59763 452.834 144.59763C454.49084 144.59763 455.834 145.94077 455.834 147.59763Z" fill-rule="nonzero"/><path fill="#000000" fill-opacity="0.0" clip-path="url(#id_0)" d="M466.552 147.63943C466.552 149.29628 465.20886 150.63943 463.552 150.63943C461.89514 150.63943 460.552 149.29628 460.552 147.63943C460.552 145.98257 461.89514 144.63943 463.552 144.63943C465.20886 144.63943 466.552 145.98257 466.552 147.63943Z" fill-rule="nonzero"/><path fill="#000000" fill-opacity="0.0" clip-path="url(#id_0)" d="M477.27 147.67574C477.27 149.3326 475.92685 150.67574 474.27 150.67574C472.61316 150.67574 471.27 149.3326 471.27 147.67574C471.27 146.01889 472.61316 144.67574 474.27 144.67574C475.92685 144.67574 477.27 146.01889 477.27 147.67574Z" fill-rule="nonzero"/><path fill="#000000" fill-opacity="0.0" clip-path="url(#id_0)" d="M487.988 147.70729C487.988 149.36414 486.64487 150.70729 484.988 150.70729C483.33115 150.70729 481.988 149.36414 481.988 147.70729C481.988 146.05043 483.33115 144.70729 484.988 144.70729C486.64487 144.70729 487.988 146.05043 487.988 147.70729Z" fill-rule="nonzero"/><path fill="#000000" fill-opacity="0.0" clip-path="url(#id_0)" d="M498.706 147.73468C498.706 149.39154 497.36285 150.73468 495.706 150.73468C494.04913 150.73468 492.706 149.39154 492.706 147.73468C492.706 146.07784 494.04913 144.73468 495.706 144.73468C497.36285 144.73468 498.706 146.07784 498.706 147.73468Z" fill-rule="nonzero"/><path fill="#000000" fill-opacity="0.0" clip-path="url(#id_0)" d="M509.424 147.75848C509.424 149.41534 508.08084 150.75848 506.424 150.75848C504.76715 150.75848 503.424 149.41534 503.424 147.75848C503.424 146.10164 504.76715 144.75848 506.424 144.75848C508.08084 144.75848 509.424 146.10164 509.424 147.75848Z" fill-rule="nonzero"/><path fill="#000000" fill-opacity="0.0" clip-path="url(#id_0)" d="M520.142 147.77916C520.142 149.43602 518.7988 150.77916 517.142 150.77916C515.48517 150.77916 514.142 149.43602 514.142 147.77916C514.142 146.12231 515.48517 144.77916 517.142 144.77916C518.7988 144.77916 520.142 146.12231 520.142 147.77916Z" fill-rule="nonzero"/><path fill="#000000" fill-opacity="0.0" clip-path="url(#id_0)" d="M530.86 147.79712C530.86 149.45398 529.51685 150.79712 527.86 150.79712C526.2031 150.79712 524.86 149.45398 524.86 147.79712C524.86 146.14026 526.2031 144.79712 527.86 144.79712C529.51685 144.79712 530.86 146.14026 530.86 147.79712Z" fill-rule="nonzero"/><path fill="#000000" fill-opacity="0.0" clip-path="url(#id_0)" d="M541.578 147.81271C541.578 149.46957 540.23486 150.81271 538.578 150.81271C536.92114 150.81271 535.578 149.46957 535.578 147.81271C535.578 146.15587 536.92114 144.81271 538.578 144.81271C540.23486 144.81271 541.578 146.15587 541.578 147.81271Z" fill-rule="nonzero"/><path fill="#000000" fill-opacity="0.0" clip-path="url(#id_0)" d="M552.296 147.82626C552.296 149.48312 550.9529 150.82626 549.296 150.82626C547.63916 150.82626 546.296 149.48312 546.296 147.82626C546.296 146.1694 547.63916 144.82626 549.296 144.82626C550.9529 144.82626 552.296 146.1694 552.296 147.82626Z" fill-rule="nonzero"/><path fill="#000000" fill-opacity="0.0" clip-path="url(#id_0)" d="M563.014 147.83803C563.014 149.49489 561.67084 150.83803 560.014 150.83803C558.3571 150.83803 557.014 149.49489 557.014 147.83803C557.014 146.18118 558.3571 144.83803 560.014 144.83803C561.67084 144.83803 563.014 146.18118 563.014 147.83803Z" fill-rule="nonzero"/><path fill="#000000" fill-opacity="0.0" clip-path="url(#id_0)" d="M573.732 147.84825C573.732 149.50511 572.38885 150.84825 570.732 150.84825C569.07513 150.84825 567.732 149.50511 567.732 147.84825C567.732 146.19139 569.07513 144.84825 570.732 144.84825C572.38885 144.84825 573.732 146.19139 573.732 147.84825Z" fill-rule="nonzero"/><path fill="#000000" fill-opacity="0.0" clip-path="url(#id_0)" d="M584.45 147.85713C584.45 149.51398 583.1069 150.85713 581.45 150.85713C579.79315 150.85713 578.45 149.51398 578.45 147.85713C578.45 146.20027 579.79315 144.85713 581.45 144.85713C583.1069 144.85713 584.45 146.20027 584.45 147.85713Z" fill-rule="nonzero"/><path fill="#000000" fill-opacity="0.0" clip-path="url(#id_0)" d="M48.55 224.6762C48.55 226.33304 47.206856 227.6762 45.55 227.6762C43.893147 227.6762 42.55 226.33304 42.55 224.6762C42.55 223.01933 43.893147 221.6762 45.55 221.6762C47.206856 221.6762 48.55 223.01933 48.55 224.6762Z" fill-rule="nonzero"/><path fill="#000000" fill-opacity="0.0" clip-path="url(#id_0)" d="M59.268 212.8839C59.268 214.54074 57.924854 215.8839 56.268 215.8839C54.611145 215.8839 53.268 214.54074 53.268 212.8839C53.268 211.22704 54.611145 209.8839 56.268 209.8839C57.924854 209.8839 59.268 211.22704 59.268 212.8839Z" fill-rule="nonzero"/><path fill="#000000" fill-opacity="0.0" clip-path="url(#id_0)" d="M69.986 201.71202C69.986 203.36888 68.64285 204.71202 66.986 204.71202C65.32915 204.71202 63.986 203.36888 63.986 201.71202C63.986 200.05516 65.32915 198.71202 66.986 198.71202C68.64285 198.71202 69.986 200.05516 69.986 201.71202Z" fill-rule="nonzero"/><path fill="#000000" fill-opacity="0.0" clip-path="url(#id_0)" d="M80.704 191.37344C80.704 193.0303 79.360855 194.37344 77.704 194.37344C76.04714 194.37344 74.704 193.0303 74.704 191.37344C74.704 189.71658 76.04714 188.37344 77.704 188.37344C79.360855 188.37344 80.704 189.71658 80.704 191.37344Z" fill-rule="nonzero"/><path fill="#000000" fill-opacity="0.0" clip-path="url(#id_0)" d="M91.422 181.9776C91.422 183.63446 90.07886 184.9776 88.422 184.9776C86.765144 184.9776 85.422 183.63446 85.422 181.9776C85.422 180.32076 86.765144 178.9776 88.422 178.9776C90.07886 178.9776 91.422 180.32076 91.422 181.9776Z" fill-rule="nonzero"/><path fill="#000000" fill-opacity="0.0" clip-path="url(#id_0)" d="M102.14 173.55447C102.14 175.21133 100.79685 176.55447 99.14 176.55447C97.48315 176.55447 96.14 175.21133 96.14 173.55447C96.14 171.89763 97.48315 170.55447 99.14 170.55447C100.79685 170.55447 102.14 171.89763 102.14 173.55447Z" fill-rule="nonzero"/><path fill="#000000" fill-opacity="0.0" clip-path="url(#id_0)" d="M112.858 166.07954C112.858 167.7364 111.514854 169.07954 109.858 169.07954C108.20115 169.07954 106.858 167.7364 106.858 166.07954C106.858 164.4227 108.20115 163.07954 109.858 163.07954C111.514854 163.07954 112.858 164.4227 112.858 166.07954Z" fill-rule="nonzero"/><path fill="#000000" fill-opacity="0.0" clip-path="url(#id_0)" d="M123.576 159.49501C123.576 161.15187 122.23286 162.49501 120.576 162.49501C118.91914 162.49501 117.576 161.15187 117.576 159.49501C117.576 157.83815 118.91914 156.49501 120.576 156.49501C122.23286 156.49501 123.576 157.83815 123.576 159.49501Z" fill-rule="nonzero"/><path fill="#000000" fill-opacity="0.0" clip-path="url(#id_0)" d="M134.294 153.72557C134.294 155.38242 132.95085 156.72557 131.294 156.72557C129.63715 156.72557 128.294 155.38242 128.294 153.72557C128.294 152.06871 129.63715 150.72557 131.294 150.72557C132.95085 150.72557 134.294 152.06871 134.294 153.72557Z" fill-rule="nonzero"/><path fill="#000000" fill-opacity="0.0" clip-path="url(#id_0)" d="M145.012 148.68932C145.012 150.34618 143.66885 151.68932 142.012 151.68932C140.35515 151.68932 139.012 150.34618 139.012 148.68932C139.012 147.03246 140.35515 145.68932 142.012 145.68932C143.66885 145.68932 145.012 147.03246 145.012 148.68932Z" fill-rule="nonzero"/><path fill="#000000" fill-opacity="0.0" clip-path="url(#id_0)" d="M155.73 144.30455C155.73 145.96141 154.38686 147.30455 152.73 147.30455C151.07315 147.30455 149.73 145.96141 149.73 144.30455C149.73 142.6477 151.07315 141.30455 152.73 141.30455C154.38686 141.30455 155.73 142.6477 155.73 144.30455Z" fill-rule="nonzero"/><path fill="#000000" fill-opacity="0.0" clip-path="url(#id_0)" d="M166.448 140.4938C166.448 142.15065 165.10486 143.4938 163.448 143.4938C161.79115 143.4938 160.448 142.15065 160.448 140.4938C160.448 138.83694 161.79115 137.4938 163.448 137.4938C165.10486 137.4938 166.448 138.83694 166.448 140.4938Z" fill-rule="nonzero"/><path fill="#000000" fill-opacity="0.0" clip-path="url(#id_0)" d="M177.166 137.18579C177.166 138.84265 175.82286 140.18579 174.166 140.18579C172.50914 140.18579 171.166 138.84265 171.166 137.18579C171.166 135.52893 172.50914 134.18579 174.166 134.18579C175.82286 134.18579 177.166 135.52893 177.166 137.18579Z" fill-rule="nonzero"/><path fill="#000000" fill-opacity="0.0" clip-path="url(#id_0)" d="M187.884 134.31635C187.884 135.97319 186.54085 137.31635 184.884 137.31635C183.22714 137.31635 181.884 135.97319 181.884 134.31635C181.884 132.65948 183.22714 131.31635 184.884 131.31635C186.54085 131.31635 187.884 132.65948 187.884 134.31635Z" fill-rule="nonzero"/><path fill="#000000" fill-opacity="0.0" clip-path="url(#id_0)" d="M198.602 131.8284C198.602 133.48524 197.25885 134.8284 195.602 134.8284C193.94514 134.8284 192.602 133.48524 192.602 131.8284C192.602 130.17154 193.94514 128.8284 195.602 128.8284C197.25885 128.8284 198.602 130.17154 198.602 131.8284Z" fill-rule="nonzero"/><path fill="#000000" fill-opacity="0.0" clip-path="url(#id_0)" d="M209.32 129.67172C209.32 131.32858 207.97685 132.67172 206.32 132.67172C204.66315 132.67172 203.32 131.32858 203.32 129.67172C203.32 128.01488 204.66315 126.67173 206.32 126.67173C207.97685 126.67173 209.32 128.01488 209.32 129.67172Z" fill-rule="nonzero"/><path fill="#000000" fill-opacity="0.0" clip-path="url(#id_0)" d="M220.038 127.80238C220.038 129.45924 218.69485 130.80238 217.038 130.80238C215.38115 130.80238 214.038 129.45924 214.038 127.80238C214.038 126.14553 215.38115 124.80238 217.038 124.80238C218.69485 124.80238 220.038 126.14553 220.038 127.80238Z" fill-rule="nonzero"/><path fill="#000000" fill-opacity="0.0" clip-path="url(#id_0)" d="M230.756 126.18207C230.756 127.83893 229.41286 129.18207 227.756 129.18207C226.09915 129.18207 224.756 127.83893 224.756 126.18207C224.756 124.525215 226.09915 123.18207 227.756 123.18207C229.41286 123.18207 230.756 124.525215 230.756 126.18207Z" fill-rule="nonzero"/><path fill="#000000" fill-opacity="0.0" clip-path="url(#id_0)" d="M241.474 124.777504C241.474 126.43436 240.13086 127.777504 238.474 127.777504C236.81714 127.777504 235.474 126.43436 235.474 124.777504C235.474 123.12065 236.81714 121.777504 238.474 121.777504C240.13086 121.777504 241.474 123.12065 241.474 124.777504Z" fill-rule="nonzero"/><path fill="#000000" fill-opacity="0.0" clip-path="url(#id_0)" d="M252.192 123.559814C252.192 125.216675 250.84886 126.559814 249.192 126.559814C247.53514 126.559814 246.192 125.216675 246.192 123.559814C246.192 121.90296 247.53514 120.559814 249.192 120.559814C250.84886 120.559814 252.192 121.90296 252.192 123.559814Z" fill-rule="nonzero"/><path fill="#000000" fill-opacity="0.0" clip-path="url(#id_0)" d="M262.91 122.50401C262.91 124.160866 261.56686 125.50401 259.91 125.50401C258.25314 125.50401 256.91 124.160866 256.91 122.50401C256.91 120.84716 258.25314 119.50401 259.91 119.50401C261.56686 119.50401 262.91 120.84716 262.91 122.50401Z" fill-rule="nonzero"/><path fill="#000000" fill-opacity="0.0" clip-path="url(#id_0)" d="M273.628 121.58844C273.628 123.24529 272.28485 124.58844 270.628 124.58844C268.97116 124.58844 267.628 123.24529 267.628 121.58844C267.628 119.93159 268.97116 118.58844 270.628 118.58844C272.28485 118.58844 273.628 119.93159 273.628 121.58844Z" fill-rule="nonzero"/><path fill="#000000" fill-opacity="0.0" clip-path="url(#id_0)" d="M284.346 120.79436C284.346 122.45121 283.00287 123.79436 281.346 123.79436C279.68915 123.79436 278.346 122.45121 278.346 120.79436C278.346 119.137505 279.68915 117.79436 281.346 117.79436C283.00287 117.79436 284.346 119.137505 284.346 120.79436Z" fill-rule="nonzero"/><path fill="#000000" fill-opacity="0.0" clip-path="url(#id_0)" d="M295.064 120.105545C295.064 121.762405 293.72086 123.105545 292.064 123.105545C290.40714 123.105545 289.064 121.762405 289.064 120.105545C289.064 118.44869 290.40714 117.105545 292.064 117.105545C293.72086 117.105545 295.064 118.44869 295.064 120.105545Z" fill-rule="nonzero"/><path fill="#000000" fill-opacity="0.0" clip-path="url(#id_0)" d="M305.782 119.50798C305.782 121.16483 304.43884 122.50798 302.782 122.50798C301.12515 122.50798 299.782 121.16483 299.782 119.50798C299.782 117.85113 301.12515 116.50798 302.782 116.50798C304.43884 116.50798 305.782 117.85113 305.782 119.50798Z" fill-rule="nonzero"/><path fill="#000000" fill-opacity="0.0" clip-path="url(#id_0)" d="M316.5 118.9895C316.5 120.64636 315.15686 121.9895 313.5 121.9895C311.84314 121.9895 310.5 120.64636 310.5 118.9895C310.5 117.33265 311.84314 115.9895 313.5 115.9895C315.15686 115.9895 316.5 117.33265 316.5 118.9895Z" fill-rule="nonzero"/><path fill="#000000" fill-opacity="0.0" clip-path="url(#id_0)" d="M327.218 118.539604C327.218 120.19646 325.87485 121.539604 324.218 121.539604C322.56116 121.539604 321.218 120.19646 321.218 118.539604C321.218 116.882744 322.56116 115.539604 324.218 115.539604C325.87485 115.539604 327.218 116.882744 327.218 118.539604Z" fill-rule="nonzero"/><path fill="#000000" fill-opacity="0.0" clip-path="url(#id_0)" d="M337.936 118.14916C337.936 119.806015 336.59286 121.14916 334.936 121.14916C333.27914 121.14916 331.936 119.806015 331.936 118.14916C331.936 116.49231 333.27914 115.14916 334.936 115.14916C336.59286 115.14916 337.936 116.49231 337.936 118.14916Z" fill-rule="nonzero"/><path fill="#000000" fill-opacity="0.0" clip-path="url(#id_0)" d="M348.654 117.810295C348.654 119.46715 347.31085 120.810295 345.654 120.810295C343.99713 120.810295 342.654 119.46715 342.654 117.810295C342.654 116.15344 343.99713 114.810295 345.654 114.810295C347.31085 114.810295 348.654 116.15344 348.654 117.810295Z" fill-rule="nonzero"/><path fill="#000000" fill-opacity="0.0" clip-path="url(#id_0)" d="M359.372 117.51616C359.372 119.17302 358.02884 120.51616 356.372 120.51616C354.71515 120.51616 353.372 119.17302 353.372 117.51616C353.372 115.85931 354.71515 114.51616 356.372 114.51616C358.02884 114.51616 359.372 115.85931 359.372 117.51616Z" fill-rule="nonzero"/><path fill="#000000" fill-opacity="0.0" clip-path="url(#id_0)" d="M370.09 117.26084C370.09 118.917694 368.74686 120.26084 367.09 120.26084C365.43314 120.26084 364.09 118.917694 364.09 117.26084C364.09 115.60399 365.43314 114.26084 367.09 114.26084C368.74686 114.26084 370.09 115.60399 370.09 117.26084Z" fill-rule="nonzero"/><path fill="#000000" fill-opacity="0.0" clip-path="url(#id_0)" d="M380.808 117.0392C380.808 118.69605 379.46484 120.0392 377.808 120.0392C376.15115 120.0392 374.808 118.69605 374.808 117.0392C374.808 115.38235 376.15115 114.0392 377.808 114.0392C379.46484 114.0392 380.808 115.38235 380.808 117.0392Z" fill-rule="nonzero"/><path fill="#000000" fill-opacity="0.0" clip-path="url(#id_0)" d="M391.526 116.84678C391.526 118.50363 390.18286 119.84678 388.526 119.84678C386.86914 119.84678 385.526 118.50363 385.526 116.84678C385.526 115.189926 386.86914 113.84678 388.526 113.84678C390.18286 113.84678 391.526 115.189926 391.526 116.84678Z" fill-rule="nonzero"/><path fill="#000000" fill-opacity="0.0" clip-path="url(#id_0)" d="M402.244 116.67972C402.244 118.33657 400.90085 119.67972 399.244 119.67972C397.58716 119.67972 396.244 118.33657 396.244 116.67972C396.244 115.022865 397.58716 113.67972 399.244 113.67972C400.90085 113.67972 402.244 115.022865 402.244 116.67972Z" fill-rule="nonzero"/><path fill="#000000" fill-opacity="0.0" clip-path="url(#id_0)" d="M412.962 116.53467C412.962 118.19152 411.61887 119.53467 409.962 119.53467C408.30515 119.53467 406.962 118.19152 406.962 116.53467C406.962 114.877815 408.30515 113.53467 409.962 113.53467C411.61887 113.53467 412.962 114.877815 412.962 116.53467Z" fill-rule="nonzero"/><path fill="#000000" fill-opacity="0.0" clip-path="url(#id_0)" d="M423.68 116.40873C423.68 118.06558 422.33685 119.40873 420.68 119.40873C419.02313 119.40873 417.68 118.06558 417.68 116.40873C417.68 114.75188 419.02313 113.40873 420.68 113.40873C422.33685 113.40873 423.68 114.75188 423.68 116.40873Z" fill-rule="nonzero"/><path fill="#000000" fill-opacity="0.0" clip-path="url(#id_0)" d="M434.398 116.29937C434.398 117.95623 433.05484 119.29937 431.398 119.29937C429.74115 119.29937 428.398 117.95623 428.398 116.29937C428.398 114.64252 429.74115 113.29937 431.398 113.29937C433.05484 113.29937 434.398 114.64252 434.398 116.29937Z" fill-rule="nonzero"/><path fill="#000000" fill-opacity="0.0" clip-path="url(#id_0)" d="M445.116 116.204414C445.116 117.86127 443.77286 119.204414 442.116 119.204414C440.45914 119.204414 439.116 117.86127 439.116 116.204414C439.116 114.54756 440.45914 113.204414 442.116 113.204414C443.77286 113.204414 445.116 114.54756 445.116 116.204414Z" fill-rule="nonzero"/><path fill="#000000" fill-opacity="0.0" clip-path="url(#id_0)" d="M455.834 116.12196C455.834 117.77882 454.49084 119.12196 452.834 119.12196C451.17715 119.12196 449.834 117.77882 449.834 116.12196C449.834 114.4651 451.17715 113.12196 452.834 113.12196C454.49084 113.12196 455.834 114.4651 455.834 116.12196Z" fill-rule="nonzero"/><path fill="#000000" fill-opacity="0.0" clip-path="url(#id_0)" d="M466.552 116.05036C466.552 117.707214 465.20886 119.05036 463.552 119.05036C461.89514 119.05036 460.552 117.707214 460.552 116.05036C460.552 114.3935 461.89514 113.05036 463.552 113.05036C465.20886 113.05036 466.552 114.3935 466.552 116.05036Z" fill-rule="nonzero"/><path fill="#000000" fill-opacity="0.0" clip-path="url(#id_0)" d="M477.27 115.98818C477.27 117.645035 475.92685 118.98818 474.27 118.98818C472.61316 118.98818 471.27 117.645035 471.27 115.98818C471.27 114.33133 472.61316 112.98818 474.27 112.98818C475.92685 112.98818 477.27 114.33133 477.27 115.98818Z" fill-rule="nonzero"/><path fill="#000000" fill-opacity="0.0" clip-path="url(#id_0)" d="M487.988 115.93418C487.988 117.59104 486.64487 118.93418 484.988 118.93418C483.33115 118.93418 481.988 117.59104 481.988 115.93418C481.988 114.27733 483.33115 112.93418 484.988 112.93418C486.64487 112.93418 487.988 114.27733 487.988 115.93418Z" fill-rule="nonzero"/><path fill="#000000" fill-opacity="0.0" clip-path="url(#id_0)" d="M498.706 115.88729C498.706 117.54414 497.36285 118.88729 495.706 118.88729C494.04913 118.88729 492.706 117.54414 492.706 115.88729C492.706 114.23044 494.04913 112.88729 495.706 112.88729C497.36285 112.88729 498.706 114.23044 498.706 115.88729Z" fill-rule="nonzero"/><path fill="#000000" fill-opacity="0.0" clip-path="url(#id_0)" d="M509.424 115.84657C509.424 117.503426 508.08084 118.84657 506.424 118.84657C504.76715 118.84657 503.424 117.503426 503.424 115.84657C503.424 114.18971 504.76715 112.84657 506.424 112.84657C508.08084 112.84657 509.424 114.18971 509.424 115.84657Z" fill-rule="nonzero"/><path fill="#000000" fill-opacity="0.0" clip-path="url(#id_0)" d="M520.142 115.8112C520.142 117.46806 518.7988 118.8112 517.142 118.8112C515.48517 118.8112 514.142 117.46806 514.142 115.8112C514.142 114.15435 515.48517 112.8112 517.142 112.8112C518.7988 112.8112 520.142 114.15435 520.142 115.8112Z" fill-rule="nonzero"/><path fill="#000000" fill-opacity="0.0" clip-path="url(#id_0)" d="M530.86 115.780495C530.86 117.43735 529.51685 118.780495 527.86 118.780495C526.2031 118.780495 524.86 117.43735 524.86 115.780495C524.86 114.12364 526.2031 112.780495 527.86 112.780495C529.51685 112.780495 530.86 114.12364 530.86 115.780495Z" fill-rule="nonzero"/><path fill="#000000" fill-opacity="0.0" clip-path="url(#id_0)" d="M541.578 115.75382C541.578 117.410675 540.23486 118.75382 538.578 118.75382C536.92114 118.75382 535.578 117.410675 535.578 115.75382C535.578 114.09697 536.92114 112.75382 538.578 112.75382C540.23486 112.75382 541.578 114.09697 541.578 115.75382Z" fill-rule="nonzero"/><path fill="#000000" fill-opacity="0.0" clip-path="url(#id_0)" d="M552.296 115.73066C552.296 117.38751 550.9529 118.73066 549.296 118.73066C547.63916 118.73066 546.296 117.38751 546.296 115.73066C546.296 114.0738 547.63916 112.73066 549.296 112.73066C550.9529 112.73066 552.296 114.0738 552.296 115.73066Z" fill-rule="nonzero"/><path fill="#000000" fill-opacity="0.0" clip-path="url(#id_0)" d="M563.014 115.71054C563.014 117.36739 561.67084 118.71054 560.014 118.71054C558.3571 118.71054 557.014 117.36739 557.014 115.71054C557.014 114.05369 558.3571 112.71054 560.014 112.71054C561.67084 112.71054 563.014 114.05369 563.014 115.71054Z" fill-rule="nonzero"/><path fill="#000000" fill-opacity="0.0" clip-path="url(#id_0)" d="M573.732 115.69307C573.732 117.34992 572.38885 118.69307 570.732 118.69307C569.07513 118.69307 567.732 117.34992 567.732 115.69307C567.732 114.03621 569.07513 112.69307 570.732 112.69307C572.38885 112.69307 573.732 114.03621 573.732 115.69307Z" fill-rule="nonzero"/><path fill="#000000" fill-opacity="0.0" clip-path="url(#id_0)" d="M584.45 115.677895C584.45 117.33475 583.1069 118.677895 581.45 118.677895C579.79315 118.677895 578.45 117.33475 578.45 115.677895C578.45 114.02104 579.79315 112.677895 581.45 112.677895C583.1069 112.677895 584.45 114.02104 584.45 115.677895Z" fill-rule="nonzero"/><path fill="#000000" d="M288.75 343.825Q288.1875 343.2625 287.10938 342.5125L287.67188 341.7625L288.0 341.9969Q288.9375 340.54376 289.40625 339.7L290.29688 340.35626Q290.4375 340.59064 290.0625 340.54376Q289.40625 341.48126 288.65625 342.46564Q288.9375 342.7 289.3125 343.02814Q290.01562 342.04376 290.53125 341.2L291.32812 341.85626Q291.46875 342.09064 291.09375 342.04376Q290.0625 343.45 288.9375 344.85626L290.39062 344.71564L290.0625 344.10626L290.76562 343.73126Q291.32812 344.52814 291.70312 345.7L290.90625 346.075L290.67188 345.41876L289.78125 345.5594L289.78125 350.48126L288.98438 350.48126L288.98438 345.60626L287.48438 345.7469Q287.39062 346.075 287.25 345.8875L287.10938 344.85626L287.90625 344.85626Q288.28125 344.48126 288.75 343.825ZM291.79688 345.5125L291.79688 343.02814L294.32812 343.02814L294.32812 345.5125L291.79688 345.5125ZM293.29688 341.71564L295.875 341.71564L295.875 340.77814L293.29688 340.77814L293.29688 341.71564ZM292.5 340.02814L296.67188 340.02814L296.67188 342.46564L292.5 342.46564L292.5 340.02814ZM292.59375 343.59064L292.59375 344.95L293.53125 344.95L293.53125 343.59064L292.59375 343.59064ZM294.9375 343.02814L297.5625 343.02814L297.5625 345.5125L294.9375 345.5125L294.9375 343.02814ZM295.73438 344.95L296.76562 344.95L296.76562 343.59064L295.73438 343.59064L295.73438 344.95ZM291.60938 346.35626L294.23438 346.35626L294.23438 345.79376L294.98438 345.79376Q295.35938 345.84064 295.03125 346.075L295.03125 346.35626L297.75 346.35626L297.75 347.10626L295.17188 347.10626Q296.15625 348.23126 298.07812 349.02814L297.65625 350.0125Q295.82812 348.98126 295.03125 347.9969L295.03125 350.48126L294.23438 350.48126L294.23438 348.09064Q293.10938 349.45 291.375 350.2L291.0 349.21564Q293.01562 348.46564 294.04688 347.10626L291.60938 347.10626L291.60938 346.35626ZM288.46875 346.6844Q288.42188 348.1375 287.95312 349.59064L287.10938 349.075Q287.53125 347.7625 287.57812 346.3094L288.5625 346.45Q288.75 346.59064 288.46875 346.6844ZM290.76562 348.5594Q290.57812 347.2 290.25 346.59064L291.0 346.3094Q291.46875 346.96564 291.65625 348.27814L290.76562 348.5594ZM304.96875 345.09064Q304.96875 341.90314 304.78125 340.16876L305.71875 340.16876Q306.23438 340.21564 305.8125 340.54376Q305.95312 342.04376 305.95312 345.1375Q305.95312 348.65314 302.625 350.4344L301.82812 349.6375Q304.96875 348.1375 304.96875 345.09064ZM301.78125 346.6375Q301.35938 346.96564 300.84375 346.96564Q300.51562 346.96564 300.23438 346.6844Q299.90625 346.35626 299.90625 343.8719Q299.90625 341.9969 300.09375 340.45L301.125 340.45Q301.5 340.59064 301.125 340.77814Q300.89062 341.90314 300.89062 343.8719Q300.89062 345.8875 301.07812 345.8875Q301.21875 345.8875 301.45312 345.7Q301.78125 345.41876 302.53125 344.4344L303.23438 345.1375Q302.4375 346.1219 301.78125 346.6375ZM316.92188 342.79376L317.01562 342.5594L317.85938 343.21564Q318.14062 343.45 317.67188 343.54376Q317.15625 345.1844 316.3125 346.3094Q317.34375 347.15314 318.60938 347.575L318.14062 348.60626Q316.875 348.1375 315.65625 347.0594Q314.48438 348.1375 313.26562 348.7469L312.70312 347.85626Q313.6875 347.3875 314.95312 346.40314Q313.96875 344.9969 313.64062 343.6844L312.9375 343.6844L312.9375 345.04376Q312.9375 347.29376 311.8125 348.41876L311.20312 347.48126Q312.0 346.825 312.0 344.95L312.0 340.2625L318.23438 340.2625L318.23438 341.29376L312.9375 341.29376L312.9375 342.79376L316.92188 342.79376ZM318.89062 349.21564L318.70312 350.10626L312.98438 350.10626Q311.29688 350.10626 310.3125 348.8875Q309.89062 349.59064 308.8125 350.2469L308.20312 349.21564Q309.23438 348.79376 309.79688 348.27814L309.79688 345.41876L308.25 345.41876L308.25 344.3875L310.73438 344.3875L310.73438 348.23126Q311.48438 349.21564 312.9375 349.21564L318.89062 349.21564ZM309.46875 340.02814Q310.59375 340.77814 311.20312 341.7625L310.45312 342.5125Q309.75 341.52814 308.76562 340.77814L309.46875 340.02814ZM314.53125 343.6844Q314.95312 344.95 315.60938 345.65314Q316.3125 344.66876 316.59375 343.6844L314.53125 343.6844ZM328.21875 347.7625Q326.20312 349.96564 323.85938 349.96564Q322.17188 349.96564 321.375 349.16876Q320.76562 348.5594 320.76562 346.825L320.76562 340.54376L321.75 340.54376Q322.17188 340.6375 321.84375 340.91876L321.84375 346.825Q321.84375 347.9969 322.26562 348.41876Q322.78125 348.9344 323.8125 348.9344Q325.64062 348.9344 327.51562 346.8719L328.21875 347.7625ZM337.21875 346.8719Q337.875 345.60626 338.01562 343.02814L336.42188 343.02814Q336.5625 345.60626 337.21875 346.8719ZM338.95312 343.02814Q338.85938 345.9344 337.82812 347.71564Q338.57812 348.65314 339.9375 349.35626L339.32812 350.3875Q337.82812 349.40314 337.21875 348.5125Q336.14062 349.73126 333.89062 350.6219L333.42188 349.6844Q335.85938 348.7 336.65625 347.66876Q335.85938 346.1219 335.76562 344.575Q335.48438 345.27814 335.20312 345.65314L334.40625 345.04376Q335.8125 342.98126 336.09375 339.9344L337.07812 340.16876Q337.35938 340.35626 336.9375 340.45Q336.79688 341.29376 336.5625 342.1375L339.75 342.1375L339.75 343.02814L338.95312 343.02814ZM334.59375 340.77814Q334.3125 341.48126 333.9375 341.95L333.1875 341.52814Q333.5625 340.91876 333.89062 340.1219L334.73438 340.54376Q334.92188 340.73126 334.59375 340.77814ZM331.59375 347.3875Q332.25 347.575 332.76562 347.8094Q333.14062 347.3875 333.375 346.54376L332.01562 346.54376Q331.82812 346.96564 331.59375 347.3875ZM330.9375 348.5594L330.1875 348.1375Q330.65625 347.4344 331.125 346.54376L329.34375 346.54376L329.34375 345.79376L331.40625 345.79376Q331.6875 345.1844 331.82812 344.7625L332.71875 344.9969Q332.90625 345.1844 332.57812 345.23126L332.29688 345.79376L334.96875 345.79376L334.96875 346.54376L334.26562 346.54376Q334.03125 347.48126 333.5625 348.1375Q333.98438 348.325 334.45312 348.60626L334.03125 349.35626Q333.51562 349.02814 333.09375 348.84064Q331.875 350.0594 329.8125 350.34064L329.48438 349.4969Q331.3125 349.3094 332.29688 348.46564Q331.78125 348.23126 331.26562 348.04376L330.9375 348.5594ZM331.875 339.7469L332.625 339.7469Q333.0 339.79376 332.67188 340.02814L332.67188 342.04376L335.0625 342.04376L335.0625 342.79376L333.09375 342.79376Q333.60938 343.40314 334.6875 343.96564L334.17188 344.7625Q333.375 344.29376 332.67188 343.45L332.67188 344.575L331.875 344.575L331.875 343.6844Q331.125 344.6219 329.8125 345.3719L329.20312 344.6219Q330.65625 343.8719 331.59375 342.79376L329.4375 342.79376L329.4375 342.04376L331.875 342.04376L331.875 339.7469ZM330.5625 341.90314Q330.23438 341.2 329.71875 340.6844L330.46875 340.21564Q331.03125 340.77814 331.3125 341.3875L330.5625 341.90314Z" fill-rule="nonzero"/><path fill="#000000" d="M23.05 300.21564Q23.05 298.6844 23.3625 297.7625Q23.675 296.825 24.284374 296.325Q24.909374 295.825 25.846874 295.825Q26.534374 295.825 27.05 296.10626Q27.58125 296.3875 27.925 296.91876Q28.26875 297.4344 28.45625 298.1844Q28.64375 298.9344 28.64375 300.21564Q28.64375 301.73126 28.33125 302.65314Q28.034374 303.575 27.409374 304.09064Q26.8 304.59064 25.846874 304.59064Q24.6125 304.59064 23.89375 303.7Q23.05 302.6375 23.05 300.21564ZM24.128124 300.21564Q24.128124 302.325 24.628124 303.02814Q25.128124 303.73126 25.846874 303.73126Q26.58125 303.73126 27.065624 303.02814Q27.565624 302.325 27.565624 300.21564Q27.565624 298.09064 27.065624 297.40314Q26.58125 296.7 25.83125 296.7Q25.1125 296.7 24.675 297.3094Q24.128124 298.09064 24.128124 300.21564ZM30.64375 304.45L30.64375 303.2469L31.846874 303.2469L31.846874 304.45L30.64375 304.45ZM33.05 300.21564Q33.05 298.6844 33.3625 297.7625Q33.675 296.825 34.284374 296.325Q34.909374 295.825 35.846874 295.825Q36.534374 295.825 37.05 296.10626Q37.58125 296.3875 37.925 296.91876Q38.26875 297.4344 38.45625 298.1844Q38.64375 298.9344 38.64375 300.21564Q38.64375 301.73126 38.33125 302.65314Q38.034374 303.575 37.409374 304.09064Q36.8 304.59064 35.846874 304.59064Q34.6125 304.59064 33.89375 303.7Q33.05 302.6375 33.05 300.21564ZM34.128124 300.21564Q34.128124 302.325 34.628124 303.02814Q35.128124 303.73126 35.846874 303.73126Q36.58125 303.73126 37.065624 303.02814Q37.565624 302.325 37.565624 300.21564Q37.565624 298.09064 37.065624 297.40314Q36.58125 296.7 35.83125 296.7Q35.1125 296.7 34.675 297.3094Q34.128124 298.09064 34.128124 300.21564Z" fill-rule="nonzero"/><path fill="#000000" d="M23.05 262.32874Q23.05 260.7975 23.3625 259.8756Q23.675 258.9381 24.284374 258.4381Q24.909374 257.9381 25.846874 257.9381Q26.534374 257.9381 27.05 258.21936Q27.58125 258.5006 27.925 259.03186Q28.26875 259.5475 28.45625 260.2975Q28.64375 261.0475 28.64375 262.32874Q28.64375 263.84436 28.33125 264.76624Q28.034374 265.6881 27.409374 266.20374Q26.8 266.70374 25.846874 266.70374Q24.6125 266.70374 23.89375 265.8131Q23.05 264.7506 23.05 262.32874ZM24.128124 262.32874Q24.128124 264.4381 24.628124 265.14124Q25.128124 265.84436 25.846874 265.84436Q26.58125 265.84436 27.065624 265.14124Q27.565624 264.4381 27.565624 262.32874Q27.565624 260.20374 27.065624 259.51624Q26.58125 258.8131 25.83125 258.8131Q25.1125 258.8131 24.675 259.4225Q24.128124 260.20374 24.128124 262.32874ZM30.64375 266.5631L30.64375 265.36L31.846874 265.36L31.846874 266.5631L30.64375 266.5631ZM37.01875 266.5631L35.971874 266.5631L35.971874 259.84436Q35.58125 260.20374 34.95625 260.57874Q34.346874 260.9381 33.8625 261.11L33.8625 260.09436Q34.7375 259.6725 35.39375 259.09436Q36.065624 258.5006 36.346874 257.9381L37.01875 257.9381L37.01875 266.5631Z" fill-rule="nonzero"/><path fill="#000000" d="M23.05 224.44182Q23.05 222.91057 23.3625 221.9887Q23.675 221.0512 24.284374 220.5512Q24.909374 220.0512 25.846874 220.0512Q26.534374 220.0512 27.05 220.33244Q27.58125 220.6137 27.925 221.14494Q28.26875 221.66057 28.45625 222.41057Q28.64375 223.16057 28.64375 224.44182Q28.64375 225.95744 28.33125 226.87932Q28.034374 227.8012 27.409374 228.31682Q26.8 228.81682 25.846874 228.81682Q24.6125 228.81682 23.89375 227.9262Q23.05 226.8637 23.05 224.44182ZM24.128124 224.44182Q24.128124 226.5512 24.628124 227.25432Q25.128124 227.95744 25.846874 227.95744Q26.58125 227.95744 27.065624 227.25432Q27.565624 226.5512 27.565624 224.44182Q27.565624 222.31682 27.065624 221.62932Q26.58125 220.9262 25.83125 220.9262Q25.1125 220.9262 24.675 221.53557Q24.128124 222.31682 24.128124 224.44182ZM30.64375 228.6762L30.64375 227.47307L31.846874 227.47307L31.846874 228.6762L30.64375 228.6762ZM38.596874 227.66057L38.596874 228.6762L32.909374 228.6762Q32.909374 228.3012 33.034374 227.94182Q33.253124 227.3637 33.721874 226.8012Q34.20625 226.2387 35.1125 225.50432Q36.51875 224.34807 37.003124 223.6762Q37.503124 223.00432 37.503124 222.41057Q37.503124 221.78557 37.05 221.3637Q36.596874 220.9262 35.878124 220.9262Q35.1125 220.9262 34.659374 221.37932Q34.20625 221.83244 34.190624 222.64494L33.1125 222.53557Q33.221874 221.31682 33.940624 220.69182Q34.675 220.0512 35.909374 220.0512Q37.14375 220.0512 37.8625 220.7387Q38.58125 221.4262 38.58125 222.44182Q38.58125 222.95744 38.3625 223.45744Q38.159374 223.94182 37.659374 224.50432Q37.175 225.0512 36.05 226.00432Q35.096874 226.8012 34.815624 227.09807Q34.55 227.37932 34.378124 227.66057L38.596874 227.66057Z" fill-rule="nonzero"/><path fill="#000000" d="M23.05 186.55492Q23.05 185.02367 23.3625 184.10179Q23.675 183.16429 24.284374 182.66429Q24.909374 182.16429 25.846874 182.16429Q26.534374 182.16429 27.05 182.44554Q27.58125 182.72679 27.925 183.25804Q28.26875 183.77367 28.45625 184.52367Q28.64375 185.27367 28.64375 186.55492Q28.64375 188.07054 28.33125 188.99242Q28.034374 189.91429 27.409374 190.42992Q26.8 190.92992 25.846874 190.92992Q24.6125 190.92992 23.89375 190.03929Q23.05 188.97679 23.05 186.55492ZM24.128124 186.55492Q24.128124 188.66429 24.628124 189.36742Q25.128124 190.07054 25.846874 190.07054Q26.58125 190.07054 27.065624 189.36742Q27.565624 188.66429 27.565624 186.55492Q27.565624 184.42992 27.065624 183.74242Q26.58125 183.03929 25.83125 183.03929Q25.1125 183.03929 24.675 183.64867Q24.128124 184.42992 24.128124 186.55492ZM30.64375 190.78929L30.64375 189.58617L31.846874 189.58617L31.846874 190.78929L30.64375 190.78929ZM33.05 188.52367L34.1125 188.38304Q34.284374 189.27367 34.721874 189.67992Q35.159374 190.07054 35.784374 190.07054Q36.534374 190.07054 37.05 189.55492Q37.565624 189.03929 37.565624 188.27367Q37.565624 187.55492 37.08125 187.08617Q36.6125 186.60179 35.878124 186.60179Q35.58125 186.60179 35.128124 186.72679L35.253124 185.78929Q35.3625 185.80492 35.425 185.80492Q36.096874 185.80492 36.628124 185.46117Q37.175 185.10179 37.175 184.36742Q37.175 183.78929 36.784374 183.41429Q36.39375 183.02367 35.76875 183.02367Q35.159374 183.02367 34.7375 183.41429Q34.33125 183.80492 34.221874 184.57054L33.159374 184.38304Q33.346874 183.33617 34.034374 182.75804Q34.721874 182.16429 35.7375 182.16429Q36.440624 182.16429 37.034374 182.47679Q37.628124 182.77367 37.940624 183.28929Q38.253124 183.80492 38.253124 184.39867Q38.253124 184.94554 37.95625 185.41429Q37.659374 185.86742 37.08125 186.13304Q37.83125 186.30492 38.253124 186.86742Q38.675 187.41429 38.675 188.25804Q38.675 189.38304 37.846874 190.16429Q37.034374 190.94554 35.784374 190.94554Q34.659374 190.94554 33.909374 190.27367Q33.159374 189.58617 33.05 188.52367Z" fill-rule="nonzero"/><path fill="#000000" d="M23.05 148.668Q23.05 147.13675 23.3625 146.21487Q23.675 145.27737 24.284374 144.77737Q24.909374 144.27737 25.846874 144.27737Q26.534374 144.27737 27.05 144.55862Q27.58125 144.83987 27.925 145.37112Q28.26875 145.88675 28.45625 146.63675Q28.64375 147.38675 28.64375 148.668Q28.64375 150.18362 28.33125 151.1055Q28.034374 152.02737 27.409374 152.543Q26.8 153.043 25.846874 153.043Q24.6125 153.043 23.89375 152.15237Q23.05 151.08987 23.05 148.668ZM24.128124 148.668Q24.128124 150.77737 24.628124 151.4805Q25.128124 152.18362 25.846874 152.18362Q26.58125 152.18362 27.065624 151.4805Q27.565624 150.77737 27.565624 148.668Q27.565624 146.543 27.065624 145.8555Q26.58125 145.15237 25.83125 145.15237Q25.1125 145.15237 24.675 145.76175Q24.128124 146.543 24.128124 148.668ZM30.64375 152.90237L30.64375 151.69925L31.846874 151.69925L31.846874 152.90237L30.64375 152.90237ZM36.425 152.90237L36.425 150.83987L32.70625 150.83987L32.70625 149.87112L36.628124 144.30862L37.4875 144.30862L37.4875 149.87112L38.64375 149.87112L38.64375 150.83987L37.4875 150.83987L37.4875 152.90237L36.425 152.90237ZM36.425 149.87112L36.425 146.01175L33.7375 149.87112L36.425 149.87112Z" fill-rule="nonzero"/><path fill="#000000" d="M23.05 110.7811Q23.05 109.24985 23.3625 108.32797Q23.675 107.39047 24.284374 106.89047Q24.909374 106.39047 25.846874 106.39047Q26.534374 106.39047 27.05 106.67172Q27.58125 106.95297 27.925 107.48422Q28.26875 107.99985 28.45625 108.74985Q28.64375 109.49985 28.64375 110.7811Q28.64375 112.29672 28.33125 113.2186Q28.034374 114.14047 27.409374 114.6561Q26.8 115.1561 25.846874 115.1561Q24.6125 115.1561 23.89375 114.26547Q23.05 113.20297 23.05 110.7811ZM24.128124 110.7811Q24.128124 112.89047 24.628124 113.5936Q25.128124 114.29672 25.846874 114.29672Q26.58125 114.29672 27.065624 113.5936Q27.565624 112.89047 27.565624 110.7811Q27.565624 108.6561 27.065624 107.9686Q26.58125 107.26547 25.83125 107.26547Q25.1125 107.26547 24.675 107.87485Q24.128124 108.6561 24.128124 110.7811ZM30.64375 115.01547L30.64375 113.81235L31.846874 113.81235L31.846874 115.01547L30.64375 115.01547ZM33.05 112.76547L34.159374 112.67172Q34.284374 113.48422 34.721874 113.89047Q35.175 114.29672 35.815624 114.29672Q36.565624 114.29672 37.096874 113.7186Q37.628124 113.14047 37.628124 112.20297Q37.628124 111.29672 37.1125 110.7811Q36.6125 110.24985 35.784374 110.24985Q35.284374 110.24985 34.8625 110.48422Q34.45625 110.7186 34.221874 111.07797L33.2375 110.95297L34.065624 106.54672L38.346874 106.54672L38.346874 107.54672L34.909374 107.54672L34.45625 109.85922Q35.221874 109.31235 36.065624 109.31235Q37.190624 109.31235 37.95625 110.0936Q38.7375 110.87485 38.7375 112.10922Q38.7375 113.26547 38.065624 114.12485Q37.2375 115.1561 35.815624 115.1561Q34.64375 115.1561 33.89375 114.49985Q33.159374 113.8436 33.05 112.76547Z" fill-rule="nonzero"/><path fill="#000000" d="M42.55 313.21564Q42.55 311.6844 42.8625 310.7625Q43.175 309.825 43.784374 309.325Q44.409374 308.825 45.346874 308.825Q46.034374 308.825 46.55 309.10626Q47.08125 309.3875 47.425 309.91876Q47.76875 310.4344 47.95625 311.1844Q48.14375 311.9344 48.14375 313.21564Q48.14375 314.73126 47.83125 315.65314Q47.534374 316.575 46.909374 317.09064Q46.3 317.59064 45.346874 317.59064Q44.1125 317.59064 43.39375 316.7Q42.55 315.6375 42.55 313.21564ZM43.628124 313.21564Q43.628124 315.325 44.128124 316.02814Q44.628124 316.73126 45.346874 316.73126Q46.08125 316.73126 46.565624 316.02814Q47.065624 315.325 47.065624 313.21564Q47.065624 311.09064 46.565624 310.40314Q46.08125 309.7 45.33125 309.7Q44.6125 309.7 44.175 310.3094Q43.628124 311.09064 43.628124 313.21564Z" fill-rule="nonzero"/><path fill="#000000" d="M150.19875 317.45L149.15187 317.45L149.15187 310.73126Q148.76125 311.09064 148.13625 311.46564Q147.52687 311.825 147.0425 311.9969L147.0425 310.98126Q147.9175 310.5594 148.57375 309.98126Q149.24562 309.3875 149.52687 308.825L150.19875 308.825L150.19875 317.45ZM153.23 313.21564Q153.23 311.6844 153.5425 310.7625Q153.855 309.825 154.46437 309.325Q155.08937 308.825 156.02687 308.825Q156.71437 308.825 157.23 309.10626Q157.76125 309.3875 158.105 309.91876Q158.44875 310.4344 158.63625 311.1844Q158.82375 311.9344 158.82375 313.21564Q158.82375 314.73126 158.51125 315.65314Q158.21437 316.575 157.58937 317.09064Q156.98 317.59064 156.02687 317.59064Q154.7925 317.59064 154.07375 316.7Q153.23 315.6375 153.23 313.21564ZM154.30812 313.21564Q154.30812 315.325 154.80812 316.02814Q155.30812 316.73126 156.02687 316.73126Q156.76125 316.73126 157.24562 316.02814Q157.74562 315.325 157.74562 313.21564Q157.74562 311.09064 157.24562 310.40314Q156.76125 309.7 156.01125 309.7Q155.2925 309.7 154.855 310.3094Q154.30812 311.09064 154.30812 313.21564Z" fill-rule="nonzero"/><path fill="#000000" d="M258.95688 316.4344L258.95688 317.45L253.26938 317.45Q253.26938 317.075 253.39438 316.71564Q253.61313 316.1375 254.08188 315.575Q254.56625 315.0125 255.4725 314.27814Q256.87875 313.1219 257.36313 312.45Q257.86313 311.77814 257.86313 311.1844Q257.86313 310.5594 257.41 310.1375Q256.95688 309.7 256.23813 309.7Q255.4725 309.7 255.01938 310.15314Q254.56625 310.60626 254.55063 311.41876L253.4725 311.3094Q253.58188 310.09064 254.30063 309.46564Q255.035 308.825 256.26938 308.825Q257.50375 308.825 258.2225 309.5125Q258.94125 310.2 258.94125 311.21564Q258.94125 311.73126 258.7225 312.23126Q258.51938 312.71564 258.01938 313.27814Q257.535 313.825 256.41 314.77814Q255.45688 315.575 255.17563 315.8719Q254.91 316.15314 254.73813 316.4344L258.95688 316.4344ZM260.41 313.21564Q260.41 311.6844 260.7225 310.7625Q261.035 309.825 261.64438 309.325Q262.26938 308.825 263.20688 308.825Q263.89438 308.825 264.41 309.10626Q264.94125 309.3875 265.285 309.91876Q265.62875 310.4344 265.81625 311.1844Q266.00375 311.9344 266.00375 313.21564Q266.00375 314.73126 265.69125 315.65314Q265.39438 316.575 264.76938 317.09064Q264.16 317.59064 263.20688 317.59064Q261.9725 317.59064 261.25375 316.7Q260.41 315.6375 260.41 313.21564ZM261.48813 313.21564Q261.48813 315.325 261.98813 316.02814Q262.48813 316.73126 263.20688 316.73126Q263.94125 316.73126 264.42563 316.02814Q264.92563 315.325 264.92563 313.21564Q264.92563 311.09064 264.42563 310.40314Q263.94125 309.7 263.19125 309.7Q262.4725 309.7 262.035 310.3094Q261.48813 311.09064 261.48813 313.21564Z" fill-rule="nonzero"/><path fill="#000000" d="M360.59 315.1844L361.6525 315.04376Q361.82437 315.9344 362.26187 316.34064Q362.69937 316.73126 363.32437 316.73126Q364.07437 316.73126 364.59 316.21564Q365.10562 315.7 365.10562 314.9344Q365.10562 314.21564 364.62125 313.7469Q364.1525 313.2625 363.41812 313.2625Q363.12125 313.2625 362.66812 313.3875L362.79312 312.45Q362.9025 312.46564 362.965 312.46564Q363.63687 312.46564 364.16812 312.1219Q364.715 311.7625 364.715 311.02814Q364.715 310.45 364.32437 310.075Q363.93375 309.6844 363.30875 309.6844Q362.69937 309.6844 362.2775 310.075Q361.87125 310.46564 361.76187 311.23126L360.69937 311.04376Q360.88687 309.9969 361.57437 309.41876Q362.26187 308.825 363.2775 308.825Q363.98062 308.825 364.57437 309.1375Q365.16812 309.4344 365.48062 309.95Q365.79312 310.46564 365.79312 311.0594Q365.79312 311.60626 365.49625 312.075Q365.19937 312.52814 364.62125 312.79376Q365.37125 312.96564 365.79312 313.52814Q366.215 314.075 366.215 314.91876Q366.215 316.04376 365.38687 316.825Q364.57437 317.60626 363.32437 317.60626Q362.19937 317.60626 361.44937 316.9344Q360.69937 316.2469 360.59 315.1844ZM367.59 313.21564Q367.59 311.6844 367.9025 310.7625Q368.215 309.825 368.82437 309.325Q369.44937 308.825 370.38687 308.825Q371.07437 308.825 371.59 309.10626Q372.12125 309.3875 372.465 309.91876Q372.80875 310.4344 372.99625 311.1844Q373.18375 311.9344 373.18375 313.21564Q373.18375 314.73126 372.87125 315.65314Q372.57437 316.575 371.94937 317.09064Q371.34 317.59064 370.38687 317.59064Q369.1525 317.59064 368.43375 316.7Q367.59 315.6375 367.59 313.21564ZM368.66812 313.21564Q368.66812 315.325 369.16812 316.02814Q369.66812 316.73126 370.38687 316.73126Q371.12125 316.73126 371.60562 316.02814Q372.10562 315.325 372.10562 313.21564Q372.10562 311.09064 371.60562 310.40314Q371.12125 309.7 370.37125 309.7Q369.6525 309.7 369.215 310.3094Q368.66812 311.09064 368.66812 313.21564Z" fill-rule="nonzero"/><path fill="#000000" d="M471.145 317.45L471.145 315.3875L467.42624 315.3875L467.42624 314.41876L471.3481 308.85626L472.2075 308.85626L472.2075 314.41876L473.36374 314.41876L473.36374 315.3875L472.2075 315.3875L472.2075 317.45L471.145 317.45ZM471.145 314.41876L471.145 310.5594L468.4575 314.41876L471.145 314.41876ZM474.77 313.21564Q474.77 311.6844 475.0825 310.7625Q475.395 309.825 476.00436 309.325Q476.62936 308.825 477.56686 308.825Q478.25436 308.825 478.77 309.10626Q479.30124 309.3875 479.645 309.91876Q479.98874 310.4344 480.17624 311.1844Q480.36374 311.9344 480.36374 313.21564Q480.36374 314.73126 480.05124 315.65314Q479.75436 316.575 479.12936 317.09064Q478.52 317.59064 477.56686 317.59064Q476.3325 317.59064 475.61374 316.7Q474.77 315.6375 474.77 313.21564ZM475.8481 313.21564Q475.8481 315.325 476.3481 316.02814Q476.8481 316.73126 477.56686 316.73126Q478.30124 316.73126 478.7856 316.02814Q479.2856 315.325 479.2856 313.21564Q479.2856 311.09064 478.7856 310.40314Q478.30124 309.7 477.55124 309.7Q476.8325 309.7 476.395 310.3094Q475.8481 311.09064 475.8481 313.21564Z" fill-rule="nonzero"/><path fill="#000000" d="M574.95 315.2L576.0594 315.10626Q576.1844 315.91876 576.6219 316.325Q577.075 316.73126 577.71564 316.73126Q578.46564 316.73126 578.9969 316.15314Q579.52814 315.575 579.52814 314.6375Q579.52814 313.73126 579.0125 313.21564Q578.5125 312.6844 577.6844 312.6844Q577.1844 312.6844 576.7625 312.91876Q576.35626 313.15314 576.1219 313.5125L575.1375 313.3875L575.96564 308.98126L580.2469 308.98126L580.2469 309.98126L576.8094 309.98126L576.35626 312.29376Q577.1219 311.7469 577.96564 311.7469Q579.09064 311.7469 579.85626 312.52814Q580.6375 313.3094 580.6375 314.54376Q580.6375 315.7 579.96564 316.5594Q579.1375 317.59064 577.71564 317.59064Q576.54376 317.59064 575.79376 316.9344Q575.0594 316.27814 574.95 315.2ZM581.95 313.21564Q581.95 311.6844 582.2625 310.7625Q582.575 309.825 583.1844 309.325Q583.8094 308.825 584.7469 308.825Q585.4344 308.825 585.95 309.10626Q586.48126 309.3875 586.825 309.91876Q587.16876 310.4344 587.35626 311.1844Q587.54376 311.9344 587.54376 313.21564Q587.54376 314.73126 587.23126 315.65314Q586.9344 316.575 586.3094 317.09064Q585.7 317.59064 584.7469 317.59064Q583.5125 317.59064 582.79376 316.7Q581.95 315.6375 581.95 313.21564ZM583.02814 313.21564Q583.02814 315.325 583.52814 316.02814Q584.02814 316.73126 584.7469 316.73126Q585.48126 316.73126 585.96564 316.02814Q586.46564 315.325 586.46564 313.21564Q586.46564 311.09064 585.96564 310.40314Q585.48126 309.7 584.73126 309.7Q584.0125 309.7 583.575 310.3094Q583.02814 311.09064 583.02814 313.21564Z" fill-rule="nonzero"/><path stroke="#4285f4" stroke-width="4.0" stroke-linecap="butt" d="M231.5 61.916668L243.5 61.916668" fill-rule="nonzero"/><path fill="#1a1a1a" d="M254.45312 60.541664L254.45312 65.916664L253.40625 65.916664L253.40625 60.541664L251.76562 60.541664L251.76562 59.697914L259.51562 59.697914L259.51562 60.541664L258.10938 60.541664L258.10938 65.916664L257.04688 65.916664L257.04688 60.541664L254.45312 60.541664ZM263.96875 65.916664L262.92188 65.916664L262.92188 59.197914Q262.53125 59.55729 261.90625 59.93229Q261.29688 60.291664 260.8125 60.46354L260.8125 59.447914Q261.6875 59.02604 262.34375 58.447914Q263.01562 57.854164 263.29688 57.291664L263.96875 57.291664L263.96875 65.916664Z" fill-rule="nonzero"/><path stroke="#ea4335" stroke-width="4.0" stroke-linecap="butt" d="M282.5 61.916668L294.5 61.916668" fill-rule="nonzero"/><path fill="#1a1a1a" d="M305.45312 60.541664L305.45312 65.916664L304.40625 65.916664L304.40625 60.541664L302.76562 60.541664L302.76562 59.697914L310.51562 59.697914L310.51562 60.541664L309.10938 60.541664L309.10938 65.916664L308.04688 65.916664L308.04688 60.541664L305.45312 60.541664ZM316.54688 64.90104L316.54688 65.916664L310.85938 65.916664Q310.85938 65.541664 310.98438 65.18229Q311.20312 64.604164 311.67188 64.041664Q312.15625 63.479164 313.0625 62.74479Q314.46875 61.58854 314.95312 60.916664Q315.45312 60.24479 315.45312 59.65104Q315.45312 59.02604 315.0 58.604164Q314.54688 58.166664 313.82812 58.166664Q313.0625 58.166664 312.60938 58.61979Q312.15625 59.072914 312.14062 59.885414L311.0625 59.77604Q311.17188 58.55729 311.89062 57.93229Q312.625 57.291664 313.85938 57.291664Q315.09375 57.291664 315.8125 57.979164Q316.53125 58.666664 316.53125 59.68229Q316.53125 60.197914 316.3125 60.697914Q316.10938 61.18229 315.60938 61.74479Q315.125 62.291664 314.0 63.24479Q313.04688 64.041664 312.76562 64.33854Q312.5 64.61979 312.32812 64.90104L316.54688 64.90104Z" fill-rule="nonzero"/><path stroke="#fbbc04" stroke-width="4.0" stroke-linecap="butt" d="M333.5 61.916668L345.5 61.916668" fill-rule="nonzero"/><path fill="#1a1a1a" d="M356.45312 60.541664L356.45312 65.916664L355.40625 65.916664L355.40625 60.541664L353.76562 60.541664L353.76562 59.697914L361.51562 59.697914L361.51562 60.541664L360.10938 60.541664L360.10938 65.916664L359.04688 65.916664L359.04688 60.541664L356.45312 60.541664ZM362.0 63.65104L363.0625 63.510414Q363.23438 64.40104 363.67188 64.80729Q364.10938 65.197914 364.73438 65.197914Q365.48438 65.197914 366.0 64.68229Q366.51562 64.166664 366.51562 63.40104Q366.51562 62.68229 366.03125 62.21354Q365.5625 61.729164 364.82812 61.729164Q364.53125 61.729164 364.07812 61.854164L364.20312 60.916664Q364.3125 60.93229 364.375 60.93229Q365.04688 60.93229 365.57812 60.58854Q366.125 60.229164 366.125 59.49479Q366.125 58.916664 365.73438 58.541664Q365.34375 58.15104 364.71875 58.15104Q364.10938 58.15104 363.6875 58.541664Q363.28125 58.93229 363.17188 59.697914L362.10938 59.510414Q362.29688 58.46354 362.98438 57.885414Q363.67188 57.291664 364.6875 57.291664Q365.39062 57.291664 365.98438 57.604164Q366.57812 57.90104 366.89062 58.416664Q367.20312 58.93229 367.20312 59.52604Q367.20312 60.072914 366.90625 60.541664Q366.60938 60.99479 366.03125 61.260414Q366.78125 61.43229 367.20312 61.99479Q367.625 62.541664 367.625 63.385414Q367.625 64.510414 366.79688 65.291664Q365.98438 66.072914 364.73438 66.072914Q363.60938 66.072914 362.85938 65.40104Q362.10938 64.71354 362.0 63.65104Z" fill-rule="nonzero"/><path fill="#757575" d="M35.1125 25.753124Q34.175 25.753124 33.55 25.128124Q32.925 24.503124 32.925 23.565624Q32.925 22.628124 33.55 22.003124Q34.175 21.378124 35.1125 21.378124Q36.05 21.378124 36.675 22.003124Q37.3 22.628124 37.3 23.565624Q37.3 24.503124 36.675 25.128124Q36.05 25.753124 35.1125 25.753124ZM35.1125 24.971874Q35.7375 24.971874 36.128124 24.58125Q36.51875 24.190624 36.51875 23.565624Q36.51875 22.940624 36.128124 22.55Q35.7375 22.159374 35.1125 22.159374Q34.4875 22.159374 34.096874 22.55Q33.70625 22.940624 33.70625 23.565624Q33.70625 24.190624 34.096874 24.58125Q34.4875 24.971874 35.1125 24.971874ZM31.9875 25.3625Q35.89375 30.284374 37.534374 35.753124L35.425 36.45625Q33.471874 30.284374 30.346874 26.6125L31.9875 25.3625ZM26.05 27.159374Q26.675 27.55 25.89375 27.8625Q24.4875 32.784374 21.3625 36.846874L19.565624 35.675Q23.003124 31.534374 24.175 26.3L26.05 27.159374ZM42.846874 37.628124Q50.425 35.675 51.3625 29.425L39.4875 29.425L39.4875 27.70625L51.440624 27.70625L52.14375 27.471874L53.55 28.33125Q54.01875 28.721874 53.39375 29.034374Q52.14375 36.846874 44.253124 39.190624L42.846874 37.628124ZM51.675 24.971874L40.89375 24.971874L40.89375 23.253124L51.675 23.253124L51.675 24.971874ZM55.4875 36.221874Q60.253124 33.64375 62.3625 30.3625Q60.175 29.034374 58.534374 28.33125L59.471874 26.6125Q61.190624 27.39375 63.378124 28.64375Q64.47188 26.378124 65.25313 22.55L67.12813 23.175Q67.675 23.33125 67.05 23.64375Q66.03438 27.55 64.94063 29.659374Q66.81563 30.909374 67.9875 31.846874L66.97188 33.64375Q65.40938 32.315624 64.00313 31.378124Q61.1125 35.284374 57.128124 37.70625L55.4875 36.221874ZM69.4875 31.14375L69.4875 29.425L86.90938 29.425L86.90938 31.14375L69.4875 31.14375ZM95.20625 23.01875Q94.89375 23.95625 94.425 24.815624L99.65938 24.815624L100.51875 24.503124L101.53438 25.51875Q101.84688 25.909374 101.22188 26.14375Q100.59688 29.26875 99.34688 31.846874L101.22188 33.096874L100.05 34.815624L98.33125 33.565624Q96.06563 36.846874 91.84688 38.95625L90.05 37.628124Q94.7375 35.675 96.76875 32.471874Q94.81563 31.221874 92.94063 30.20625L93.87813 28.8Q96.3 29.89375 97.8625 30.83125Q99.03438 28.409374 99.26875 26.534374L93.56563 26.534374Q92.08125 29.190624 89.89375 31.378124L88.40938 30.3625Q92.39375 26.221874 93.64375 21.6125L95.51875 22.39375Q96.14375 22.70625 95.20625 23.01875Z" fill-rule="nonzero"/><path fill="#757575" d="M107.4875 28.596874L107.4875 37.55L105.72188 37.55L105.72188 28.596874L102.9875 28.596874L102.9875 27.175L115.925 27.175L115.925 28.596874L113.55 28.596874L113.55 37.55L111.8 37.55L111.8 28.596874L107.4875 28.596874ZM117.87813 25.253124L117.87813 23.2375L119.64375 23.2375L119.64375 25.253124L117.87813 25.253124ZM117.87813 37.55L117.87813 27.175L119.64375 27.175L119.64375 37.55L117.87813 37.55Z" fill-rule="nonzero"/><path fill="#757575" d="M131.33125 26.534374Q130.00313 34.346874 128.12813 36.221874Q127.1125 37.2375 126.01875 37.2375Q124.76875 37.2375 124.06563 36.534374Q122.19063 34.659374 122.19063 31.846874Q122.19063 28.409374 124.6125 25.9875Q127.26875 23.33125 131.09688 23.33125Q134.53438 23.33125 136.4875 25.284374Q138.675 27.471874 138.675 30.440624Q138.675 33.64375 136.64375 35.675Q135.31563 37.003124 132.58125 38.253124L130.94063 36.6125Q133.675 35.753124 135.2375 34.190624Q136.72188 32.70625 136.72188 30.596874Q136.72188 28.096874 135.08125 26.45625Q133.44063 24.815624 129.925 24.971874L131.33125 25.675Q132.26875 26.065624 131.33125 26.534374ZM129.53438 25.05Q127.50313 25.51875 126.01875 27.003124Q123.9875 29.034374 123.9875 32.003124Q123.9875 33.8 125.15938 34.971874Q125.39375 35.20625 125.8625 35.20625Q126.33125 35.20625 126.87813 34.659374Q128.675 32.8625 129.53438 25.05ZM147.1125 28.175Q149.69063 25.753124 151.09688 21.14375L152.65938 21.6125Q153.05 21.925 152.50313 22.003124Q151.87813 23.565624 151.25313 24.89375L153.59688 24.89375Q154.45625 23.096874 154.925 21.690624L156.40938 22.2375Q156.72188 22.55 156.175 22.628124Q155.62813 23.878124 155.08125 24.89375L159.06563 24.89375L159.06563 26.378124L155.08125 26.378124L155.08125 28.8L158.28438 28.8L158.28438 30.284374L155.08125 30.284374L155.08125 32.784374L158.28438 32.784374L158.28438 34.26875L155.08125 34.26875L155.08125 37.159374L159.53438 37.159374L159.53438 38.64375L150.94063 38.64375L150.94063 39.346874L149.37813 39.346874L149.37813 28.01875Q148.83125 28.8 148.20625 29.425L147.1125 28.175ZM143.20625 39.190624L142.89375 37.70625L144.22188 37.70625Q144.53438 37.70625 144.53438 37.39375L144.53438 32.55L142.50313 33.01875Q142.425 33.565624 142.1125 33.253124L141.8 31.45625L144.53438 30.909374L144.53438 26.76875L142.1125 26.76875L142.1125 25.284374L144.53438 25.284374L144.53438 21.3L146.01875 21.3Q146.64375 21.378124 146.09688 21.76875L146.09688 25.284374L148.12813 25.284374L148.12813 26.76875L146.09688 26.76875L146.09688 30.596874L148.12813 30.05L148.3625 31.45625L146.09688 32.159374L146.09688 37.940624Q146.09688 39.190624 144.84688 39.190624L143.20625 39.190624ZM150.94063 37.159374L153.51875 37.159374L153.51875 34.26875L150.94063 34.26875L150.94063 37.159374ZM150.94063 32.784374L153.51875 32.784374L153.51875 30.284374L150.94063 30.284374L150.94063 32.784374ZM150.94063 28.8L153.51875 28.8L153.51875 26.378124L150.94063 26.378124L150.94063 28.8ZM161.87813 37.940624Q165.70625 35.596874 165.62813 30.440624L167.425 30.753124Q167.65938 30.9875 167.26875 31.221874L166.87813 34.034374Q168.05 35.440624 169.925 36.45625L169.925 28.878124L164.6125 28.878124L164.6125 27.39375L176.40938 27.39375L176.40938 28.878124L171.4875 28.878124L171.4875 31.76875L176.95625 31.76875L176.95625 33.253124L171.4875 33.253124L171.4875 37.003124Q172.65938 37.315624 173.83125 37.315624L178.9875 37.315624L178.675 38.8L173.83125 38.8Q169.3 38.8 166.40938 35.51875Q165.2375 38.096874 163.12813 39.425L161.87813 37.940624ZM171.40938 23.64375L178.59688 23.64375L178.59688 27.784374L177.03438 27.784374L177.03438 25.128124L164.06563 25.128124L164.06563 27.940624L162.50313 27.940624L162.50313 23.64375L169.6125 23.64375L169.6125 21.378124L171.33125 21.378124Q172.1125 21.534374 171.40938 22.003124L171.40938 23.64375ZM191.25313 26.925L196.4875 26.925L196.4875 28.409374L191.25313 28.409374L191.25313 29.58125L197.03438 29.58125L197.03438 31.065624L191.25313 31.065624L191.25313 32.315624L199.3 32.315624L199.3 33.8L191.72188 33.8Q193.44063 36.14375 199.3 37.39375L198.75313 39.190624Q192.58125 37.70625 190.70625 34.503124Q188.83125 38.4875 182.50313 39.425L181.87813 37.784374Q187.7375 36.925 189.22188 33.8L181.8 33.8L181.8 32.315624L189.69063 32.315624L189.69063 31.065624L184.14375 31.065624L184.14375 29.58125L189.69063 29.58125L189.69063 28.409374L184.53438 28.409374L184.53438 26.925L189.69063 26.925L189.69063 25.3625L191.175 25.3625Q191.8 25.440624 191.25313 25.83125L191.25313 26.925ZM182.26875 23.253124L189.69063 23.253124L189.69063 21.45625L191.40938 21.45625Q192.19063 21.6125 191.4875 22.08125L191.4875 23.253124L198.83125 23.253124L198.83125 27.471874L197.26875 27.471874L197.26875 24.7375L183.83125 24.7375L183.83125 27.471874L182.26875 27.471874L182.26875 23.253124ZM217.03438 27.159374L214.925 27.159374L214.925 28.64375L218.51875 28.64375L218.51875 33.8L217.19063 33.8L217.19063 33.175L215.08125 33.175Q216.4875 35.9875 219.69063 37.55L218.75313 39.034374Q215.62813 37.2375 214.53438 34.7375Q213.44063 37.940624 209.84688 39.26875L209.14375 37.8625Q212.97188 36.45625 213.51875 33.175L211.40938 33.175L211.40938 34.034374L210.08125 34.034374L210.08125 28.64375L213.59688 28.64375L213.59688 27.159374L211.4875 27.159374L211.4875 26.065624Q210.70625 27.003124 209.53438 27.628124L208.675 26.3Q211.40938 24.815624 213.12813 21.378124L214.76875 21.6125Q215.00313 21.925 214.6125 22.003124Q216.4875 24.425 219.69063 25.83125L218.90938 27.2375Q218.05 26.925 217.03438 26.14375L217.03438 27.159374ZM206.40938 36.3Q206.09688 34.815624 205.78438 33.8L206.64375 33.64375Q207.1125 34.659374 207.34688 35.9875L206.40938 36.3ZM201.25313 37.471874Q201.87813 35.20625 201.87813 33.721874L202.89375 33.878124Q202.7375 36.378124 202.34688 37.8625L201.25313 37.471874ZM203.3625 37.08125Q203.3625 35.440624 203.20625 33.878124L204.06563 33.8Q204.3 35.284374 204.3 36.925L203.3625 37.08125ZM205.08125 37.70625L206.8 37.70625Q207.26875 37.70625 207.425 37.2375Q207.65938 36.6125 207.65938 35.753124L207.7375 32.70625L202.26875 32.70625L202.26875 22.159374L209.14375 22.159374L209.14375 23.409374L206.64375 23.409374L206.64375 25.128124L208.51875 25.128124L208.51875 26.378124L206.64375 26.378124L206.64375 28.253124L208.675 28.253124L208.675 29.503124L206.64375 29.503124L206.64375 31.45625L209.14375 31.45625L208.9875 35.909374Q208.90938 37.70625 208.59688 38.33125Q208.20625 39.190624 207.26875 39.190624L205.2375 39.190624L205.08125 37.70625ZM214.925 29.89375L214.925 31.925L217.19063 31.925L217.19063 29.89375L214.925 29.89375ZM213.59688 29.89375L211.40938 29.89375L211.40938 31.925L213.59688 31.925L213.59688 29.89375ZM205.39375 33.8Q205.94063 35.284374 205.94063 36.534374L205.00313 36.76875Q204.84688 34.971874 204.53438 33.878124L205.39375 33.8ZM205.31563 29.503124L203.59688 29.503124L203.59688 31.45625L205.31563 31.45625L205.31563 29.503124ZM205.31563 26.378124L203.59688 26.378124L203.59688 28.253124L205.31563 28.253124L205.31563 26.378124ZM205.31563 23.409374L203.59688 23.409374L203.59688 25.128124L205.31563 25.128124L205.31563 23.409374ZM216.64375 25.909374Q215.08125 24.815624 213.83125 23.01875Q212.89375 24.7375 211.64375 25.909374L216.64375 25.909374Z" fill-rule="nonzero"/></svg>